<svg width="21" height="20" viewBox="0 0 21 20" fill="none" xmlns="http://www.w3.org/2000/svg">
<path d="M1.77075 1.25C1.25122 1.25 0.833252 1.66797 0.833252 2.1875V17.8125C0.833252 18.332 1.25122 18.75 1.77075 18.75H2.39575C2.91528 18.75 3.33325 18.332 3.33325 17.8125V2.1875C3.33325 1.66797 2.91528 1.25 2.39575 1.25H1.77075ZM5.20825 1.25C4.8645 1.25 4.58325 1.53125 4.58325 1.875V18.125C4.58325 18.4688 4.8645 18.75 5.20825 18.75C5.552 18.75 5.83325 18.4688 5.83325 18.125V1.875C5.83325 1.53125 5.552 1.25 5.20825 1.25ZM8.02075 1.25C7.50122 1.25 7.08325 1.66797 7.08325 2.1875V17.8125C7.08325 18.332 7.50122 18.75 8.02075 18.75H8.64575C9.16528 18.75 9.58325 18.332 9.58325 17.8125V2.1875C9.58325 1.66797 9.16528 1.25 8.64575 1.25H8.02075ZM11.7708 1.25C11.2512 1.25 10.8333 1.66797 10.8333 2.1875V17.8125C10.8333 18.332 11.2512 18.75 11.7708 18.75H12.3958C12.9153 18.75 13.3333 18.332 13.3333 17.8125V2.1875C13.3333 1.66797 12.9153 1.25 12.3958 1.25H11.7708ZM18.3333 2.1875V17.8125C18.3333 18.332 18.7512 18.75 19.2708 18.75H19.8958C20.4153 18.75 20.8333 18.332 20.8333 17.8125V2.1875C20.8333 1.66797 20.4153 1.25 19.8958 1.25H19.2708C18.7512 1.25 18.3333 1.66797 18.3333 2.1875ZM15.8333 1.875V18.125C15.8333 18.4688 16.1145 18.75 16.4583 18.75C16.802 18.75 17.0833 18.4688 17.0833 18.125V1.875C17.0833 1.53125 16.802 1.25 16.4583 1.25C16.1145 1.25 15.8333 1.53125 15.8333 1.875Z" fill="#5CB8B2"/>
</svg>
