<svg width="24" height="26" viewBox="0 0 24 26" fill="none" xmlns="http://www.w3.org/2000/svg">
<path d="M20.9268 24.4927H2.70747C1.9894 24.4927 1.30077 24.2074 0.793017 23.6997C0.285267 23.192 0 22.5033 0 21.7852C0 21.0672 0.285267 20.3785 0.793017 19.8708C1.30077 19.363 1.9894 19.0778 2.70747 19.0778H2.91608C3.07479 19.0778 3.227 19.1408 3.33923 19.253C3.45145 19.3652 3.51448 19.5175 3.51448 19.6762C3.51448 19.8349 3.45145 19.9871 3.33923 20.0993C3.227 20.2115 3.07479 20.2746 2.91608 20.2746H2.70747C2.50588 20.2695 2.30534 20.3048 2.11761 20.3784C1.92988 20.4521 1.75878 20.5625 1.6144 20.7033C1.47002 20.8441 1.35526 21.0123 1.27692 21.1981C1.19858 21.384 1.15822 21.5836 1.15822 21.7852C1.15822 21.9869 1.19858 22.1865 1.27692 22.3723C1.35526 22.5581 1.47002 22.7264 1.6144 22.8672C1.75878 23.0079 1.92988 23.1184 2.11761 23.192C2.30534 23.2657 2.50588 23.301 2.70747 23.2959H20.922C21.316 23.286 21.6906 23.1224 21.9658 22.8402C22.241 22.558 22.395 22.1794 22.395 21.7852C22.395 21.391 22.241 21.0125 21.9658 20.7302C21.6906 20.448 21.316 20.2845 20.922 20.2746H20.6663C20.5076 20.2746 20.3554 20.2115 20.2432 20.0993C20.1309 19.9871 20.0679 19.8349 20.0679 19.6762C20.0679 19.5175 20.1309 19.3652 20.2432 19.253C20.3554 19.1408 20.5076 19.0778 20.6663 19.0778H20.922C21.6312 19.0911 22.3069 19.3822 22.8038 19.8885C23.3006 20.3948 23.5789 21.0759 23.5789 21.7852C23.5789 22.4946 23.3006 23.1756 22.8038 23.6819C22.3069 24.1882 21.6312 24.4793 20.922 24.4927H20.9268Z" fill="white"/>
<path d="M20.6721 20.2736C20.5935 20.2737 20.5156 20.2584 20.4429 20.2284C20.3703 20.1984 20.3043 20.1543 20.2486 20.0988C20.193 20.0433 20.1489 19.9773 20.1188 19.9047C20.0887 19.8321 20.0732 19.7543 20.0732 19.6757V12.7025C20.0732 10.5074 19.2012 8.40215 17.649 6.84997C16.0968 5.29779 13.9916 4.42578 11.7965 4.42578C9.60135 4.42578 7.49613 5.29779 5.94395 6.84997C4.39176 8.40215 3.51975 10.5074 3.51975 12.7025V19.6766C3.51975 19.8352 3.45677 19.9873 3.34464 20.0994C3.23251 20.2116 3.08042 20.2746 2.92184 20.2746C2.76327 20.2746 2.61118 20.2116 2.49905 20.0994C2.38692 19.9873 2.32391 19.8352 2.32391 19.6766V12.7025C2.32391 10.1901 3.32197 7.78058 5.09851 6.00404C6.87504 4.2275 9.28453 3.22945 11.7969 3.22945C14.3093 3.22945 16.7189 4.2275 18.4954 6.00404C20.2719 7.78058 21.27 10.1901 21.27 12.7025V19.6766C21.27 19.7551 21.2545 19.8328 21.2244 19.9053C21.1944 19.9778 21.1503 20.0436 21.0948 20.0991C21.0393 20.1545 20.9733 20.1985 20.9008 20.2284C20.8283 20.2584 20.7505 20.2737 20.6721 20.2736Z" fill="white"/>
<path d="M11.7965 4.42193C11.3592 4.42193 10.9317 4.29226 10.5681 4.04932C10.2045 3.80637 9.92114 3.46107 9.75379 3.05707C9.58645 2.65307 9.54269 2.20851 9.628 1.77963C9.71331 1.35074 9.92388 0.956788 10.2331 0.647579C10.5423 0.33837 10.9363 0.127795 11.3651 0.0424841C11.794 -0.0428265 12.2386 0.000957983 12.6426 0.168301C13.0466 0.335644 13.3919 0.619029 13.6348 0.982621C13.8778 1.34621 14.0074 1.77368 14.0074 2.21097C14.0057 2.79681 13.7722 3.35814 13.3579 3.7724C12.9436 4.18665 12.3823 4.42016 11.7965 4.42193ZM11.7965 1.18816C11.5949 1.18816 11.3979 1.24792 11.2304 1.35988C11.0628 1.47185 10.9322 1.63099 10.8551 1.81718C10.778 2.00337 10.7578 2.20825 10.7971 2.40591C10.8364 2.60357 10.9334 2.78514 11.0759 2.92764C11.2185 3.07015 11.4 3.16719 11.5977 3.20651C11.7954 3.24583 12.0002 3.22565 12.1864 3.14853C12.3726 3.0714 12.5317 2.9408 12.6437 2.77323C12.7557 2.60566 12.8154 2.40865 12.8154 2.20712C12.8152 1.93695 12.7077 1.67792 12.5167 1.48688C12.3257 1.29585 12.0666 1.18841 11.7965 1.18816V1.18816Z" fill="white"/>
<path d="M13.8949 23.8948C13.8949 24.4512 13.6739 24.9848 13.2805 25.3783C12.887 25.7718 12.3534 25.9928 11.7969 25.9928C11.2405 25.9928 10.7069 25.7718 10.3134 25.3783C9.91997 24.9848 9.69891 24.4512 9.69891 23.8948H13.8949Z" fill="white"/>
<path d="M17.4757 11.1164C17.3488 11.1164 17.2252 11.0762 17.1227 11.0013C17.0203 10.9265 16.9443 10.821 16.9057 10.7001C16.69 9.95156 16.2789 9.27394 15.7147 8.73686C15.1504 8.19979 14.4533 7.82264 13.695 7.64418C13.5399 7.61116 13.4042 7.51787 13.3178 7.38483C13.2315 7.25178 13.2015 7.08988 13.2345 6.93475C13.2676 6.77961 13.3608 6.64394 13.4939 6.55759C13.6269 6.47124 13.7888 6.44127 13.944 6.47429C14.9097 6.69419 15.7991 7.16809 16.5202 7.84698C17.2414 8.52587 17.7681 9.3851 18.0458 10.3358C18.0943 10.4866 18.081 10.6505 18.009 10.7915C17.9369 10.9326 17.8119 11.0394 17.6613 11.0885C17.6013 11.1076 17.5387 11.117 17.4757 11.1164V11.1164Z" fill="white"/>
</svg>
