<svg width="24" height="26" viewBox="0 0 24 26" fill="none" xmlns="http://www.w3.org/2000/svg">
<path d="M21.2949 24.5004H3.0756C2.35754 24.5004 1.6689 24.2151 1.16115 23.7074C0.653401 23.1996 0.368134 22.511 0.368134 21.7929C0.368134 21.0749 0.653401 20.3862 1.16115 19.8784C1.6689 19.3707 2.35754 19.0854 3.0756 19.0854H3.28421C3.44292 19.0854 3.59514 19.1485 3.70736 19.2607C3.81958 19.3729 3.88261 19.5251 3.88261 19.6839C3.88261 19.8426 3.81958 19.9948 3.70736 20.107C3.59514 20.2192 3.44292 20.2823 3.28421 20.2823H3.0756C2.87401 20.2772 2.67347 20.3125 2.48574 20.3861C2.29801 20.4597 2.12691 20.5702 1.98254 20.711C1.83816 20.8518 1.72339 21.02 1.64505 21.2058C1.56671 21.3917 1.52636 21.5913 1.52636 21.7929C1.52636 21.9946 1.56671 22.1942 1.64505 22.38C1.72339 22.5658 1.83816 22.7341 1.98254 22.8749C2.12691 23.0156 2.29801 23.1261 2.48574 23.1997C2.67347 23.2734 2.87401 23.3087 3.0756 23.3036H21.2901C21.6842 23.2936 22.0588 23.1301 22.334 22.8479C22.6091 22.5657 22.7632 22.1871 22.7632 21.7929C22.7632 21.3987 22.6091 21.0202 22.334 20.7379C22.0588 20.4557 21.6842 20.2922 21.2901 20.2823H21.0344C20.8757 20.2823 20.7235 20.2192 20.6113 20.107C20.4991 19.9948 20.436 19.8426 20.436 19.6839C20.436 19.5251 20.4991 19.3729 20.6113 19.2607C20.7235 19.1485 20.8757 19.0854 21.0344 19.0854H21.2901C21.9993 19.0988 22.675 19.3899 23.1719 19.8962C23.6687 20.4025 23.9471 21.0836 23.9471 21.7929C23.9471 22.5023 23.6687 23.1833 23.1719 23.6896C22.675 24.1959 21.9993 24.487 21.2901 24.5004H21.2949Z" fill="#5CB8B2"/>
<path d="M21.0402 20.2813C20.9616 20.2815 20.8837 20.2661 20.8111 20.2361C20.7384 20.2061 20.6724 20.1621 20.6168 20.1065C20.5612 20.051 20.517 19.9851 20.4869 19.9124C20.4568 19.8398 20.4413 19.762 20.4413 19.6834V12.7102C20.4413 10.5151 19.5693 8.40988 18.0171 6.8577C16.4649 5.30551 14.3597 4.43351 12.1646 4.43351C9.96948 4.43351 7.86426 5.30551 6.31208 6.8577C4.7599 8.40988 3.88788 10.5151 3.88788 12.7102V19.6844C3.88788 19.8429 3.8249 19.995 3.71277 20.1072C3.60064 20.2193 3.44856 20.2823 3.28998 20.2823C3.1314 20.2823 2.97932 20.2193 2.86718 20.1072C2.75505 19.995 2.69205 19.8429 2.69205 19.6844V12.7102C2.69205 10.1978 3.6901 7.78831 5.46664 6.01177C7.24318 4.23523 9.65267 3.23718 12.1651 3.23718C14.6775 3.23718 17.087 4.23523 18.8635 6.01177C20.6401 7.78831 21.6381 10.1978 21.6381 12.7102V19.6844C21.6381 19.7628 21.6226 19.8405 21.5926 19.913C21.5625 19.9855 21.5185 20.0514 21.4629 20.1068C21.4074 20.1623 21.3415 20.2062 21.2689 20.2362C21.1964 20.2661 21.1187 20.2815 21.0402 20.2813Z" fill="#5CB8B2"/>
<path d="M12.1646 4.42962C11.7273 4.42962 11.2999 4.29995 10.9363 4.05701C10.5727 3.81406 10.2893 3.46876 10.1219 3.06476C9.95458 2.66076 9.91082 2.2162 9.99613 1.78732C10.0814 1.35843 10.292 0.964478 10.6012 0.655269C10.9104 0.34606 11.3044 0.135485 11.7333 0.0501745C12.1622 -0.0351361 12.6067 0.00864841 13.0107 0.175991C13.4147 0.343334 13.76 0.626719 14.003 0.990311C14.2459 1.3539 14.3756 1.78137 14.3756 2.21866C14.3738 2.8045 14.1403 3.36583 13.726 3.78009C13.3118 4.19434 12.7504 4.42785 12.1646 4.42962ZM12.1646 1.19585C11.9631 1.19585 11.7661 1.25561 11.5985 1.36757C11.4309 1.47954 11.3003 1.63868 11.2232 1.82487C11.1461 2.01106 11.1259 2.21594 11.1652 2.4136C11.2045 2.61126 11.3016 2.79283 11.4441 2.93533C11.5866 3.07784 11.7682 3.17488 11.9658 3.2142C12.1635 3.25352 12.3684 3.23334 12.5545 3.15622C12.7407 3.07909 12.8999 2.94849 13.0118 2.78092C13.1238 2.61335 13.1836 2.41635 13.1836 2.21481C13.1833 1.94464 13.0759 1.68561 12.8848 1.49458C12.6938 1.30354 12.4348 1.1961 12.1646 1.19585Z" fill="#5CB8B2"/>
<path d="M14.2631 23.9025C14.2631 24.4589 14.0421 24.9925 13.6486 25.386C13.2552 25.7794 12.7215 26.0005 12.1651 26.0005C11.6087 26.0005 11.075 25.7794 10.6816 25.386C10.2881 24.9925 10.0671 24.4589 10.0671 23.9025H14.2631Z" fill="#5CB8B2"/>
<path d="M17.8439 11.124C17.717 11.1241 17.5934 11.0838 17.4909 11.009C17.3884 10.9342 17.3124 10.8287 17.2739 10.7078C17.0582 9.95925 16.6471 9.28162 16.0828 8.74455C15.5185 8.20748 14.8215 7.83033 14.0632 7.65186C13.908 7.61885 13.7723 7.52556 13.686 7.39251C13.5996 7.25947 13.5697 7.09757 13.6027 6.94243C13.6357 6.7873 13.729 6.65163 13.862 6.56527C13.9951 6.47892 14.157 6.44896 14.3121 6.48197C15.2778 6.70187 16.1672 7.17578 16.8884 7.85467C17.6095 8.53356 18.1362 9.39279 18.414 10.3435C18.4624 10.4943 18.4492 10.6582 18.3771 10.7992C18.3051 10.9403 18.18 11.0471 18.0294 11.0962C17.9695 11.1153 17.9068 11.1247 17.8439 11.124Z" fill="#5CB8B2"/>
</svg>
