<svg width="229" height="180" viewBox="0 0 229 180" fill="none" xmlns="http://www.w3.org/2000/svg">
<path d="M197.847 39.471L196.436 38.1536C164.712 7.77104 123.402 11.1821 101.594 15.9224C94.027 17.4871 86.6233 19.7595 79.481 22.7094C78.5707 23.1123 77.7916 23.7624 77.2322 24.5858C76.6728 25.4093 76.3555 26.373 76.3163 27.3677C76.2771 28.3624 76.5176 29.3482 77.0105 30.2131C77.5034 31.0779 78.2289 31.7873 79.1047 32.2606C82.5039 34.1073 84.3742 36.1657 84.6447 38.3771C85.1269 42.3293 81.2218 47.2578 79.034 49.3632C71.1145 54.9972 63.781 61.4125 57.144 68.5126C56.8616 67.5598 56.5324 66.6187 56.1912 65.7014C59.7553 63.6194 62.6018 59.8789 64.425 54.821C66.2482 49.8337 68.2713 39.1298 62.9312 34.3778C61.7826 33.3602 60.3465 32.7244 58.8211 32.5579C57.2957 32.3915 55.7562 32.7027 54.4152 33.4486C50.602 35.3965 47.2832 38.1884 44.7111 41.6118C41.1353 39.765 34.8776 37.5419 28.6316 40.0591C22.8563 42.3645 22.0917 46.7402 22.033 48.5046C21.8565 54.1506 27.1966 59.279 32.2427 61.655C35.6552 63.2296 39.4463 63.7969 43.1702 63.29C45.9738 67.7266 47.7167 72.7499 48.2633 77.9696C48.2778 78.3362 48.3371 78.6996 48.4397 79.0517C45.7549 82.6861 43.3448 86.5156 41.2293 90.5084C39.4245 87.4945 36.8238 85.0363 33.7131 83.4039C30.9318 82.0195 27.8219 81.4307 24.727 81.7027C21.6321 81.9746 18.6726 83.0966 16.1753 84.9448C9.52936 89.7557 4.17751 100.46 7.23573 107.046C7.7298 108.117 10.5528 113.339 18.1278 111.434C26.2909 109.434 31.1019 102.541 33.3484 98.3187C34.7858 102.201 35.4763 106.319 35.3834 110.458C35.3988 110.809 35.4421 111.16 35.5128 111.505C35.1423 117.248 35.6179 123.014 36.9242 128.619C39.6176 140.705 46.9674 151.241 57.3792 157.943L57.5439 158.037C67.0715 163.06 76.7168 164.553 86.1856 162.495C93.3955 160.839 100.078 157.411 105.629 152.52C112.97 158.006 121.165 162.247 129.883 165.071C129.966 165.094 138.458 167.929 153.408 167.8L153.843 167.847C153.985 167.859 154.126 167.87 154.267 167.87L154.479 167.882C159.103 167.82 163.709 167.296 168.229 166.318C200.529 159.296 223.819 129.572 223.595 95.6252C223.442 74.3703 213.585 52.8567 197.847 39.471ZM42.4878 51.1394C42.3408 51.998 42.27 52.8679 42.2762 53.7389L42.2644 54.6093L41.394 54.6681C41.0882 54.6799 40.7941 54.6917 40.5 54.6917C38.9462 54.7132 37.407 54.3877 35.9949 53.7389C34.0364 52.8482 32.3571 51.4413 31.1371 49.6691L30.6313 48.8105L31.5135 48.3635C31.646 48.2829 31.7883 48.2196 31.9369 48.1753C35.5834 46.705 39.8413 48.787 42.0645 50.1632L42.6056 50.5043L42.4878 51.1394ZM26.7499 91.7552C26.7263 91.8376 23.3974 100.859 16.3753 102.836L14.9285 103.247L15.1872 101.765C16.0801 97.9266 18.2387 94.5003 21.3155 92.0376C22.2876 91.3265 23.3973 90.8257 24.5737 90.5673C24.9914 90.4723 25.4164 90.4133 25.8441 90.3908L27.1497 90.3203L26.7499 91.7552ZM49.4866 51.2923C50.6563 47.7628 52.9703 44.7244 56.0618 42.6586L57.4733 41.647L57.5557 43.3761C57.6736 47.2925 56.7696 51.172 54.9327 54.6328C54.1641 56.1983 52.9265 57.4853 51.3922 58.3145L50.5806 58.7026L50.1688 57.9028C49.0765 55.8761 48.8312 53.4993 49.4866 51.2923ZM110.852 130.76C109.725 133.931 108.07 136.89 105.958 139.511L105.264 140.417L104.511 139.546C100.164 134.772 97.3884 128.777 96.56 122.373C96.5484 122.314 96.0897 117.48 98.6773 114.61C99.7157 113.451 101.082 112.634 102.594 112.269C105.029 111.74 107.405 112.822 109.652 115.504C110.122 116.21 113.58 121.879 110.852 130.76ZM165.971 155.92C162.251 156.728 158.461 157.165 154.655 157.225L154.185 157.178C154.02 157.167 153.832 157.155 153.655 157.155H153.596C140.669 157.284 133.294 154.99 133.224 154.967C125.998 152.604 119.172 149.157 112.981 144.745C115.7 141.327 117.812 137.468 119.226 133.336C123.473 119.55 117.003 110.681 116.756 110.364L116.568 110.093C110.593 102.836 104.076 102.977 100.736 103.706C97.4223 104.456 94.4249 106.219 92.1608 108.752C86.9384 114.575 87.7499 122.491 87.8677 123.373C88.8541 131.496 92.3254 139.117 97.807 145.192C93.7937 148.562 89.036 150.929 83.9272 152.097C76.9993 153.602 69.824 152.45 62.649 148.698C54.8545 143.427 49.3612 135.385 47.2871 126.208C45.1248 117.098 45.7518 107.549 49.0868 98.801C49.4279 97.9423 57.791 77.5697 85.5153 57.8205C85.6796 57.7005 85.8367 57.5709 85.9856 57.4323C87.0678 56.456 96.4778 47.6342 95.2075 37.1067C94.8751 34.3211 93.8074 31.6742 92.114 29.4376C95.9015 28.2378 99.8419 27.191 103.865 26.3206C127.966 21.0862 162.324 20.2158 189.107 45.858L190.637 47.3165L190.742 47.4107C190.801 47.4459 190.848 47.493 190.872 47.5047C197.731 53.4267 203.211 60.7776 206.928 69.0418C210.792 77.406 212.841 86.4941 212.938 95.7075C213.138 124.631 193.389 149.956 165.971 155.92Z" fill="white"/>
<path d="M184.744 70.371C182.979 65.3132 179.921 63.8193 177.663 63.4547C175.781 63.1489 172.087 63.3371 168.57 67.9245C167.451 69.4147 166.523 71.0387 165.806 72.7588C162.774 70.2634 159.175 68.5508 155.326 67.7715C153.894 67.464 152.407 67.5215 151.004 67.9388C149.6 68.356 148.323 69.1196 147.292 70.1593C144.822 72.8411 144.281 77.3932 145.88 82.0512C147.174 85.8505 151.82 94.9547 166.982 98.3658C166.89 101.369 166.519 104.358 165.877 107.293C165.717 108.07 165.731 108.872 165.918 109.642C166.105 110.412 166.46 111.131 166.959 111.748C167.457 112.364 168.086 112.862 168.8 113.207C169.513 113.551 170.295 113.733 171.087 113.739C171.463 113.738 171.838 113.694 172.205 113.61C173.205 113.393 174.122 112.893 174.845 112.169C175.569 111.445 176.069 110.529 176.286 109.528C177.469 104.26 177.857 98.8442 177.439 93.4608C180.674 90.6731 188.872 82.1571 184.744 70.371ZM175.04 73.8998L176.204 72.0296L176.745 74.1586C177.135 75.8602 177.129 77.6287 176.728 79.3276C176.326 81.0265 175.539 82.6103 174.428 83.9568L173.275 85.4742L172.769 83.651C171.958 80.7221 173.604 76.1935 175.04 73.8998V73.8998ZM153.785 77.6756L153.573 76.2053L154.996 76.6287C160.258 78.6654 164.556 82.6147 167.029 87.6855L168.006 89.6851L165.888 88.9911C159.607 86.9327 156.584 83.6862 155.149 81.322V81.3103C154.459 80.2004 153.996 78.9652 153.785 77.6756V77.6756Z" fill="white"/>
</svg>
