<svg width="17" height="22" viewBox="0 0 17 22" fill="none" xmlns="http://www.w3.org/2000/svg">
<path d="M5.41058 0.884462L5.41041 0.88461L4.125 1.98548L2.84013 0.885069C2.84004 0.884991 2.83994 0.884913 2.83985 0.884835C2.42905 0.532077 1.85072 0.451251 1.35921 0.676767C0.868308 0.902007 0.55 1.39317 0.55 1.93733V20.0623C0.55 20.6065 0.868308 21.0977 1.35921 21.3229C1.85083 21.5485 2.42931 21.4676 2.84013 21.1146L4.125 20.0142L5.4087 21.1136C5.409 21.1138 5.4093 21.1141 5.4096 21.1144C5.92723 21.5614 6.69569 21.559 7.21442 21.1152L7.21459 21.1151L8.5 20.0142L9.78541 21.1151L9.78558 21.1152C10.3056 21.5601 11.0694 21.5601 11.5894 21.1152L11.5896 21.1151L12.875 20.0142L14.1599 21.1146C14.5707 21.4676 15.1492 21.5485 15.6408 21.3229C16.1317 21.0977 16.45 20.6065 16.45 20.0623V1.93733C16.45 1.39317 16.1317 0.902007 15.6408 0.676767C15.1493 0.451257 14.571 0.532073 14.1602 0.884807C14.1601 0.884895 14.16 0.884982 14.1599 0.885069L12.875 1.98548L11.5896 0.88461L11.5894 0.884462C11.0694 0.439592 10.3056 0.439592 9.78558 0.884462L9.78541 0.88461L8.5 1.98548L7.2163 0.886083C7.216 0.885819 7.21569 0.885556 7.21539 0.885292C6.69776 0.438243 5.92931 0.440664 5.41058 0.884462ZM4.575 7.24983C4.575 7.15461 4.65478 7.07483 4.75 7.07483H12.25C12.3452 7.07483 12.425 7.15461 12.425 7.24983C12.425 7.34505 12.3452 7.42483 12.25 7.42483H4.75C4.65478 7.42483 4.575 7.34505 4.575 7.24983ZM4.75 14.9248C4.65478 14.9248 4.575 14.8451 4.575 14.7498C4.575 14.6546 4.65478 14.5748 4.75 14.5748H12.25C12.3452 14.5748 12.425 14.6546 12.425 14.7498C12.425 14.8451 12.3452 14.9248 12.25 14.9248H4.75ZM4.575 10.9998C4.575 10.9046 4.65478 10.8248 4.75 10.8248H12.25C12.3452 10.8248 12.425 10.9046 12.425 10.9998C12.425 11.0951 12.3452 11.1748 12.25 11.1748H4.75C4.65478 11.1748 4.575 11.0951 4.575 10.9998Z" stroke="#5CB8B2" stroke-width="0.9"/>
</svg>
