<svg width="39" height="32" viewBox="0 0 39 32" fill="none" xmlns="http://www.w3.org/2000/svg">
<g clip-path="url(#clip0_1099_11998)">
<path d="M29.051 30.903H5.314C3.99335 30.89 2.73174 30.3539 1.80586 29.412C0.879974 28.4702 0.365403 27.1996 0.374998 25.879V0.908966C0.375263 0.668231 0.471012 0.437438 0.641237 0.267212C0.811463 0.0969862 1.04226 0.00124125 1.283 0.000976562H7.744C7.98482 0.000976563 8.21577 0.0966237 8.38605 0.266907C8.55634 0.43719 8.652 0.668149 8.652 0.908966V3.29996C8.6428 3.61632 8.69716 3.93131 8.81188 4.22629C8.92659 4.52126 9.09932 4.79025 9.31984 5.01727C9.54036 5.2443 9.80419 5.42476 10.0957 5.548C10.3872 5.67124 10.7005 5.73474 11.017 5.73474C11.3335 5.73474 11.6468 5.67124 11.9383 5.548C12.2298 5.42476 12.4936 5.2443 12.7142 5.01727C12.9347 4.79025 13.1074 4.52126 13.2221 4.22629C13.3368 3.93131 13.3912 3.61632 13.382 3.29996V0.908966C13.382 0.668149 13.4777 0.43719 13.6479 0.266907C13.8182 0.0966237 14.0492 0.000976562 14.29 0.000976562H21.339C21.5797 0.00124125 21.8105 0.0969862 21.9808 0.267212C22.151 0.437438 22.2467 0.668231 22.247 0.908966V3.29996C22.2424 3.61514 22.2999 3.92814 22.4162 4.2211C22.5326 4.51406 22.7055 4.78124 22.9251 5.00735C23.1447 5.23347 23.4067 5.41409 23.6962 5.53894C23.9856 5.66379 24.2968 5.73039 24.612 5.73495H24.783C25.0982 5.73039 25.4094 5.66379 25.6988 5.53894C25.9883 5.41409 26.2503 5.23347 26.4699 5.00735C26.6895 4.78124 26.8624 4.51406 26.9788 4.2211C27.0951 3.92814 27.1526 3.61514 27.148 3.29996V0.908966C27.1483 0.668231 27.244 0.437438 27.4142 0.267212C27.5845 0.0969862 27.8153 0.00124125 28.056 0.000976562H33.739C33.9796 0.00124159 34.2103 0.0970186 34.3804 0.267273C34.5505 0.437527 34.646 0.668323 34.646 0.908966V17.177C34.646 17.4177 34.5504 17.6485 34.3802 17.8187C34.21 17.9889 33.9792 18.0845 33.7385 18.0845C33.4978 18.0845 33.267 17.9889 33.0968 17.8187C32.9266 17.6485 32.831 17.4177 32.831 17.177V1.81696H28.964V3.29996C28.9717 4.41755 28.5359 5.49262 27.7521 6.28934C26.9683 7.08606 25.9006 7.53939 24.783 7.54996H24.612C23.4944 7.53939 22.4267 7.08606 21.6429 6.28934C20.8591 5.49262 20.4233 4.41755 20.431 3.29996V1.81696H15.198V3.29996C15.2102 3.85671 15.111 4.4103 14.9064 4.92822C14.7017 5.44614 14.3957 5.91798 14.0063 6.31604C13.6168 6.7141 13.1518 7.03036 12.6385 7.24628C12.1252 7.4622 11.5739 7.57343 11.017 7.57343C10.4601 7.57343 9.90884 7.4622 9.39552 7.24628C8.8822 7.03036 8.41717 6.7141 8.02772 6.31604C7.63828 5.91798 7.33225 5.44614 7.12761 4.92822C6.92296 4.4103 6.82382 3.85671 6.836 3.29996V1.81696H2.191V25.879C2.18085 26.7182 2.50391 27.5272 3.08935 28.1285C3.67479 28.7299 4.47482 29.0746 5.314 29.087H29.051C29.1702 29.087 29.2883 29.1105 29.3985 29.1561C29.5086 29.2017 29.6087 29.2686 29.6931 29.3529C29.7774 29.4372 29.8442 29.5373 29.8899 29.6475C29.9355 29.7577 29.959 29.8757 29.959 29.995C29.959 30.1142 29.9355 30.2323 29.8899 30.3424C29.8442 30.4526 29.7774 30.5527 29.6931 30.637C29.6087 30.7213 29.5086 30.7882 29.3985 30.8339C29.2883 30.8795 29.1702 30.903 29.051 30.903Z" fill="#5CB8B2"/>
<path d="M30.595 31.069C29.056 31.0692 27.5515 30.613 26.2717 29.758C24.992 28.9031 23.9945 27.6879 23.4055 26.2661C22.8164 24.8442 22.6623 23.2797 22.9625 21.7702C23.2627 20.2607 24.0037 18.8742 25.092 17.786C26.1803 16.6977 27.5668 15.9566 29.0762 15.6564C30.5857 15.3562 32.1503 15.5104 33.5721 16.0994C34.994 16.6885 36.2092 17.686 37.0641 18.9657C37.919 20.2454 38.3752 21.7499 38.375 23.289C38.3726 25.3516 37.5522 27.3291 36.0937 28.7876C34.6351 30.2461 32.6577 31.0666 30.595 31.069ZM30.595 17.324C29.4152 17.3238 28.2618 17.6734 27.2807 18.3288C26.2997 18.9841 25.535 19.9156 25.0833 21.0055C24.6317 22.0955 24.5134 23.2949 24.7435 24.452C24.9735 25.6092 25.5416 26.6722 26.3758 27.5065C27.2099 28.3408 28.2728 28.909 29.4299 29.1393C30.587 29.3695 31.7865 29.2515 32.8765 28.8C33.9665 28.3486 34.8982 27.584 35.5536 26.603C36.2091 25.6221 36.559 24.4688 36.559 23.289C36.5574 21.7076 35.9286 20.1915 34.8105 19.0732C33.6924 17.9549 32.1764 17.3258 30.595 17.324Z" fill="#5CB8B2"/>
<path d="M29.852 27.3219C29.4531 27.3223 29.0702 27.1649 28.787 26.8839L26.472 24.5839C26.3831 24.501 26.3118 24.4011 26.2622 24.29C26.2127 24.179 26.1859 24.0592 26.1836 23.9377C26.1812 23.8161 26.2032 23.6953 26.2484 23.5825C26.2936 23.4696 26.361 23.367 26.4466 23.2807C26.5322 23.1943 26.6342 23.1261 26.7467 23.0799C26.8592 23.0338 26.9797 23.0107 27.1013 23.012C27.2229 23.0134 27.3429 23.0391 27.4543 23.0876C27.5658 23.1362 27.6663 23.2067 27.75 23.2949L29.818 25.3449L33.351 20.6099C33.4212 20.5116 33.5104 20.4283 33.6132 20.3648C33.7161 20.3014 33.8306 20.2592 33.95 20.2406C34.0694 20.222 34.1913 20.2274 34.3085 20.2565C34.4258 20.2856 34.5361 20.3378 34.6329 20.4101C34.7298 20.4823 34.8112 20.5732 34.8725 20.6774C34.9337 20.7815 34.9736 20.8969 34.9897 21.0166C35.0058 21.1364 34.9979 21.2581 34.9663 21.3748C34.9348 21.4914 34.8803 21.6006 34.806 21.6959L31.064 26.7099C30.9344 26.8829 30.769 27.0261 30.5793 27.1296C30.3895 27.2331 30.1796 27.2946 29.964 27.3099C29.927 27.3209 29.889 27.3219 29.852 27.3219Z" fill="#5CB8B2"/>
<path d="M21.301 13.066H5.889C5.76729 13.07 5.64601 13.0495 5.53238 13.0057C5.41875 12.962 5.31509 12.8958 5.22756 12.8111C5.14004 12.7264 5.07044 12.625 5.0229 12.5129C4.97537 12.4008 4.95087 12.2803 4.95087 12.1585C4.95087 12.0367 4.97537 11.9162 5.0229 11.8041C5.07044 11.6919 5.14004 11.5905 5.22756 11.5059C5.31509 11.4212 5.41875 11.355 5.53238 11.3112C5.64601 11.2674 5.76729 11.2469 5.889 11.251H21.301C21.4227 11.2469 21.544 11.2674 21.6576 11.3112C21.7713 11.355 21.8749 11.4212 21.9624 11.5059C22.05 11.5905 22.1196 11.6919 22.1671 11.8041C22.2146 11.9162 22.2391 12.0367 22.2391 12.1585C22.2391 12.2803 22.2146 12.4008 22.1671 12.5129C22.1196 12.625 22.05 12.7264 21.9624 12.8111C21.8749 12.8958 21.7713 12.962 21.6576 13.0057C21.544 13.0495 21.4227 13.07 21.301 13.066Z" fill="#5CB8B2"/>
<path d="M21.301 18.4539H5.889C5.76729 18.458 5.64601 18.4375 5.53238 18.3937C5.41875 18.3499 5.31509 18.2837 5.22756 18.199C5.14004 18.1144 5.07044 18.0129 5.0229 17.9008C4.97537 17.7887 4.95087 17.6682 4.95087 17.5464C4.95087 17.4247 4.97537 17.3041 5.0229 17.192C5.07044 17.0799 5.14004 16.9785 5.22756 16.8938C5.31509 16.8091 5.41875 16.7429 5.53238 16.6991C5.64601 16.6554 5.76729 16.6349 5.889 16.6389H21.301C21.4227 16.6349 21.544 16.6554 21.6576 16.6991C21.7713 16.7429 21.8749 16.8091 21.9624 16.8938C22.05 16.9785 22.1196 17.0799 22.1671 17.192C22.2146 17.3041 22.2391 17.4247 22.2391 17.5464C22.2391 17.6682 22.2146 17.7887 22.1671 17.9008C22.1196 18.0129 22.05 18.1144 21.9624 18.199C21.8749 18.2837 21.7713 18.3499 21.6576 18.3937C21.544 18.4375 21.4227 18.458 21.301 18.4539Z" fill="#5CB8B2"/>
<path d="M16.035 23.842H5.889C5.76729 23.846 5.64601 23.8255 5.53238 23.7818C5.41875 23.738 5.31509 23.6718 5.22756 23.5871C5.14004 23.5024 5.07044 23.401 5.0229 23.2889C4.97537 23.1768 4.95087 23.0563 4.95087 22.9345C4.95087 22.8127 4.97537 22.6922 5.0229 22.5801C5.07044 22.4679 5.14004 22.3665 5.22756 22.2819C5.31509 22.1972 5.41875 22.131 5.53238 22.0872C5.64601 22.0434 5.76729 22.0229 5.889 22.027H16.035C16.1567 22.0229 16.278 22.0434 16.3916 22.0872C16.5053 22.131 16.6089 22.1972 16.6964 22.2819C16.784 22.3665 16.8536 22.4679 16.9011 22.5801C16.9486 22.6922 16.9731 22.8127 16.9731 22.9345C16.9731 23.0563 16.9486 23.1768 16.9011 23.2889C16.8536 23.401 16.784 23.5024 16.6964 23.5871C16.6089 23.6718 16.5053 23.738 16.3916 23.7818C16.278 23.8255 16.1567 23.846 16.035 23.842Z" fill="#5CB8B2"/>
</g>
<defs>
<clipPath id="clip0_1099_11998">
<rect width="38" height="31.068" fill="white" transform="translate(0.375 0.000976562)"/>
</clipPath>
</defs>
</svg>
