<svg width="20" height="22" viewBox="0 0 20 22" fill="none" xmlns="http://www.w3.org/2000/svg">
<path d="M5.53984 18.325C6.64174 18.325 7.61469 17.6075 7.94074 16.5567L8.23237 17.5178C8.36401 17.9667 8.76376 18.281 9.21957 18.3231C9.68352 18.3659 10.1315 18.1174 10.339 17.6962C10.3391 17.6959 10.3393 17.6957 10.3394 17.6954L10.6918 16.9866L11.0451 17.6972L11.0456 17.6981C11.2382 18.0835 11.6309 18.325 12.0625 18.325H14.8125C15.4392 18.325 15.95 17.8142 15.95 17.1875C15.95 16.5608 15.4392 16.05 14.8125 16.05H12.766L12.7013 15.9206C12.3203 15.1586 11.5418 14.675 10.6875 14.675C10.3765 14.675 10.0756 14.7383 9.79991 14.8566L9.46873 13.7546C9.4687 13.7545 9.46868 13.7544 9.46865 13.7543C9.26549 13.0736 8.64303 12.6125 7.9375 12.6125C7.23005 12.6125 6.60937 13.0796 6.40658 13.7535L5.76636 15.8805L5.76636 15.8804L5.76555 15.8832C5.73649 15.982 5.64725 16.05 5.53984 16.05H5.1875C4.56085 16.05 4.05 16.5608 4.05 17.1875C4.05 17.8142 4.56085 18.325 5.1875 18.325H5.53984ZM7.2684 14.0129L7.26842 14.0129C7.35523 13.7243 7.61524 13.5243 7.91096 13.513L7.50633 14.8673L7.08544 16.276C7.08542 16.276 7.0854 16.2761 7.08538 16.2762C6.88041 16.958 6.25218 17.425 5.53984 17.425H5.1875C5.0579 17.425 4.95 17.3171 4.95 17.1875C4.95 17.0579 5.0579 16.95 5.1875 16.95H5.53984C6.04209 16.95 6.48527 16.6234 6.62855 16.1386C6.62869 16.1381 6.62884 16.1376 6.62898 16.1371L7.2684 14.0129ZM8.36812 14.8654L7.95771 13.5128C8.25773 13.5213 8.51912 13.7196 8.60627 14.0118L8.60654 14.0127L9.10498 15.6713L9.30151 16.3253L9.82494 15.8867C10.0624 15.6878 10.3641 15.575 10.6875 15.575C11.1996 15.575 11.6672 15.8649 11.8963 16.3231L12.0854 16.7012L12.2098 16.95H12.4879H14.8125C14.9421 16.95 15.05 17.0579 15.05 17.1875C15.05 17.3171 14.9421 17.425 14.8125 17.425H12.0625C11.97 17.425 11.89 17.3744 11.8506 17.2958C11.8506 17.2958 11.8506 17.2957 11.8505 17.2956L11.4729 16.536L11.4724 16.5351C11.3243 16.2388 11.0237 16.05 10.6918 16.05C10.3689 16.05 10.0566 16.2312 9.90896 16.5395L9.5326 17.2965L9.53169 17.2984C9.48976 17.3837 9.39664 17.4356 9.3023 17.4269C9.20051 17.4175 9.11975 17.3464 9.09583 17.264L9.09586 17.264L9.09429 17.2588L8.36812 14.8654ZM2.2 2.75C2.2 1.48173 3.23173 0.45 4.5 0.45H10.925V5.5C10.925 6.50907 11.7409 7.325 12.75 7.325H17.8V19.25C17.8 20.5183 16.7683 21.55 15.5 21.55H4.5C3.23173 21.55 2.2 20.5183 2.2 19.25V2.75ZM17.1636 5.05H13.2V1.0864L17.1636 5.05Z" stroke="#5CB8B2" stroke-width="0.9"/>
</svg>
