<svg width="21" height="22" viewBox="0 0 21 22" fill="none" xmlns="http://www.w3.org/2000/svg">
<path d="M5.70635 18.375C6.77778 18.375 7.72969 17.7098 8.10426 16.7191L8.35097 17.5322C8.48867 18.0013 8.90607 18.329 9.38148 18.3729C9.86587 18.4176 10.3335 18.1583 10.5502 17.7186C10.5504 17.7182 10.5506 17.7178 10.5508 17.7174L10.8583 17.0989L11.1668 17.7195L11.1673 17.7205C11.3685 18.1229 11.7786 18.375 12.229 18.375H14.979C15.6333 18.375 16.1665 17.8418 16.1665 17.1875C16.1665 16.5332 15.6333 16 14.979 16H12.9634L12.9125 15.8983C12.5231 15.1193 11.7273 14.625 10.854 14.625C10.5555 14.625 10.266 14.6821 9.99838 14.7892L9.68315 13.7403C9.68308 13.7401 9.68301 13.7399 9.68295 13.7396C9.47332 13.0378 8.83146 12.5625 8.104 12.5625C7.37428 12.5625 6.73429 13.0443 6.52521 13.7391L5.88499 15.866L5.88498 15.866L5.88409 15.8691C5.86135 15.9464 5.79179 16 5.70635 16H5.354C4.69974 16 4.1665 16.5332 4.1665 17.1875C4.1665 17.8418 4.69974 18.375 5.354 18.375H5.70635ZM7.48278 14.0273L7.4828 14.0273C7.55645 13.7825 7.76413 13.6065 8.00835 13.5697L7.62493 14.853L7.20406 16.2616C7.20401 16.2618 7.20396 16.2619 7.2039 16.2621C7.00518 16.9226 6.39651 17.375 5.70635 17.375H5.354C5.25202 17.375 5.1665 17.2895 5.1665 17.1875C5.1665 17.0855 5.25202 17 5.354 17H5.70635C6.23044 17 6.69323 16.6591 6.84293 16.153C6.8431 16.1524 6.84328 16.1518 6.84345 16.1512L7.48278 14.0273ZM8.58247 14.8509L8.1934 13.5686C8.44165 13.6028 8.65083 13.7779 8.72486 14.0261L8.72516 14.0271L9.2236 15.6857L9.44196 16.4123L10.0236 15.9251C10.252 15.7336 10.5424 15.625 10.854 15.625C11.3471 15.625 11.7974 15.9041 12.0181 16.3455L12.2072 16.7236L12.3454 17H12.6544H14.979C15.081 17 15.1665 17.0855 15.1665 17.1875C15.1665 17.2895 15.081 17.375 14.979 17.375H12.229C12.1554 17.375 12.093 17.3352 12.0621 17.2738C12.062 17.2737 12.0619 17.2735 12.0618 17.2733L11.6841 16.5137L11.6836 16.5127C11.5271 16.1997 11.2094 16 10.8583 16C10.5172 16 10.1869 16.1913 10.0305 16.5176L9.65433 17.2743L9.65333 17.2763C9.62058 17.3429 9.54719 17.3839 9.4734 17.3771C9.39134 17.3695 9.32834 17.312 9.31035 17.25L9.31038 17.25L9.30864 17.2443L8.58247 14.8509ZM2.4165 2.75C2.4165 1.50935 3.42585 0.5 4.6665 0.5H11.0415V5.5C11.0415 6.53669 11.8798 7.375 12.9165 7.375H17.9165V19.25C17.9165 20.4907 16.9072 21.5 15.6665 21.5H4.6665C3.42585 21.5 2.4165 20.4907 2.4165 19.25V2.75ZM17.2094 5H13.4165V1.20711L17.2094 5Z" stroke="#5CB8B2"/>
</svg>
