<svg width="22" height="22" viewBox="0 0 22 22" fill="none" xmlns="http://www.w3.org/2000/svg">
<path d="M11 2.875C6.51172 2.875 2.875 6.51172 2.875 11V12.5625C2.875 13.082 2.45703 13.5 1.9375 13.5C1.41797 13.5 1 13.082 1 12.5625V11C1 5.47656 5.47656 1 11 1C16.5234 1 21 5.47656 21 11V16.6289C21 18.5273 19.4609 20.0664 17.5586 20.0664L13.25 20.0625C12.9258 20.6211 12.3203 21 11.625 21H10.375C9.33984 21 8.5 20.1602 8.5 19.125C8.5 18.0898 9.33984 17.25 10.375 17.25H11.625C12.3203 17.25 12.9258 17.6289 13.25 18.1875L17.5625 18.1914C18.4258 18.1914 19.125 17.4922 19.125 16.6289V11C19.125 6.51172 15.4883 2.875 11 2.875ZM6.625 9.125H7.25C7.94141 9.125 8.5 9.68359 8.5 10.375V14.75C8.5 15.4414 7.94141 16 7.25 16H6.625C5.24609 16 4.125 14.8789 4.125 13.5V11.625C4.125 10.2461 5.24609 9.125 6.625 9.125ZM15.375 9.125C16.7539 9.125 17.875 10.2461 17.875 11.625V13.5C17.875 14.8789 16.7539 16 15.375 16H14.75C14.0586 16 13.5 15.4414 13.5 14.75V10.375C13.5 9.68359 14.0586 9.125 14.75 9.125H15.375Z" stroke="#5CB8B2"/>
</svg>
