<svg width="19" height="16" viewBox="0 0 19 16" fill="none" xmlns="http://www.w3.org/2000/svg">
<g clip-path="url(#clip0_1207_22699)">
<path d="M18.1279 8.09789C18.1058 8.06531 18.0774 8.03742 18.0445 8.01581C18.0116 7.99419 17.9748 7.97927 17.9361 7.97193L17.4267 7.8742C17.4025 7.59515 17.3451 7.31997 17.2556 7.05455L17.6861 6.76131C17.7186 6.73922 17.7464 6.71096 17.7679 6.67812C17.7895 6.64528 17.8043 6.60853 17.8117 6.56994C17.819 6.53136 17.8186 6.49171 17.8106 6.45326C17.8026 6.41481 17.7871 6.37832 17.765 6.34586L17.0093 5.23297C16.9643 5.16754 16.8955 5.12232 16.8176 5.10701C16.779 5.09963 16.7394 5.1 16.701 5.10806C16.6626 5.11613 16.6262 5.13174 16.5939 5.15401L16.1634 5.44539C15.9494 5.26515 15.7146 5.11114 15.4641 4.98669L15.5599 4.47537C15.5675 4.43685 15.5673 4.39723 15.5595 4.35878C15.5516 4.32032 15.5362 4.28379 15.5142 4.25129C15.4922 4.2188 15.464 4.19099 15.4312 4.16944C15.3984 4.14789 15.3616 4.13302 15.3231 4.12572L14.0015 3.87382C13.963 3.8662 13.9233 3.86627 13.8848 3.87408C13.8463 3.88188 13.8098 3.89726 13.7773 3.91928C13.7448 3.94131 13.7169 3.96957 13.6954 4.00242C13.6739 4.03528 13.6591 4.07208 13.6519 4.11069L13.5541 4.62201C13.2753 4.64645 13.0002 4.70323 12.7345 4.7912L12.4412 4.36259C12.4192 4.33003 12.391 4.30215 12.3582 4.28055C12.3253 4.25895 12.2885 4.24403 12.2499 4.2367C12.2113 4.22936 12.1716 4.22974 12.1332 4.2378C12.0947 4.24585 12.0582 4.26142 12.0258 4.28362L10.9129 5.03934C10.8803 5.06135 10.8525 5.0896 10.8309 5.12243C10.8093 5.15526 10.7944 5.19204 10.787 5.23065C10.7797 5.26926 10.78 5.30894 10.7881 5.34741C10.7962 5.38588 10.8117 5.42238 10.834 5.4548L11.1272 5.88528C10.9457 6.09872 10.7911 6.33356 10.6666 6.58459L10.1553 6.48685C10.1168 6.47947 10.0771 6.47982 10.0387 6.48788C10.0003 6.49595 9.96392 6.51158 9.93161 6.53385C9.89903 6.55595 9.87113 6.58424 9.84952 6.61715C9.82791 6.65005 9.813 6.6869 9.80565 6.72558L9.55375 8.04713C9.5446 8.09131 9.54589 8.13703 9.55752 8.18062C10.0398 8.3238 10.5045 8.52054 10.943 8.76714C10.9081 8.59314 10.8892 8.41631 10.8866 8.23888C10.8859 8.17003 10.8613 8.10356 10.8171 8.05078C10.7729 7.998 10.7117 7.96215 10.6441 7.94937L10.1967 7.86479L10.3377 7.13163L10.7832 7.21624C10.8507 7.22895 10.9205 7.21814 10.9811 7.18565C11.0416 7.15316 11.0892 7.10093 11.1159 7.03764C11.2584 6.69607 11.4638 6.38425 11.7212 6.11838C11.7687 6.06876 11.7977 6.00443 11.8035 5.93604C11.8093 5.86765 11.7916 5.79932 11.7532 5.74241L11.4975 5.36455L12.1141 4.94534L12.3717 5.3232C12.4103 5.37993 12.4673 5.42158 12.5331 5.4411C12.5988 5.46063 12.6693 5.45685 12.7326 5.43036C13.0748 5.28985 13.44 5.21398 13.8098 5.20665C13.8783 5.20557 13.9444 5.18085 13.9968 5.13666C14.0492 5.09247 14.0848 5.03152 14.0974 4.96414L14.1839 4.51673L14.917 4.65772L14.8324 5.10325C14.8191 5.1708 14.8297 5.24089 14.8622 5.30156C14.8948 5.36223 14.9474 5.40972 15.011 5.43599C15.3526 5.5785 15.6644 5.78384 15.9303 6.04132C15.9799 6.08875 16.0442 6.11778 16.1126 6.12359C16.181 6.1294 16.2493 6.11164 16.3063 6.07327L16.6822 5.81761L17.1014 6.43421L16.7255 6.69175C16.6689 6.73047 16.6272 6.78736 16.6074 6.853C16.5875 6.91865 16.5907 6.98912 16.6164 7.05269C16.7587 7.39429 16.8346 7.75985 16.8401 8.12986C16.8419 8.19849 16.8671 8.26444 16.9116 8.31677C16.9561 8.36909 17.0171 8.40461 17.0845 8.41746L17.5301 8.50395L17.3909 9.2371L16.9435 9.1525C16.876 9.13943 16.806 9.15005 16.7454 9.18258C16.6848 9.21512 16.6372 9.26759 16.6108 9.3311C16.4697 9.67296 16.2649 9.98489 16.0073 10.2503C15.9595 10.2997 15.9302 10.3641 15.9243 10.4326C15.9185 10.5012 15.9365 10.5696 15.9754 10.6263L16.2311 11.0023L15.6126 11.4234L15.3569 11.0455C15.3182 10.9889 15.2613 10.9473 15.1957 10.9274C15.13 10.9076 15.0596 10.9108 14.996 10.9365C14.6542 11.0783 14.2888 11.1548 13.9188 11.1621C13.85 11.1628 13.7835 11.1874 13.7307 11.2316C13.6779 11.2758 13.6421 11.3369 13.6293 11.4046L13.6162 11.4704C13.7754 11.76 13.913 12.061 14.0279 12.3708C14.0528 12.3369 14.0695 12.2977 14.0767 12.2562L14.1745 11.7467C14.4535 11.7226 14.7287 11.6651 14.9941 11.5757L15.2855 12.0062C15.3305 12.0716 15.3993 12.1168 15.4772 12.1321C15.5161 12.1396 15.556 12.1393 15.5947 12.1312C15.6335 12.1231 15.6702 12.1075 15.7028 12.0851L16.8138 11.3294C16.8464 11.3074 16.8743 11.2792 16.896 11.2465C16.9177 11.2137 16.9328 11.177 16.9403 11.1384C16.9478 11.0998 16.9476 11.0601 16.9398 11.0216C16.932 10.9831 16.9166 10.9465 16.8947 10.9139L16.6014 10.4835C16.7829 10.27 16.9375 10.0351 17.062 9.78413L17.5733 9.88001C17.6511 9.89494 17.7316 9.87839 17.7972 9.83397C17.8627 9.78956 17.908 9.72091 17.9229 9.64314L18.1748 8.32161C18.1822 8.28307 18.1819 8.24344 18.1738 8.20503C18.1657 8.16663 18.1501 8.1302 18.1279 8.09789Z" fill="#EF6079"/>
<path d="M14.2669 6.07333C13.9733 6.01825 13.6714 6.02501 13.3805 6.09316C13.0896 6.1613 12.8161 6.28934 12.5775 6.46911C12.3388 6.64888 12.1403 6.87641 11.9946 7.13721C11.8488 7.398 11.759 7.68633 11.7309 7.98377C11.7029 8.28121 11.7371 8.58124 11.8315 8.86471C11.9259 9.14817 12.0783 9.40883 12.2791 9.63008C12.4799 9.85133 12.7246 10.0283 12.9976 10.1497C13.2706 10.271 13.5659 10.3342 13.8646 10.335C14.3995 10.3345 14.915 10.1346 15.3105 9.77444C15.7059 9.41424 15.9529 8.91958 16.0031 8.38705C16.0534 7.85452 15.9034 7.32237 15.5823 6.89454C15.2613 6.4667 14.7923 6.17391 14.2669 6.07333ZM15.3873 8.47581C15.3301 8.77825 15.1844 9.05688 14.9687 9.27646C14.753 9.49603 14.477 9.64666 14.1756 9.70925C13.8742 9.77184 13.5611 9.74358 13.2758 9.62806C12.9905 9.51254 12.7459 9.31495 12.573 9.06031C12.4 8.80568 12.3066 8.50546 12.3044 8.19766C12.3022 7.88987 12.3915 7.58834 12.5608 7.3313C12.7301 7.07425 12.9719 6.87324 13.2555 6.75371C13.5392 6.63418 13.8519 6.60151 14.1541 6.65985C14.3549 6.69694 14.5463 6.77351 14.7173 6.88515C14.8883 6.99679 15.0354 7.14126 15.1501 7.31019C15.2648 7.47911 15.3449 7.66912 15.3856 7.86921C15.4263 8.06931 15.4269 8.27549 15.3873 8.47581Z" fill="#EF6079"/>
<path d="M7.58945 6.71455C9.14658 6.71455 10.4089 5.45224 10.4089 3.89512C10.4089 2.33799 9.14658 1.07568 7.58945 1.07568C6.03232 1.07568 4.77002 2.33799 4.77002 3.89512C4.77002 5.45224 6.03232 6.71455 7.58945 6.71455Z" stroke="#EF6079" stroke-width="0.808345" stroke-miterlimit="10" stroke-linecap="round"/>
<path d="M11.146 11.7255V14.7271" stroke="#EF6079" stroke-width="0.808345" stroke-miterlimit="10" stroke-linecap="round"/>
<path d="M4.03198 11.7255V14.7271" stroke="#EF6079" stroke-width="0.808345" stroke-miterlimit="10" stroke-linecap="round"/>
<path d="M14.4546 14.7583C14.4555 13.9435 14.311 13.135 14.0279 12.3709C13.913 12.061 13.7754 11.7601 13.6162 11.4705C12.9971 10.3359 12.0706 9.39891 10.943 8.7672C10.5045 8.52059 10.0398 8.32386 9.55752 8.18068C8.53255 7.87432 7.45017 7.81166 6.3967 7.99772C5.34323 8.18377 4.34779 8.61338 3.48976 9.25229C2.63173 9.8912 1.93484 10.7217 1.45465 11.6777C0.974466 12.6336 0.724265 13.6886 0.723999 14.7583" stroke="#EF6079" stroke-width="0.808345" stroke-miterlimit="10" stroke-linecap="round"/>
</g>
<defs>
<clipPath id="clip0_1207_22699">
<rect width="17.8605" height="14.491" fill="white" transform="translate(0.319824 0.671509)"/>
</clipPath>
</defs>
</svg>
