<svg width="20" height="18" viewBox="0 0 20 18" fill="none" xmlns="http://www.w3.org/2000/svg">
<g clip-path="url(#clip0_4377_47393)">
<path d="M19.9414 9.20248C19.9167 9.16599 19.885 9.13476 19.8481 9.11056C19.8113 9.08636 19.77 9.06965 19.7267 9.06143L19.1563 8.95199C19.1292 8.63951 19.0649 8.33137 18.9647 8.03415L19.4467 7.70578C19.4831 7.68105 19.5142 7.6494 19.5384 7.61263C19.5625 7.57586 19.5792 7.5347 19.5874 7.49149C19.5956 7.44829 19.5952 7.40388 19.5862 7.36083C19.5773 7.31777 19.5599 7.27691 19.5352 7.24057L18.6889 5.99436C18.6385 5.92109 18.5615 5.87045 18.4742 5.85331C18.431 5.84505 18.3867 5.84546 18.3437 5.85449C18.3007 5.86353 18.2599 5.881 18.2237 5.90594L17.7416 6.23223C17.502 6.03039 17.2392 5.85794 16.9586 5.71858L17.0659 5.14601C17.0743 5.10288 17.0742 5.05851 17.0654 5.01545C17.0566 4.97239 17.0394 4.93147 17.0147 4.89509C16.9901 4.8587 16.9585 4.82756 16.9217 4.80343C16.885 4.7793 16.8439 4.76265 16.8007 4.75447L15.3208 4.4724C15.2777 4.46386 15.2333 4.46395 15.1902 4.47269C15.147 4.48142 15.1061 4.49864 15.0697 4.52331C15.0333 4.54798 15.0021 4.57962 14.978 4.61641C14.9539 4.6532 14.9374 4.69441 14.9293 4.73764L14.8198 5.31021C14.5076 5.33758 14.1996 5.40117 13.902 5.49968L13.5736 5.01971C13.549 4.98326 13.5174 4.95204 13.4806 4.92785C13.4438 4.90366 13.4026 4.88696 13.3594 4.87874C13.3162 4.87053 13.2717 4.87096 13.2287 4.87998C13.1856 4.88899 13.1447 4.90642 13.1084 4.93129L11.8622 5.77753C11.8257 5.80219 11.7945 5.83382 11.7703 5.87058C11.7461 5.90734 11.7295 5.94853 11.7212 5.99177C11.713 6.035 11.7134 6.07943 11.7225 6.12251C11.7315 6.16558 11.7489 6.20646 11.7738 6.24277L12.1022 6.72481C11.899 6.96382 11.7258 7.2268 11.5864 7.50789L11.0139 7.39845C10.9707 7.39018 10.9263 7.39057 10.8833 7.3996C10.8403 7.40864 10.7995 7.42614 10.7634 7.45107C10.7269 7.47582 10.6956 7.50751 10.6714 7.54435C10.6472 7.5812 10.6305 7.62246 10.6223 7.66577L10.3402 9.14563C10.33 9.1951 10.3314 9.2463 10.3445 9.29511C10.8845 9.45545 11.4049 9.67575 11.8959 9.95189C11.8569 9.75705 11.8357 9.55904 11.8327 9.36036C11.8319 9.28326 11.8044 9.20883 11.7549 9.14972C11.7054 9.09061 11.6369 9.05047 11.5612 9.03617L11.0602 8.94145L11.2181 8.12047L11.717 8.21521C11.7926 8.22945 11.8708 8.21734 11.9385 8.18096C12.0063 8.14458 12.0596 8.08609 12.0896 8.01522C12.2491 7.63273 12.4791 7.28356 12.7674 6.98584C12.8205 6.93028 12.853 6.85824 12.8595 6.78165C12.866 6.70507 12.8461 6.62855 12.8032 6.56482L12.5169 6.1417L13.2073 5.67228L13.4957 6.0954C13.5389 6.15893 13.6028 6.20556 13.6764 6.22743C13.7501 6.24929 13.829 6.24506 13.8999 6.2154C14.283 6.05805 14.692 5.9731 15.1061 5.96489C15.1829 5.96368 15.2569 5.936 15.3155 5.88651C15.3742 5.83703 15.414 5.76878 15.4282 5.69332L15.525 5.19232L16.346 5.3502L16.2513 5.8491C16.2364 5.92475 16.2482 6.00323 16.2846 6.07117C16.3211 6.1391 16.38 6.19229 16.4512 6.2217C16.8337 6.38128 17.1829 6.61122 17.4806 6.89955C17.5362 6.95265 17.6082 6.98516 17.6848 6.99167C17.7614 6.99818 17.8379 6.97828 17.9016 6.93532L18.3226 6.64903L18.7921 7.3395L18.3711 7.62789C18.3077 7.67125 18.261 7.73495 18.2388 7.80846C18.2166 7.88197 18.2202 7.96088 18.249 8.03207C18.4083 8.41459 18.4933 8.82395 18.4995 9.23827C18.5015 9.31513 18.5297 9.38898 18.5795 9.44757C18.6293 9.50616 18.6976 9.54594 18.7731 9.56033L19.272 9.65718L19.1163 10.4782L18.6153 10.3834C18.5396 10.3688 18.4612 10.3807 18.3934 10.4171C18.3255 10.4535 18.2723 10.5123 18.2427 10.5834C18.0846 10.9662 17.8553 11.3155 17.5669 11.6128C17.5133 11.668 17.4805 11.7402 17.474 11.8169C17.4674 11.8936 17.4876 11.9702 17.5311 12.0338L17.8174 12.4548L17.1249 12.9263L16.8386 12.5032C16.7952 12.4399 16.7315 12.3932 16.658 12.371C16.5845 12.3488 16.5056 12.3523 16.4344 12.3811C16.0516 12.5399 15.6425 12.6256 15.2282 12.6337C15.1511 12.6345 15.0767 12.662 15.0176 12.7115C14.9584 12.7611 14.9183 12.8295 14.904 12.9053L14.8893 12.979C15.0676 13.3033 15.2216 13.6403 15.3503 13.9873C15.3782 13.9493 15.3969 13.9053 15.405 13.8589L15.5145 13.2884C15.827 13.2613 16.1351 13.197 16.4323 13.0968L16.7586 13.5789C16.809 13.6522 16.886 13.7028 16.9733 13.7199C17.0168 13.7283 17.0615 13.728 17.1049 13.719C17.1482 13.7099 17.1894 13.6924 17.2259 13.6673L18.47 12.8211C18.5065 12.7965 18.5378 12.7649 18.5621 12.7282C18.5864 12.6915 18.6032 12.6504 18.6116 12.6072C18.62 12.564 18.6198 12.5196 18.6111 12.4765C18.6023 12.4333 18.5851 12.3923 18.5605 12.3559L18.2321 11.8738C18.4353 11.6348 18.6085 11.3718 18.7479 11.0907L19.3204 11.1981C19.4075 11.2148 19.4977 11.1963 19.5711 11.1465C19.6445 11.0968 19.6952 11.0199 19.712 10.9328L19.9941 9.45299C20.0023 9.40983 20.0019 9.36546 19.9929 9.32245C19.9839 9.27945 19.9664 9.23866 19.9414 9.20248Z" fill="#5CB8B2"/>
<path d="M15.618 6.93529C15.2892 6.87361 14.9511 6.88118 14.6254 6.95749C14.2996 7.0338 13.9934 7.17717 13.7262 7.37848C13.459 7.57978 13.2366 7.83457 13.0734 8.12661C12.9102 8.41864 12.8097 8.74151 12.7782 9.07458C12.7468 9.40765 12.7851 9.74362 12.8908 10.061C12.9965 10.3785 13.1672 10.6704 13.392 10.9181C13.6169 11.1659 13.8909 11.364 14.1966 11.4999C14.5023 11.6358 14.8329 11.7065 15.1675 11.7075C15.7665 11.7069 16.3437 11.4831 16.7865 11.0798C17.2293 10.6764 17.5059 10.1225 17.5622 9.52617C17.6185 8.92985 17.4505 8.33395 17.091 7.85487C16.7315 7.37578 16.2063 7.04791 15.618 6.93529ZM16.8726 9.62556C16.8085 9.96423 16.6454 10.2762 16.4038 10.5221C16.1623 10.768 15.8532 10.9367 15.5157 11.0068C15.1783 11.0768 14.8276 11.0452 14.5081 10.9158C14.1886 10.7865 13.9147 10.5652 13.7211 10.2801C13.5275 9.99494 13.4228 9.65876 13.4204 9.3141C13.418 8.96943 13.5179 8.63179 13.7075 8.34395C13.8971 8.05611 14.1678 7.83101 14.4854 7.69717C14.8031 7.56332 15.1532 7.52674 15.4917 7.59207C15.7165 7.63359 15.9309 7.71935 16.1223 7.84436C16.3138 7.96936 16.4785 8.13115 16.607 8.32031C16.7355 8.50947 16.8251 8.72224 16.8707 8.9463C16.9163 9.17036 16.9169 9.40125 16.8726 9.62556Z" fill="#5CB8B2"/>
<path d="M8.14057 7.65346C9.88423 7.65346 11.2977 6.23995 11.2977 4.49629C11.2977 2.75263 9.88423 1.33911 8.14057 1.33911C6.39691 1.33911 4.9834 2.75263 4.9834 4.49629C4.9834 6.23995 6.39691 7.65346 8.14057 7.65346Z" stroke="#5CB8B2" stroke-width="0.808345" stroke-miterlimit="10" stroke-linecap="round"/>
<path d="M12.123 13.2646V16.6258" stroke="#5CB8B2" stroke-width="0.808345" stroke-miterlimit="10" stroke-linecap="round"/>
<path d="M4.15674 13.2646V16.6258" stroke="#5CB8B2" stroke-width="0.808345" stroke-miterlimit="10" stroke-linecap="round"/>
<path d="M15.828 16.6608C15.8291 15.7483 15.6673 14.843 15.3502 13.9874C15.2215 13.6404 15.0674 13.3034 14.8892 12.9791C14.1959 11.7086 13.1584 10.6594 11.8958 9.95199C11.4047 9.67585 10.8844 9.45555 10.3443 9.29521C9.19658 8.95215 7.98455 8.88199 6.80488 9.09033C5.6252 9.29867 4.51052 9.77974 3.54971 10.4952C2.5889 11.2106 1.80852 12.1407 1.27082 13.2111C0.733107 14.2816 0.452934 15.4629 0.452637 16.6608" stroke="#5CB8B2" stroke-width="0.808345" stroke-miterlimit="10" stroke-linecap="round"/>
</g>
<defs>
<clipPath id="clip0_4377_47393">
<rect width="20" height="16.2269" fill="white" transform="translate(0 0.886475)"/>
</clipPath>
</defs>
</svg>
