<svg width="157" height="150" viewBox="0 0 157 150" fill="none" xmlns="http://www.w3.org/2000/svg">
<path d="M151.33 122.168L88.84 15.5273C84.0558 7.32422 71.9825 7.32422 67.1661 15.5273L4.70518 122.168C-0.102437 130.342 5.88555 140.625 15.5216 140.625H140.502C150.1 140.625 156.106 130.371 151.33 122.168ZM70.9689 49.2188C70.9689 45.3369 74.1183 42.1875 78.0001 42.1875C81.882 42.1875 85.0314 45.3516 85.0314 49.2188V86.7188C85.0314 90.6006 81.882 93.75 78.2638 93.75C74.6456 93.75 70.9689 90.6152 70.9689 86.7188V49.2188ZM78.0001 121.875C72.9142 121.875 68.7892 117.75 68.7892 112.664C68.7892 107.578 72.9112 103.453 78.0001 103.453C83.089 103.453 87.2111 107.578 87.2111 112.664C87.1993 117.744 83.0978 121.875 78.0001 121.875Z" stroke="white" stroke-width="6"/>
</svg>
