<svg width="23" height="18" viewBox="0 0 23 18" fill="none" xmlns="http://www.w3.org/2000/svg">
<path d="M5.5415 5.125H5.16567C5.27015 5.04646 5.40022 5 5.5415 5H16.7915C16.9328 5 17.0629 5.04646 17.1673 5.125H16.7915H5.5415ZM4.9165 5.625C4.9165 5.48372 4.96297 5.35364 5.0415 5.24916V5.625V12.375V12.7508C4.96297 12.6464 4.9165 12.5163 4.9165 12.375V5.625ZM5.5415 13C5.40022 13 5.27015 12.9535 5.16567 12.875H5.5415H16.7915H17.1673C17.0629 12.9535 16.9328 13 16.7915 13H5.5415ZM17.4165 12.375C17.4165 12.5163 17.37 12.6464 17.2915 12.7508V12.375V5.625V5.24916C17.37 5.35364 17.4165 5.48372 17.4165 5.625V12.375ZM21.2915 7.8125H21.7915V7.3125V4.5C21.7915 2.98083 20.5584 1.75 19.0415 1.75H3.2915C1.77259 1.75 0.541504 2.98108 0.541504 4.5V7.3125V7.8125H1.0415C1.69729 7.8125 2.229 8.34443 2.229 9C2.229 9.65557 1.69729 10.1875 1.0415 10.1875H0.541504V10.6875V13.5C0.541504 15.0169 1.77233 16.25 3.2915 16.25H19.0415C20.5587 16.25 21.7915 15.0172 21.7915 13.5V10.6875V10.1875H21.2915C20.636 10.1875 20.104 9.6555 20.104 9C20.104 8.3445 20.636 7.8125 21.2915 7.8125Z" stroke="#5CB8B2"/>
</svg>
