<svg width="39" height="32" viewBox="0 0 39 32" fill="none" xmlns="http://www.w3.org/2000/svg">
<g clip-path="url(#clip0_1105_12537)">
<path d="M26.609 28.2166C24.7852 28.1352 23.0068 27.6211 21.421 26.7166C21.3031 26.6507 21.1701 26.6162 21.035 26.6166H16.909C16.7488 26.6159 16.5922 26.664 16.46 26.7546C14.9428 27.7488 13.1595 28.2589 11.346 28.2175C4.42501 28.2175 0.125 23.3576 0.125 15.5346C0.164576 12.1376 1.54967 8.895 3.97655 6.51781C6.40342 4.14061 9.67397 2.82288 13.071 2.85356H25.179C28.5763 2.82262 31.8471 4.1404 34.2741 6.51787C36.7011 8.89533 38.0859 12.1384 38.125 15.5356C38.125 23.8316 34.143 28.2166 26.609 28.2166ZM16.909 24.9306H21.035C21.455 24.9311 21.8679 25.0385 22.235 25.2426C23.5701 26.0098 25.0673 26.4514 26.605 26.5316C33.22 26.5316 36.436 22.9316 36.436 15.5316C36.398 12.5807 35.1911 9.76526 33.08 7.70308C30.9689 5.6409 28.126 4.50034 25.175 4.53157H13.071C10.1201 4.50034 7.27732 5.64093 5.16637 7.70314C3.05542 9.76535 1.84871 12.5807 1.811 15.5316C1.811 25.4566 8.47901 26.5316 11.346 26.5316C12.8173 26.5735 14.2666 26.1676 15.502 25.3676C15.9154 25.0817 16.4064 24.9292 16.909 24.9306Z" fill="#73B6B1"/>
<path d="M10.288 10.2595C9.24475 10.2597 8.22498 10.5692 7.35765 11.149C6.49031 11.7287 5.81435 12.5526 5.41525 13.5165C5.01615 14.4804 4.91182 15.541 5.11547 16.5642C5.31912 17.5874 5.8216 18.5272 6.55937 19.2649C7.29713 20.0025 8.23704 20.5048 9.26026 20.7082C10.2835 20.9117 11.3441 20.8071 12.3079 20.4079C13.2717 20.0086 14.0955 19.3325 14.6751 18.465C15.2547 17.5976 15.564 16.5778 15.564 15.5345C15.5637 14.1354 15.0077 12.7937 14.0183 11.8045C13.0289 10.8152 11.6871 10.2595 10.288 10.2595ZM12.934 16.5405H11.294V18.1825C11.2858 18.4439 11.1761 18.6919 10.9882 18.874C10.8004 19.056 10.5491 19.1578 10.2875 19.1578C10.0259 19.1578 9.77461 19.056 9.58676 18.874C9.3989 18.6919 9.28924 18.4439 9.281 18.1825V16.5405H7.641C7.37433 16.5405 7.11857 16.4346 6.93 16.246C6.74143 16.0574 6.63549 15.8017 6.63549 15.535C6.63549 15.2683 6.74143 15.0126 6.93 14.824C7.11857 14.6354 7.37433 14.5295 7.641 14.5295H9.281V12.8875C9.28924 12.6261 9.3989 12.3781 9.58676 12.196C9.77461 12.014 10.0259 11.9122 10.2875 11.9122C10.5491 11.9122 10.8004 12.014 10.9882 12.196C11.1761 12.3781 11.2858 12.6261 11.294 12.8875V14.5295H12.934C13.2007 14.5295 13.4564 14.6354 13.645 14.824C13.8336 15.0126 13.9395 15.2683 13.9395 15.535C13.9395 15.8017 13.8336 16.0574 13.645 16.246C13.4564 16.4346 13.2007 16.5405 12.934 16.5405Z" fill="#73B6B1"/>
<path d="M26.959 13.3425C28.0862 13.3425 29 12.4287 29 11.3015C29 10.1743 28.0862 9.2605 26.959 9.2605C25.8318 9.2605 24.918 10.1743 24.918 11.3015C24.918 12.4287 25.8318 13.3425 26.959 13.3425Z" fill="#73B6B1"/>
<path d="M26.959 21.8095C28.0862 21.8095 29 20.8958 29 19.7685C29 18.6413 28.0862 17.7275 26.959 17.7275C25.8318 17.7275 24.918 18.6413 24.918 19.7685C24.918 20.8958 25.8318 21.8095 26.959 21.8095Z" fill="#73B6B1"/>
<path d="M31.193 17.5765C32.3202 17.5765 33.234 16.6627 33.234 15.5355C33.234 14.4083 32.3202 13.4945 31.193 13.4945C30.0658 13.4945 29.152 14.4083 29.152 15.5355C29.152 16.6627 30.0658 17.5765 31.193 17.5765Z" fill="#73B6B1"/>
<path d="M22.726 17.5765C23.8532 17.5765 24.767 16.6627 24.767 15.5355C24.767 14.4083 23.8532 13.4945 22.726 13.4945C21.5988 13.4945 20.685 14.4083 20.685 15.5355C20.685 16.6627 21.5988 17.5765 22.726 17.5765Z" fill="#73B6B1"/>
</g>
<defs>
<clipPath id="clip0_1105_12537">
<rect width="38" height="25.365" fill="white" transform="translate(0.125 2.85254)"/>
</clipPath>
</defs>
</svg>
