<svg width="23" height="18" viewBox="0 0 23 18" fill="none" xmlns="http://www.w3.org/2000/svg">
<path d="M2.5 3.85H2.975V3.375V1.6875C2.975 1.01819 3.51819 0.475 4.1875 0.475H13.1875C13.8568 0.475 14.4 1.01819 14.4 1.6875V3.375V3.85H14.875H16.6574C17.1302 3.85 17.5821 4.03628 17.9141 4.3683L20.6317 7.08588C20.9637 7.4179 21.15 7.8698 21.15 8.34258V9V10.125V12.375V12.85H21.625C21.9849 12.85 22.275 13.1401 22.275 13.5C22.275 13.8599 21.9849 14.15 21.625 14.15H20.5H20.025V14.625C20.025 16.2259 18.7259 17.525 17.125 17.525C15.5241 17.525 14.225 16.2259 14.225 14.625V14.15H13.75H9.25H8.775V14.625C8.775 16.2259 7.47595 17.525 5.875 17.525C4.27405 17.525 2.975 16.2259 2.975 14.625V10.6H7.5625C8.13421 10.6 8.6 10.1342 8.6 9.5625C8.6 8.99079 8.13421 8.525 7.5625 8.525H2.5H0.8125C0.76546 8.525 0.725 8.48454 0.725 8.4375C0.725 8.39046 0.76546 8.35 0.8125 8.35H2.5H8.6875C9.25921 8.35 9.725 7.88421 9.725 7.3125C9.725 6.74079 9.25921 6.275 8.6875 6.275H2.5H1.9375C1.89046 6.275 1.85 6.23454 1.85 6.1875C1.85 6.14046 1.89046 6.1 1.9375 6.1H2.5H9.8125C10.3842 6.1 10.85 5.63421 10.85 5.0625C10.85 4.49079 10.3842 4.025 9.8125 4.025H2.5H0.8125C0.76546 4.025 0.725 3.98454 0.725 3.9375C0.725 3.89046 0.76546 3.85 0.8125 3.85H2.5ZM19.85 8.34258V8.14583L19.7109 8.0067L16.9933 5.28912L16.8542 5.15H16.6574H14.875H14.4V5.625V9V9.475H14.875H19.375H19.85V9V8.34258ZM3.7125 14.625C3.7125 15.819 4.68102 16.7875 5.875 16.7875C7.06898 16.7875 8.0375 15.819 8.0375 14.625C8.0375 13.431 7.06898 12.4625 5.875 12.4625C4.68102 12.4625 3.7125 13.431 3.7125 14.625ZM17.125 16.7875C18.319 16.7875 19.2875 15.819 19.2875 14.625C19.2875 13.431 18.319 12.4625 17.125 12.4625C15.931 12.4625 14.9625 13.431 14.9625 14.625C14.9625 15.819 15.931 16.7875 17.125 16.7875Z" stroke="#5CB8B2" stroke-width="0.95"/>
</svg>
