<svg width="27" height="26" viewBox="0 0 27 26" fill="none" xmlns="http://www.w3.org/2000/svg">
<path d="M25.215 8.75952L14.492 0.58551C14.2046 0.374382 13.8572 0.260559 13.5005 0.260559C13.1439 0.260559 12.7965 0.374382 12.509 0.58551L1.78605 8.75952C1.456 9.00118 1.18764 9.3173 1.00276 9.68219C0.817875 10.0471 0.721699 10.4504 0.722047 10.8595V25.7435H7.82905C8.28628 25.7435 8.72479 25.5619 9.0481 25.2386C9.37141 24.9153 9.55305 24.4768 9.55305 24.0195V18.6595C9.55305 18.5123 9.61152 18.3712 9.7156 18.2671C9.81969 18.163 9.96085 18.1045 10.108 18.1045H16.892C17.0393 18.1045 17.1806 18.163 17.2848 18.267C17.3891 18.3711 17.4478 18.5122 17.448 18.6595V24.0195C17.448 24.4766 17.6295 24.9149 17.9526 25.2382C18.2757 25.5615 18.714 25.7433 19.171 25.7435H26.278V10.8555C26.2779 10.4472 26.1816 10.0447 25.9969 9.68054C25.8122 9.3164 25.5444 9.00089 25.215 8.75952V8.75952ZM25.06 24.5205H19.167C19.0332 24.5202 18.9049 24.467 18.8102 24.3723C18.7156 24.2777 18.6623 24.1494 18.662 24.0155V18.6555C18.6615 18.1852 18.4744 17.7342 18.1419 17.4017C17.8093 17.0691 17.3584 16.8821 16.888 16.8815H10.108C9.63772 16.8821 9.1868 17.0691 8.85423 17.4017C8.52165 17.7342 8.33458 18.1852 8.33405 18.6555V24.0155C8.33471 24.0816 8.32226 24.1471 8.29743 24.2084C8.2726 24.2696 8.23588 24.3254 8.18938 24.3723C8.14289 24.4193 8.08754 24.4566 8.02655 24.482C7.96556 24.5074 7.90013 24.5205 7.83405 24.5205H1.94105V10.8555C1.94147 10.6387 1.99281 10.425 2.09095 10.2317C2.18909 10.0384 2.33128 9.87079 2.50605 9.74249L2.51505 9.73553L2.52505 9.72852L13.235 1.56354C13.3126 1.50882 13.4052 1.47943 13.5 1.47949C13.5952 1.47955 13.6881 1.50892 13.766 1.56354L24.476 9.72852L24.486 9.73553L24.495 9.74249C24.6698 9.87079 24.812 10.0384 24.9101 10.2317C25.0083 10.425 25.0596 10.6387 25.06 10.8555V24.5205Z" fill="white"/>
<path d="M17.9381 12.3905H8.98108C8.81943 12.3905 8.6644 12.4547 8.5501 12.569C8.43579 12.6833 8.37158 12.8384 8.37158 13C8.37158 13.1616 8.43579 13.3167 8.5501 13.431C8.6644 13.5453 8.81943 13.6095 8.98108 13.6095H17.9381C18.0997 13.6095 18.2548 13.5453 18.3691 13.431C18.4834 13.3167 18.5476 13.1616 18.5476 13C18.5476 12.8384 18.4834 12.6833 18.3691 12.569C18.2548 12.4547 18.0997 12.3905 17.9381 12.3905V12.3905Z" fill="white"/>
</svg>
