<svg width="27" height="26" viewBox="0 0 27 26" fill="none" xmlns="http://www.w3.org/2000/svg">
<path d="M25.215 8.75946L14.492 0.585449C14.2045 0.374321 13.8572 0.260498 13.5005 0.260498C13.1438 0.260498 12.7965 0.374321 12.509 0.585449L1.78599 8.75946C1.45594 9.00112 1.18757 9.31723 1.00269 9.68213C0.817814 10.047 0.721638 10.4504 0.721986 10.8594V25.7435H7.82899C8.28622 25.7435 8.72473 25.5618 9.04804 25.2385C9.37135 24.9152 9.55299 24.4767 9.55299 24.0195V18.6594C9.55299 18.5122 9.61146 18.3711 9.71554 18.267C9.81963 18.1629 9.96079 18.1044 10.108 18.1044H16.892C17.0393 18.1044 17.1805 18.1629 17.2848 18.267C17.389 18.371 17.4477 18.5121 17.448 18.6594V24.0195C17.448 24.4765 17.6295 24.9149 17.9526 25.2382C18.2757 25.5614 18.7139 25.7432 19.171 25.7435H26.278V10.8555C26.2778 10.4472 26.1815 10.0446 25.9968 9.68048C25.8121 9.31634 25.5443 9.00083 25.215 8.75946ZM25.06 24.5204H19.167C19.0331 24.5202 18.9048 24.4669 18.8102 24.3723C18.7155 24.2776 18.6623 24.1493 18.662 24.0154V18.6555C18.6615 18.1851 18.4744 17.7342 18.1418 17.4016C17.8092 17.069 17.3583 16.882 16.888 16.8815H10.108C9.63766 16.882 9.18674 17.069 8.85417 17.4016C8.52159 17.7342 8.33451 18.1851 8.33399 18.6555V24.0154C8.33465 24.0815 8.3222 24.1471 8.29737 24.2083C8.27254 24.2696 8.23582 24.3253 8.18932 24.3723C8.14283 24.4192 8.08748 24.4565 8.02649 24.4819C7.9655 24.5074 7.90007 24.5205 7.83399 24.5204H1.94099V10.8555C1.9414 10.6387 1.99275 10.425 2.09089 10.2316C2.18903 10.0383 2.33121 9.87073 2.50599 9.74243L2.51499 9.73547L2.52499 9.72845L13.235 1.56348C13.3125 1.50876 13.4051 1.47937 13.5 1.47943C13.5952 1.47949 13.688 1.50886 13.766 1.56348L24.476 9.72845L24.486 9.73547L24.495 9.74243C24.6698 9.87073 24.8119 10.0383 24.9101 10.2316C25.0082 10.425 25.0596 10.6387 25.06 10.8555V24.5204Z" fill="#EF6079"/>
<path d="M17.938 12.3904H8.98099C8.81934 12.3904 8.66431 12.4546 8.55001 12.5689C8.4357 12.6832 8.37149 12.8382 8.37149 12.9999C8.37149 13.1615 8.4357 13.3165 8.55001 13.4308C8.66431 13.5452 8.81934 13.6094 8.98099 13.6094H17.938C18.0996 13.6094 18.2547 13.5452 18.369 13.4308C18.4833 13.3165 18.5475 13.1615 18.5475 12.9999C18.5475 12.8382 18.4833 12.6832 18.369 12.5689C18.2547 12.4546 18.0996 12.3904 17.938 12.3904Z" fill="#EF6079"/>
</svg>
