<svg width="50" height="41" viewBox="0 0 50 41" fill="none" xmlns="http://www.w3.org/2000/svg">
<g clip-path="url(#clip0_2077_18792)">
<path d="M17.6874 17.3868H17.6875V17.375C17.6875 13.2933 20.9296 10 24.9922 10C28.9924 10 32.2969 13.2974 32.2969 17.375C32.2969 21.4567 29.0548 24.75 24.9922 24.75C20.9197 24.75 17.6238 21.4455 17.6874 17.3868ZM21.1016 28.75H28.8984C34.6628 28.75 39.25 33.1226 39.25 38.4141C39.25 39.1125 38.6386 39.75 37.7812 39.75H12.2188C11.3614 39.75 10.75 39.1125 10.75 38.4141C10.75 33.1226 15.3372 28.75 21.1016 28.75ZM45.5 6.75C45.5 9.78735 43.0373 12.25 40 12.25C36.9612 12.25 34.5 9.78747 34.5 6.75C34.5 3.71265 36.9627 1.25 40 1.25C43.0388 1.25 45.5 3.71253 45.5 6.75ZM11.7109 16.25C12.4321 16.25 13.0851 16.3444 13.6772 16.5768C13.6453 16.8279 13.6172 17.1041 13.6172 17.375C13.6172 19.6451 14.3099 21.7376 15.4626 23.5H1.37656C1.07254 23.5 0.75 23.223 0.75 22.7891C0.75 19.1384 3.53568 16.25 6.88125 16.25H11.7109ZM15.5 6.75C15.5 9.78735 13.0373 12.25 10 12.25C6.96265 12.25 4.5 9.78735 4.5 6.75C4.5 3.71265 6.96265 1.25 10 1.25C13.0388 1.25 15.5 3.71253 15.5 6.75ZM38.2859 16.25H43.1172C46.4673 16.25 49.25 19.1383 49.25 22.7891C49.25 23.2215 48.9279 23.5 48.6203 23.5H34.5172C35.6678 21.7379 36.3594 19.6455 36.3594 17.375C36.3594 17.1183 36.3328 16.8535 36.3024 16.6117C36.9283 16.3792 37.5933 16.25 38.2859 16.25Z" stroke="#333F48" stroke-width="1.5"/>
<path opacity="0.49" d="M17.6874 17.3868L17.6875 17.3868V17.375C17.6875 13.2933 20.9296 10 24.9922 10C28.9924 10 32.2969 13.2974 32.2969 17.375C32.2969 21.4567 29.0548 24.75 24.9922 24.75C20.9197 24.75 17.6238 21.4455 17.6874 17.3868ZM21.1016 28.75H28.8984C34.6628 28.75 39.25 33.1226 39.25 38.4141C39.25 39.1125 38.6386 39.75 37.7812 39.75H12.2188C11.3614 39.75 10.75 39.1125 10.75 38.4141C10.75 33.1226 15.3372 28.75 21.1016 28.75Z" fill="#EF6079" stroke="#333F48" stroke-width="1.5"/>
</g>
<defs>
<clipPath id="clip0_2077_18792">
<rect width="50" height="40" fill="white" transform="translate(0 0.5)"/>
</clipPath>
</defs>
</svg>
