<svg width="14" height="14" viewBox="0 0 14 14" fill="none" xmlns="http://www.w3.org/2000/svg">
<g clip-path="url(#clip0_2570_17894)">
<path d="M11.9959 12.4731H1.34852C1.21077 12.4728 1.07644 12.4301 0.96371 12.351C0.850983 12.2718 0.765305 12.1599 0.718272 12.0304L0.0819348 10.2699C0.00563879 10.0585 -0.0186496 9.83191 0.0111146 9.60916C0.0408788 9.38641 0.12382 9.1741 0.252939 8.99017C0.382057 8.80624 0.553557 8.6561 0.752939 8.55243C0.952322 8.44875 1.17373 8.39459 1.39846 8.39453H12.0423C12.2728 8.39454 12.4998 8.45147 12.703 8.56025C12.9062 8.66903 13.0794 8.82631 13.2073 9.01811C13.3351 9.20991 13.4136 9.43032 13.4358 9.65975C13.458 9.88918 13.4232 10.1205 13.3345 10.3333L12.6137 12.0618C12.5628 12.1837 12.477 12.2878 12.3671 12.3609C12.2571 12.4341 12.128 12.4732 11.9959 12.4731ZM1.39942 9.06095C1.28167 9.06098 1.16567 9.08935 1.06121 9.14368C0.956747 9.19801 0.866907 9.27669 0.79928 9.37308C0.731653 9.46947 0.688221 9.58072 0.672673 9.69744C0.657125 9.81415 0.669913 9.93289 0.709949 10.0436L1.34596 11.8041L11.9959 11.8063C11.9967 11.8064 11.9974 11.8062 11.9981 11.8058C11.9987 11.8054 11.9992 11.8048 11.9994 11.8041L12.7203 10.0756C12.7668 9.96417 12.785 9.84295 12.7734 9.72275C12.7618 9.60254 12.7207 9.48707 12.6537 9.38658C12.5867 9.28609 12.4959 9.2037 12.3895 9.14673C12.283 9.08975 12.1641 9.05996 12.0433 9.05999L1.39942 9.06095Z" fill="#5CB8B2"/>
<path d="M8.26816 9.06101H5.25581C5.17381 9.06097 5.0947 9.03072 5.03359 8.97605C4.97248 8.92137 4.93364 8.8461 4.92451 8.76461L4.23857 2.56227C4.23718 2.55004 4.23644 2.53776 4.23633 2.52546C4.24381 1.86054 4.51321 1.22539 4.98605 0.757847C5.45888 0.290302 6.09702 0.0280762 6.76198 0.0280762C7.42694 0.0280762 8.06508 0.290302 8.53792 0.757847C9.01076 1.22539 9.28015 1.86054 9.28763 2.52546C9.28763 2.53776 9.28699 2.55004 9.28571 2.56227L8.59945 8.76461C8.59039 8.84613 8.55158 8.92144 8.49045 8.97613C8.42933 9.03082 8.35018 9.06104 8.26816 9.06101ZM5.55413 8.39459H7.96983L8.62121 2.50785C8.62121 2.01479 8.42535 1.54193 8.07671 1.19329C7.72806 0.844645 7.25519 0.648784 6.76214 0.648784C6.26908 0.648784 5.79622 0.844645 5.44758 1.19329C5.09893 1.54193 4.90307 2.01479 4.90307 2.50785L5.55413 8.39459Z" fill="#5CB8B2"/>
<path d="M11.8015 13.9993H1.64132C1.55295 13.9993 1.46819 13.9642 1.4057 13.9017C1.34321 13.8392 1.30811 13.7545 1.30811 13.6661C1.30811 13.5777 1.34321 13.493 1.4057 13.4305C1.46819 13.368 1.55295 13.3329 1.64132 13.3329H11.8015C11.8899 13.3329 11.9747 13.368 12.0372 13.4305C12.0997 13.493 12.1348 13.5777 12.1348 13.6661C12.1348 13.7545 12.0997 13.8392 12.0372 13.9017C11.9747 13.9642 11.8899 13.9993 11.8015 13.9993Z" fill="#5CB8B2"/>
</g>
<defs>
<clipPath id="clip0_2570_17894">
<rect width="13.4437" height="14" fill="white"/>
</clipPath>
</defs>
</svg>
