<svg width="15" height="10" viewBox="0 0 15 10" fill="none" xmlns="http://www.w3.org/2000/svg">
<g clip-path="url(#clip0_2474_40134)">
<path d="M14.4569 3.85635C14.4128 3.85639 14.3691 3.84773 14.3283 3.83087C14.2875 3.814 14.2504 3.78927 14.2192 3.75807C14.1879 3.72686 14.1632 3.68981 14.1463 3.64903C14.1293 3.60824 14.1206 3.56453 14.1206 3.52039V0.672259H11.2009L10.3715 1.96088C10.341 2.00818 10.2992 2.04708 10.2499 2.07402C10.2005 2.10096 10.1452 2.11508 10.0889 2.11508C10.0327 2.11508 9.97735 2.10096 9.92799 2.07402C9.87862 2.04708 9.83681 2.00818 9.80638 1.96088L8.97699 0.672259H0.67226V3.52039C0.669528 3.60771 0.632916 3.69055 0.570178 3.75135C0.50744 3.81216 0.4235 3.84617 0.33613 3.84617C0.24876 3.84617 0.164819 3.81216 0.102081 3.75135C0.0393434 3.69055 0.00273131 3.60771 0 3.52039V0.335964C8.71293e-05 0.246831 0.0355578 0.16138 0.0986153 0.0983846C0.161673 0.0353887 0.247162 -4.25851e-08 0.336295 0H9.15911C9.21531 5.53715e-05 9.2706 0.0141988 9.31993 0.0411315C9.36926 0.0680642 9.41105 0.106925 9.44149 0.154173L10.0878 1.15812L10.7334 0.154173C10.7639 0.106878 10.8057 0.0679864 10.8551 0.0410512C10.9045 0.0141161 10.9599 4.15644e-07 11.0161 0H14.4569C14.546 8.70311e-05 14.6314 0.0355185 14.6944 0.0985049C14.7574 0.161491 14.7928 0.246888 14.7929 0.335964V3.52039C14.7929 3.5645 14.7842 3.60819 14.7673 3.64895C14.7504 3.68971 14.7257 3.72675 14.6945 3.75795C14.6633 3.78914 14.6263 3.81388 14.5855 3.83077C14.5447 3.84765 14.5011 3.85635 14.4569 3.85635Z" fill="#EF6079"/>
<path d="M14.4569 10H11.016C10.9597 9.99999 10.9043 9.98584 10.855 9.95885C10.8056 9.93185 10.7637 9.89287 10.7333 9.84549L10.0877 8.84089L9.44174 9.84549C9.41131 9.89285 9.36949 9.93181 9.32009 9.95881C9.2707 9.9858 9.21532 9.99996 9.15903 10H0.336215C0.247025 10 0.161487 9.96457 0.0984201 9.9015C0.0353531 9.83844 -7.98475e-05 9.75289 -7.98475e-05 9.6637V6.47961C-0.00148809 6.43459 0.00616883 6.38974 0.0224271 6.34773C0.0386854 6.30572 0.0632163 6.2674 0.0945678 6.23505C0.125919 6.2027 0.163448 6.17699 0.204931 6.15943C0.246413 6.14186 0.291003 6.13281 0.33605 6.13281C0.381097 6.13281 0.425687 6.14186 0.467169 6.15943C0.508652 6.17699 0.546181 6.2027 0.577532 6.23505C0.608884 6.2674 0.63342 6.30572 0.649678 6.34773C0.665936 6.38974 0.673588 6.43459 0.67218 6.47961V9.3284H8.97527L9.80466 8.03846C9.83516 7.9911 9.87705 7.95214 9.9265 7.92515C9.97594 7.89816 10.0314 7.88399 10.0877 7.88395C10.144 7.88402 10.1993 7.89819 10.2487 7.92518C10.2981 7.95217 10.34 7.99112 10.3704 8.03846L11.2008 9.3284H14.1219V6.48027C14.1219 6.43613 14.1306 6.39242 14.1475 6.35164C14.1644 6.31086 14.1891 6.27381 14.2203 6.24259C14.2515 6.21138 14.2886 6.18662 14.3294 6.16973C14.3702 6.15284 14.4139 6.14415 14.458 6.14415C14.5022 6.14415 14.5459 6.15284 14.5866 6.16973C14.6274 6.18662 14.6645 6.21138 14.6957 6.24259C14.7269 6.27381 14.7517 6.31086 14.7686 6.35164C14.7854 6.39242 14.7941 6.43613 14.7941 6.48027V9.66436C14.7941 9.70855 14.7853 9.75229 14.7683 9.79308C14.7513 9.83387 14.7264 9.87091 14.6951 9.90208C14.6637 9.93326 14.6266 9.95795 14.5857 9.97475C14.5448 9.99155 14.5011 10.0001 14.4569 10Z" fill="#EF6079"/>
<path d="M10.0685 3.40173C10.0243 3.40177 9.9806 3.39311 9.9398 3.37625C9.899 3.35938 9.86192 3.33464 9.83069 3.30344C9.79946 3.27223 9.77468 3.23519 9.75778 3.19441C9.74088 3.15363 9.73218 3.10991 9.73218 3.06577V1.86228C9.73218 1.77313 9.76759 1.68763 9.83063 1.6246C9.89366 1.56156 9.97916 1.52615 10.0683 1.52615C10.1574 1.52615 10.2429 1.56156 10.306 1.6246C10.369 1.68763 10.4044 1.77313 10.4044 1.86228V3.06577C10.4044 3.15487 10.369 3.24032 10.306 3.30333C10.243 3.36633 10.1576 3.40173 10.0685 3.40173Z" fill="#EF6079"/>
<path d="M10.0685 6.07397C9.97933 6.07397 9.89385 6.03858 9.83079 5.97558C9.76773 5.91259 9.73226 5.82714 9.73218 5.738V4.53418C9.73218 4.44504 9.76759 4.35954 9.83063 4.2965C9.89366 4.23347 9.97916 4.19806 10.0683 4.19806C10.1574 4.19806 10.2429 4.23347 10.306 4.2965C10.369 4.35954 10.4044 4.44504 10.4044 4.53418V5.738C10.4043 5.82708 10.3689 5.91248 10.3059 5.97546C10.2429 6.03845 10.1575 6.07388 10.0685 6.07397Z" fill="#EF6079"/>
<path d="M10.0685 8.74654C10.0243 8.74658 9.9806 8.73793 9.9398 8.72107C9.899 8.7042 9.86192 8.67946 9.83069 8.64825C9.79946 8.61705 9.77468 8.58001 9.75778 8.53923C9.74088 8.49844 9.73218 8.45473 9.73218 8.41058V7.2071C9.73218 7.11795 9.76759 7.03245 9.83063 6.96942C9.89366 6.90638 9.97916 6.87097 10.0683 6.87097C10.1574 6.87097 10.2429 6.90638 10.306 6.96942C10.369 7.03245 10.4044 7.11795 10.4044 7.2071V8.41058C10.4044 8.49969 10.369 8.58514 10.306 8.64814C10.243 8.71115 10.1576 8.74654 10.0685 8.74654Z" fill="#EF6079"/>
<path d="M0.336374 6.81558C0.247227 6.81558 0.16173 6.78017 0.0986939 6.71713C0.0356578 6.6541 0.000244141 6.5686 0.000244141 6.47945C0.000244141 6.39031 0.0356578 6.30481 0.0986939 6.24177C0.16173 6.17874 0.247227 6.14333 0.336374 6.14333C0.488171 6.1459 0.638958 6.11823 0.779947 6.06192C0.920937 6.00561 1.04931 5.92179 1.15756 5.81535C1.26582 5.70891 1.35181 5.58198 1.4105 5.44197C1.46919 5.30195 1.49942 5.15165 1.49942 4.99983C1.49942 4.84801 1.46919 4.69771 1.4105 4.5577C1.35181 4.41768 1.26582 4.29076 1.15756 4.18432C1.04931 4.07789 0.920937 3.99407 0.779947 3.93776C0.638958 3.88145 0.488171 3.85377 0.336374 3.85635C0.247271 3.85635 0.161815 3.82095 0.0988093 3.75794C0.035804 3.69494 0.00040967 3.60948 0.00040967 3.52038C0.00040967 3.43128 0.035804 3.34583 0.0988093 3.28282C0.161815 3.21982 0.247271 3.18442 0.336374 3.18442C0.817896 3.18442 1.2797 3.3757 1.62018 3.71619C1.96067 4.05668 2.15195 4.51848 2.15195 5C2.15195 5.48153 1.96067 5.94332 1.62018 6.28381C1.2797 6.6243 0.817896 6.81558 0.336374 6.81558Z" fill="#EF6079"/>
<path d="M14.4569 6.81558C13.9754 6.81558 13.5136 6.6243 13.1731 6.28381C12.8326 5.94332 12.6414 5.48153 12.6414 5C12.6414 4.51848 12.8326 4.05668 13.1731 3.71619C13.5136 3.3757 13.9754 3.18442 14.4569 3.18442C14.546 3.18442 14.6315 3.21982 14.6945 3.28282C14.7575 3.34583 14.7929 3.43128 14.7929 3.52038C14.7929 3.60948 14.7575 3.69494 14.6945 3.75794C14.6315 3.82095 14.546 3.85635 14.4569 3.85635C14.3051 3.85377 14.1544 3.88145 14.0134 3.93776C13.8724 3.99407 13.744 4.07789 13.6358 4.18432C13.5275 4.29076 13.4415 4.41768 13.3828 4.5577C13.3241 4.69771 13.2939 4.84801 13.2939 4.99983C13.2939 5.15165 13.3241 5.30195 13.3828 5.44197C13.4415 5.58198 13.5275 5.70891 13.6358 5.81535C13.744 5.92179 13.8724 6.00561 14.0134 6.06192C14.1544 6.11823 14.3051 6.1459 14.4569 6.14333C14.5461 6.14333 14.6316 6.17874 14.6946 6.24177C14.7577 6.30481 14.7931 6.39031 14.7931 6.47945C14.7931 6.5686 14.7577 6.6541 14.6946 6.71713C14.6316 6.78017 14.5461 6.81558 14.4569 6.81558Z" fill="#EF6079"/>
<path d="M8.07784 5.47237H5.79348C5.70438 5.47237 5.61892 5.43698 5.55592 5.37397C5.49291 5.31096 5.45752 5.22551 5.45752 5.13641C5.45752 5.04731 5.49291 4.96186 5.55592 4.89885C5.61892 4.83584 5.70438 4.80045 5.79348 4.80045H8.07784C8.16694 4.80045 8.25239 4.83584 8.3154 4.89885C8.3784 4.96186 8.4138 5.04731 8.4138 5.13641C8.4138 5.22551 8.3784 5.31096 8.3154 5.37397C8.25239 5.43698 8.16694 5.47237 8.07784 5.47237Z" fill="#EF6079"/>
<path d="M8.20948 7.10257H3.67661C3.58928 7.09984 3.50644 7.06322 3.44564 7.00048C3.38483 6.93774 3.35083 6.8538 3.35083 6.76643C3.35083 6.67906 3.38483 6.59512 3.44564 6.53239C3.50644 6.46965 3.58928 6.43304 3.67661 6.43031H8.20948C8.2545 6.4289 8.29936 6.43655 8.34137 6.45281C8.38338 6.46907 8.42169 6.4936 8.45404 6.52495C8.48639 6.5563 8.5121 6.59384 8.52967 6.63533C8.54723 6.67681 8.55628 6.72139 8.55628 6.76643C8.55628 6.81148 8.54723 6.85607 8.52967 6.89755C8.5121 6.93904 8.48639 6.97656 8.45404 7.00792C8.42169 7.03927 8.38338 7.06381 8.34137 7.08007C8.29936 7.09633 8.2545 7.10398 8.20948 7.10257Z" fill="#EF6079"/>
</g>
<defs>
<clipPath id="clip0_2474_40134">
<rect width="14.7929" height="10" fill="white"/>
</clipPath>
</defs>
</svg>
