<svg width="22" height="20" viewBox="0 0 22 20" fill="none" xmlns="http://www.w3.org/2000/svg">
<path d="M7.25 3.75C7.94141 3.75 8.5 3.19141 8.5 2.5C8.5 1.80859 7.94141 1.25 7.25 1.25H4.75C2.67969 1.25 1 2.92969 1 5V15C1 17.0703 2.67969 18.75 4.75 18.75H7.25C7.94141 18.75 8.5 18.1914 8.5 17.5C8.5 16.8086 7.94141 16.25 7.25 16.25H4.75C4.05859 16.25 3.5 15.6914 3.5 15V5C3.5 4.30859 4.05859 3.75 4.75 3.75H7.25ZM20.707 10.6797C20.8945 10.5039 21 10.2578 21 10C21 9.74219 20.8945 9.49609 20.707 9.32031L15.082 4.00781C14.8086 3.75 14.4102 3.67969 14.0664 3.82812C13.7227 3.97656 13.5 4.31641 13.5 4.6875V7.5H8.5C7.80859 7.5 7.25 8.05859 7.25 8.75V11.25C7.25 11.9414 7.80859 12.5 8.5 12.5H13.5V15.3125C13.5 15.6875 13.7227 16.0234 14.0664 16.1719C14.4102 16.3203 14.8086 16.25 15.082 15.9922L20.707 10.6797Z" stroke="#5CB8B2"/>
</svg>
