<svg width="27" height="37" viewBox="0 0 27 37" fill="none" xmlns="http://www.w3.org/2000/svg">
<g clip-path="url(#clip0_2857_27484)">
<path d="M9.6857 4.81949V6.19791C8.32811 6.63675 7.10929 7.42386 6.15083 8.48075V4.81949C6.15078 4.60734 6.19254 4.39727 6.2737 4.20126C6.35486 4.00525 6.47383 3.82716 6.62385 3.67715C6.77386 3.52713 6.95196 3.40814 7.14796 3.32698C7.34397 3.24582 7.55407 3.20408 7.76622 3.20413H8.06639C8.49518 3.20413 8.90645 3.3742 9.21001 3.67702C9.51358 3.97985 9.68466 4.39071 9.6857 4.81949Z" stroke="#5CB8B2" stroke-width="1.69832" stroke-linecap="round" stroke-linejoin="round"/>
<path d="M13.2206 3.01614V5.85588C12.8919 5.81283 12.5607 5.79173 12.2292 5.7927C11.3651 5.79162 10.5064 5.92895 9.68569 6.1995V3.01614C9.68564 2.80399 9.72738 2.59392 9.80854 2.39791C9.8897 2.2019 10.0087 2.02381 10.1587 1.87379C10.3087 1.72378 10.4868 1.60479 10.6828 1.52363C10.8788 1.44246 11.0889 1.4007 11.3011 1.40076H11.6012C12.03 1.40076 12.4413 1.57082 12.7449 1.87365C13.0484 2.17648 13.2195 2.58736 13.2206 3.01614V3.01614Z" stroke="#5CB8B2" stroke-width="1.69832" stroke-linecap="round" stroke-linejoin="round"/>
<path d="M16.7554 4.81949V7.1537C15.6967 6.44674 14.4851 6.00136 13.2206 5.85428V4.81949C13.2205 4.60733 13.2622 4.39722 13.3433 4.20119C13.4245 4.00516 13.5434 3.82705 13.6935 3.67702C13.8435 3.527 14.0216 3.40802 14.2176 3.32688C14.4137 3.24574 14.6238 3.20403 14.8359 3.20413H15.1361C15.5649 3.20413 15.9762 3.3742 16.2798 3.67702C16.5833 3.97985 16.7544 4.39071 16.7554 4.81949V4.81949Z" stroke="#5CB8B2" stroke-width="1.69832" stroke-linecap="round" stroke-linejoin="round"/>
<path d="M17.415 7.63951C17.702 7.38031 18.0579 7.20984 18.4398 7.14873C18.8216 7.08763 19.213 7.13849 19.5665 7.2952C19.9201 7.45191 20.2206 7.70773 20.4318 8.0317C20.6429 8.35566 20.7557 8.73389 20.7563 9.1206V21.8975C20.7549 22.2557 20.6976 22.6115 20.5865 22.952L19.2871 26.9569C19.2006 27.2248 19.1566 27.5047 19.1568 27.7863V31.6055" stroke="#5CB8B2" stroke-width="1.69832" stroke-linecap="round" stroke-linejoin="round"/>
<path d="M21.2477 31.9775H3.21235V35.6708H21.2477V31.9775Z" stroke="#5CB8B2" stroke-width="1.69832" stroke-linecap="round" stroke-linejoin="round"/>
<path d="M12.7683 9.95391L13.8786 12.2028C13.9026 12.2518 13.9383 12.2943 13.9825 12.3264C14.0267 12.3585 14.0781 12.3794 14.1321 12.3872L16.614 12.7479C16.6763 12.7569 16.7347 12.7831 16.7828 12.8236C16.8309 12.8642 16.8667 12.9173 16.8861 12.9771C16.9055 13.0369 16.9078 13.1009 16.8928 13.162C16.8777 13.223 16.8459 13.2786 16.8009 13.3225L15.005 15.0734C14.9658 15.1115 14.9366 15.1585 14.9197 15.2105C14.9028 15.2624 14.8989 15.3177 14.9082 15.3716L15.332 17.8436C15.3427 17.9056 15.3359 17.9694 15.3122 18.0277C15.2885 18.086 15.249 18.1365 15.1981 18.1735C15.1472 18.2104 15.087 18.2324 15.0243 18.237C14.9615 18.2415 14.8987 18.2284 14.843 18.1991L12.623 17.0319C12.5746 17.0067 12.5208 16.9934 12.4662 16.9934C12.4116 16.9934 12.3578 17.0067 12.3094 17.0319L10.0897 18.1991C10.0341 18.2284 9.9713 18.2415 9.90854 18.237C9.84579 18.2324 9.78556 18.2104 9.73466 18.1735C9.68377 18.1365 9.64425 18.086 9.62059 18.0277C9.59693 17.9694 9.59006 17.9056 9.60078 17.8436L10.0246 15.3716C10.0339 15.3177 10.03 15.2624 10.0131 15.2105C9.99623 15.1585 9.96695 15.1115 9.9278 15.0734L8.13193 13.3225C8.08692 13.2786 8.05508 13.2231 8.03999 13.1621C8.02491 13.1011 8.0272 13.037 8.0466 12.9772C8.06599 12.9175 8.1017 12.8643 8.14972 12.8238C8.19775 12.7832 8.25616 12.7569 8.31835 12.7479L10.8007 12.3872C10.8547 12.3794 10.9061 12.3585 10.9502 12.3264C10.9944 12.2942 11.0301 12.2518 11.0542 12.2028L12.1641 9.95391C12.1919 9.89752 12.2349 9.85004 12.2883 9.81684C12.3417 9.78364 12.4033 9.76605 12.4662 9.76605C12.5291 9.76605 12.5907 9.78364 12.6441 9.81684C12.6975 9.85004 12.7405 9.89752 12.7683 9.95391V9.95391Z" stroke="#5CB8B2" stroke-width="1.18487" stroke-linecap="round" stroke-linejoin="round"/>
<path d="M6.04025 31.6051V27.3648C6.04031 27.0566 5.92555 26.7594 5.71836 26.5311L2.13767 22.5851C1.73114 22.1372 1.50589 21.554 1.50574 20.9492V13.3921C1.50574 12.7908 1.7446 12.2142 2.16975 11.789C2.59491 11.3639 3.17153 11.125 3.77279 11.125V11.125C4.37406 11.125 4.95068 11.3639 5.37584 11.789C5.80099 12.2142 6.03985 12.7908 6.03985 13.3921V20.1308H6.31632C7.24859 20.1308 8.14268 20.5012 8.80189 21.1604C9.46111 21.8196 9.83145 22.7136 9.83145 23.6459" stroke="#5CB8B2" stroke-width="1.69832" stroke-linecap="round" stroke-linejoin="round"/>
<path d="M6.80647 20.1676C6.53254 19.9286 6.27646 19.6698 6.04025 19.3935" stroke="#5CB8B2" stroke-width="1.69832" stroke-linecap="round" stroke-linejoin="round"/>
<path d="M9.20384 21.6368C10.7251 22.2391 12.3916 22.3732 13.9895 22.0219C15.5875 21.6706 17.044 20.85 18.1724 19.6652C19.3008 18.4805 20.0496 16.9857 20.3226 15.3725C20.5956 13.7593 20.3805 12.1014 19.7048 10.6113C19.0292 9.12119 17.9238 7.86693 16.5304 7.00937C15.137 6.15181 13.5193 5.73003 11.8846 5.79817C10.2499 5.86632 8.67279 6.42126 7.35564 7.39181C6.03848 8.36237 5.04131 9.70429 4.492 11.2454" stroke="#5CB8B2" stroke-width="1.69832" stroke-linecap="round" stroke-linejoin="round"/>
<path d="M20.8606 5.1094L21.9479 2.49479C21.9549 2.47772 21.966 2.46263 21.9802 2.4508C21.9943 2.43896 22.0111 2.43072 22.0292 2.42683C22.0472 2.42295 22.0659 2.42352 22.0837 2.42847C22.1015 2.43343 22.1178 2.44264 22.1312 2.4553L23.2698 3.53669C23.2821 3.54835 23.2916 3.56261 23.2977 3.57842C23.3038 3.59422 23.3062 3.61117 23.3049 3.62805C23.3036 3.64493 23.2985 3.66131 23.29 3.67597C23.2816 3.69064 23.27 3.70323 23.256 3.71283L21.0304 5.24686C21.0102 5.26061 20.986 5.26749 20.9615 5.26646C20.9371 5.26543 20.9136 5.25655 20.8945 5.24114C20.8755 5.22574 20.8619 5.2046 20.8558 5.18088C20.8497 5.15716 20.8514 5.13209 20.8606 5.1094Z" fill="#5CB8B2"/>
<path d="M19.9293 4.54462L19.6852 0.821358C19.6839 0.801043 19.688 0.780735 19.6972 0.762563C19.7064 0.74439 19.7203 0.729013 19.7374 0.718038C19.7546 0.707063 19.7744 0.700899 19.7947 0.700176C19.815 0.699452 19.8352 0.704211 19.8531 0.71394L21.3215 1.50583C21.3465 1.51917 21.3656 1.54135 21.375 1.56803C21.3844 1.5947 21.3835 1.62393 21.3725 1.64999L20.1481 4.58136C20.1381 4.60489 20.1204 4.62435 20.0979 4.63663C20.0754 4.64891 20.0495 4.65329 20.0243 4.64905C19.999 4.64481 19.9759 4.63221 19.9587 4.61327C19.9415 4.59433 19.9311 4.57015 19.9293 4.54462Z" fill="#5CB8B2"/>
<path d="M21.8776 5.69472L25.8473 3.70019C25.8644 3.69163 25.8833 3.6875 25.9024 3.68818C25.9215 3.68887 25.9401 3.69434 25.9565 3.70409C25.9729 3.71385 25.9866 3.72758 25.9963 3.74401C26.006 3.76045 26.0114 3.77905 26.012 3.79813L26.093 6.07863C26.0937 6.09467 26.0909 6.11066 26.0849 6.12557C26.079 6.14048 26.07 6.15397 26.0585 6.16515C26.0469 6.17633 26.0332 6.18495 26.0181 6.19046C26.003 6.19597 25.987 6.19824 25.971 6.19712L21.9207 5.91076C21.8955 5.90935 21.8715 5.89962 21.8524 5.88308C21.8334 5.86655 21.8204 5.84416 21.8154 5.81942C21.8105 5.79468 21.8139 5.76902 21.8252 5.74645C21.8365 5.72388 21.8549 5.70567 21.8776 5.69472Z" fill="#5CB8B2"/>
</g>
<defs>
<clipPath id="clip0_2857_27484">
<rect width="25.436" height="35.9699" fill="white" transform="translate(0.656986 0.550049)"/>
</clipPath>
</defs>
</svg>
