<svg width="64" height="90" viewBox="0 0 64 90" fill="none" xmlns="http://www.w3.org/2000/svg">
<g clip-path="url(#clip0_3346_35406)">
<path d="M22.77 10.6827V14.1321C19.3727 15.2303 16.3228 17.1999 13.9243 19.8447V10.6827C13.9242 10.1518 14.0287 9.62617 14.2318 9.13567C14.4349 8.64518 14.7326 8.1995 15.108 7.82411C15.4834 7.44872 15.929 7.15095 16.4195 6.94785C16.91 6.74475 17.4358 6.64031 17.9667 6.64044H18.7178C19.7908 6.64044 20.82 7.06601 21.5796 7.82381C22.3393 8.58161 22.7674 9.60973 22.77 10.6827Z" stroke="white" stroke-width="4.24936" stroke-linecap="round" stroke-linejoin="round"/>
<path d="M31.6147 6.17058V13.2768C30.7922 13.169 29.9635 13.1162 29.134 13.1187C26.9716 13.1159 24.8227 13.4596 22.769 14.1366V6.17058C22.7689 5.6397 22.8734 5.11402 23.0765 4.62352C23.2796 4.13303 23.5773 3.68736 23.9527 3.31197C24.3281 2.93658 24.7738 2.6388 25.2643 2.4357C25.7548 2.2326 26.2805 2.12811 26.8113 2.12823H27.5625C28.6355 2.12823 29.6647 2.5538 30.4244 3.3116C31.184 4.0694 31.6121 5.09759 31.6147 6.17058V6.17058Z" stroke="white" stroke-width="4.24936" stroke-linecap="round" stroke-linejoin="round"/>
<path d="M40.459 10.6827V16.5239C37.8095 14.7548 34.7777 13.6402 31.6133 13.2722V10.6827C31.613 10.1518 31.7174 9.62604 31.9204 9.13549C32.1235 8.64494 32.4212 8.19923 32.7967 7.82381C33.1721 7.4484 33.6178 7.15066 34.1083 6.94761C34.5989 6.74456 35.1247 6.64018 35.6556 6.64044H36.4067C37.4797 6.64044 38.5089 7.06601 39.2686 7.82381C40.0282 8.58161 40.4563 9.60973 40.459 10.6827V10.6827Z" stroke="white" stroke-width="4.24936" stroke-linecap="round" stroke-linejoin="round"/>
<path d="M42.1074 17.7383C42.8255 17.0898 43.7161 16.6632 44.6715 16.5103C45.627 16.3574 46.6062 16.4847 47.4908 16.8768C48.3754 17.2689 49.1273 17.909 49.6557 18.7196C50.184 19.5302 50.4661 20.4766 50.4678 21.4442V53.4132C50.4642 54.3095 50.3208 55.1997 50.0428 56.0518L46.7916 66.0724C46.5752 66.7428 46.4651 67.4431 46.4655 68.1476V77.7037" stroke="white" stroke-width="4.24936" stroke-linecap="round" stroke-linejoin="round"/>
<path d="M51.6975 78.6346H6.57129V87.8755H51.6975V78.6346Z" stroke="white" stroke-width="4.24936" stroke-linecap="round" stroke-linejoin="round"/>
<path d="M30.4819 23.5293L33.2599 29.1565C33.3202 29.2792 33.4095 29.3854 33.52 29.4658C33.6306 29.5462 33.7591 29.5985 33.8944 29.618L40.1046 30.5203C40.2603 30.5429 40.4065 30.6086 40.5268 30.71C40.6471 30.8114 40.7367 30.9444 40.7854 31.094C40.834 31.2436 40.8398 31.4038 40.8021 31.5566C40.7644 31.7093 40.6847 31.8484 40.5721 31.9582L36.0785 36.3392C35.9805 36.4346 35.9072 36.5523 35.865 36.6823C35.8229 36.8123 35.813 36.9507 35.8363 37.0854L36.8967 43.2709C36.9235 43.426 36.9064 43.5856 36.8472 43.7315C36.7879 43.8774 36.6891 44.0037 36.5617 44.0963C36.4344 44.1889 36.2837 44.2439 36.1266 44.2552C35.9696 44.2665 35.8125 44.2337 35.6732 44.1603L30.1182 41.24C29.9971 41.1767 29.8625 41.1437 29.7259 41.1437C29.5892 41.1437 29.4546 41.1767 29.3335 41.24L23.7795 44.1603C23.6402 44.2337 23.4831 44.2665 23.3261 44.2552C23.1691 44.2439 23.0184 44.1889 22.891 44.0963C22.7637 44.0037 22.6648 43.8774 22.6056 43.7315C22.5464 43.5856 22.5292 43.426 22.556 43.2709L23.6164 37.0854C23.6397 36.9507 23.6299 36.8123 23.5877 36.6823C23.5455 36.5523 23.4722 36.4346 23.3743 36.3392L18.8807 31.9582C18.768 31.8485 18.6883 31.7095 18.6506 31.5568C18.6129 31.4041 18.6186 31.2439 18.6671 31.0943C18.7157 30.9447 18.805 30.8117 18.9252 30.7103C19.0453 30.6088 19.1915 30.5431 19.3471 30.5203L25.5584 29.618C25.6936 29.5984 25.8221 29.5461 25.9326 29.4657C26.0432 29.3853 26.1325 29.2792 26.1928 29.1565L28.9699 23.5293C29.0395 23.3882 29.1472 23.2694 29.2808 23.1864C29.4144 23.1033 29.5685 23.0593 29.7259 23.0593C29.8832 23.0593 30.0374 23.1033 30.171 23.1864C30.3046 23.2694 30.4123 23.3882 30.4819 23.5293V23.5293Z" stroke="white" stroke-width="2.96467" stroke-linecap="round" stroke-linejoin="round"/>
<path d="M13.6476 77.7028V67.0932C13.6477 66.3219 13.3606 65.5782 12.8422 65.0071L3.88289 55.1337C2.86573 54.0131 2.30211 52.554 2.30176 51.0406V32.1319C2.30176 30.6274 2.89939 29.1847 3.96317 28.1209C5.02695 27.0571 6.46973 26.4595 7.97415 26.4595V26.4595C9.47856 26.4595 10.9213 27.0571 11.9851 28.1209C13.0489 29.1847 13.6465 30.6274 13.6465 32.1319V48.9929H14.3383C16.6709 48.9929 18.908 49.9196 20.5575 51.569C22.2069 53.2184 23.1335 55.4555 23.1335 57.7881" stroke="white" stroke-width="4.24936" stroke-linecap="round" stroke-linejoin="round"/>
<path d="M15.5658 49.0859C14.88 48.4875 14.2388 47.8397 13.6475 47.1478" stroke="white" stroke-width="4.24936" stroke-linecap="round" stroke-linejoin="round"/>
<path d="M21.5629 52.7607C25.3692 54.2677 29.5389 54.6033 33.5372 53.7243C37.5354 52.8454 41.1799 50.7921 44.0033 47.8277C46.8266 44.8634 48.7 41.1232 49.3832 37.0868C50.0663 33.0505 49.5281 28.9022 47.8375 25.1738C46.1469 21.4455 43.3811 18.3072 39.8948 16.1615C36.4084 14.0158 32.3606 12.9604 28.2704 13.1309C24.1802 13.3014 20.2342 14.69 16.9385 17.1184C13.6429 19.5468 11.1478 22.9044 9.77344 26.7606" stroke="white" stroke-width="4.24936" stroke-linecap="round" stroke-linejoin="round"/>
<path d="M50.73 11.4085L53.4509 4.8657C53.4685 4.82299 53.4962 4.78523 53.5316 4.75561C53.567 4.72599 53.6091 4.70538 53.6542 4.69565C53.6993 4.68592 53.7462 4.68735 53.7907 4.69975C53.8351 4.71215 53.8759 4.73521 53.9095 4.76689L56.7589 7.47295C56.7896 7.50213 56.8134 7.53781 56.8286 7.57737C56.8438 7.61693 56.85 7.65934 56.8467 7.70158C56.8433 7.74381 56.8306 7.7848 56.8094 7.8215C56.7883 7.8582 56.7592 7.8897 56.7243 7.91374L51.155 11.7525C51.1043 11.7869 51.0438 11.8041 50.9826 11.8015C50.9214 11.799 50.8625 11.7768 50.8149 11.7382C50.7672 11.6996 50.7333 11.6467 50.718 11.5874C50.7027 11.528 50.7069 11.4653 50.73 11.4085Z" fill="white"/>
<path d="M48.399 9.99566L47.7882 0.678549C47.7849 0.627712 47.7952 0.576895 47.8181 0.531419C47.8411 0.485943 47.8759 0.447465 47.9188 0.420001C47.9617 0.392538 48.0112 0.377112 48.0621 0.375302C48.1131 0.373491 48.1635 0.3854 48.2083 0.409746L51.8829 2.39138C51.9454 2.42475 51.9931 2.48026 52.0167 2.54701C52.0403 2.61376 52.038 2.68692 52.0104 2.75211L48.9466 10.0876C48.9214 10.1465 48.8771 10.1952 48.8209 10.2259C48.7647 10.2566 48.6998 10.2676 48.6366 10.257C48.5734 10.2464 48.5157 10.2149 48.4726 10.1675C48.4295 10.1201 48.4036 10.0596 48.399 9.99566Z" fill="white"/>
<path d="M53.2744 12.8727L63.2082 7.8816C63.2509 7.86018 63.2983 7.84985 63.346 7.85156C63.3938 7.85327 63.4403 7.86696 63.4813 7.89137C63.5224 7.91579 63.5567 7.95014 63.5809 7.99127C63.6052 8.0324 63.6188 8.07896 63.6203 8.1267L63.823 13.8334C63.8246 13.8736 63.8177 13.9136 63.8028 13.9509C63.7879 13.9882 63.7653 14.022 63.7365 14.0499C63.7077 14.0779 63.6733 14.0995 63.6356 14.1133C63.5979 14.1271 63.5576 14.1327 63.5175 14.1299L53.3821 13.4133C53.3191 13.4098 53.259 13.3855 53.2114 13.3441C53.1637 13.3027 53.1311 13.2467 53.1188 13.1848C53.1064 13.1229 53.115 13.0587 53.1432 13.0022C53.1714 12.9457 53.2175 12.9001 53.2744 12.8727Z" fill="white"/>
</g>
<defs>
<clipPath id="clip0_3346_35406">
<rect width="63.6436" height="90.0004" fill="white" transform="translate(0.178223 -0.000244141)"/>
</clipPath>
</defs>
</svg>
