<svg width="35" height="32" viewBox="0 0 35 32" fill="none" xmlns="http://www.w3.org/2000/svg">
<g clip-path="url(#clip0_2685_25850)">
<path d="M30.9414 0.00142C30.5685 0.00142 30.1811 0.0829788 29.8103 0.25793C27.1335 1.52379 25.1492 1.95343 23.4931 1.95343C19.9801 1.95343 17.9387 0.0200499 13.893 0.019443C11.8564 0.019437 9.32592 0.50513 5.84875 1.96493V1.94187C5.84875 0.864741 4.98401 0 3.90688 0C2.82974 0 1.965 0.864741 1.965 1.94187L1.96257 30.0991C1.96257 30.63 2.40253 31.07 2.93351 31.07H4.87781C5.4088 31.07 5.84875 30.6331 5.84875 30.0991V23.3025C8.98852 21.8546 11.4747 21.3715 13.6345 21.3715C17.9485 21.3715 20.9529 23.3001 25.2675 23.3001C27.1372 23.3001 29.2526 22.9379 31.8274 21.8989C32.5677 21.5973 33.035 20.8994 33.035 20.153V1.86541C33.035 0.72881 32.0519 0.00142 30.9414 0.00142ZM29.1513 8.60493C27.21 9.45693 25.6431 9.85441 24.2966 9.96971V14.8371C25.8404 14.7475 27.4272 14.4152 29.1513 13.7849V18.7452C27.7658 19.1967 26.4854 19.4175 25.2657 19.4175C24.9351 19.4175 24.6158 19.3917 24.2966 19.3635V14.8371C24.0274 14.8528 23.7569 14.8767 23.4901 14.8767C21.9232 14.8767 20.6167 14.6008 19.4419 14.265V18.3254C17.997 17.9579 16.3974 17.633 14.5872 17.5377V12.9317C14.3566 12.9681 14.1321 12.9438 13.8893 12.9438C12.6939 12.9438 11.2557 13.2108 9.7325 13.6599V17.8531C8.47028 18.1687 7.17772 18.557 5.84875 19.0789V15.2134L7.35188 14.5829C8.20327 14.2303 8.98003 13.9512 9.7325 13.6599V8.70203C8.57345 9.01151 7.31123 9.41809 5.84875 10.031V6.17759L7.35188 5.54709C8.20327 5.18966 8.98003 4.91355 9.7325 4.67385V8.70385C11.3339 8.28191 12.7115 8.0867 13.8881 8.0873C14.1352 8.0873 14.3539 8.11433 14.5872 8.12784V3.94625C15.7159 4.04153 16.6747 4.34191 17.8156 4.723C18.3314 4.89292 18.8775 5.06405 19.4419 5.22607V9.23544C20.7035 9.65051 21.9572 10.0219 23.4901 10.0219C23.7454 10.0219 24.0229 9.99297 24.2966 9.96974V5.79771C25.8404 5.70808 27.4272 5.37578 29.1513 4.74546V8.60493ZM14.5872 8.12553V12.9826C15.7165 13.0779 16.6729 13.3785 17.8174 13.7594C18.3314 13.933 18.8775 14.1029 19.4419 14.2667V9.23604C17.9915 8.75664 16.5048 8.24083 14.5872 8.12553Z" fill="#5CB8B2"/>
</g>
<defs>
<clipPath id="clip0_2685_25850">
<rect width="34.9538" height="31.07" fill="white" transform="translate(0.0231247)"/>
</clipPath>
</defs>
</svg>
