<svg width="24" height="20" viewBox="0 0 24 20" fill="none" xmlns="http://www.w3.org/2000/svg">
<path d="M19.0327 16.0418L15.0776 6.52945C15.0521 6.46737 15.0119 6.41247 14.9604 6.3694C14.9089 6.32633 14.8477 6.29636 14.7821 6.28222C14.7165 6.26808 14.6484 6.27015 14.5838 6.28819C14.5191 6.30622 14.4599 6.33973 14.411 6.3858L10.2692 10.32C10.2246 10.3625 10.1899 10.4143 10.1679 10.4719C10.1458 10.5294 10.1368 10.591 10.1417 10.6524C10.1465 10.7138 10.165 10.7734 10.1958 10.8268C10.2265 10.8801 10.2688 10.9259 10.3195 10.9609L18.4149 16.5419C18.4886 16.592 18.5765 16.617 18.6655 16.6132C18.7545 16.6095 18.84 16.5772 18.9093 16.5211C18.9785 16.4651 19.0279 16.3882 19.0501 16.3019C19.0723 16.2156 19.0662 16.1244 19.0327 16.0418V16.0418Z" fill="#5CB8B2"/>
<path d="M22.4204 13.9869L23.3082 0.441141C23.3131 0.367231 23.2981 0.293351 23.2647 0.227235C23.2313 0.161119 23.1807 0.105177 23.1183 0.0652484C23.056 0.0253202 22.984 0.00289286 22.91 0.000261004C22.836 -0.00237086 22.7627 0.0149423 22.6976 0.050339L17.3562 2.93136C17.2655 2.97988 17.1961 3.06059 17.1618 3.15763C17.1275 3.25468 17.1308 3.36104 17.1709 3.45582L21.6245 14.1206C21.6611 14.2062 21.7254 14.277 21.8071 14.3217C21.8888 14.3664 21.9831 14.3823 22.075 14.3669C22.1668 14.3515 22.2508 14.3056 22.3134 14.2367C22.376 14.1678 22.4137 14.0798 22.4204 13.9869V13.9869Z" fill="#5CB8B2"/>
<path d="M15.3334 18.1712L0.8939 10.9148C0.831844 10.8836 0.762925 10.8686 0.69354 10.8711C0.624155 10.8736 0.556536 10.8935 0.496863 10.929C0.437189 10.9645 0.387402 11.0144 0.352095 11.0742C0.316788 11.134 0.297107 11.2017 0.294837 11.2711L0.000302701 19.5679C-0.00206309 19.6263 0.00794105 19.6845 0.0295895 19.7387C0.0512379 19.7929 0.0840618 19.842 0.125955 19.8827C0.167849 19.9234 0.217808 19.9548 0.272652 19.9748C0.327497 19.9948 0.386005 20.0031 0.444252 19.999L15.1769 18.9572C15.2685 18.9521 15.3558 18.9167 15.4251 18.8565C15.4943 18.7963 15.5417 18.7149 15.5597 18.6249C15.5776 18.5349 15.5651 18.4415 15.5241 18.3594C15.4832 18.2773 15.4161 18.211 15.3334 18.1712V18.1712Z" fill="#5CB8B2"/>
</svg>
