<svg width="24" height="20" viewBox="0 0 24 20" fill="none" xmlns="http://www.w3.org/2000/svg">
<path d="M19.0328 16.0417L15.0777 6.52933C15.0522 6.46724 15.012 6.41234 14.9605 6.36928C14.909 6.32621 14.8478 6.29624 14.7822 6.2821C14.7166 6.26796 14.6485 6.27003 14.5839 6.28806C14.5192 6.3061 14.46 6.33961 14.4112 6.38568L10.2694 10.3199C10.2247 10.3623 10.1901 10.4142 10.168 10.4717C10.1459 10.5292 10.137 10.5909 10.1418 10.6523C10.1466 10.7137 10.1651 10.7733 10.1959 10.8267C10.2266 10.88 10.2689 10.9258 10.3196 10.9608L18.415 16.5418C18.4887 16.5918 18.5766 16.6168 18.6656 16.6131C18.7546 16.6093 18.8401 16.5771 18.9094 16.521C18.9787 16.4649 19.028 16.388 19.0502 16.3017C19.0724 16.2154 19.0663 16.1243 19.0328 16.0417V16.0417Z" fill="#EB5757"/>
<path d="M22.4204 13.9869L23.3082 0.441141C23.3131 0.367231 23.2981 0.293351 23.2647 0.227235C23.2313 0.161119 23.1807 0.105177 23.1183 0.0652484C23.056 0.0253202 22.984 0.00289286 22.91 0.000261004C22.836 -0.00237086 22.7627 0.0149423 22.6976 0.050339L17.3562 2.93136C17.2655 2.97988 17.1961 3.06059 17.1618 3.15763C17.1275 3.25468 17.1308 3.36104 17.1709 3.45582L21.6245 14.1206C21.6611 14.2062 21.7254 14.277 21.8071 14.3217C21.8888 14.3664 21.9832 14.3823 22.075 14.3669C22.1668 14.3515 22.2508 14.3056 22.3134 14.2367C22.376 14.1678 22.4137 14.0798 22.4204 13.9869V13.9869Z" fill="#EB5757"/>
<path d="M15.3335 18.1712L0.893939 10.9148C0.831882 10.8836 0.762963 10.8686 0.693578 10.8711C0.624194 10.8736 0.556574 10.8935 0.496901 10.929C0.437227 10.9645 0.38744 11.0144 0.352133 11.0742C0.316826 11.134 0.297145 11.2017 0.294875 11.2711L0.000340848 19.5679C-0.00202494 19.6263 0.0079792 19.6844 0.0296276 19.7387C0.0512761 19.7929 0.0841 19.842 0.125993 19.8827C0.167887 19.9234 0.217846 19.9547 0.27269 19.9748C0.327535 19.9948 0.386043 20.0031 0.44429 19.999L15.1769 18.9572C15.2686 18.952 15.3558 18.9166 15.4251 18.8565C15.4944 18.7963 15.5418 18.7148 15.5597 18.6248C15.5776 18.5349 15.5651 18.4415 15.5242 18.3594C15.4832 18.2772 15.4161 18.211 15.3335 18.1712V18.1712Z" fill="#EB5757"/>
</svg>
