<svg xmlns="http://www.w3.org/2000/svg" width="80.559" height="23.771" viewBox="0 0 80.559 23.771">
  <g id="Group_99" data-name="Group 99" transform="translate(-65.021 -604.139)">
    <path id="Path_250" data-name="Path 250" d="M75.8,585.651H73.675a.567.567,0,0,0-.59.542v12.123a.567.567,0,0,0,.59.541H75.8a.567.567,0,0,0,.59-.541V586.193A.567.567,0,0,0,75.8,585.651Zm-4.6,10.175H65.7v-9.634a.555.555,0,0,0-.568-.542h-2.04a.555.555,0,0,0-.568.542v12.123a.555.555,0,0,0,.568.541H71.2a.555.555,0,0,0,.568-.541v-1.948A.555.555,0,0,0,71.2,595.826Zm29.054-7.145a.555.555,0,0,0,.568-.541v-1.948a.555.555,0,0,0-.568-.542H92.142a.554.554,0,0,0-.567.542v12.123a.554.554,0,0,0,.567.541h8.109a.555.555,0,0,0,.567-.541v-1.948a.555.555,0,0,0-.568-.542h-5.5v-2.057h5.5a.555.555,0,0,0,.568-.541v-1.948a.555.555,0,0,0-.568-.542h-5.5v-2.057Zm-11.226-3.028H86.977a.556.556,0,0,0-.569.541v7.015l-5.358-7.29a.724.724,0,0,0-.63-.265.607.607,0,0,0-.1,0H78.276a.556.556,0,0,0-.569.541v12.122a.555.555,0,0,0,.568.541h2.047a.556.556,0,0,0,.569-.541V590.99l5.586,7.6a.682.682,0,0,0,.458.266h2.088a.555.555,0,0,0,.568-.541V586.194A.555.555,0,0,0,89.024,585.653Z" transform="translate(2.501 23.771)" fill-rule="evenodd"/>
    <g id="Group_53" data-name="Group 53" transform="translate(107.942 604.139)">
      <path id="Path_251" data-name="Path 251" d="M140.059,604.342h-34.9a1.358,1.358,0,0,1-.525-.106,1.373,1.373,0,0,1-.445-.3,1.377,1.377,0,0,1-.4-.972V581.949a1.368,1.368,0,0,1,.843-1.271,1.38,1.38,0,0,1,.525-.107h34.9a1.384,1.384,0,0,1,.525.107,1.374,1.374,0,0,1,.843,1.271v21.015a1.372,1.372,0,0,1-1.369,1.378Z" transform="translate(-103.79 -580.571)" fill="#00c34d" fill-rule="evenodd"/>
    </g>
    <path id="Path_252" data-name="Path 252" d="M114.942,590.135a1.353,1.353,0,0,0-1.321-1.444H111.99v2.886h1.632A1.353,1.353,0,0,0,114.942,590.135Zm2.486,0a3.8,3.8,0,0,1-3.806,3.848H111.99v3.15a.359.359,0,0,1-.026.144.387.387,0,0,1-.078.122.379.379,0,0,1-.12.082.357.357,0,0,1-.142.03H109.87a.354.354,0,0,1-.142-.03.379.379,0,0,1-.119-.082.374.374,0,0,1-.105-.265v-10.47a.371.371,0,0,1,.366-.378h3.751A3.8,3.8,0,0,1,117.428,590.135Zm6.852,2.423a1.9,1.9,0,1,0-1.9,1.984A1.841,1.841,0,0,0,124.279,592.558Zm2.393-3.863v7.726a.21.21,0,0,1-.015.076.183.183,0,0,1-.043.066.211.211,0,0,1-.064.044.193.193,0,0,1-.077.016h-2a.2.2,0,0,1-.077-.016.211.211,0,0,1-.064-.044.216.216,0,0,1-.043-.066.21.21,0,0,1-.015-.076v-.563a2.967,2.967,0,0,1-2.376.991,4.322,4.322,0,0,1,0-8.584,2.968,2.968,0,0,1,2.376.992V588.7a.2.2,0,0,1,.2-.2h2A.2.2,0,0,1,126.672,588.7Zm7.43-.22-1.788,4.647-1.849-4.65a.318.318,0,0,0-.118-.149.326.326,0,0,0-.18-.057h-1.982a.2.2,0,0,0-.178.275l3.085,7.758-1.124,2.92a.2.2,0,0,0,.179.272h1.983a.319.319,0,0,0,.3-.209l4.134-10.744a.2.2,0,0,0-.179-.273H134.4A.322.322,0,0,0,134.1,588.475Z" transform="translate(4.38 23.796)" fill="#fff" fill-rule="evenodd"/>
  </g>
</svg>
