<svg width="15" height="20" viewBox="0 0 15 20" fill="none" xmlns="http://www.w3.org/2000/svg">
<path d="M6.93497 19.4545C5.91655 17.9781 5.04862 16.7417 4.30955 15.6888C2.98317 13.7993 2.07182 12.501 1.45046 11.4678C0.969825 10.6687 0.672162 10.0427 0.493004 9.43774C0.314415 8.83469 0.25 8.24037 0.25 7.5C0.25 3.49592 3.49592 0.25 7.5 0.25C11.5041 0.25 14.75 3.49592 14.75 7.5C14.75 8.24036 14.6856 8.83469 14.507 9.43774C14.3278 10.0427 14.0302 10.6687 13.5495 11.4678C12.9282 12.501 12.0168 13.7993 10.6905 15.6888C9.95143 16.7416 9.08356 17.9779 8.06523 19.4542C7.79225 19.8485 7.20806 19.8486 6.93497 19.4545Z" fill="white"/>
<path d="M6.93497 19.4545C5.91655 17.9781 5.04862 16.7417 4.30955 15.6888C2.98317 13.7993 2.07182 12.501 1.45046 11.4678C0.969825 10.6687 0.672162 10.0427 0.493004 9.43774C0.314415 8.83469 0.25 8.24037 0.25 7.5C0.25 3.49592 3.49592 0.25 7.5 0.25C11.5041 0.25 14.75 3.49592 14.75 7.5C14.75 8.24036 14.6856 8.83469 14.507 9.43774C14.3278 10.0427 14.0302 10.6687 13.5495 11.4678C12.9282 12.501 12.0168 13.7993 10.6905 15.6888C9.95143 16.7416 9.08356 17.9779 8.06523 19.4542C7.79225 19.8485 7.20806 19.8486 6.93497 19.4545Z" fill="url(#paint0_linear_2089_615)"/>
<path d="M6.93497 19.4545C5.91655 17.9781 5.04862 16.7417 4.30955 15.6888C2.98317 13.7993 2.07182 12.501 1.45046 11.4678C0.969825 10.6687 0.672162 10.0427 0.493004 9.43774C0.314415 8.83469 0.25 8.24037 0.25 7.5C0.25 3.49592 3.49592 0.25 7.5 0.25C11.5041 0.25 14.75 3.49592 14.75 7.5C14.75 8.24036 14.6856 8.83469 14.507 9.43774C14.3278 10.0427 14.0302 10.6687 13.5495 11.4678C12.9282 12.501 12.0168 13.7993 10.6905 15.6888C9.95143 16.7416 9.08356 17.9779 8.06523 19.4542C7.79225 19.8485 7.20806 19.8486 6.93497 19.4545Z" stroke="#EF6079" stroke-width="0.5"/>
<defs>
<linearGradient id="paint0_linear_2089_615" x1="0" y1="0" x2="19.2" y2="14.4" gradientUnits="userSpaceOnUse">
<stop stop-color="#EF6079" stop-opacity="0.5"/>
<stop offset="1" stop-color="#EF6079"/>
</linearGradient>
</defs>
</svg>
