<svg width="23" height="30" viewBox="0 0 23 30" fill="none" xmlns="http://www.w3.org/2000/svg">
<path d="M10.5051 29.1104C8.97448 26.8914 7.67132 25.035 6.56248 23.4554C4.57561 20.625 3.21261 18.6834 2.28281 17.1373C1.56475 15.9434 1.12395 15.0146 0.859361 14.1211C0.595907 13.2315 0.5 12.3527 0.5 11.25C0.5 5.31292 5.31292 0.5 11.25 0.5C17.1871 0.5 22 5.31292 22 11.25C22 12.3527 21.9041 13.2315 21.6406 14.1211C21.376 15.0146 20.9352 15.9434 20.2172 17.1373C19.2874 18.6834 17.9244 20.625 15.9375 23.4554C14.8286 25.0351 13.5254 26.8916 11.9947 29.1106C11.6348 29.6299 10.8649 29.6298 10.5051 29.1104Z" fill="white"/>
<path d="M10.5051 29.1104C8.97448 26.8914 7.67132 25.035 6.56248 23.4554C4.57561 20.625 3.21261 18.6834 2.28281 17.1373C1.56475 15.9434 1.12395 15.0146 0.859361 14.1211C0.595907 13.2315 0.5 12.3527 0.5 11.25C0.5 5.31292 5.31292 0.5 11.25 0.5C17.1871 0.5 22 5.31292 22 11.25C22 12.3527 21.9041 13.2315 21.6406 14.1211C21.376 15.0146 20.9352 15.9434 20.2172 17.1373C19.2874 18.6834 17.9244 20.625 15.9375 23.4554C14.8286 25.0351 13.5254 26.8916 11.9947 29.1106C11.6348 29.6299 10.8649 29.6298 10.5051 29.1104Z" fill="url(#paint0_linear_4015_34210)"/>
<path d="M10.5051 29.1104C8.97448 26.8914 7.67132 25.035 6.56248 23.4554C4.57561 20.625 3.21261 18.6834 2.28281 17.1373C1.56475 15.9434 1.12395 15.0146 0.859361 14.1211C0.595907 13.2315 0.5 12.3527 0.5 11.25C0.5 5.31292 5.31292 0.5 11.25 0.5C17.1871 0.5 22 5.31292 22 11.25C22 12.3527 21.9041 13.2315 21.6406 14.1211C21.376 15.0146 20.9352 15.9434 20.2172 17.1373C19.2874 18.6834 17.9244 20.625 15.9375 23.4554C14.8286 25.0351 13.5254 26.8916 11.9947 29.1106C11.6348 29.6299 10.8649 29.6298 10.5051 29.1104Z" stroke="#EF6079"/>
<defs>
<linearGradient id="paint0_linear_4015_34210" x1="0" y1="0" x2="28.8" y2="21.6" gradientUnits="userSpaceOnUse">
<stop stop-color="#EF6079" stop-opacity="0.5"/>
<stop offset="1" stop-color="#EF6079"/>
</linearGradient>
</defs>
</svg>
