<svg width="15" height="20" viewBox="0 0 15 20" fill="none" xmlns="http://www.w3.org/2000/svg">
<path d="M4.50582 15.5332C5.24539 16.5867 6.11588 17.8268 7.14033 19.3119C7.31393 19.5627 7.686 19.5627 7.85964 19.3119L4.50582 15.5332ZM4.50582 15.5332C3.18488 13.6515 2.28159 12.3647 1.6647 11.339M4.50582 15.5332L1.6647 11.339M1.6647 11.339C1.18985 10.5494 0.90358 9.94373 0.732714 9.36675M1.6647 11.339L0.732714 9.36675M0.732714 9.36675C0.562985 8.79362 0.5 8.22474 0.5 7.5M0.732714 9.36675L0.5 7.5M0.5 7.5C0.5 3.63399 3.63399 0.5 7.5 0.5M0.5 7.5L7.5 0.5M7.5 0.5C11.366 0.5 14.5 3.63399 14.5 7.5M7.5 0.5L14.5 7.5M14.5 7.5C14.5 8.22474 14.437 8.79362 14.2673 9.36675M14.5 7.5L14.2673 9.36675M14.2673 9.36675C14.0964 9.94373 13.8102 10.5494 13.3353 11.339M14.2673 9.36675L13.3353 11.339M13.3353 11.339C12.7184 12.3647 11.8151 13.6515 10.4942 15.5332M13.3353 11.339L10.4942 15.5332M10.4942 15.5332C9.75461 16.5867 8.88412 17.8268 7.85967 19.3119L10.4942 15.5332Z" fill="white"/>
<path d="M4.50582 15.5332C5.24539 16.5867 6.11588 17.8268 7.14033 19.3119C7.31393 19.5627 7.686 19.5627 7.85964 19.3119L4.50582 15.5332ZM4.50582 15.5332C3.18488 13.6515 2.28159 12.3647 1.6647 11.339M4.50582 15.5332L1.6647 11.339M1.6647 11.339C1.18985 10.5494 0.90358 9.94373 0.732714 9.36675M1.6647 11.339L0.732714 9.36675M0.732714 9.36675C0.562985 8.79362 0.5 8.22474 0.5 7.5M0.732714 9.36675L0.5 7.5M0.5 7.5C0.5 3.63399 3.63399 0.5 7.5 0.5M0.5 7.5L7.5 0.5M7.5 0.5C11.366 0.5 14.5 3.63399 14.5 7.5M7.5 0.5L14.5 7.5M14.5 7.5C14.5 8.22474 14.437 8.79362 14.2673 9.36675M14.5 7.5L14.2673 9.36675M14.2673 9.36675C14.0964 9.94373 13.8102 10.5494 13.3353 11.339M14.2673 9.36675L13.3353 11.339M13.3353 11.339C12.7184 12.3647 11.8151 13.6515 10.4942 15.5332M13.3353 11.339L10.4942 15.5332M10.4942 15.5332C9.75461 16.5867 8.88412 17.8268 7.85967 19.3119L10.4942 15.5332Z" fill="url(#paint0_linear_2422_29257)"/>
<path d="M4.50582 15.5332C5.24539 16.5867 6.11588 17.8268 7.14033 19.3119C7.31393 19.5627 7.686 19.5627 7.85964 19.3119L4.50582 15.5332ZM4.50582 15.5332C3.18488 13.6515 2.28159 12.3647 1.6647 11.339M4.50582 15.5332L1.6647 11.339M1.6647 11.339C1.18985 10.5494 0.90358 9.94373 0.732714 9.36675M1.6647 11.339L0.732714 9.36675M0.732714 9.36675C0.562985 8.79362 0.5 8.22474 0.5 7.5M0.732714 9.36675L0.5 7.5M0.5 7.5C0.5 3.63399 3.63399 0.5 7.5 0.5M0.5 7.5L7.5 0.5M7.5 0.5C11.366 0.5 14.5 3.63399 14.5 7.5M7.5 0.5L14.5 7.5M14.5 7.5C14.5 8.22474 14.437 8.79362 14.2673 9.36675M14.5 7.5L14.2673 9.36675M14.2673 9.36675C14.0964 9.94373 13.8102 10.5494 13.3353 11.339M14.2673 9.36675L13.3353 11.339M13.3353 11.339C12.7184 12.3647 11.8151 13.6515 10.4942 15.5332M13.3353 11.339L10.4942 15.5332M10.4942 15.5332C9.75461 16.5867 8.88412 17.8268 7.85967 19.3119L10.4942 15.5332Z" stroke="#EF6079"/>
<defs>
<linearGradient id="paint0_linear_2422_29257" x1="0" y1="0" x2="19.2" y2="14.4" gradientUnits="userSpaceOnUse">
<stop stop-color="#EF6079" stop-opacity="0.5"/>
<stop offset="1" stop-color="#EF6079"/>
</linearGradient>
</defs>
</svg>
