<svg width="17" height="22" viewBox="0 0 17 22" fill="none" xmlns="http://www.w3.org/2000/svg">
<path d="M7.31764 20.8804L7.31811 20.8811C7.88934 21.7063 9.1106 21.7063 9.68189 20.8811L9.68236 20.8804C10.6824 19.4307 11.5422 18.2057 12.2794 17.1555C13.6218 15.2429 14.5575 13.9099 15.1923 12.8544C15.6903 12.0263 16.0221 11.3397 16.2261 10.6507C16.4313 9.95789 16.5 9.28723 16.5 8.5C16.5 4.08171 12.9183 0.5 8.5 0.5C4.08171 0.5 0.5 4.08171 0.5 8.5C0.5 9.28723 0.568705 9.95789 0.773875 10.6507C0.977909 11.3397 1.30975 12.0263 1.80774 12.8544C2.44253 13.9099 3.37818 15.2429 4.72065 17.1555C5.4578 18.2057 6.31762 19.4307 7.31764 20.8804Z" fill="#5CB8B2" stroke="white"/>
</svg>
