<svg width="12" height="15" viewBox="0 0 12 15" fill="none" xmlns="http://www.w3.org/2000/svg">
<path d="M5.2525 14.5551C4.48721 13.4457 3.83565 12.5175 3.28123 11.7277C2.2878 10.3125 1.60631 9.34169 1.14141 8.56867C0.782375 7.97168 0.561976 7.50729 0.429681 7.06056C0.297953 6.61575 0.25 6.17637 0.25 5.625C0.25 2.65646 2.65646 0.25 5.625 0.25C8.59354 0.25 11 2.65646 11 5.625C11 6.17637 10.952 6.61575 10.8203 7.06056C10.688 7.50729 10.4676 7.97168 10.1086 8.56867C9.64369 9.34169 8.9622 10.3125 7.96877 11.7277C7.41436 12.5175 6.76281 13.4456 5.99753 14.5551C5.81761 14.815 5.43243 14.815 5.2525 14.5551Z" fill="#5CB8B2" stroke="#E0E0E0" stroke-width="0.5"/>
</svg>
