<svg width="12" height="15" viewBox="0 0 12 15" fill="none" xmlns="http://www.w3.org/2000/svg">
<path d="M5.25255 14.5552C4.48724 13.4457 3.83566 12.5175 3.28124 11.7277C2.2878 10.3125 1.60631 9.34169 1.14141 8.56867C0.782375 7.97168 0.561976 7.50729 0.429681 7.06056C0.297953 6.61575 0.25 6.17637 0.25 5.625C0.25 2.65646 2.65646 0.25 5.625 0.25C8.59354 0.25 11 2.65646 11 5.625C11 6.17637 10.952 6.61575 10.8203 7.06056C10.688 7.50729 10.4676 7.97168 10.1086 8.56867C9.64369 9.3417 8.96219 10.3125 7.96875 11.7277C7.41431 12.5175 6.7627 13.4458 5.99736 14.5553C5.81739 14.8149 5.43243 14.8149 5.25255 14.5552Z" fill="white"/>
<path d="M5.25255 14.5552C4.48724 13.4457 3.83566 12.5175 3.28124 11.7277C2.2878 10.3125 1.60631 9.34169 1.14141 8.56867C0.782375 7.97168 0.561976 7.50729 0.429681 7.06056C0.297953 6.61575 0.25 6.17637 0.25 5.625C0.25 2.65646 2.65646 0.25 5.625 0.25C8.59354 0.25 11 2.65646 11 5.625C11 6.17637 10.952 6.61575 10.8203 7.06056C10.688 7.50729 10.4676 7.97168 10.1086 8.56867C9.64369 9.3417 8.96219 10.3125 7.96875 11.7277C7.41431 12.5175 6.7627 13.4458 5.99736 14.5553C5.81739 14.8149 5.43243 14.8149 5.25255 14.5552Z" fill="url(#paint0_linear_2422_29273)"/>
<path d="M5.25255 14.5552C4.48724 13.4457 3.83566 12.5175 3.28124 11.7277C2.2878 10.3125 1.60631 9.34169 1.14141 8.56867C0.782375 7.97168 0.561976 7.50729 0.429681 7.06056C0.297953 6.61575 0.25 6.17637 0.25 5.625C0.25 2.65646 2.65646 0.25 5.625 0.25C8.59354 0.25 11 2.65646 11 5.625C11 6.17637 10.952 6.61575 10.8203 7.06056C10.688 7.50729 10.4676 7.97168 10.1086 8.56867C9.64369 9.3417 8.96219 10.3125 7.96875 11.7277C7.41431 12.5175 6.7627 13.4458 5.99736 14.5553C5.81739 14.8149 5.43243 14.8149 5.25255 14.5552Z" stroke="#5CB8B2" stroke-width="0.5"/>
<defs>
<linearGradient id="paint0_linear_2422_29273" x1="0" y1="0" x2="14.4" y2="10.8" gradientUnits="userSpaceOnUse">
<stop stop-color="#5CB8B2" stop-opacity="0.5"/>
<stop offset="1" stop-color="#5CB8B2"/>
</linearGradient>
</defs>
</svg>
