<svg width="19" height="25" viewBox="0 0 19 25" fill="none" xmlns="http://www.w3.org/2000/svg">
<path d="M8.61728 24.3536C7.3458 22.5103 6.26157 20.9658 5.33788 19.6499C3.67854 17.2861 2.53733 15.6603 1.75952 14.367C1.15727 13.3656 0.782348 12.5781 0.556328 11.8149C0.330876 11.0536 0.25 10.3044 0.25 9.375C0.25 4.33538 4.33538 0.25 9.375 0.25C14.4146 0.25 18.5 4.33538 18.5 9.375C18.5 10.3044 18.4191 11.0536 18.1937 11.8149C17.9676 12.5781 17.5927 13.3656 16.9905 14.367C16.2127 15.6603 15.0715 17.2861 13.4121 19.6499C12.4885 20.9657 11.4043 22.5102 10.1329 24.3533C9.76682 24.8822 8.98348 24.8822 8.61728 24.3536Z" fill="white"/>
<path d="M8.61728 24.3536C7.3458 22.5103 6.26157 20.9658 5.33788 19.6499C3.67854 17.2861 2.53733 15.6603 1.75952 14.367C1.15727 13.3656 0.782348 12.5781 0.556328 11.8149C0.330876 11.0536 0.25 10.3044 0.25 9.375C0.25 4.33538 4.33538 0.25 9.375 0.25C14.4146 0.25 18.5 4.33538 18.5 9.375C18.5 10.3044 18.4191 11.0536 18.1937 11.8149C17.9676 12.5781 17.5927 13.3656 16.9905 14.367C16.2127 15.6603 15.0715 17.2861 13.4121 19.6499C12.4885 20.9657 11.4043 22.5102 10.1329 24.3533C9.76682 24.8822 8.98348 24.8822 8.61728 24.3536Z" fill="url(#paint0_linear_2422_29273)"/>
<path d="M8.61728 24.3536C7.3458 22.5103 6.26157 20.9658 5.33788 19.6499C3.67854 17.2861 2.53733 15.6603 1.75952 14.367C1.15727 13.3656 0.782348 12.5781 0.556328 11.8149C0.330876 11.0536 0.25 10.3044 0.25 9.375C0.25 4.33538 4.33538 0.25 9.375 0.25C14.4146 0.25 18.5 4.33538 18.5 9.375C18.5 10.3044 18.4191 11.0536 18.1937 11.8149C17.9676 12.5781 17.5927 13.3656 16.9905 14.367C16.2127 15.6603 15.0715 17.2861 13.4121 19.6499C12.4885 20.9657 11.4043 22.5102 10.1329 24.3533C9.76682 24.8822 8.98348 24.8822 8.61728 24.3536Z" stroke="#5CB8B2" stroke-width="0.5"/>
<defs>
<linearGradient id="paint0_linear_2422_29273" x1="0" y1="0" x2="24" y2="18" gradientUnits="userSpaceOnUse">
<stop stop-color="#5CB8B2" stop-opacity="0.5"/>
<stop offset="1" stop-color="#5CB8B2"/>
</linearGradient>
</defs>
</svg>
