<svg width="50" height="40" viewBox="0 0 50 40" fill="none" xmlns="http://www.w3.org/2000/svg">
<g clip-path="url(#clip0_1261_16191)">
<path opacity="0.49" d="M32.6885 39.0638C40.6877 39.0638 47.1723 32.5792 47.1723 24.5799C47.1723 16.5807 40.6877 10.0961 32.6885 10.0961C24.6893 10.0961 18.2046 16.5807 18.2046 24.5799C18.2046 32.5792 24.6893 39.0638 32.6885 39.0638Z" fill="#333F48"/>
<path d="M31.55 40.0004C31.3352 40.0004 31.1205 40.0004 30.8983 39.9886L30.6277 39.9532C28.5969 39.9296 26.5813 39.598 24.65 38.9698C22.3977 38.1114 20.3075 36.8772 18.4682 35.3195C17.4438 36.155 16.2884 36.8156 15.0488 37.2746C13.5723 37.7959 11.9968 37.9753 10.441 37.7992C8.88515 37.6231 7.3896 37.096 6.06707 36.2579C3.49868 34.4258 1.7556 31.6556 1.2155 28.5473C0.679162 25.6725 1.01955 22.7029 2.19246 20.024C2.29982 19.7825 4.83351 14.0838 13.0111 8.81356C13.5479 8.35191 14.7718 7.02925 14.6913 5.84829C14.617 5.45826 14.4508 5.09152 14.2067 4.77843C13.9625 4.46535 13.6472 4.21492 13.287 4.04787L12.6783 3.6689L12.7298 2.91095C12.7525 2.68951 12.8373 2.47897 12.9744 2.30364C13.1116 2.12832 13.2955 1.99535 13.505 1.92001C17.0696 0.698017 20.8058 0.0504125 24.5737 0.00148045C32.1007 -0.0865543 38.5477 2.45358 43.1995 7.36099L43.5742 7.74963C43.7807 7.96943 43.8923 8.26172 43.8848 8.56321C43.8773 8.86471 43.7513 9.15112 43.5342 9.36038C43.317 9.56964 43.0261 9.68492 42.7246 9.68123C42.423 9.67755 42.135 9.5552 41.923 9.34069L41.5419 8.94559C37.2744 4.44401 31.5875 2.21203 24.6016 2.28932C21.7351 2.33939 18.886 2.74656 16.1202 3.50141C16.6254 4.12796 16.9253 4.89493 16.9791 5.69798C17.1509 8.29393 14.7031 10.3874 14.4229 10.6183L14.3155 10.6977C6.66936 15.6062 4.32248 20.8776 4.29886 20.9302C3.30792 23.1948 3.02028 25.705 3.47326 28.1351C3.89778 30.6015 5.25667 32.8094 7.26735 34.2996C8.29534 34.9622 9.46167 35.38 10.6765 35.5209C11.8914 35.6618 13.1224 35.522 14.2747 35.1123C15.2081 34.7698 16.0824 34.2841 16.8664 33.6726C15.4651 32.0387 14.6205 30.001 14.4551 27.8548C14.4176 27.2123 14.5072 26.5687 14.7187 25.9607C14.9302 25.3528 15.2594 24.7926 15.6876 24.312C16.072 23.9177 16.5356 23.6094 17.0478 23.4073C17.56 23.2052 18.1092 23.114 18.6593 23.1396C19.2572 23.1987 19.8343 23.391 20.3482 23.7024C20.8621 24.0138 21.2997 24.4363 21.6288 24.9389L21.6654 24.9916C22.1496 25.8679 22.4307 26.8419 22.4878 27.8415C22.5448 28.8411 22.3764 29.8407 21.9949 30.7664C21.5572 31.861 20.9246 32.8671 20.128 33.736C21.7318 35.0484 23.5372 36.0929 25.4745 36.829C27.1957 37.3648 28.9861 37.6458 30.7888 37.6632L31.0593 37.6986C34.9527 37.784 38.739 36.4209 41.6845 33.8734C44.6299 31.3258 46.5245 27.7755 47.0011 23.9105C47.0439 23.6092 47.2045 23.3373 47.4477 23.1544C47.6909 22.9716 47.9968 22.8929 48.298 22.9356C48.5993 22.9783 48.8712 23.139 49.0541 23.3822C49.2369 23.6254 49.3156 23.9313 49.2729 24.2325C48.7245 28.5594 46.6269 32.541 43.3684 35.44C40.1099 38.3391 35.9112 39.9592 31.55 40.0004ZM18.4167 25.4253C17.9992 25.4447 17.6053 25.6238 17.3162 25.9256C16.9123 26.4302 16.7075 27.0655 16.7408 27.711C16.8704 29.321 17.4931 30.8521 18.524 32.0955C19.077 31.4718 19.5209 30.7593 19.837 29.9881C20.0896 29.3983 20.2131 28.7613 20.1992 28.1199C20.1853 27.4785 20.0344 26.8474 19.7565 26.2691C19.6192 26.047 19.4358 25.8569 19.2188 25.7117C19.0017 25.5665 18.756 25.4696 18.4982 25.4274C18.4703 25.4253 18.4435 25.4253 18.4167 25.4253Z" fill="#333F48"/>
<path d="M41.2397 25.5645C41.5534 23.4837 42.3297 21.4997 43.5114 19.7585C43.5533 19.6973 43.5951 19.6372 43.6392 19.5771C43.754 19.4225 43.4932 19.7392 43.6778 19.5287C43.7712 19.4214 43.8689 19.3226 43.9709 19.2238C44.3847 18.7898 44.854 18.4122 45.3666 18.1009C45.7636 17.8519 46.2277 17.7316 46.6957 17.7562C46.8388 17.7862 46.9782 17.8319 47.1112 17.8926C46.9877 17.8475 47.079 17.8368 47.0661 17.9237C47.0661 17.9237 46.9941 18.088 47.0596 18.0128C46.9922 18.0922 46.9058 18.1531 46.8084 18.19C46.3187 18.3809 45.7847 18.4286 45.2689 18.3274C44.1609 18.1395 43.7412 17.3021 43.5093 16.2876C43.3909 15.8851 43.3543 15.463 43.4015 15.0461C43.4487 14.6292 43.5788 14.226 43.7841 13.8602C43.9058 13.6457 44.0751 13.462 44.279 13.3234C44.1953 13.3631 44.7085 13.216 44.4368 13.2718C44.4977 13.2626 44.5596 13.2626 44.6204 13.2718C44.3585 13.1795 44.6795 13.2998 44.6902 13.3062C44.8706 13.3996 44.7149 13.3191 44.6816 13.3062C44.7599 13.347 44.8353 13.3933 44.9071 13.4447C44.6848 13.2783 45.0971 13.7367 44.9404 13.4919C44.974 13.5361 45.0025 13.584 45.0252 13.6347C45.096 13.8623 45.0091 13.4619 45.0348 13.6766C45.0606 13.8913 45.0348 13.6465 45.0348 13.6218C45.0373 13.7416 45.0323 13.8613 45.0198 13.9804C44.7558 15.168 44.1184 16.2399 43.2011 17.0391C42.2424 18.0236 43.7497 19.5331 44.7042 18.5421C46.306 16.8963 48.6453 13.2933 45.9098 11.5477C45.4424 11.2554 44.8952 11.1167 44.345 11.151C43.7948 11.1853 43.2691 11.3908 42.8415 11.7388C42.3019 12.1997 41.8782 12.781 41.6044 13.4357C41.3307 14.0904 41.2146 14.8003 41.2654 15.5081C41.2445 16.3532 41.4276 17.1909 41.7991 17.9502C42.1707 18.7095 42.7197 19.3681 43.3997 19.8702C44.1053 20.2739 44.9016 20.4922 45.7144 20.5046C46.5272 20.517 47.3298 20.3231 48.0473 19.941C48.3496 19.7575 48.6066 19.5083 48.7993 19.2119C48.992 18.9154 49.1155 18.5793 49.1604 18.2286C49.2054 17.8779 49.1708 17.5216 49.0591 17.1861C48.9474 16.8506 48.7616 16.5446 48.5154 16.2908C47.211 15.0894 45.0735 15.6466 43.7916 16.5721C42.6156 17.4167 41.654 18.5254 40.9842 19.809C40.0898 21.4201 39.4794 23.1731 39.1794 24.9912C39.1131 25.2635 39.1531 25.5509 39.2913 25.7947C39.4296 26.0385 39.6557 26.2203 39.9234 26.3031C40.1962 26.3764 40.4868 26.3394 40.7324 26.1999C40.9779 26.0605 41.1586 25.8298 41.2354 25.5581L41.2397 25.5645Z" fill="#333F48"/>
</g>
<defs>
<clipPath id="clip0_1261_16191">
<rect width="48.3118" height="40" fill="white" transform="translate(0.969116)"/>
</clipPath>
</defs>
</svg>
