<svg width="49" height="40" viewBox="0 0 49 40" fill="none" xmlns="http://www.w3.org/2000/svg">
<g clip-path="url(#clip0_1261_16182)">
<path opacity="0.49" d="M31.7985 38.8524C39.7973 38.8524 46.2816 32.3681 46.2816 24.3693C46.2816 16.3705 39.7973 9.88623 31.7985 9.88623C23.7997 9.88623 17.3154 16.3705 17.3154 24.3693C17.3154 32.3681 23.7997 38.8524 31.7985 38.8524Z" fill="#EF6079"/>
<path d="M30.798 40C30.5833 40 30.3661 39.9957 30.1463 39.9871L29.8758 39.9506C27.8455 39.9279 25.8304 39.597 23.8994 38.9694C21.6474 38.111 19.5573 36.8768 17.718 35.3194C16.6936 36.1548 15.5383 36.8153 14.2988 37.2743C12.8225 37.7962 11.247 37.9758 9.69116 37.7997C8.13531 37.6236 6.63981 37.0963 5.31757 36.2577C2.74906 34.426 1.00599 31.6557 0.466251 28.5475C-0.0699857 25.6729 0.270384 22.7034 1.44317 20.0247C1.55052 19.7842 4.083 14.0859 12.2612 8.81485C12.798 8.35322 14.0218 7.03061 13.9402 5.85079C13.8663 5.46065 13.7004 5.09376 13.4564 4.7805C13.2124 4.46723 12.8973 4.21662 12.5371 4.04942L11.9295 3.67151L11.9799 2.92005C12.0021 2.69838 12.0866 2.48748 12.2236 2.31177C12.3605 2.13605 12.5444 2.00266 12.754 1.92701C16.3187 0.706299 20.0545 0.0587963 23.8221 0.00861506C31.3659 -0.0987387 37.7964 2.46056 42.448 7.36877L42.8227 7.75739C42.9321 7.86476 43.0189 7.99299 43.0779 8.13448C43.1369 8.27598 43.167 8.42788 43.1663 8.58119C43.1655 8.7345 43.1341 8.8861 43.0738 9.02704C43.0134 9.16798 42.9254 9.2954 42.815 9.40174C42.7046 9.50808 42.5739 9.59117 42.4308 9.64614C42.2877 9.70111 42.135 9.72683 41.9818 9.72176C41.8286 9.71668 41.6779 9.68094 41.5387 9.61662C41.3996 9.55231 41.2747 9.46074 41.1716 9.34732L40.7905 8.95225C36.5232 4.45091 30.8334 2.21149 23.8511 2.2963C20.9848 2.34621 18.1359 2.75301 15.3702 3.50728C15.875 4.134 16.1748 4.90081 16.229 5.70372C16.3997 8.29954 13.952 10.3929 13.6729 10.6238L13.5656 10.7032C5.97242 15.5781 3.57199 20.8857 3.54837 20.9394C2.55806 23.2026 2.27082 25.7111 2.7239 28.1396C3.1484 30.6059 4.50721 32.8137 6.51778 34.3038C7.54534 34.9667 8.71139 35.3848 9.92605 35.5259C11.1407 35.667 12.3715 35.5273 13.5237 35.1176C14.4569 34.7743 15.3315 34.2886 16.1163 33.678C14.7146 32.044 13.8701 30.0059 13.7051 27.8594C13.6677 27.2169 13.7573 26.5733 13.9687 25.9654C14.1802 25.3575 14.5094 24.7973 14.9375 24.3167C15.3206 23.9206 15.7839 23.611 16.2964 23.4086C16.8089 23.2062 17.3588 23.1158 17.9091 23.1433C18.5071 23.2026 19.0842 23.395 19.5981 23.7066C20.1119 24.0181 20.5494 24.4408 20.8785 24.9437L20.9139 24.9952C21.3988 25.8713 21.6802 26.8452 21.7372 27.8449C21.7943 28.8445 21.6255 29.8442 21.2435 30.7697C20.8068 31.864 20.175 32.8698 19.3788 33.7381C20.9819 35.051 22.7869 36.0958 24.7239 36.832C26.4446 37.3684 28.2346 37.6494 30.0368 37.6662L30.3084 37.7027C34.2018 37.7883 37.9882 36.4254 40.9337 33.878C43.8792 31.3305 45.7739 27.7802 46.2505 23.9152C46.2677 23.7632 46.3153 23.6162 46.3902 23.4829C46.4652 23.3495 46.5661 23.2325 46.6869 23.1388C46.8078 23.045 46.9462 22.9764 47.094 22.937C47.2418 22.8975 47.396 22.888 47.5475 22.9091C47.699 22.9301 47.8448 22.9813 47.9762 23.0596C48.1077 23.1379 48.2221 23.2416 48.3128 23.3648C48.4036 23.488 48.4687 23.628 48.5045 23.7768C48.5402 23.9255 48.5458 24.0799 48.521 24.2308C47.9731 28.558 45.8756 32.5401 42.617 35.4394C39.3584 38.3388 35.1595 39.959 30.798 40ZM17.6665 25.4246C17.2492 25.4446 16.8554 25.6236 16.5661 25.9249C16.168 26.4297 15.9635 27.0603 15.9896 27.7027C16.1194 29.3147 16.7423 30.8477 17.7738 32.0934C18.3268 31.4704 18.7704 30.7582 19.0857 29.9871C19.3383 29.3974 19.4618 28.7606 19.4481 28.1192C19.4344 27.4778 19.2838 26.8468 19.0062 26.2684C18.8685 26.0464 18.6849 25.8565 18.4677 25.7113C18.2505 25.5661 18.0048 25.4691 17.747 25.4268L17.6665 25.4246ZM13.7448 2.10094L13.7534 2.10632L13.7448 2.10094Z" fill="#333F48"/>
<path d="M40.4888 25.5641C40.8021 23.4838 41.578 21.5003 42.7593 19.7595C42.8012 19.6983 42.8441 19.6371 42.8882 19.577C43.002 19.4224 42.7411 19.7402 42.9268 19.5287C43.0202 19.4213 43.1179 19.3226 43.2188 19.2238C43.6335 18.7907 44.1026 18.4133 44.6144 18.1009C45.0115 17.8523 45.4756 17.7319 45.9434 17.7563C46.0863 17.7864 46.2253 17.8326 46.3578 17.8937C46.2354 17.8476 46.3267 17.8368 46.3127 17.9238C46.3127 17.9238 46.2419 18.088 46.3063 18.014C46.2389 18.0931 46.1525 18.1537 46.0551 18.19C45.5659 18.3815 45.0321 18.4291 44.5167 18.3274C43.4078 18.1406 42.9891 17.3022 42.7561 16.2877C42.638 15.8852 42.6015 15.463 42.6489 15.0462C42.6963 14.6294 42.8265 14.2262 43.032 13.8604C43.1541 13.6466 43.3229 13.4631 43.5258 13.3236C43.4421 13.3644 43.9553 13.2163 43.6837 13.2732C43.7449 13.264 43.8071 13.264 43.8683 13.2732C43.6064 13.1809 43.9273 13.3011 43.9381 13.3076C44.1184 13.401 43.9628 13.3215 43.9295 13.3076C44.0079 13.3481 44.0829 13.3947 44.1539 13.4471C43.9327 13.2797 44.3439 13.738 44.1882 13.4943C44.2217 13.5383 44.2501 13.5858 44.273 13.6361C44.3428 13.8637 44.2569 13.4643 44.2827 13.679C44.3084 13.8937 44.2827 13.6479 44.2827 13.6232C44.2854 13.7429 44.28 13.8627 44.2666 13.9817C44.0034 15.1696 43.366 16.2417 42.448 17.0402C41.4904 18.0247 42.9966 19.5341 43.951 18.5432C45.5527 16.8975 47.8919 13.2947 45.1565 11.5502C44.6892 11.258 44.1421 11.1192 43.592 11.1532C43.0418 11.1873 42.5161 11.3926 42.0884 11.7402C41.5488 12.2014 41.1251 12.7828 40.8514 13.4376C40.5777 14.0925 40.4616 14.8025 40.5124 15.5105C40.4915 16.3555 40.6746 17.1931 41.0461 17.9523C41.4176 18.7116 41.9666 19.3702 42.6466 19.8722C43.352 20.2758 44.1481 20.4939 44.9606 20.5063C45.7732 20.5187 46.5756 20.325 47.2929 19.9431C47.5953 19.7598 47.8525 19.5106 48.0453 19.2142C48.2381 18.9177 48.3616 18.5816 48.4066 18.2309C48.4515 17.8801 48.4168 17.5237 48.3051 17.1882C48.1933 16.8527 48.0073 16.5468 47.7609 16.2931C46.4577 15.0918 44.3192 15.6489 43.0374 16.5743C41.8613 17.4191 40.8995 18.5276 40.229 19.811C39.3357 21.4225 38.7253 23.1752 38.4244 24.993C38.3576 25.2676 38.3989 25.5573 38.5398 25.8023C38.6807 26.0473 38.9103 26.2288 39.1812 26.3092C39.4539 26.3825 39.7445 26.3454 39.9901 26.2059C40.2357 26.0665 40.4164 25.8359 40.4931 25.5641H40.4888Z" fill="#333F48"/>
</g>
<defs>
<clipPath id="clip0_1261_16182">
<rect width="48.3092" height="40" fill="white" transform="translate(0.220409)"/>
</clipPath>
</defs>
</svg>
