<svg width="57" height="40" viewBox="0 0 57 40" fill="none" xmlns="http://www.w3.org/2000/svg">
<g clip-path="url(#clip0_2209_17298)">
<path opacity="0.49" d="M40.0415 39.4311C47.9516 39.4311 54.364 33.0187 54.364 25.1086C54.364 17.1985 47.9516 10.7861 40.0415 10.7861C32.1314 10.7861 25.719 17.1985 25.719 25.1086C25.719 33.0187 32.1314 39.4311 40.0415 39.4311Z" fill="#EF6079"/>
<path d="M46.1552 14.8621C45.7342 13.6553 45.0191 13.3027 44.4998 13.2183C44.0584 13.1493 43.1999 13.1946 42.3573 14.2921C42.0133 14.7535 41.7401 15.2636 41.5467 15.8056C40.7311 15.0757 39.7381 14.5728 38.667 14.3472C38.3331 14.2723 37.9857 14.2831 37.657 14.3786C37.3284 14.4741 37.0294 14.6513 36.7876 14.8935C36.2055 15.5247 36.0819 16.6211 36.4687 17.7517C36.8081 18.7449 38.0137 21.0685 41.9986 21.8961C41.984 22.7644 41.884 23.6291 41.7001 24.4779C41.6685 24.6245 41.6661 24.776 41.6931 24.9236C41.72 25.0712 41.7758 25.212 41.8573 25.338C41.9387 25.464 42.0442 25.5728 42.1676 25.658C42.2911 25.7432 42.4302 25.8033 42.5769 25.8347C42.7359 25.87 42.9007 25.87 43.0597 25.8347C43.2746 25.7886 43.4716 25.6814 43.6272 25.5261C43.7827 25.3708 43.8901 25.1739 43.9365 24.959C44.2505 23.566 44.3466 22.1328 44.2212 20.7104C44.9247 20.1282 47.2339 17.9421 46.1552 14.8621ZM38.8679 17.5139C38.7045 17.2508 38.5946 16.9582 38.5445 16.6526C39.8547 17.1617 40.9241 18.1472 41.5385 19.4115C40.4478 19.1233 39.4988 18.449 38.8679 17.5139ZM43.4956 18.1826C43.3157 17.5387 43.686 16.4324 44.0606 15.8332C44.1526 16.2419 44.1495 16.6663 44.0516 17.0737C43.9536 17.481 43.7634 17.8604 43.4956 18.1826V18.1826Z" fill="#333F48"/>
<path d="M49.6463 6.89665L49.27 6.54462C41.0656 -1.30994 30.3716 -0.423761 24.7241 0.806151C22.7644 1.21386 20.8466 1.80179 18.995 2.56245C18.7999 2.64948 18.6329 2.78937 18.5131 2.96631C18.3933 3.14325 18.3253 3.35019 18.3169 3.56372C18.3085 3.77726 18.3601 3.98889 18.4657 4.17467C18.5713 4.36046 18.7267 4.51299 18.9145 4.61504C19.8768 5.13703 20.4076 5.7346 20.4904 6.39839C20.6344 7.59023 19.4547 8.99176 18.9382 9.48836C16.7567 11.0336 14.7482 12.8095 12.9476 14.7854C12.8272 14.3312 12.6798 13.8846 12.5061 13.4479C13.5813 12.8312 14.379 11.8256 14.7348 10.6383C15.2634 9.18322 15.6121 6.63401 14.4131 5.56742C14.1493 5.3348 13.8199 5.18976 13.4702 5.15231C13.1206 5.11485 12.7679 5.18684 12.4609 5.35831C11.4367 5.88278 10.5553 6.64814 9.89237 7.58859C8.97918 7.08372 7.34316 6.43537 5.70935 7.09198C5.27559 7.22226 4.89233 7.48266 4.61145 7.83795C4.33057 8.19323 4.16564 8.62625 4.13898 9.07837C4.0965 10.4391 5.41911 11.6933 6.66447 12.2787C7.56494 12.6926 8.56915 12.8258 9.5464 12.6611C9.56902 12.7041 9.5911 12.7477 9.61868 12.7902C10.3771 13.9867 10.8469 15.3432 10.991 16.7525C10.997 16.8676 11.0214 16.9811 11.0632 17.0885C10.2459 18.1765 9.52913 19.3365 8.92179 20.5543C8.46764 19.6358 7.73758 18.8824 6.83387 18.3995C6.14779 18.0587 5.38087 17.9141 4.61776 17.9816C3.85466 18.0492 3.12508 18.3264 2.50958 18.7825C0.883496 19.9583 -0.486014 22.6598 0.252816 24.2534C0.411728 24.5999 1.07496 25.7012 2.81582 25.2631C5.15425 24.6887 6.40238 22.5042 6.85318 21.5193C7.40842 22.6795 7.67352 23.9573 7.62567 25.2427C7.62793 25.3301 7.63938 25.417 7.65987 25.502C7.55895 26.9885 7.68077 28.4818 8.02128 29.9322C8.71216 33.0211 10.5874 35.7156 13.2439 37.4364C13.2571 37.4436 13.2692 37.4502 13.2808 37.458C15.5015 38.7064 18.0984 39.1108 20.5935 38.5968C22.5029 38.1576 24.2669 37.2341 25.7157 35.9152C27.6483 37.394 29.8198 38.5311 32.1362 39.2772C34.1148 39.8179 36.1643 40.0534 38.214 39.9757L38.3398 39.9912C38.3851 39.9956 38.4308 39.9956 38.4766 39.9972C39.6677 39.9828 40.8543 39.8486 42.0185 39.5966C50.3421 37.7879 56.3426 30.1243 56.2842 21.3769C56.2513 18.6334 55.6436 15.9273 54.5003 13.4331C53.357 10.939 51.7034 8.71223 49.6463 6.89665V6.89665ZM12.9244 7.74142C12.9535 8.71786 12.7284 9.68509 12.2711 10.5483C12.091 10.9093 11.8082 11.209 11.4583 11.4096C11.3314 11.1753 11.252 10.9181 11.2247 10.653C11.1975 10.3879 11.2228 10.12 11.2994 9.86468C11.5931 8.99761 12.1641 8.25141 12.9244 7.74142V7.74142ZM6.48183 9.24888C6.50701 9.23575 6.53322 9.22468 6.56018 9.21577C7.45296 8.85491 8.53443 9.42657 8.99406 9.71239C8.95351 9.94933 8.93321 10.1893 8.93337 10.4297C8.4916 10.4665 8.0477 10.3906 7.64331 10.209C7.1789 9.99697 6.77837 9.66666 6.48183 9.2511V9.24888ZM4.89381 20.2844C4.88553 20.3082 4.05841 22.5401 2.34901 23.0218C2.57003 22.0821 3.09867 21.2431 3.85095 20.6381C4.07736 20.4712 4.33616 20.3536 4.61074 20.2927C4.70705 20.272 4.80483 20.2589 4.90318 20.2535C4.90043 20.2668 4.89546 20.2762 4.89381 20.2866V20.2844ZM25.6175 32.6845C24.5148 31.4748 23.8106 29.9554 23.6002 28.3321C23.5344 27.6814 23.7093 27.0291 24.0918 26.4986C24.328 26.2334 24.6391 26.0462 24.984 25.9617C25.5253 25.843 26.0666 26.1024 26.5886 26.7242C26.7205 26.9267 27.5228 28.3045 26.8546 30.4763C26.5701 31.2777 26.1518 32.0251 25.6175 32.6867V32.6845ZM53.9943 21.394C54.0495 29.0637 48.8076 35.78 41.5357 37.3608C40.5437 37.576 39.5329 37.6926 38.518 37.709L38.39 37.6946C38.347 37.6919 38.3012 37.6897 38.2559 37.6902C36.4373 37.7593 34.6182 37.5628 32.8562 37.107C30.8621 36.4585 28.9856 35.4928 27.2987 34.2471C28.0598 33.3276 28.6498 32.279 29.0407 31.1511C30.1051 27.7009 28.4972 25.4535 28.4266 25.3575C28.415 25.3409 28.4017 25.3243 28.3913 25.3083C26.9158 23.5145 25.3179 23.5427 24.4979 23.7242C23.6834 23.9094 22.9469 24.3437 22.3907 24.9668C21.9838 25.4712 21.6807 26.051 21.4986 26.673C21.3165 27.2949 21.2591 27.9467 21.3296 28.5909C21.5943 30.7481 22.5416 32.7642 24.0333 34.3448C22.9104 35.3303 21.5615 36.0231 20.1063 36.3616C18.1454 36.753 16.1091 36.4276 14.3678 35.4445C12.283 34.0271 10.8114 31.8736 10.2483 29.4163C9.67086 26.9889 9.83776 24.4438 10.7272 22.1125C10.7487 22.0573 12.9067 16.5859 20.3237 11.3026C20.3603 11.276 20.3953 11.2472 20.4286 11.2165C20.7017 10.9704 23.071 8.73352 22.7559 6.12196C22.6587 5.31959 22.317 4.56656 21.7771 3.96506C22.9041 3.59655 24.0493 3.28603 25.208 3.03475C31.5618 1.6553 40.6203 1.42799 47.6913 8.1983L48.0919 8.57849C48.109 8.59007 48.1228 8.60607 48.1416 8.62042C49.9588 10.2202 51.419 12.1845 52.4274 14.3856C53.4357 16.5867 53.9696 18.9753 53.9943 21.3963V21.394Z" fill="#333F48"/>
</g>
<defs>
<clipPath id="clip0_2209_17298">
<rect width="56.2394" height="40" fill="white" transform="translate(0.0469856)"/>
</clipPath>
</defs>
</svg>
