<svg width="102" height="73" viewBox="0 0 102 73" fill="none" xmlns="http://www.w3.org/2000/svg">
<g clip-path="url(#clip0_2209_19734)">
<path opacity="0.49" d="M72.483 71.4621C86.8187 71.4621 98.44 59.8408 98.44 45.5051C98.44 31.1694 86.8187 19.5481 72.483 19.5481C58.1473 19.5481 46.526 31.1694 46.526 45.5051C46.526 59.8408 58.1473 71.4621 72.483 71.4621Z" fill="white"/>
<path d="M83.5631 26.9352C82.8001 24.7482 81.5041 24.1092 80.5631 23.9562C79.7631 23.8312 78.2071 23.9132 76.6801 25.9022C76.0567 26.7384 75.5616 27.6629 75.2111 28.6452C73.7329 27.3223 71.9332 26.4109 69.9921 26.0022C69.3869 25.8664 68.7573 25.8859 68.1617 26.059C67.5662 26.2321 67.0241 26.5531 66.5861 26.9921C65.5311 28.1361 65.3071 30.1232 66.0081 32.1722C66.6231 33.9722 68.8081 38.1832 76.0301 39.6832C76.0036 41.2568 75.8224 42.824 75.4891 44.3621C75.4318 44.628 75.4275 44.9025 75.4763 45.1699C75.5252 45.4374 75.6263 45.6927 75.7739 45.921C75.9215 46.1494 76.1126 46.3465 76.3364 46.5009C76.5602 46.6554 76.8122 46.7642 77.0781 46.8212C77.3662 46.8852 77.6649 46.8852 77.9531 46.8212C78.3426 46.7376 78.6997 46.5434 78.9815 46.2619C79.2634 45.9804 79.458 45.6235 79.5421 45.2342C80.1112 42.7096 80.2853 40.1121 80.0581 37.5342C81.3331 36.4792 85.5181 32.5172 83.5631 26.9352ZM70.3561 31.7412C70.06 31.2644 69.8609 30.734 69.7701 30.1802C72.1446 31.1029 74.0827 32.8889 75.1961 35.1802C73.2195 34.6579 71.4997 33.4359 70.3561 31.7412ZM78.7431 32.9531C78.4171 31.7861 79.0881 29.7812 79.7671 28.6952C79.9338 29.4359 79.9282 30.2051 79.7507 30.9434C79.5731 31.6816 79.2284 32.3692 78.7431 32.9531V32.9531Z" fill="white"/>
<path d="M89.8901 12.4991L89.2081 11.8611C74.3391 -2.37389 54.9581 -0.767855 44.7231 1.46114C41.1714 2.20005 37.6956 3.26557 34.34 4.64413C33.9863 4.80185 33.6838 5.05539 33.4666 5.37606C33.2494 5.69674 33.1263 6.07177 33.1111 6.45876C33.0959 6.84576 33.1893 7.22929 33.3807 7.566C33.572 7.90271 33.8538 8.17914 34.194 8.3641C35.938 9.3101 36.9001 10.3931 37.0501 11.5961C37.3111 13.7561 35.173 16.2961 34.237 17.1961C30.2835 19.9966 26.6434 23.2151 23.38 26.7961C23.1619 25.9729 22.8947 25.1635 22.5801 24.3721C24.5287 23.2545 25.9743 21.432 26.6191 19.2801C27.5771 16.6431 28.2091 12.0231 26.0361 10.0901C25.5581 9.66854 24.961 9.40568 24.3273 9.33779C23.6936 9.26991 23.0545 9.40038 22.4981 9.71114C20.642 10.6617 19.0445 12.0487 17.8431 13.7531C16.1881 12.8381 13.2231 11.6631 10.2621 12.8531C9.47595 13.0892 8.78136 13.5611 8.27232 14.205C7.76328 14.8489 7.46437 15.6337 7.41606 16.4531C7.33906 18.9191 9.73606 21.1921 11.9931 22.2531C13.625 23.0033 15.445 23.2447 17.216 22.9461C17.257 23.0241 17.2971 23.1031 17.3471 23.1801C18.7215 25.3486 19.573 27.807 19.8341 30.3611C19.8451 30.5698 19.8893 30.7754 19.965 30.9701C18.4837 32.9419 17.1848 35.0442 16.0841 37.2511C15.261 35.5866 13.9379 34.2211 12.3001 33.3461C11.0567 32.7283 9.66675 32.4662 8.28377 32.5887C6.90078 32.7112 5.57853 33.2135 4.46306 34.0401C1.51606 36.1711 -0.965939 41.0671 0.373061 43.9551C0.661061 44.5831 1.86305 46.5791 5.01805 45.7851C9.25605 44.7441 11.5181 40.7851 12.3351 39.0001C13.3413 41.1028 13.8218 43.4186 13.7351 45.7481C13.7392 45.9065 13.7599 46.064 13.797 46.2181C13.6142 48.9121 13.8349 51.6183 14.452 54.2471C15.7042 59.8451 19.1027 64.7283 23.9171 67.8471C23.9411 67.8601 23.9631 67.8721 23.9841 67.8861C28.0087 70.1487 32.715 70.8816 37.237 69.9501C40.6974 69.1541 43.8944 67.4804 46.5201 65.0901C50.0226 67.7703 53.9581 69.831 58.1561 71.1831C61.7419 72.1631 65.4564 72.59 69.1711 72.4491L69.3991 72.4771C69.4811 72.4851 69.564 72.4851 69.647 72.4881C71.8056 72.462 73.9561 72.2188 76.0661 71.7621C91.1511 68.4841 102.026 54.5951 101.92 38.7421C101.861 33.7699 100.759 28.8655 98.6871 24.3453C96.615 19.8251 93.6182 15.7895 89.8901 12.4991V12.4991ZM23.3381 14.0301C23.3908 15.7997 22.9828 17.5527 22.1541 19.1171C21.8277 19.7713 21.3152 20.3144 20.681 20.6781C20.451 20.2534 20.3072 19.7874 20.2578 19.3068C20.2083 18.8263 20.2543 18.3408 20.393 17.8781C20.9253 16.3067 21.9603 14.9544 23.3381 14.0301V14.0301ZM11.6621 16.7621C11.7077 16.7383 11.7552 16.7182 11.8041 16.7021C13.4221 16.0481 15.382 17.0841 16.215 17.6021C16.1415 18.0316 16.1048 18.4665 16.1051 18.9021C15.3044 18.9689 14.4999 18.8313 13.767 18.5021C12.9254 18.1179 12.1995 17.5193 11.6621 16.7661V16.7621ZM8.78404 36.7621C8.76904 36.8051 7.27004 40.8501 4.17204 41.7231C4.57261 40.02 5.53067 38.4995 6.89406 37.4031C7.30437 37.1007 7.7734 36.8875 8.27104 36.7771C8.44558 36.7396 8.62279 36.7159 8.80104 36.7061C8.79604 36.7301 8.78704 36.7471 8.78404 36.7661V36.7621ZM46.3421 59.2351C44.3437 57.0427 43.0675 54.289 42.6861 51.3471C42.5669 50.1678 42.8839 48.9857 43.577 48.0241C44.0051 47.5436 44.569 47.2043 45.194 47.0511C46.175 46.8361 47.1561 47.3061 48.1021 48.4331C48.3411 48.8001 49.7951 51.2971 48.5841 55.2331C48.0685 56.6856 47.3104 58.0401 46.3421 59.2391V59.2351ZM97.7701 38.7731C97.8701 52.6731 88.3701 64.8451 75.1911 67.7101C73.3933 68.1 71.5614 68.3113 69.7221 68.3411L69.4901 68.3151C69.4121 68.3101 69.3291 68.3061 69.2471 68.3071C65.951 68.4322 62.6543 68.0761 59.461 67.2501C55.8471 66.0747 52.4461 64.3246 49.3891 62.0671C50.7683 60.4005 51.8376 58.5002 52.5461 56.4561C54.4751 50.2031 51.5611 46.1301 51.4331 45.9561C51.4121 45.9261 51.3881 45.8961 51.3691 45.8671C48.6951 42.6161 45.7991 42.6671 44.3131 42.9961C42.837 43.3317 41.5021 44.1188 40.4941 45.2481C39.7567 46.1623 39.2073 47.2131 38.8773 48.3402C38.5473 49.4674 38.4432 50.6486 38.5711 51.8161C39.0508 55.7257 40.7676 59.3795 43.4711 62.2441C41.436 64.0301 38.9913 65.2857 36.354 65.8991C32.8002 66.6086 29.1098 66.0188 25.9541 64.2371C22.1757 61.6682 19.5086 57.7655 18.4881 53.3121C17.4416 48.9127 17.7441 44.3002 19.3561 40.0751C19.3951 39.9751 23.3061 30.0591 36.7481 20.4841C36.8144 20.4359 36.8778 20.3838 36.9381 20.3281C37.4331 19.8821 41.7271 15.8281 41.1561 11.0951C40.9798 9.64096 40.3605 8.27623 39.3821 7.18612C41.4246 6.51826 43.4999 5.95548 45.6001 5.50009C57.1151 3.00009 73.5321 2.58812 86.3471 14.8581L87.073 15.5471C87.104 15.5681 87.129 15.5971 87.163 15.6231C90.4564 18.5225 93.1029 22.0823 94.9303 26.0714C96.7577 30.0605 97.7253 34.3896 97.7701 38.7771V38.7731Z" fill="white"/>
</g>
<defs>
<clipPath id="clip0_2209_19734">
<rect width="101.924" height="72.493" fill="white"/>
</clipPath>
</defs>
</svg>
