<svg width="98" height="80" viewBox="0 0 98 80" fill="none" xmlns="http://www.w3.org/2000/svg">
<g clip-path="url(#clip0_1559_14755)">
<path opacity="0.49" d="M63.8471 77.7048C79.8447 77.7048 92.8133 64.7362 92.8133 48.7387C92.8133 32.7411 79.8447 19.7725 63.8471 19.7725C47.8495 19.7725 34.8809 32.7411 34.8809 48.7387C34.8809 64.7362 47.8495 77.7048 63.8471 77.7048Z" fill="white"/>
<path d="M61.846 80C61.4166 80 60.9822 79.9914 60.5428 79.9743L60.0017 79.9013C55.9411 79.8557 51.9109 79.194 48.0489 77.9388C43.5449 76.222 39.3647 73.7536 35.6861 70.6388C33.6373 72.3096 31.3268 73.6306 28.8476 74.5486C25.8951 75.5924 22.7441 75.9517 19.6324 75.5994C16.5207 75.2472 13.5297 74.1926 10.8852 72.5153C5.7482 68.8519 2.26207 63.3115 1.18259 57.095C0.110112 51.3458 0.790853 45.4069 3.13642 40.0494C3.35113 39.5685 8.41608 28.1718 24.7725 17.6297C25.846 16.7064 28.2937 14.0612 28.1305 11.7016C27.9826 10.9213 27.6509 10.1875 27.1629 9.56099C26.6749 8.93446 26.0446 8.43324 25.3243 8.09883L24.1091 7.34302L24.21 5.84011C24.2544 5.39675 24.4233 4.97496 24.6972 4.62353C24.9712 4.2721 25.3389 4.00533 25.758 3.85402C32.8875 1.4126 40.3591 0.117593 47.8943 0.0172301C62.9818 -0.197477 75.8428 4.92112 85.1461 14.7375L85.8954 15.5148C86.1143 15.7295 86.2879 15.986 86.4059 16.269C86.524 16.552 86.584 16.8558 86.5826 17.1624C86.5812 17.469 86.5183 17.7722 86.3976 18.0541C86.2769 18.336 86.101 18.5908 85.8801 18.8035C85.6593 19.0162 85.398 19.1823 85.1117 19.2923C84.8255 19.4022 84.5201 19.4537 84.2137 19.4435C83.9072 19.4334 83.6059 19.3619 83.3276 19.2332C83.0493 19.1046 82.7995 18.9215 82.5932 18.6946L81.831 17.9045C73.2964 8.90181 61.9169 4.42299 47.9523 4.59261C42.2197 4.69242 36.5219 5.50603 30.9904 7.01455C32 8.268 32.5997 9.80162 32.7081 11.4074C33.0495 16.5991 28.1541 20.7859 27.5959 21.2475L27.3812 21.4064C12.1949 31.1563 7.39407 41.7714 7.34683 41.8788C5.36621 46.4051 4.79172 51.4223 5.69789 56.2792C6.54688 61.2118 9.26451 65.6273 13.2856 68.6076C15.3408 69.9334 17.6729 70.7696 20.1022 71.0518C22.5315 71.334 24.9932 71.0546 27.2975 70.2352C29.164 69.5485 30.913 68.5773 32.4826 67.3559C29.6794 64.0879 27.9902 60.0117 27.6603 55.7188C27.5854 54.4337 27.7646 53.1465 28.1875 51.9308C28.6105 50.715 29.2689 49.5946 30.1252 48.6334C30.8912 47.8412 31.8178 47.222 32.8429 46.8172C33.8679 46.4125 34.9676 46.2315 36.0683 46.2867C37.2643 46.4051 38.4185 46.79 39.4462 47.4131C40.4739 48.0362 41.349 48.8817 42.0071 49.8873L42.0779 49.9904C43.0476 51.7425 43.6104 53.6904 43.7245 55.6897C43.8386 57.689 43.5011 59.6884 42.7371 61.5395C41.8638 63.7279 40.6001 65.7395 39.0076 67.4762C42.2138 70.1021 45.8239 72.1917 49.6979 73.664C53.1392 74.7367 56.7193 75.2988 60.3238 75.3323L60.867 75.4053C68.6536 75.5767 76.2265 72.8507 82.1174 67.7559C88.0084 62.6611 91.7978 55.5603 92.751 47.8304C92.7856 47.5264 92.8806 47.2324 93.0306 46.9657C93.1805 46.6991 93.3822 46.4651 93.624 46.2775C93.8657 46.09 94.1425 45.9528 94.4381 45.8739C94.7337 45.795 95.0421 45.776 95.3452 45.8182C95.6482 45.8603 95.9397 45.9627 96.2026 46.1192C96.4655 46.2757 96.6944 46.4833 96.8758 46.7296C97.0572 46.9759 97.1875 47.2561 97.259 47.5536C97.3305 47.851 97.3418 48.1598 97.2921 48.4616C96.1963 57.116 92.0014 65.0801 85.4842 70.8789C78.967 76.6776 70.5691 79.918 61.846 80ZM35.583 50.8492C34.7485 50.8891 33.961 51.2472 33.3823 51.8497C32.5861 52.8594 32.1771 54.1205 32.2293 55.4053C32.4889 58.6294 33.7348 61.6955 35.7977 64.1868C36.9037 62.9407 37.7908 61.5164 38.4214 59.9743C38.9266 58.7949 39.1738 57.5211 39.1464 56.2384C39.119 54.9556 38.8176 53.6936 38.2626 52.5368C37.9871 52.0928 37.6199 51.7129 37.1855 51.4226C36.7511 51.1323 36.2596 50.9382 35.744 50.8535L35.583 50.8492ZM27.7398 4.20189L27.7569 4.21264L27.7398 4.20189Z" fill="white"/>
<path d="M81.2278 51.1283C81.8545 46.9677 83.4062 43.0006 85.7689 39.5191C85.8526 39.3967 85.9385 39.2743 86.0265 39.154C86.2541 38.8449 85.7324 39.4804 86.1038 39.0574C86.2906 38.8427 86.486 38.6452 86.6878 38.4476C87.5172 37.5814 88.4554 36.8265 89.479 36.2018C90.2732 35.7046 91.2013 35.4639 92.1371 35.5126C92.4228 35.5729 92.7008 35.6651 92.9659 35.7874C92.7211 35.6951 92.9036 35.6736 92.8757 35.8475C92.8757 35.8475 92.734 36.1761 92.8628 36.0279C92.7281 36.1862 92.5551 36.3074 92.3604 36.38C91.3819 36.7629 90.3145 36.8583 89.2836 36.6548C87.0657 36.2812 86.2284 34.6044 85.7624 32.5754C85.5261 31.7703 85.4532 30.9261 85.548 30.0924C85.6428 29.2587 85.9033 28.4524 86.3142 27.7208C86.5584 27.2931 86.896 26.9262 87.3019 26.6473C87.1344 26.7289 88.1607 26.4326 87.6175 26.5464C87.7399 26.5279 87.8644 26.5279 87.9868 26.5464C87.4629 26.3617 88.1049 26.6022 88.1264 26.6151C88.4871 26.8019 88.1757 26.643 88.1092 26.6151C88.2659 26.6961 88.416 26.7895 88.5579 26.8943C88.1156 26.5593 88.938 27.4761 88.6266 26.9887C88.6936 27.0765 88.7505 27.1716 88.7962 27.2721C88.9358 27.7273 88.764 26.9286 88.8156 27.358C88.8671 27.7874 88.8156 27.2958 88.8156 27.2464C88.821 27.4859 88.8102 27.7254 88.7834 27.9635C88.257 30.3392 86.9821 32.4834 85.1462 34.0805C83.231 36.0494 86.2434 39.0681 88.1521 37.0864C91.3556 33.7949 96.034 26.5894 90.5633 23.1004C89.6286 22.516 88.5345 22.2384 87.4342 22.3065C86.3339 22.3746 85.2824 22.7851 84.427 23.4804C83.3479 24.4027 82.5005 25.5655 81.953 26.8753C81.4055 28.185 81.1733 29.605 81.2751 31.0209C81.2333 32.711 81.5994 34.3861 82.3424 35.9047C83.0854 37.4232 84.1834 38.7403 85.5434 39.7445C86.9541 40.5516 88.5464 40.9879 90.1715 41.0127C91.7965 41.0375 93.4013 40.6499 94.836 39.8862C95.4408 39.5196 95.9551 39.0212 96.3408 38.4284C96.7264 37.8355 96.9734 37.1633 97.0633 36.4617C97.1533 35.7602 97.0839 35.0475 96.8604 34.3765C96.6368 33.7055 96.2648 33.0935 95.7721 32.5862C93.1655 30.1836 88.8886 31.2979 86.325 33.1487C83.9729 34.8382 82.0493 37.0552 80.7082 39.6221C78.9215 42.845 77.7008 46.3505 77.099 49.9861C76.9655 50.5352 77.0481 51.1147 77.3299 51.6046C77.6116 52.0946 78.0709 52.4575 78.6127 52.6183C79.1581 52.765 79.7393 52.6908 80.2304 52.4119C80.7215 52.133 81.083 51.6718 81.2364 51.1283H81.2278Z" fill="white"/>
</g>
<defs>
<clipPath id="clip0_1559_14755">
<rect width="96.6184" height="80" fill="white" transform="translate(0.690918)"/>
</clipPath>
</defs>
</svg>
