<svg width="52" height="40" viewBox="0 0 52 40" fill="none" xmlns="http://www.w3.org/2000/svg">
<path d="M44.7041 8.77131L44.3905 8.47856C37.3408 1.72689 28.1608 2.4849 23.3147 3.53831C21.633 3.88602 19.9877 4.39098 18.4006 5.04653C18.1983 5.13606 18.0252 5.28052 17.9009 5.4635C17.7765 5.64649 17.706 5.86066 17.6973 6.0817C17.6886 6.30274 17.7421 6.5218 17.8516 6.714C17.9611 6.90619 18.1223 7.06383 18.3169 7.169C19.0723 7.57938 19.488 8.03681 19.5481 8.52822C19.6552 9.40649 18.7874 10.5017 18.3012 10.9696C16.5414 12.2216 14.9117 13.6472 13.4368 15.225C13.374 15.0133 13.3009 14.8041 13.2251 14.6003C14.0171 14.1376 14.6497 13.3064 15.0548 12.1824C15.46 11.0741 15.9095 8.6955 14.7229 7.63949C14.4676 7.41337 14.1485 7.27207 13.8095 7.23508C13.4705 7.19809 13.1284 7.26725 12.8304 7.433C11.983 7.86588 11.2455 8.48629 10.6739 9.24704C9.8793 8.83666 8.4887 8.34264 7.1007 8.90201C5.81731 9.41432 5.6474 10.3867 5.63435 10.7788C5.59513 12.0334 6.78182 13.1731 7.90319 13.7011C8.6615 14.051 9.50398 14.1771 10.3315 14.0644C10.9545 15.0503 11.3418 16.1666 11.4633 17.3266C11.4665 17.408 11.4797 17.4888 11.5025 17.567C10.9059 18.3747 10.3703 19.2257 9.9002 20.113C9.49912 19.4432 8.9212 18.8969 8.22993 18.5342C7.61186 18.2265 6.92078 18.0957 6.23302 18.1561C5.54527 18.2166 4.8876 18.4659 4.33264 18.8766C2.85576 19.9457 1.66646 22.3243 2.34607 23.7881C2.45586 24.026 3.0832 25.1865 4.76653 24.7631C6.58055 24.3187 7.64966 22.787 8.14889 21.8486C8.46831 22.7112 8.62175 23.6265 8.60112 24.5461C8.60454 24.6243 8.61415 24.7021 8.62986 24.7788C8.54754 26.055 8.65322 27.3364 8.94352 28.582C9.54204 31.2677 11.1753 33.6091 13.4891 35.0984L13.5257 35.1193C15.6429 36.2354 17.7863 36.5674 19.8905 36.11C21.4927 35.742 22.9778 34.9801 24.2112 33.8934C25.8426 35.1125 27.6636 36.0548 29.6011 36.6824C29.6194 36.6876 31.5066 37.3176 34.8289 37.2888L34.9256 37.2993C34.9569 37.3019 34.9883 37.3045 35.0197 37.3045L35.0667 37.3071C36.0943 37.2934 37.1179 37.1769 38.1223 36.9595C45.3001 35.399 50.4756 28.7937 50.4259 21.25C50.392 16.5267 48.2015 11.7459 44.7041 8.77131ZM10.1799 11.3643C10.1472 11.5551 10.1315 11.7484 10.1328 11.942L10.1302 12.1354L9.9368 12.1485C9.86883 12.1511 9.80349 12.1537 9.73814 12.1537C9.39283 12.1585 9.05081 12.0861 8.737 11.942C8.30176 11.744 7.9286 11.4314 7.65749 11.0376L7.54508 10.8468L7.74113 10.7474C7.77057 10.7295 7.80219 10.7155 7.83522 10.7056C8.64555 10.3789 9.59175 10.8415 10.0858 11.1474L10.206 11.2232L10.1799 11.3643ZM6.68255 20.39C6.67731 20.4083 5.93756 22.4132 4.37708 22.8523L4.05558 22.9438L4.11307 22.6145C4.31149 21.7615 4.79117 21 5.4749 20.4528C5.69093 20.2948 5.93752 20.1835 6.19895 20.126C6.29177 20.1049 6.38622 20.0918 6.48127 20.0868L6.77141 20.0712L6.68255 20.39ZM11.7352 11.3983C11.9951 10.6139 12.5093 9.93875 13.1963 9.47967L13.51 9.25488L13.5283 9.63913C13.5545 10.5094 13.3536 11.3715 12.9454 12.1406C12.7746 12.4885 12.4996 12.7745 12.1586 12.9588L11.9783 13.045L11.8868 12.8673C11.644 12.4169 11.5895 11.8887 11.7352 11.3983ZM25.3718 29.0577C25.1214 29.7625 24.7538 30.42 24.2844 31.0024L24.1302 31.2037L23.9629 31.0103C22.9968 29.9493 22.38 28.6171 22.1959 27.194C22.1933 27.1809 22.0914 26.1066 22.6664 25.4688C22.8972 25.2113 23.2007 25.0299 23.5369 24.9487C24.0779 24.8311 24.6059 25.0715 25.1052 25.6675C25.2097 25.8243 25.9782 27.0842 25.3718 29.0577ZM37.6205 34.6488C36.7939 34.8283 35.9517 34.9255 35.106 34.9389L35.0014 34.9285C34.9648 34.9259 34.923 34.9233 34.8837 34.9233H34.8707C31.998 34.952 30.3591 34.4423 30.3434 34.4371C28.7376 33.9119 27.2209 33.146 25.8449 32.1656C26.4492 31.4061 26.9187 30.5485 27.2329 29.6301C28.1765 26.5667 26.7389 24.5958 26.684 24.5252L26.6421 24.4651C25.3143 22.8523 23.8662 22.8837 23.1238 23.0458C22.3875 23.2123 21.7215 23.6043 21.2183 24.1671C20.0578 25.461 20.2381 27.2201 20.2643 27.4162C20.4835 29.2214 21.2549 30.9148 22.473 32.2649C21.5812 33.0138 20.5239 33.5398 19.3886 33.7993C17.8491 34.1339 16.2546 33.8777 14.6601 33.0439C12.928 31.8727 11.7073 30.0856 11.2464 28.0461C10.7659 26.0218 10.9052 23.8998 11.6463 21.9558C11.7221 21.7649 13.5806 17.2377 19.7415 12.849C19.778 12.8223 19.8129 12.7935 19.8461 12.7627C20.0865 12.5458 22.1777 10.5854 21.8954 8.24593C21.8215 7.62691 21.5842 7.03869 21.2079 6.54167C22.0496 6.27505 22.9252 6.04243 23.8192 5.849C29.175 4.68582 36.8102 4.49239 42.762 10.1906L43.1018 10.5148L43.1253 10.5357C43.1384 10.5435 43.1489 10.554 43.1541 10.5566C44.6783 11.8726 45.896 13.5061 46.722 15.3426C47.5809 17.2013 48.0361 19.2209 48.0577 21.2683C48.1022 27.6959 43.7134 33.3236 37.6205 34.6488Z" fill="#EF6079"/>
<path d="M41.7923 15.638C41.4002 14.514 40.7206 14.1821 40.2187 14.101C39.8005 14.0331 38.9797 14.0749 38.1982 15.0943C37.9495 15.4255 37.7432 15.7864 37.5839 16.1686C36.91 15.6141 36.1103 15.2335 35.2549 15.0603C34.9367 14.992 34.6064 15.0048 34.2945 15.0975C33.9825 15.1902 33.6989 15.3599 33.4696 15.5909C32.9207 16.1869 32.8005 17.1985 33.156 18.2336C33.4435 19.0779 34.476 21.101 37.8453 21.8591C37.8247 22.5265 37.7424 23.1907 37.5996 23.843C37.564 24.0155 37.5672 24.1938 37.6087 24.3649C37.6503 24.5361 37.7293 24.6959 37.8401 24.8328C37.9508 24.9698 38.0905 25.0805 38.2491 25.1571C38.4078 25.2336 38.5814 25.274 38.7575 25.2754C38.8411 25.275 38.9244 25.2654 39.0058 25.2467C39.2281 25.1984 39.4318 25.0873 39.5927 24.9265C39.7535 24.7656 39.8646 24.5619 39.9129 24.3396C40.1756 23.1688 40.2619 21.9654 40.169 20.7691C40.8878 20.1496 42.7097 18.2571 41.7923 15.638ZM39.6358 16.4222L39.8946 16.0066L40.0148 16.4797C40.1015 16.8578 40.1002 17.2508 40.0109 17.6284C39.9216 18.0059 39.7468 18.3578 39.4999 18.6571L39.2437 18.9943L39.1313 18.5891C38.951 17.9382 39.3169 16.9319 39.6358 16.4222V16.4222ZM34.9125 17.2612L34.8655 16.9345L35.1817 17.0286C36.351 17.4812 37.3061 18.3588 37.8558 19.4857L38.0727 19.93L37.6022 19.7758C36.2064 19.3184 35.5346 18.5969 35.2157 18.0715V18.0689C35.0624 17.8223 34.9594 17.5478 34.9125 17.2612V17.2612Z" fill="#EF6079"/>
</svg>
