<svg width="98" height="80" viewBox="0 0 98 80" fill="none" xmlns="http://www.w3.org/2000/svg">
<g clip-path="url(#clip0_1627_14778)">
<path d="M74.5375 76.9788H11.2946C8.39941 77.048 5.59475 75.9674 3.49458 73.9734C1.3944 71.9794 0.16977 69.2344 0.0888672 66.3395V13.6534C0.171761 10.7581 1.39867 8.01358 3.50086 6.02094C5.60306 4.02829 8.40925 2.94991 11.3049 3.02194H74.5478C77.4434 2.94991 80.2496 4.02829 82.3518 6.02094C84.454 8.01358 85.6809 10.7581 85.7638 13.6534V22.8868C85.7365 23.4522 85.4926 23.9854 85.0827 24.376C84.6729 24.7665 84.1284 24.9843 83.5623 24.9843C82.9962 24.9843 82.4518 24.7665 82.0419 24.376C81.6321 23.9854 81.3882 23.4522 81.3608 22.8868V13.6534C81.3103 11.8948 80.565 10.2277 79.2881 9.01742C78.0112 7.80709 76.3067 7.15203 74.5478 7.19567H11.2946C9.53575 7.15203 7.83123 7.80709 6.55431 9.01742C5.27739 10.2277 4.53206 11.8948 4.48151 13.6534V66.3395C4.53272 68.0977 5.27841 69.764 6.55525 70.9738C7.8321 72.1836 9.53618 72.8383 11.2946 72.7947H74.5375C76.2961 72.839 78.0006 72.1845 79.2776 70.9746C80.5546 69.7647 81.3 68.098 81.3505 66.3395V57.2479C81.3779 56.6824 81.6218 56.1492 82.0316 55.7587C82.4415 55.3682 82.9859 55.1503 83.552 55.1503C84.1181 55.1503 84.6626 55.3682 85.0724 55.7587C85.4823 56.1492 85.7262 56.6824 85.7535 57.2479V66.3395C85.6726 69.2362 84.4466 71.9827 82.3442 73.9771C80.2418 75.9714 77.4345 77.0508 74.5375 76.9788Z" fill="white"/>
<path d="M63.4527 27.8097H14.6597C14.3749 27.8271 14.0897 27.7859 13.8214 27.6889C13.5532 27.5919 13.3077 27.441 13.0999 27.2455C12.8922 27.05 12.7266 26.814 12.6134 26.5522C12.5003 26.2903 12.4419 26.0081 12.4419 25.7229C12.4419 25.4376 12.5003 25.1554 12.6134 24.8935C12.7266 24.6316 12.8922 24.3957 13.0999 24.2002C13.3077 24.0047 13.5532 23.8538 13.8214 23.7568C14.0897 23.6598 14.3749 23.6186 14.6597 23.6359H63.4527C63.7375 23.6186 64.0228 23.6598 64.291 23.7568C64.5593 23.8538 64.8048 24.0047 65.0125 24.2002C65.2203 24.3957 65.3858 24.6316 65.499 24.8935C65.6121 25.1554 65.6705 25.4376 65.6705 25.7229C65.6705 26.0081 65.6121 26.2903 65.499 26.5522C65.3858 26.814 65.2203 27.05 65.0125 27.2455C64.8048 27.441 64.5593 27.5919 64.291 27.6889C64.0228 27.7859 63.7375 27.8271 63.4527 27.8097V27.8097Z" fill="white"/>
<path d="M59.5518 43.1349H14.6597C14.3749 43.1523 14.0897 43.1111 13.8214 43.0141C13.5532 42.9171 13.3077 42.7662 13.0999 42.5707C12.8922 42.3752 12.7266 42.1392 12.6134 41.8774C12.5003 41.6155 12.4419 41.3333 12.4419 41.0481C12.4419 40.7628 12.5003 40.4806 12.6134 40.2187C12.7266 39.9568 12.8922 39.7209 13.0999 39.5254C13.3077 39.3299 13.5532 39.179 13.8214 39.082C14.0897 38.9849 14.3749 38.9438 14.6597 38.9611H59.5518C59.8366 38.9438 60.1219 38.9849 60.3901 39.082C60.6584 39.179 60.9039 39.3299 61.1117 39.5254C61.3194 39.7209 61.485 39.9568 61.5982 40.2187C61.7113 40.4806 61.7697 40.7628 61.7697 41.0481C61.7697 41.3333 61.7113 41.6155 61.5982 41.8774C61.485 42.1392 61.3194 42.3752 61.1117 42.5707C60.9039 42.7662 60.6584 42.9171 60.3901 43.0141C60.1219 43.1111 59.8366 43.1523 59.5518 43.1349V43.1349Z" fill="white"/>
<path d="M51.4643 58.4577H14.6597C14.3749 58.475 14.0897 58.4339 13.8214 58.3368C13.5532 58.2398 13.3077 58.0889 13.0999 57.8934C12.8922 57.6979 12.7266 57.462 12.6134 57.2001C12.5003 56.9383 12.4419 56.656 12.4419 56.3708C12.4419 56.0855 12.5003 55.8032 12.6134 55.5414C12.7266 55.2795 12.8922 55.0436 13.0999 54.8482C13.3077 54.6527 13.5532 54.5017 13.8214 54.4047C14.0897 54.3076 14.3749 54.2666 14.6597 54.2839H51.4643C51.7491 54.2666 52.0343 54.3076 52.3026 54.4047C52.5708 54.5017 52.8164 54.6527 53.0242 54.8482C53.2319 55.0436 53.3974 55.2795 53.5106 55.5414C53.6237 55.8032 53.6821 56.0855 53.6821 56.3708C53.6821 56.656 53.6237 56.9383 53.5106 57.2001C53.3974 57.462 53.2319 57.6979 53.0242 57.8934C52.8164 58.0889 52.5708 58.2398 52.3026 58.3368C52.0343 58.4339 51.7491 58.475 51.4643 58.4577Z" fill="white"/>
<path d="M84.6563 59.3465C84.4131 59.3466 84.1714 59.3075 83.9406 59.2306L64.995 53.0511C64.4523 52.8781 63.9993 52.499 63.7333 51.9954C63.6074 51.7506 63.5334 51.4824 63.5161 51.2076C63.4989 50.9329 63.5386 50.6576 63.6329 50.399L73.752 22.5651C73.8492 22.3016 73.9978 22.06 74.1892 21.8545C74.3806 21.6489 74.6109 21.4835 74.8668 21.3678C75.3959 21.1248 75.9972 21.0898 76.5508 21.2699L95.4913 27.4495C95.759 27.5279 96.0081 27.6599 96.2234 27.8375C96.4386 28.015 96.6155 28.2345 96.7433 28.4825C96.8712 28.7305 96.9473 29.0019 96.9671 29.2802C96.9869 29.5585 96.95 29.838 96.8585 30.1016L86.7394 57.9355C86.6417 58.1991 86.4926 58.4406 86.3007 58.6462C86.1089 58.8517 85.8781 59.0171 85.6219 59.1328C85.3192 59.2727 84.9898 59.3456 84.6563 59.3465V59.3465ZM68.5122 49.7785L83.2943 54.6063L91.9766 30.7169L77.1971 25.8891L68.5122 49.7785Z" fill="white"/>
<path d="M69.812 71.034C69.5681 71.0348 69.3256 70.9966 69.0937 70.9208C68.7432 70.8108 68.4271 70.6122 68.1758 70.3442C67.9246 70.0763 67.7468 69.748 67.6595 69.3913L63.5629 51.5168C63.5056 51.2431 63.5038 50.9605 63.5578 50.6861C63.6119 50.4117 63.7206 50.1509 63.8775 49.9193C64.0343 49.6878 64.2362 49.4901 64.471 49.3381C64.7058 49.1861 64.9687 49.083 65.2443 49.0347C65.8024 48.9059 66.3889 49.0005 66.8782 49.2983C67.3675 49.5962 67.7209 50.0735 67.8628 50.6285L71.1922 65.148L83.2501 55.6546C83.7053 55.3042 84.2754 55.1375 84.8476 55.1876C85.4199 55.2376 85.9525 55.5008 86.3399 55.9249C86.5238 56.1324 86.663 56.3756 86.7487 56.6393C86.8344 56.903 86.8648 57.1815 86.8379 57.4574C86.8111 57.7334 86.7276 58.0009 86.5928 58.2431C86.4579 58.4854 86.2745 58.6972 86.054 58.8654L71.2076 70.5526C70.8089 70.8638 70.3178 71.0332 69.812 71.034V71.034Z" fill="white"/>
<path d="M67.8555 60.4172L76.9009 63.3706L69.8124 68.9502L67.8555 60.4172Z" fill="white"/>
<path d="M91.7523 32.326L76.3033 27.2845C75.7388 27.1181 75.214 26.8389 74.7606 26.4637C74.3072 26.0886 73.9347 25.6253 73.6655 25.102C73.3964 24.5787 73.2363 24.0061 73.1949 23.4191C73.1535 22.8321 73.2316 22.2428 73.4246 21.6868V21.6868C73.8683 20.5595 74.7297 19.6466 75.8294 19.1383C76.9291 18.6299 78.1825 18.5652 79.3287 18.9575L94.7777 23.999C95.3422 24.1654 95.8671 24.4447 96.3206 24.8198C96.7741 25.1949 97.1468 25.6581 97.4161 26.1814C97.6854 26.7047 97.8458 27.2771 97.8876 27.8641C97.9293 28.4512 97.8516 29.0406 97.659 29.5967C97.2137 30.7234 96.3518 31.6355 95.252 32.1437C94.1522 32.6519 92.8989 32.7172 91.7523 32.326V32.326Z" fill="white"/>
</g>
<defs>
<clipPath id="clip0_1627_14778">
<rect width="97.8436" height="73.9569" fill="white" transform="translate(0.078125 3.02148)"/>
</clipPath>
</defs>
</svg>
