<svg width="39" height="32" viewBox="0 0 39 32" fill="none" xmlns="http://www.w3.org/2000/svg">
<g clip-path="url(#clip0_1105_12539)">
<path d="M29.543 29.8964H4.98102C3.85661 29.9233 2.76735 29.5036 1.95169 28.7292C1.13604 27.9548 0.660419 26.8887 0.628998 25.7644V5.30243C0.661192 4.17796 1.13769 3.11206 1.95413 2.33817C2.77057 1.56428 3.86043 1.14546 4.98502 1.17344H29.547C30.6716 1.14546 31.7614 1.56428 32.5779 2.33817C33.3943 3.11206 33.8708 4.17796 33.903 5.30243V8.88843C33.8924 9.10804 33.7977 9.31514 33.6385 9.4668C33.4793 9.61847 33.2679 9.70307 33.048 9.70307C32.8281 9.70307 32.6167 9.61847 32.4575 9.4668C32.2983 9.31514 32.2036 9.10804 32.193 8.88843V5.30243C32.1734 4.61942 31.8839 3.97199 31.388 3.50193C30.8921 3.03187 30.2301 2.77746 29.547 2.79441H4.98102C4.29793 2.77746 3.63594 3.03187 3.14001 3.50193C2.64409 3.97199 2.35462 4.61942 2.33499 5.30243V25.7644C2.35488 26.4472 2.64449 27.0944 3.14038 27.5642C3.63628 28.0341 4.2981 28.2884 4.98102 28.2714H29.543C30.226 28.2886 30.888 28.0344 31.3839 27.5645C31.8799 27.0946 32.1694 26.4473 32.189 25.7644V22.2334C32.1996 22.0138 32.2943 21.8067 32.4535 21.6551C32.6127 21.5034 32.8241 21.4188 33.044 21.4188C33.2639 21.4188 33.4753 21.5034 33.6345 21.6551C33.7937 21.8067 33.8884 22.0138 33.899 22.2334V25.7644C33.8676 26.8894 33.3914 27.9561 32.5749 28.7306C31.7584 29.5052 30.6681 29.9244 29.543 29.8964Z" fill="#73B6B1"/>
<path d="M25.238 10.8005H6.28799C6.17741 10.8072 6.06661 10.7912 5.96243 10.7535C5.85825 10.7159 5.7629 10.6573 5.68222 10.5813C5.60154 10.5054 5.53723 10.4138 5.49329 10.3121C5.44934 10.2104 5.42667 10.1008 5.42667 9.98999C5.42667 9.87921 5.44934 9.76958 5.49329 9.66788C5.53723 9.56618 5.60154 9.47455 5.68222 9.39862C5.7629 9.3227 5.85825 9.2641 5.96243 9.22641C6.06661 9.18873 6.17741 9.17275 6.28799 9.17948H25.238C25.3486 9.17275 25.4594 9.18873 25.5636 9.22641C25.6677 9.2641 25.7631 9.3227 25.8438 9.39862C25.9245 9.47455 25.9888 9.56618 26.0327 9.66788C26.0767 9.76958 26.0993 9.87921 26.0993 9.98999C26.0993 10.1008 26.0767 10.2104 26.0327 10.3121C25.9888 10.4138 25.9245 10.5054 25.8438 10.5813C25.7631 10.6573 25.6677 10.7159 25.5636 10.7535C25.4594 10.7912 25.3486 10.8072 25.238 10.8005Z" fill="#73B6B1"/>
<path d="M23.723 16.7524H6.28799C6.17741 16.7591 6.06661 16.7431 5.96243 16.7054C5.85825 16.6678 5.7629 16.6092 5.68222 16.5332C5.60154 16.4573 5.53723 16.3657 5.49329 16.264C5.44934 16.1623 5.42667 16.0527 5.42667 15.9419C5.42667 15.8311 5.44934 15.7215 5.49329 15.6198C5.53723 15.5181 5.60154 15.4265 5.68222 15.3505C5.7629 15.2746 5.85825 15.216 5.96243 15.1783C6.06661 15.1406 6.17741 15.1247 6.28799 15.1314H23.723C23.8336 15.1247 23.9444 15.1406 24.0486 15.1783C24.1527 15.216 24.2481 15.2746 24.3288 15.3505C24.4095 15.4265 24.4738 15.5181 24.5177 15.6198C24.5617 15.7215 24.5844 15.8311 24.5844 15.9419C24.5844 16.0527 24.5617 16.1623 24.5177 16.264C24.4738 16.3657 24.4095 16.4573 24.3288 16.5332C24.2481 16.6092 24.1527 16.6678 24.0486 16.7054C23.9444 16.7431 23.8336 16.7591 23.723 16.7524Z" fill="#73B6B1"/>
<path d="M20.582 22.7034H6.28799C6.17741 22.7102 6.06661 22.6942 5.96243 22.6565C5.85825 22.6188 5.7629 22.5602 5.68222 22.4843C5.60154 22.4084 5.53723 22.3167 5.49329 22.215C5.44934 22.1133 5.42667 22.0037 5.42667 21.8929C5.42667 21.7821 5.44934 21.6725 5.49329 21.5708C5.53723 21.4691 5.60154 21.3775 5.68222 21.3016C5.7629 21.2257 5.85825 21.167 5.96243 21.1293C6.06661 21.0917 6.17741 21.0757 6.28799 21.0824H20.582C20.6926 21.0757 20.8034 21.0917 20.9076 21.1293C21.0117 21.167 21.1071 21.2257 21.1878 21.3016C21.2685 21.3775 21.3328 21.4691 21.3767 21.5708C21.4207 21.6725 21.4433 21.7821 21.4433 21.8929C21.4433 22.0037 21.4207 22.1133 21.3767 22.215C21.3328 22.3167 21.2685 22.4084 21.1878 22.4843C21.1071 22.5602 21.0117 22.6188 20.9076 22.6565C20.8034 22.6942 20.6926 22.7102 20.582 22.7034Z" fill="#73B6B1"/>
<path d="M33.473 23.0485C33.3785 23.0485 33.2847 23.0333 33.195 23.0034L25.837 20.6035C25.6263 20.5363 25.4503 20.389 25.347 20.1934C25.2981 20.0984 25.2694 19.9942 25.2627 19.8875C25.256 19.7808 25.2714 19.6739 25.308 19.5735L29.238 8.76345C29.2758 8.66112 29.3335 8.56731 29.4078 8.48748C29.4821 8.40766 29.5716 8.3434 29.671 8.29846C29.8765 8.20408 30.11 8.19049 30.325 8.26043L37.681 10.6605C37.785 10.6909 37.8817 10.7422 37.9653 10.8111C38.0489 10.8801 38.1176 10.9653 38.1673 11.0616C38.2169 11.158 38.2465 11.2634 38.2542 11.3715C38.2619 11.4795 38.2475 11.5881 38.212 11.6905L34.282 22.5005C34.244 22.6028 34.1861 22.6966 34.1116 22.7765C34.0371 22.8563 33.9475 22.9205 33.848 22.9655C33.7304 23.0198 33.6025 23.0481 33.473 23.0485ZM27.203 19.3325L32.944 21.2075L36.316 11.9294L30.576 10.0544L27.203 19.3325Z" fill="#73B6B1"/>
<path d="M27.708 27.5874C27.6132 27.5877 27.5191 27.5729 27.429 27.5434C27.2929 27.5007 27.1701 27.4236 27.0725 27.3195C26.975 27.2155 26.9059 27.088 26.872 26.9494L25.281 20.0074C25.2587 19.9011 25.258 19.7914 25.279 19.6848C25.3 19.5782 25.3422 19.4769 25.4032 19.387C25.4641 19.2971 25.5425 19.2203 25.6337 19.1613C25.7249 19.1022 25.827 19.0622 25.934 19.0434C26.1508 18.9934 26.3785 19.0301 26.5686 19.1458C26.7586 19.2615 26.8958 19.4469 26.951 19.6624L28.244 25.3014L32.927 21.6144C33.1038 21.4783 33.3252 21.4136 33.5474 21.433C33.7697 21.4525 33.9765 21.5547 34.127 21.7194C34.1984 21.8 34.2525 21.8944 34.2858 21.9969C34.319 22.0993 34.3308 22.2074 34.3204 22.3146C34.31 22.4218 34.2776 22.5257 34.2252 22.6198C34.1728 22.7138 34.1016 22.7961 34.016 22.8614L28.25 27.4004C28.0952 27.5213 27.9044 27.5871 27.708 27.5874Z" fill="#73B6B1"/>
<path d="M26.948 23.4644L30.461 24.6114L27.708 26.7784L26.948 23.4644Z" fill="#73B6B1"/>
<path d="M36.229 12.5544L30.229 10.5964C30.0098 10.5318 29.8059 10.4234 29.6299 10.2777C29.4538 10.132 29.3091 9.95204 29.2046 9.74879C29.1 9.54554 29.0378 9.32318 29.0218 9.09519C29.0057 8.86721 29.036 8.63835 29.111 8.42243C29.2833 7.9846 29.6179 7.63007 30.045 7.43263C30.4721 7.23519 30.9588 7.21005 31.404 7.36244L37.404 9.32041C37.6232 9.38506 37.8271 9.49352 38.0032 9.6392C38.1793 9.78488 38.3241 9.96478 38.4287 10.168C38.5333 10.3712 38.5956 10.5936 38.6118 10.8215C38.628 11.0495 38.5978 11.2784 38.523 11.4944C38.3501 11.932 38.0153 12.2863 37.5882 12.4836C37.1611 12.681 36.6743 12.7063 36.229 12.5544Z" fill="#73B6B1"/>
</g>
<defs>
<clipPath id="clip0_1105_12539">
<rect width="38" height="28.723" fill="white" transform="translate(0.625 1.17346)"/>
</clipPath>
</defs>
</svg>
