<svg width="31" height="40" viewBox="0 0 31 40" fill="none" xmlns="http://www.w3.org/2000/svg">
<path d="M25.625 5.5H22.5073C21.2817 2.85396 18.6198 1 15.5 1C12.3804 1 9.71841 2.85377 8.49384 5.5H5.375C2.95971 5.5 1 7.45776 1 9.875V34.625C1 37.0406 2.95943 39 5.375 39H25.625C28.0403 39 30 37.0422 30 34.625V9.875C30 7.45776 28.0403 5.5 25.625 5.5ZM8.75 28.5625C8.37064 28.5625 8.0625 28.2544 8.0625 27.875C8.0625 27.4956 8.37064 27.1875 8.75 27.1875C9.12935 27.1875 9.4375 27.4956 9.4375 27.875C9.4375 28.2557 9.13151 28.5625 8.75 28.5625ZM8.75 21.8125C8.37064 21.8125 8.0625 21.5044 8.0625 21.125C8.0625 20.7456 8.37064 20.4375 8.75 20.4375C9.128 20.4375 9.4375 20.7478 9.4375 21.125C9.4375 21.5036 9.13016 21.8125 8.75 21.8125ZM15.5 7.5C16.1901 7.5 16.75 8.05986 16.75 8.75C16.75 9.44014 16.1901 10 15.5 10C14.8093 10 14.25 9.44164 14.25 8.75C14.25 8.05925 14.8084 7.5 15.5 7.5ZM23.375 28H14.375C14.3437 28 14.3133 27.9881 14.2876 27.9624C14.2619 27.9367 14.25 27.9063 14.25 27.875C14.25 27.8437 14.2619 27.8133 14.2876 27.7876C14.3133 27.7619 14.3437 27.75 14.375 27.75H23.375C23.4064 27.75 23.4368 27.7619 23.4624 27.7875C23.4881 27.8132 23.5 27.8436 23.5 27.875C23.5 27.9063 23.4881 27.9367 23.4624 27.9624C23.4367 27.9881 23.4063 28 23.375 28ZM23.375 21.25H14.375C14.3437 21.25 14.3133 21.2381 14.2876 21.2124C14.2619 21.1867 14.25 21.1563 14.25 21.125C14.25 21.0937 14.2619 21.0633 14.2876 21.0376C14.3133 21.0119 14.3437 21 14.375 21H23.375C23.4063 21 23.4367 21.0119 23.4624 21.0376C23.4881 21.0633 23.5 21.0937 23.5 21.125C23.5 21.1563 23.4881 21.1867 23.4624 21.2124C23.4367 21.2381 23.4063 21.25 23.375 21.25Z" stroke="#333F48" stroke-width="2"/>
</svg>
