<svg width="31" height="40" viewBox="0 0 31 40" fill="none" xmlns="http://www.w3.org/2000/svg">
<path d="M25.4583 5.65H22.2441C21.0604 3.00811 18.4258 1.15 15.3333 1.15C12.2411 1.15 9.60636 3.00794 8.42371 5.65H5.20834C2.87585 5.65 0.983343 7.54064 0.983343 9.875V34.625C0.983343 36.9577 2.87562 38.85 5.20834 38.85H25.4583C27.7908 38.85 29.6833 36.9594 29.6833 34.625V9.875C29.6833 7.54064 27.7908 5.65 25.4583 5.65ZM8.58334 28.7125C8.12114 28.7125 7.74584 28.3372 7.74584 27.875C7.74584 27.4128 8.12114 27.0375 8.58334 27.0375C9.04554 27.0375 9.42084 27.4128 9.42084 27.875C9.42084 28.3384 9.0479 28.7125 8.58334 28.7125ZM8.58334 21.9625C8.12114 21.9625 7.74584 21.5872 7.74584 21.125C7.74584 20.6628 8.12114 20.2875 8.58334 20.2875C9.04439 20.2875 9.42084 20.6652 9.42084 21.125C9.42084 21.586 9.04675 21.9625 8.58334 21.9625ZM15.3333 7.35C16.1063 7.35 16.7333 7.97702 16.7333 8.75C16.7333 9.52298 16.1063 10.15 15.3333 10.15C14.5598 10.15 13.9333 9.52457 13.9333 8.75C13.9333 7.9765 14.5588 7.35 15.3333 7.35ZM23.2083 28.15H14.2083C14.059 28.15 13.9333 28.0243 13.9333 27.875C13.9333 27.7257 14.059 27.6 14.2083 27.6H23.2083C23.3577 27.6 23.4833 27.7256 23.4833 27.875C23.4833 28.0243 23.3576 28.15 23.2083 28.15ZM23.2083 21.4H14.2083C14.059 21.4 13.9333 21.2743 13.9333 21.125C13.9333 20.9757 14.059 20.85 14.2083 20.85H23.2083C23.3576 20.85 23.4833 20.9757 23.4833 21.125C23.4833 21.2743 23.3576 21.4 23.2083 21.4Z" stroke="white" stroke-width="1.7"/>
</svg>
