<svg width="51" height="42" viewBox="0 0 51 42" fill="none" xmlns="http://www.w3.org/2000/svg">
<g clip-path="url(#clip0_4777_18146)">
<path d="M38.294 41.596H7.06112C5.32342 41.579 3.66341 40.8736 2.44514 39.6343C1.22687 38.3951 0.549804 36.7233 0.562429 34.9855V2.13027C0.562778 1.81351 0.688763 1.50984 0.912744 1.28586C1.13673 1.06188 1.44041 0.935895 1.75717 0.935547H10.2585C10.5753 0.935547 10.8792 1.0614 11.1033 1.28545C11.3273 1.50951 11.4532 1.81341 11.4532 2.13027V5.27631C11.4411 5.69258 11.5126 6.10704 11.6636 6.49517C11.8145 6.88329 12.0418 7.23722 12.332 7.53594C12.6221 7.83466 12.9693 8.07211 13.3528 8.23427C13.7364 8.39643 14.1486 8.47997 14.5651 8.47997C14.9815 8.47997 15.3937 8.39643 15.7773 8.23427C16.1609 8.07211 16.508 7.83466 16.7982 7.53594C17.0883 7.23722 17.3156 6.88329 17.4665 6.49517C17.6175 6.10704 17.689 5.69258 17.6769 5.27631V2.13027C17.6769 1.81341 17.8028 1.50951 18.0268 1.28545C18.2509 1.0614 18.5548 0.935547 18.8716 0.935547H28.1466C28.4634 0.935895 28.7671 1.06188 28.9911 1.28586C29.215 1.50984 29.341 1.81351 29.3414 2.13027V5.27631C29.3353 5.69102 29.4109 6.10287 29.564 6.48834C29.7171 6.87381 29.9447 7.22536 30.2336 7.52289C30.5226 7.82041 30.8674 8.05807 31.2482 8.22234C31.629 8.38661 32.0385 8.47425 32.4532 8.48026H32.6782C33.0929 8.47425 33.5024 8.38661 33.8832 8.22234C34.2641 8.05807 34.6088 7.82041 34.8978 7.52289C35.1868 7.22536 35.4143 6.87381 35.5674 6.48834C35.7205 6.10287 35.7962 5.69102 35.7901 5.27631V2.13027C35.7904 1.81351 35.9164 1.50984 36.1404 1.28586C36.3644 1.06188 36.668 0.935895 36.9848 0.935547H44.4624C44.7791 0.935896 45.0826 1.06192 45.3064 1.28594C45.5302 1.50996 45.6559 1.81363 45.6559 2.13027V23.5355C45.6559 23.8522 45.53 24.1559 45.3061 24.3799C45.0822 24.6038 44.7785 24.7296 44.4618 24.7296C44.1451 24.7296 43.8414 24.6038 43.6174 24.3799C43.3935 24.1559 43.2677 23.8522 43.2677 23.5355V3.32499H38.1795V5.27631C38.1897 6.74683 37.6163 8.16139 36.585 9.20971C35.5537 10.258 34.1487 10.8545 32.6782 10.8684H32.4532C30.9827 10.8545 29.5778 10.258 28.5465 9.20971C27.5152 8.16139 26.9417 6.74683 26.9519 5.27631V3.32499H20.0664V5.27631C20.0824 6.00888 19.9519 6.73729 19.6827 7.41877C19.4134 8.10024 19.0108 8.72108 18.4983 9.24484C17.9859 9.7686 17.374 10.1847 16.6986 10.4688C16.0232 10.7529 15.2978 10.8993 14.5651 10.8993C13.8323 10.8993 13.107 10.7529 12.4315 10.4688C11.7561 10.1847 11.1442 9.7686 10.6318 9.24484C10.1194 8.72108 9.71671 8.10024 9.44744 7.41877C9.17817 6.73729 9.04772 6.00888 9.06375 5.27631V3.32499H2.95191V34.9855C2.93855 36.0898 3.36363 37.1542 4.13394 37.9455C4.90426 38.7368 5.95693 39.1903 7.06112 39.2066H38.294C38.4509 39.2066 38.6063 39.2375 38.7512 39.2975C38.8962 39.3576 39.0279 39.4456 39.1388 39.5565C39.2498 39.6674 39.3378 39.7992 39.3978 39.9441C39.4578 40.0891 39.4887 40.2444 39.4887 40.4013C39.4887 40.5582 39.4578 40.7136 39.3978 40.8585C39.3378 41.0035 39.2498 41.1352 39.1388 41.2461C39.0279 41.3571 38.8962 41.4451 38.7512 41.5051C38.6063 41.5652 38.4509 41.596 38.294 41.596Z" fill="#5CB8B2"/>
<path d="M40.3257 41.8145C38.3006 41.8147 36.321 41.2144 34.6372 40.0896C32.9533 38.9647 31.6408 37.3657 30.8658 35.4949C30.0907 33.624 29.8878 31.5654 30.2828 29.5792C30.6778 27.5931 31.653 25.7687 33.0849 24.3368C34.5168 22.9049 36.3412 21.9298 38.3273 21.5348C40.3134 21.1398 42.3721 21.3427 44.2429 22.1177C46.1138 22.8928 47.7127 24.2052 48.8376 25.8891C49.9625 27.573 50.5628 29.5526 50.5625 31.5776C50.5594 34.2916 49.4798 36.8936 47.5607 38.8127C45.6416 40.7318 43.0397 41.8113 40.3257 41.8145ZM40.3257 23.7289C38.7733 23.7287 37.2557 24.1888 35.9648 25.051C34.6739 25.9133 33.6677 27.139 33.0735 28.5731C32.4792 30.0073 32.3236 31.5854 32.6263 33.108C32.929 34.6306 33.6764 36.0292 34.774 37.127C35.8716 38.2248 37.2701 38.9724 38.7927 39.2754C40.3152 39.5783 41.8934 39.423 43.3276 38.829C44.7618 38.235 45.9877 37.229 46.8502 35.9383C47.7127 34.6475 48.173 33.13 48.173 31.5776C48.1709 29.4969 47.3435 27.5019 45.8724 26.0305C44.4012 24.5591 42.4064 23.7314 40.3257 23.7289V23.7289Z" fill="#EF6079"/>
<path d="M39.3479 36.8843C38.823 36.8848 38.3192 36.6777 37.9466 36.308L34.9005 33.2816C34.7836 33.1725 34.6897 33.0411 34.6245 32.895C34.5593 32.7489 34.5241 32.5913 34.521 32.4313C34.5179 32.2714 34.5469 32.1125 34.6063 31.964C34.6658 31.8155 34.7545 31.6805 34.8671 31.5669C34.9797 31.4533 35.114 31.3635 35.262 31.3027C35.4099 31.242 35.5686 31.2116 35.7285 31.2134C35.8885 31.2151 36.0465 31.249 36.1931 31.3129C36.3397 31.3768 36.472 31.4696 36.5821 31.5856L39.3031 34.283L43.9518 28.0527C44.0442 27.9233 44.1616 27.8137 44.2969 27.7303C44.4322 27.6468 44.5829 27.5912 44.74 27.5667C44.897 27.5423 45.0574 27.5494 45.2118 27.5877C45.3661 27.626 45.5112 27.6947 45.6386 27.7898C45.766 27.8849 45.8732 28.0044 45.9538 28.1415C46.0344 28.2785 46.0868 28.4303 46.108 28.5879C46.1292 28.7455 46.1188 28.9057 46.0773 29.0591C46.0358 29.2126 45.964 29.3562 45.8663 29.4816L40.9426 36.079C40.772 36.3067 40.5545 36.495 40.3048 36.6312C40.0551 36.7674 39.779 36.8484 39.4952 36.8685C39.4466 36.883 39.3966 36.8843 39.3479 36.8843Z" fill="#EF6079"/>
<path d="M28.0966 18.1264H7.81763C7.65748 18.1317 7.49791 18.1047 7.34839 18.0471C7.19888 17.9895 7.06248 17.9024 6.94731 17.791C6.83215 17.6796 6.74057 17.5461 6.67803 17.3986C6.61548 17.2511 6.58325 17.0925 6.58325 16.9323C6.58325 16.7721 6.61548 16.6135 6.67803 16.4659C6.74057 16.3184 6.83215 16.185 6.94731 16.0736C7.06248 15.9622 7.19888 15.875 7.34839 15.8174C7.49791 15.7598 7.65748 15.7329 7.81763 15.7382H28.0966C28.2567 15.7329 28.4163 15.7598 28.5658 15.8174C28.7153 15.875 28.8517 15.9622 28.9669 16.0736C29.0821 16.185 29.1736 16.3184 29.2362 16.4659C29.2987 16.6135 29.331 16.7721 29.331 16.9323C29.331 17.0925 29.2987 17.2511 29.2362 17.3986C29.1736 17.5461 29.0821 17.6796 28.9669 17.791C28.8517 17.9024 28.7153 17.9895 28.5658 18.0471C28.4163 18.1047 28.2567 18.1317 28.0966 18.1264V18.1264Z" fill="#5CB8B2"/>
<path d="M28.0966 25.2157H7.81763C7.65748 25.221 7.49791 25.1941 7.34839 25.1365C7.19888 25.0788 7.06248 24.9918 6.94731 24.8804C6.83215 24.7689 6.74057 24.6355 6.67803 24.488C6.61548 24.3404 6.58325 24.1819 6.58325 24.0216C6.58325 23.8614 6.61548 23.7028 6.67803 23.5553C6.74057 23.4078 6.83215 23.2743 6.94731 23.1629C7.06248 23.0515 7.19888 22.9644 7.34839 22.9068C7.49791 22.8492 7.65748 22.8222 7.81763 22.8276H28.0966C28.2567 22.8222 28.4163 22.8492 28.5658 22.9068C28.7153 22.9644 28.8517 23.0515 28.9669 23.1629C29.0821 23.2743 29.1736 23.4078 29.2362 23.5553C29.2987 23.7028 29.331 23.8614 29.331 24.0216C29.331 24.1819 29.2987 24.3404 29.2362 24.488C29.1736 24.6355 29.0821 24.7689 28.9669 24.8804C28.8517 24.9918 28.7153 25.0788 28.5658 25.1365C28.4163 25.1941 28.2567 25.221 28.0966 25.2157V25.2157Z" fill="#5CB8B2"/>
<path d="M21.1676 32.3053H7.81763C7.65748 32.3106 7.49791 32.2837 7.34839 32.2261C7.19888 32.1684 7.06248 32.0814 6.94731 31.97C6.83215 31.8585 6.74057 31.7251 6.67803 31.5776C6.61548 31.43 6.58325 31.2715 6.58325 31.1112C6.58325 30.951 6.61548 30.7924 6.67803 30.6449C6.74057 30.4974 6.83215 30.3639 6.94731 30.2525C7.06248 30.1411 7.19888 30.054 7.34839 29.9964C7.49791 29.9388 7.65748 29.9118 7.81763 29.9172H21.1676C21.3278 29.9118 21.4874 29.9388 21.6369 29.9964C21.7864 30.054 21.9228 30.1411 22.0379 30.2525C22.1531 30.3639 22.2447 30.4974 22.3072 30.6449C22.3698 30.7924 22.402 30.951 22.402 31.1112C22.402 31.2715 22.3698 31.43 22.3072 31.5776C22.2447 31.7251 22.1531 31.8585 22.0379 31.97C21.9228 32.0814 21.7864 32.1684 21.6369 32.2261C21.4874 32.2837 21.3278 32.3106 21.1676 32.3053V32.3053Z" fill="#5CB8B2"/>
</g>
<defs>
<clipPath id="clip0_4777_18146">
<rect width="50" height="40.8789" fill="white" transform="translate(0.5625 0.935547)"/>
</clipPath>
</defs>
</svg>
