<svg width="51" height="41" viewBox="0 0 51 41" fill="none" xmlns="http://www.w3.org/2000/svg">
<g clip-path="url(#clip0_5155_62262)">
<path d="M38.2315 40.6605H6.99862C5.26092 40.6435 3.60091 39.938 2.38264 38.6988C1.16437 37.4595 0.487304 35.7877 0.499929 34.05V1.19472C0.500278 0.877966 0.626263 0.574291 0.850244 0.35031C1.07423 0.126328 1.37791 0.000348276 1.69467 0H10.196C10.5128 0 10.8167 0.125851 11.0408 0.349908C11.2648 0.573965 11.3907 0.877859 11.3907 1.19472V4.34076C11.3786 4.75703 11.4501 5.17149 11.6011 5.55962C11.752 5.94775 11.9793 6.30167 12.2695 6.60039C12.5596 6.89911 12.9068 7.13656 13.2903 7.29872C13.6739 7.46088 14.0861 7.54443 14.5026 7.54443C14.919 7.54443 15.3312 7.46088 15.7148 7.29872C16.0984 7.13656 16.4455 6.89911 16.7357 6.60039C17.0258 6.30167 17.2531 5.94775 17.404 5.55962C17.555 5.17149 17.6265 4.75703 17.6144 4.34076V1.19472C17.6144 0.877859 17.7403 0.573965 17.9643 0.349908C18.1884 0.125851 18.4923 0 18.8091 0H28.0841C28.4009 0.000348276 28.7046 0.126328 28.9286 0.35031C29.1525 0.574291 29.2785 0.877966 29.2789 1.19472V4.34076C29.2728 4.75548 29.3484 5.16733 29.5015 5.55279C29.6546 5.93826 29.8822 6.28982 30.1711 6.58734C30.4601 6.88486 30.8049 7.12252 31.1857 7.28679C31.5665 7.45107 31.976 7.5387 32.3907 7.54471H32.6157C33.0304 7.5387 33.4399 7.45107 33.8207 7.28679C34.2016 7.12252 34.5463 6.88486 34.8353 6.58734C35.1243 6.28982 35.3518 5.93826 35.5049 5.55279C35.658 5.16733 35.7337 4.75548 35.7276 4.34076V1.19472C35.7279 0.877966 35.8539 0.574291 36.0779 0.35031C36.3019 0.126328 36.6055 0.000348276 36.9223 0H44.3999C44.7166 0.000348718 45.0201 0.126371 45.2439 0.35039C45.4677 0.574409 45.5934 0.878087 45.5934 1.19472V22.6C45.5934 22.9167 45.4675 23.2204 45.2436 23.4443C45.0197 23.6683 44.716 23.7941 44.3993 23.7941C44.0826 23.7941 43.7789 23.6683 43.5549 23.4443C43.331 23.2204 43.2052 22.9167 43.2052 22.6V2.38945H38.117V4.34076C38.1272 5.81129 37.5538 7.22584 36.5225 8.27416C35.4912 9.32247 34.0862 9.91897 32.6157 9.93287H32.3907C30.9202 9.91897 29.5153 9.32247 28.484 8.27416C27.4527 7.22584 26.8792 5.81129 26.8894 4.34076V2.38945H20.0039V4.34076C20.0199 5.07333 19.8894 5.80174 19.6202 6.48322C19.3509 7.16469 18.9483 7.78553 18.4358 8.30929C17.9234 8.83306 17.3115 9.24918 16.6361 9.53329C15.9607 9.8174 15.2353 9.96375 14.5026 9.96375C13.7698 9.96375 13.0445 9.8174 12.369 9.53329C11.6936 9.24918 11.0817 8.83306 10.5693 8.30929C10.0569 7.78553 9.65421 7.16469 9.38494 6.48322C9.11567 5.80174 8.98522 5.07333 9.00125 4.34076V2.38945H2.88941V34.05C2.87605 35.1542 3.30113 36.2187 4.07144 37.01C4.84176 37.8012 5.89443 38.2548 6.99862 38.271H38.2315C38.3884 38.271 38.5438 38.302 38.6887 38.362C38.8337 38.422 38.9654 38.51 39.0763 38.621C39.1873 38.7319 39.2753 38.8636 39.3353 39.0086C39.3953 39.1535 39.4263 39.3089 39.4263 39.4658C39.4263 39.6227 39.3953 39.778 39.3353 39.923C39.2753 40.0679 39.1873 40.1996 39.0763 40.3106C38.9654 40.4215 38.8337 40.5095 38.6887 40.5696C38.5438 40.6296 38.3884 40.6605 38.2315 40.6605Z" fill="white"/>
<path d="M40.2632 40.8789C38.2381 40.8792 36.2585 40.2789 34.5747 39.154C32.8908 38.0291 31.5783 36.4301 30.8033 34.5593C30.0282 32.6885 29.8253 30.6298 30.2203 28.6437C30.6153 26.6576 31.5905 24.8332 33.0224 23.4013C34.4543 21.9694 36.2787 20.9943 38.2648 20.5993C40.2509 20.2043 42.3096 20.4071 44.1804 21.1822C46.0513 21.9572 47.6502 23.2697 48.7751 24.9535C49.9 26.6374 50.5003 28.617 50.5 30.6421C50.4969 33.3561 49.4173 35.958 47.4982 37.8771C45.5791 39.7962 42.9772 40.8758 40.2632 40.8789ZM40.2632 22.7934C38.7108 22.7931 37.1932 23.2532 35.9023 24.1155C34.6114 24.9777 33.6052 26.2034 33.011 27.6376C32.4167 29.0717 32.2611 30.6499 32.5638 32.1724C32.8665 33.695 33.6139 35.0937 34.7115 36.1914C35.8091 37.2892 37.2076 38.0369 38.7302 38.3398C40.2527 38.6428 41.8309 38.4875 43.2651 37.8934C44.6993 37.2994 45.9252 36.2934 46.7877 35.0027C47.6502 33.712 48.1105 32.1944 48.1105 30.6421C48.1084 28.5613 47.281 26.5664 45.8099 25.095C44.3387 23.6235 42.3439 22.7958 40.2632 22.7934Z" fill="white"/>
<path d="M39.2854 35.9487C38.7605 35.9493 38.2567 35.7421 37.8841 35.3724L34.838 32.3461C34.7211 32.237 34.6272 32.1055 34.562 31.9594C34.4968 31.8134 34.4616 31.6557 34.4585 31.4958C34.4554 31.3359 34.4844 31.177 34.5438 31.0285C34.6033 30.88 34.692 30.7449 34.8046 30.6313C34.9172 30.5177 35.0515 30.4279 35.1995 30.3672C35.3474 30.3065 35.5061 30.2761 35.666 30.2779C35.826 30.2796 35.984 30.3134 36.1306 30.3774C36.2772 30.4413 36.4095 30.534 36.5196 30.65L39.2406 33.3474L43.8893 27.1172C43.9817 26.9878 44.0991 26.8782 44.2344 26.7947C44.3697 26.7113 44.5204 26.6557 44.6775 26.6312C44.8345 26.6067 44.9949 26.6138 45.1493 26.6521C45.3036 26.6904 45.4487 26.7591 45.5761 26.8542C45.7035 26.9493 45.8107 27.0689 45.8913 27.2059C45.9719 27.343 46.0243 27.4948 46.0455 27.6523C46.0667 27.8099 46.0563 27.9701 46.0148 28.1236C45.9733 28.2771 45.9015 28.4207 45.8038 28.5461L40.8801 35.1435C40.7095 35.3711 40.492 35.5595 40.2423 35.6957C39.9926 35.8319 39.7165 35.9128 39.4327 35.933C39.3841 35.9474 39.3341 35.9487 39.2854 35.9487Z" fill="white"/>
<path d="M28.0341 17.1908H7.75513C7.59498 17.1961 7.43541 17.1692 7.28589 17.1116C7.13638 17.0539 6.99998 16.9669 6.88481 16.8554C6.76965 16.744 6.67807 16.6106 6.61553 16.4631C6.55298 16.3155 6.52075 16.157 6.52075 15.9967C6.52075 15.8365 6.55298 15.6779 6.61553 15.5304C6.67807 15.3829 6.76965 15.2494 6.88481 15.138C6.99998 15.0266 7.13638 14.9395 7.28589 14.8819C7.43541 14.8243 7.59498 14.7973 7.75513 14.8027H28.0341C28.1942 14.7973 28.3538 14.8243 28.5033 14.8819C28.6528 14.9395 28.7892 15.0266 28.9044 15.138C29.0196 15.2494 29.1111 15.3829 29.1737 15.5304C29.2362 15.6779 29.2685 15.8365 29.2685 15.9967C29.2685 16.157 29.2362 16.3155 29.1737 16.4631C29.1111 16.6106 29.0196 16.744 28.9044 16.8554C28.7892 16.9669 28.6528 17.0539 28.5033 17.1116C28.3538 17.1692 28.1942 17.1961 28.0341 17.1908Z" fill="white"/>
<path d="M28.0341 24.2802H7.75513C7.59498 24.2855 7.43541 24.2585 7.28589 24.2009C7.13638 24.1433 6.99998 24.0562 6.88481 23.9448C6.76965 23.8334 6.67807 23.6999 6.61553 23.5524C6.55298 23.4049 6.52075 23.2463 6.52075 23.0861C6.52075 22.9259 6.55298 22.7673 6.61553 22.6197C6.67807 22.4722 6.76965 22.3388 6.88481 22.2274C6.99998 22.116 7.13638 22.0289 7.28589 21.9712C7.43541 21.9136 7.59498 21.8867 7.75513 21.892H28.0341C28.1942 21.8867 28.3538 21.9136 28.5033 21.9712C28.6528 22.0289 28.7892 22.116 28.9044 22.2274C29.0196 22.3388 29.1111 22.4722 29.1737 22.6197C29.2362 22.7673 29.2685 22.9259 29.2685 23.0861C29.2685 23.2463 29.2362 23.4049 29.1737 23.5524C29.1111 23.6999 29.0196 23.8334 28.9044 23.9448C28.7892 24.0562 28.6528 24.1433 28.5033 24.2009C28.3538 24.2585 28.1942 24.2855 28.0341 24.2802Z" fill="white"/>
<path d="M21.1051 31.3698H7.75513C7.59498 31.3751 7.43541 31.3481 7.28589 31.2905C7.13638 31.2329 6.99998 31.1458 6.88481 31.0344C6.76965 30.923 6.67807 30.7895 6.61553 30.642C6.55298 30.4945 6.52075 30.3359 6.52075 30.1757C6.52075 30.0155 6.55298 29.8569 6.61553 29.7093C6.67807 29.5618 6.76965 29.4284 6.88481 29.317C6.99998 29.2056 7.13638 29.1185 7.28589 29.0608C7.43541 29.0032 7.59498 28.9763 7.75513 28.9816H21.1051C21.2653 28.9763 21.4249 29.0032 21.5744 29.0608C21.7239 29.1185 21.8603 29.2056 21.9754 29.317C22.0906 29.4284 22.1822 29.5618 22.2447 29.7093C22.3073 29.8569 22.3395 30.0155 22.3395 30.1757C22.3395 30.3359 22.3073 30.4945 22.2447 30.642C22.1822 30.7895 22.0906 30.923 21.9754 31.0344C21.8603 31.1458 21.7239 31.2329 21.5744 31.2905C21.4249 31.3481 21.2653 31.3751 21.1051 31.3698Z" fill="white"/>
</g>
<defs>
<clipPath id="clip0_5155_62262">
<rect width="50" height="40.8789" fill="white" transform="translate(0.5)"/>
</clipPath>
</defs>
</svg>
