<svg width="51" height="39" viewBox="0 0 51 39" fill="none" xmlns="http://www.w3.org/2000/svg">
<g clip-path="url(#clip0_4777_18054)">
<path d="M6.29421 38.7717H38.6126C40.093 38.8085 41.5276 38.2569 42.602 37.2378L38.6126 36.6335H6.29421C5.39564 36.6558 4.52482 36.3213 3.87232 35.703C3.21983 35.0848 2.83877 34.2333 2.8126 33.3348V6.41119C2.83843 5.51248 3.21931 4.6606 3.87184 4.0421C4.52437 3.4236 5.39541 3.08885 6.29421 3.11115H38.6179C39.5167 3.08885 40.3877 3.4236 41.0402 4.0421C41.6928 4.6606 42.0736 5.51248 42.0994 6.41119V19.6781C42.1134 19.9671 42.2381 20.2396 42.4475 20.4391C42.657 20.6387 42.9352 20.75 43.2245 20.75C43.5138 20.75 43.792 20.6387 44.0014 20.4391C44.2109 20.2396 44.3355 19.9671 44.3495 19.6781V6.41119C44.3071 4.93161 43.6801 3.52912 42.6059 2.51084C41.5316 1.49256 40.0976 0.941485 38.6179 0.978295H6.29947C4.81975 0.941485 3.38573 1.49256 2.31147 2.51084C1.23721 3.52912 0.610231 4.93161 0.567871 6.41119V33.3348C0.609214 34.8142 1.23503 36.2169 2.30826 37.2359C3.38149 38.2548 4.81472 38.8071 6.29421 38.7717Z" fill="#5CB8B2"/>
<path d="M40.3257 38.7263C38.3006 38.7266 36.321 38.1263 34.6372 37.0014C32.9533 35.8765 31.6408 34.2776 30.8658 32.4067C30.0907 30.5359 29.8878 28.4772 30.2828 26.4911C30.6778 24.505 31.653 22.6806 33.0849 21.2487C34.5168 19.8168 36.3412 18.8417 38.3273 18.4467C40.3134 18.0517 42.3721 18.2545 44.2429 19.0296C46.1138 19.8047 47.7127 21.1171 48.8376 22.801C49.9625 24.4848 50.5628 26.4644 50.5625 28.4895C50.5594 31.2035 49.4798 33.8055 47.5607 35.7246C45.6416 37.6437 43.0397 38.7232 40.3257 38.7263ZM40.3257 20.6408C38.7733 20.6405 37.2557 21.1006 35.9648 21.9629C34.6739 22.8252 33.6677 24.0508 33.0735 25.485C32.4792 26.9191 32.3236 28.4973 32.6263 30.0199C32.929 31.5424 33.6764 32.9411 34.774 34.0389C35.8716 35.1366 37.2701 35.8843 38.7927 36.1873C40.3152 36.4902 41.8934 36.3349 43.3276 35.7409C44.7618 35.1468 45.9877 34.1409 46.8502 32.8501C47.7127 31.5594 48.173 30.0419 48.173 28.4895C48.1709 26.4087 47.3435 24.4138 45.8724 22.9424C44.4012 21.471 42.4064 20.6432 40.3257 20.6408Z" fill="#EF6079"/>
<path d="M40.8007 24.4379L41.9109 26.6868C41.935 26.7358 41.9707 26.7782 42.0149 26.8104C42.0591 26.8425 42.1104 26.8634 42.1645 26.8712L44.6464 27.2318C44.7086 27.2408 44.7671 27.2671 44.8151 27.3076C44.8632 27.3481 44.899 27.4013 44.9184 27.4611C44.9379 27.5208 44.9402 27.5849 44.9251 27.6459C44.9101 27.707 44.8782 27.7626 44.8332 27.8064L43.0373 29.5573C42.9982 29.5954 42.9689 29.6425 42.9521 29.6944C42.9352 29.7464 42.9313 29.8017 42.9406 29.8555L43.3644 32.3275C43.3751 32.3895 43.3682 32.4533 43.3446 32.5116C43.3209 32.5699 43.2814 32.6204 43.2305 32.6574C43.1796 32.6944 43.1194 32.7164 43.0566 32.7209C42.9938 32.7254 42.9311 32.7123 42.8754 32.683L40.6554 31.5159C40.607 31.4906 40.5531 31.4774 40.4985 31.4774C40.4439 31.4774 40.3901 31.4906 40.3418 31.5159L38.1221 32.683C38.0664 32.7123 38.0036 32.7254 37.9409 32.7209C37.8781 32.7164 37.8179 32.6944 37.767 32.6574C37.7161 32.6204 37.6766 32.5699 37.6529 32.5116C37.6293 32.4533 37.6224 32.3895 37.6331 32.3275L38.0569 29.8555C38.0662 29.8017 38.0623 29.7464 38.0454 29.6944C38.0286 29.6425 37.9993 29.5954 37.9602 29.5573L36.1643 27.8064C36.1193 27.7626 36.0874 27.707 36.0723 27.646C36.0573 27.585 36.0596 27.521 36.0789 27.4612C36.0983 27.4014 36.134 27.3483 36.1821 27.3077C36.2301 27.2672 36.2885 27.2409 36.3507 27.2318L38.833 26.8712C38.8871 26.8633 38.9384 26.8424 38.9826 26.8103C39.0268 26.7782 39.0624 26.7358 39.0866 26.6868L40.1964 24.4379C40.2242 24.3815 40.2673 24.334 40.3207 24.3008C40.3741 24.2676 40.4357 24.25 40.4985 24.25C40.5614 24.25 40.623 24.2676 40.6764 24.3008C40.7298 24.334 40.7729 24.3815 40.8007 24.4379V24.4379Z" stroke="#EF6079" stroke-width="1.5" stroke-linecap="round" stroke-linejoin="round"/>
<path d="M32.9482 13.6454H8.01394C7.86844 13.6542 7.72265 13.6332 7.58557 13.5836C7.44849 13.534 7.32303 13.4569 7.21687 13.357C7.11071 13.2571 7.0261 13.1365 6.96827 13.0027C6.91045 12.8689 6.88062 12.7247 6.88062 12.5789C6.88062 12.4332 6.91045 12.2889 6.96827 12.1551C7.0261 12.0213 7.11071 11.9007 7.21687 11.8008C7.32303 11.7009 7.44849 11.6238 7.58557 11.5742C7.72265 11.5246 7.86844 11.5036 8.01394 11.5125H32.9482C33.0937 11.5036 33.2395 11.5246 33.3765 11.5742C33.5136 11.6238 33.6391 11.7009 33.7452 11.8008C33.8514 11.9007 33.936 12.0213 33.9938 12.1551C34.0517 12.2889 34.0815 12.4332 34.0815 12.5789C34.0815 12.7247 34.0517 12.8689 33.9938 13.0027C33.936 13.1365 33.8514 13.2571 33.7452 13.357C33.6391 13.4569 33.5136 13.534 33.3765 13.5836C33.2395 13.6332 33.0937 13.6542 32.9482 13.6454V13.6454Z" fill="#5CB8B2"/>
<path d="M30.9547 21.4769H8.01394C7.86844 21.4858 7.72265 21.4647 7.58557 21.4152C7.44849 21.3656 7.32303 21.2885 7.21687 21.1886C7.11071 21.0887 7.0261 20.9681 6.96827 20.8343C6.91045 20.7005 6.88062 20.5563 6.88062 20.4105C6.88062 20.2647 6.91045 20.1205 6.96827 19.9866C7.0261 19.8528 7.11071 19.7323 7.21687 19.6324C7.32303 19.5325 7.44849 19.4554 7.58557 19.4058C7.72265 19.3562 7.86844 19.3352 8.01394 19.344H30.9547C31.1002 19.3352 31.246 19.3562 31.3831 19.4058C31.5202 19.4554 31.6457 19.5325 31.7518 19.6324C31.858 19.7323 31.9426 19.8528 32.0004 19.9866C32.0583 20.1205 32.0881 20.2647 32.0881 20.4105C32.0881 20.5563 32.0583 20.7005 32.0004 20.8343C31.9426 20.9681 31.858 21.0887 31.7518 21.1886C31.6457 21.2885 31.5202 21.3656 31.3831 21.4152C31.246 21.4647 31.1002 21.4858 30.9547 21.4769V21.4769Z" fill="#5CB8B2"/>
<path d="M26.8218 29.3072H8.01394C7.86844 29.3161 7.72265 29.2951 7.58557 29.2455C7.44849 29.1959 7.32303 29.1188 7.21687 29.0189C7.11071 28.919 7.0261 28.7984 6.96827 28.6646C6.91045 28.5308 6.88062 28.3865 6.88062 28.2408C6.88062 28.095 6.91045 27.9507 6.96827 27.8169C7.0261 27.6831 7.11071 27.5626 7.21687 27.4627C7.32303 27.3628 7.44849 27.2856 7.58557 27.2361C7.72265 27.1865 7.86844 27.1655 8.01394 27.1743H26.8218C26.9673 27.1655 27.1131 27.1865 27.2502 27.2361C27.3873 27.2856 27.5128 27.3628 27.619 27.4627C27.7251 27.5626 27.8097 27.6831 27.8675 27.8169C27.9253 27.9507 27.9552 28.095 27.9552 28.2408C27.9552 28.3865 27.9253 28.5308 27.8675 28.6646C27.8097 28.7984 27.7251 28.919 27.619 29.0189C27.5128 29.1188 27.3873 29.1959 27.2502 29.2455C27.1131 29.2951 26.9673 29.3161 26.8218 29.3072Z" fill="#5CB8B2"/>
</g>
<defs>
<clipPath id="clip0_4777_18054">
<rect width="50" height="37.7934" fill="white" transform="translate(0.5625 0.978271)"/>
</clipPath>
</defs>
</svg>
