<svg width="40" height="31" viewBox="0 0 40 31" fill="none" xmlns="http://www.w3.org/2000/svg">
<g clip-path="url(#clip0_5158_9855)">
<path d="M4.58522 30.3672H30.4399C31.6243 30.3967 32.7719 29.9554 33.6314 29.1401L30.4399 28.6567H4.58522C3.86636 28.6745 3.16971 28.4069 2.64771 27.9123C2.12572 27.4177 1.82087 26.7365 1.79993 26.0177V4.4788C1.8206 3.75984 2.1253 3.07833 2.64733 2.58353C3.16935 2.08873 3.86619 1.82094 4.58522 1.83878H30.4442C31.1632 1.82094 31.86 2.08873 32.382 2.58353C32.9041 3.07833 33.2087 3.75984 33.2294 4.4788V15.0923C33.2406 15.3235 33.3403 15.5415 33.5079 15.7012C33.6754 15.8608 33.898 15.9499 34.1294 15.9499C34.3609 15.9499 34.5834 15.8608 34.751 15.7012C34.9185 15.5415 35.0182 15.3235 35.0294 15.0923V4.4788C34.9955 3.29514 34.494 2.17315 33.6346 1.35853C32.7751 0.543901 31.6279 0.103041 30.4442 0.132489H4.58943C3.40565 0.103041 2.25844 0.543901 1.39903 1.35853C0.539619 2.17315 0.0380386 3.29514 0.00415039 4.4788V26.0177C0.0372248 27.2012 0.537874 28.3234 1.39646 29.1385C2.25504 29.9537 3.40163 30.3955 4.58522 30.3672Z" fill="#F3CBC7"/>
<path d="M31.8105 30.331C30.1905 30.3312 28.6068 29.851 27.2597 28.9511C25.9126 28.0512 24.8626 26.772 24.2426 25.2753C23.6225 23.7787 23.4602 22.1317 23.7762 20.5428C24.0922 18.9539 24.8723 17.4944 26.0179 16.3489C27.1634 15.2034 28.6229 14.4233 30.2118 14.1073C31.8007 13.7913 33.4476 13.9536 34.9443 14.5736C36.441 15.1937 37.7201 16.2436 38.62 17.5907C39.5199 18.9378 40.0002 20.5215 40 22.1415C39.9974 24.3127 39.1338 26.3943 37.5985 27.9296C36.0633 29.4649 33.9817 30.3285 31.8105 30.331ZM31.8105 15.8626C30.5686 15.8624 29.3545 16.2305 28.3218 16.9203C27.2891 17.6101 26.4841 18.5906 26.0087 19.7379C25.5333 20.8852 25.4088 22.1478 25.651 23.3658C25.8932 24.5839 26.4911 25.7028 27.3692 26.581C28.2473 27.4593 29.3661 28.0574 30.5841 28.2998C31.8021 28.5421 33.0646 28.4178 34.212 27.9426C35.3594 27.4674 36.3401 26.6626 37.0301 25.63C37.7201 24.5975 38.0884 23.3834 38.0884 22.1415C38.0867 20.4769 37.4248 18.881 36.2478 17.7039C35.0709 16.5267 33.4751 15.8645 31.8105 15.8626Z" fill="#EF6079"/>
<path d="M32.1905 18.9L33.0786 20.6992C33.0979 20.7384 33.1265 20.7723 33.1618 20.798C33.1971 20.8237 33.2382 20.8405 33.2815 20.8467L35.267 21.1352C35.3168 21.1424 35.3635 21.1634 35.402 21.1958C35.4405 21.2282 35.4691 21.2708 35.4847 21.3186C35.5002 21.3664 35.5021 21.4177 35.49 21.4665C35.478 21.5153 35.4525 21.5598 35.4165 21.5949L33.9798 22.9956C33.9485 23.0261 33.925 23.0637 33.9115 23.1053C33.8981 23.1469 33.8949 23.1911 33.9024 23.2342L34.2414 25.2118C34.25 25.2614 34.2445 25.3124 34.2255 25.359C34.2066 25.4057 34.175 25.4461 34.1343 25.4757C34.0936 25.5053 34.0454 25.5229 33.9952 25.5265C33.945 25.5301 33.8948 25.5196 33.8502 25.4962L32.0742 24.5625C32.0355 24.5422 31.9924 24.5317 31.9487 24.5317C31.905 24.5317 31.862 24.5422 31.8233 24.5625L30.0476 25.4962C30.003 25.5196 29.9528 25.5301 29.9026 25.5265C29.8524 25.5229 29.8042 25.5053 29.7635 25.4757C29.7228 25.4461 29.6912 25.4057 29.6723 25.359C29.6533 25.3124 29.6478 25.2614 29.6564 25.2118L29.9954 23.2342C30.0029 23.1911 29.9997 23.1469 29.9863 23.1053C29.9728 23.0637 29.9493 23.0261 29.918 22.9956L28.4813 21.5949C28.4453 21.5598 28.4198 21.5154 28.4078 21.4666C28.3957 21.4178 28.3975 21.3665 28.4131 21.3187C28.4286 21.2709 28.4571 21.2284 28.4956 21.1959C28.534 21.1635 28.5807 21.1425 28.6305 21.1352L30.6163 20.8467C30.6596 20.8404 30.7006 20.8237 30.736 20.798C30.7713 20.7723 30.7999 20.7384 30.8192 20.6992L31.707 18.9C31.7293 18.8549 31.7637 18.8169 31.8064 18.7904C31.8491 18.7638 31.8984 18.7498 31.9487 18.7498C31.999 18.7498 32.0483 18.7638 32.0911 18.7904C32.1338 18.8169 32.1682 18.8549 32.1905 18.9V18.9Z" stroke="#EF6079" stroke-width="1.5" stroke-linecap="round" stroke-linejoin="round"/>
<path d="M25.9085 10.2662H5.9611C5.8447 10.2733 5.72807 10.2565 5.61841 10.2168C5.50874 10.1772 5.40838 10.1155 5.32345 10.0356C5.23852 9.95565 5.17083 9.85919 5.12457 9.75214C5.07831 9.64509 5.05444 9.52972 5.05444 9.4131C5.05444 9.29648 5.07831 9.18109 5.12457 9.07404C5.17083 8.96699 5.23852 8.87053 5.32345 8.79061C5.40838 8.71069 5.50874 8.64901 5.61841 8.60933C5.72807 8.56966 5.8447 8.55284 5.9611 8.55993H25.9085C26.0249 8.55284 26.1415 8.56966 26.2512 8.60933C26.3608 8.64901 26.4612 8.71069 26.5461 8.79061C26.6311 8.87053 26.6988 8.96699 26.745 9.07404C26.7913 9.18109 26.8151 9.29648 26.8151 9.4131C26.8151 9.52972 26.7913 9.64509 26.745 9.75214C26.6988 9.85919 26.6311 9.95565 26.5461 10.0356C26.4612 10.1155 26.3608 10.1772 26.2512 10.2168C26.1415 10.2565 26.0249 10.2733 25.9085 10.2662Z" fill="#F3CBC7"/>
<path d="M24.3137 16.5314H5.9611C5.8447 16.5385 5.72807 16.5216 5.61841 16.482C5.50874 16.4423 5.40838 16.3806 5.32345 16.3007C5.23852 16.2208 5.17083 16.1243 5.12457 16.0173C5.07831 15.9102 5.05444 15.7949 5.05444 15.6782C5.05444 15.5616 5.07831 15.4462 5.12457 15.3392C5.17083 15.2321 5.23852 15.1357 5.32345 15.0557C5.40838 14.9758 5.50874 14.9141 5.61841 14.8745C5.72807 14.8348 5.8447 14.818 5.9611 14.8251H24.3137C24.4301 14.818 24.5468 14.8348 24.6564 14.8745C24.7661 14.9141 24.8665 14.9758 24.9514 15.0557C25.0364 15.1357 25.104 15.2321 25.1503 15.3392C25.1966 15.4462 25.2204 15.5616 25.2204 15.6782C25.2204 15.7949 25.1966 15.9102 25.1503 16.0173C25.104 16.1243 25.0364 16.2208 24.9514 16.3007C24.8665 16.3806 24.7661 16.4423 24.6564 16.482C24.5468 16.5216 24.4301 16.5385 24.3137 16.5314Z" fill="#F3CBC7"/>
<path d="M21.0074 22.7955H5.9611C5.8447 22.8026 5.72807 22.7858 5.61841 22.7461C5.50874 22.7065 5.40838 22.6448 5.32345 22.5649C5.23852 22.4849 5.17083 22.3885 5.12457 22.2814C5.07831 22.1744 5.05444 22.059 5.05444 21.9424C5.05444 21.8258 5.07831 21.7104 5.12457 21.6033C5.17083 21.4963 5.23852 21.3998 5.32345 21.3199C5.40838 21.24 5.50874 21.1783 5.61841 21.1386C5.72807 21.0989 5.8447 21.0821 5.9611 21.0892H21.0074C21.1238 21.0821 21.2405 21.0989 21.3501 21.1386C21.4598 21.1783 21.5602 21.24 21.6451 21.3199C21.73 21.3998 21.7977 21.4963 21.844 21.6033C21.8902 21.7104 21.9141 21.8258 21.9141 21.9424C21.9141 22.059 21.8902 22.1744 21.844 22.2814C21.7977 22.3885 21.73 22.4849 21.6451 22.5649C21.5602 22.6448 21.4598 22.7065 21.3501 22.7461C21.2405 22.7858 21.1238 22.8026 21.0074 22.7955Z" fill="#F3CBC7"/>
</g>
<defs>
<clipPath id="clip0_5158_9855">
<rect width="40" height="30.2347" fill="white" transform="translate(0 0.132568)"/>
</clipPath>
</defs>
</svg>
