<svg width="51" height="39" viewBox="0 0 51 39" fill="none" xmlns="http://www.w3.org/2000/svg">
<g clip-path="url(#clip0_4777_18098)">
<path d="M38.6126 38.0217H6.29421C4.81473 38.0571 3.38149 37.5048 2.30826 36.4859C1.23503 35.4669 0.609214 34.0642 0.567871 32.5848V5.66119C0.610231 4.18161 1.23721 2.77912 2.31147 1.76084C3.38573 0.742559 4.81975 0.191485 6.29947 0.228295H38.6179C40.0976 0.191485 41.5316 0.742559 42.6059 1.76084C43.6801 2.77912 44.3071 4.18161 44.3495 5.66119V10.3796C44.3355 10.6686 44.2109 10.9411 44.0014 11.1406C43.792 11.3402 43.5138 11.4515 43.2245 11.4515C42.9352 11.4515 42.657 11.3402 42.4475 11.1406C42.2381 10.9411 42.1134 10.6686 42.0994 10.3796V5.66119C42.0736 4.76248 41.6928 3.9106 41.0402 3.2921C40.3877 2.6736 39.5167 2.33885 38.6179 2.36115H6.29421C5.39542 2.33885 4.52437 2.6736 3.87184 3.2921C3.21931 3.9106 2.83843 4.76248 2.8126 5.66119V32.5848C2.83877 33.4833 3.21983 34.3348 3.87232 34.953C4.52482 35.5713 5.39564 35.9059 6.29421 35.8835H38.6126C39.5113 35.9062 40.3823 35.5717 41.0349 34.9534C41.6874 34.3352 42.0684 33.4834 42.0942 32.5848V27.9388C42.1082 27.6499 42.2328 27.3774 42.4422 27.1778C42.6517 26.9782 42.9299 26.8669 43.2192 26.8669C43.5085 26.8669 43.7867 26.9782 43.9962 27.1778C44.2056 27.3774 44.3302 27.6499 44.3442 27.9388V32.5848C44.3029 34.0651 43.6764 35.4686 42.602 36.4878C41.5276 37.5069 40.093 38.0585 38.6126 38.0217Z" fill="#5CB8B2"/>
<path d="M32.9482 12.8954H8.01394C7.86844 12.9042 7.72265 12.8832 7.58557 12.8336C7.44849 12.784 7.32303 12.7069 7.21687 12.607C7.11071 12.5071 7.0261 12.3865 6.96827 12.2527C6.91045 12.1189 6.88062 11.9747 6.88062 11.8289C6.88062 11.6832 6.91045 11.5389 6.96827 11.4051C7.0261 11.2713 7.11071 11.1507 7.21687 11.0508C7.32303 10.9509 7.44849 10.8738 7.58557 10.8242C7.72265 10.7746 7.86844 10.7536 8.01394 10.7625H32.9482C33.0937 10.7536 33.2395 10.7746 33.3765 10.8242C33.5136 10.8738 33.6391 10.9509 33.7452 11.0508C33.8514 11.1507 33.936 11.2713 33.9938 11.4051C34.0517 11.5389 34.0815 11.6832 34.0815 11.8289C34.0815 11.9747 34.0517 12.1189 33.9938 12.2527C33.936 12.3865 33.8514 12.5071 33.7452 12.607C33.6391 12.7069 33.5136 12.784 33.3765 12.8336C33.2395 12.8832 33.0937 12.9042 32.9482 12.8954V12.8954Z" fill="#5CB8B2"/>
<path d="M30.9547 20.7269H8.01394C7.86844 20.7358 7.72265 20.7147 7.58557 20.6652C7.44849 20.6156 7.32303 20.5385 7.21687 20.4386C7.11071 20.3387 7.0261 20.2181 6.96827 20.0843C6.91045 19.9505 6.88062 19.8063 6.88062 19.6605C6.88062 19.5147 6.91045 19.3705 6.96827 19.2366C7.0261 19.1028 7.11071 18.9823 7.21687 18.8824C7.32303 18.7825 7.44849 18.7054 7.58557 18.6558C7.72265 18.6062 7.86844 18.5852 8.01394 18.594H30.9547C31.1002 18.5852 31.246 18.6062 31.3831 18.6558C31.5202 18.7054 31.6457 18.7825 31.7518 18.8824C31.858 18.9823 31.9426 19.1028 32.0004 19.2366C32.0583 19.3705 32.0881 19.5147 32.0881 19.6605C32.0881 19.8063 32.0583 19.9505 32.0004 20.0843C31.9426 20.2181 31.858 20.3387 31.7518 20.4386C31.6457 20.5385 31.5202 20.6156 31.3831 20.6652C31.246 20.7147 31.1002 20.7358 30.9547 20.7269V20.7269Z" fill="#5CB8B2"/>
<path d="M26.8218 28.5572H8.01394C7.86844 28.5661 7.72265 28.5451 7.58557 28.4955C7.44849 28.4459 7.32303 28.3688 7.21687 28.2689C7.11071 28.169 7.0261 28.0484 6.96827 27.9146C6.91045 27.7808 6.88062 27.6365 6.88062 27.4908C6.88062 27.345 6.91045 27.2007 6.96827 27.0669C7.0261 26.9331 7.11071 26.8126 7.21687 26.7127C7.32303 26.6128 7.44849 26.5356 7.58557 26.4861C7.72265 26.4365 7.86844 26.4155 8.01394 26.4243H26.8218C26.9673 26.4155 27.1131 26.4365 27.2502 26.4861C27.3873 26.5356 27.5128 26.6128 27.619 26.7127C27.7251 26.8126 27.8097 26.9331 27.8675 27.0669C27.9253 27.2007 27.9552 27.345 27.9552 27.4908C27.9552 27.6365 27.9253 27.7808 27.8675 27.9146C27.8097 28.0484 27.7251 28.169 27.619 28.2689C27.5128 28.3688 27.3873 28.4459 27.2502 28.4955C27.1131 28.5451 26.9673 28.5661 26.8218 28.5572Z" fill="#5CB8B2"/>
<path d="M43.7836 29.0113C43.6593 29.0114 43.5358 28.9914 43.4178 28.9521L33.7362 25.7942C33.4589 25.7058 33.2274 25.5121 33.0915 25.2548C33.0272 25.1297 32.9894 24.9926 32.9805 24.8522C32.9717 24.7118 32.992 24.5711 33.0402 24.439L38.2112 10.2153C38.2609 10.0806 38.3369 9.95721 38.4347 9.85217C38.5325 9.74713 38.6502 9.66259 38.781 9.60345C39.0513 9.47928 39.3586 9.46139 39.6415 9.55342L49.3204 12.7113C49.4573 12.7514 49.5846 12.8188 49.6946 12.9096C49.8045 13.0003 49.8949 13.1125 49.9603 13.2392C50.0256 13.366 50.0645 13.5046 50.0746 13.6469C50.0847 13.7891 50.0659 13.9319 50.0191 14.0666L44.8481 28.2903C44.7981 28.425 44.7219 28.5484 44.6239 28.6534C44.5259 28.7585 44.4079 28.843 44.277 28.9021C44.1223 28.9736 43.954 29.0109 43.7836 29.0113V29.0113ZM35.5336 24.1219L43.0875 26.589L47.5244 14.3811L39.9717 11.914L35.5336 24.1219Z" fill="#EF6079"/>
<path d="M36.198 34.9837C36.0734 34.9841 35.9494 34.9646 35.8309 34.9258C35.6519 34.8696 35.4903 34.7681 35.3619 34.6312C35.2335 34.4943 35.1426 34.3265 35.098 34.1442L33.0046 25.01C32.9753 24.8701 32.9744 24.7257 33.002 24.5855C33.0296 24.4453 33.0852 24.312 33.1653 24.1937C33.2455 24.0753 33.3486 23.9743 33.4686 23.8966C33.5886 23.819 33.723 23.7663 33.8638 23.7416C34.149 23.6758 34.4487 23.7241 34.6988 23.8763C34.9488 24.0285 35.1294 24.2725 35.202 24.5561L36.9033 31.9758L43.0651 27.1245C43.2977 26.9454 43.5891 26.8603 43.8815 26.8858C44.1739 26.9114 44.4461 27.0459 44.6441 27.2627C44.7381 27.3687 44.8092 27.4929 44.853 27.6277C44.8968 27.7624 44.9123 27.9048 44.8986 28.0458C44.8849 28.1868 44.8422 28.3235 44.7733 28.4473C44.7044 28.5711 44.6107 28.6793 44.498 28.7653L36.9112 34.7377C36.7074 34.8967 36.4565 34.9833 36.198 34.9837V34.9837Z" fill="#EF6079"/>
<path d="M35.198 29.5586L39.8204 31.0678L36.198 33.9191L35.198 29.5586Z" fill="#EF6079"/>
<path d="M47.4099 15.2034L39.5151 12.6271C39.2267 12.542 38.9585 12.3993 38.7268 12.2076C38.4951 12.0159 38.3047 11.7792 38.1672 11.5118C38.0296 11.2443 37.9478 10.9517 37.9267 10.6518C37.9055 10.3518 37.9454 10.0506 38.0441 9.76655V9.76655C38.2708 9.19045 38.711 8.72396 39.273 8.46418C39.8349 8.20439 40.4754 8.17132 41.0612 8.37182L48.9559 10.9481C49.2444 11.0332 49.5126 11.1759 49.7443 11.3676C49.9761 11.5593 50.1665 11.796 50.3042 12.0634C50.4418 12.3308 50.5238 12.6233 50.5451 12.9233C50.5664 13.2233 50.5267 13.5245 50.4283 13.8086C50.2008 14.3844 49.7603 14.8505 49.1983 15.1102C48.6363 15.3699 47.9958 15.4033 47.4099 15.2034V15.2034Z" fill="#EF6079"/>
</g>
<defs>
<clipPath id="clip0_4777_18098">
<rect width="50" height="37.7934" fill="white" transform="translate(0.5625 0.228271)"/>
</clipPath>
</defs>
</svg>
