<svg width="40" height="31" viewBox="0 0 40 31" fill="none" xmlns="http://www.w3.org/2000/svg">
<g clip-path="url(#clip0_5158_9915)">
<path d="M30.4399 30.8672H4.58522C3.40163 30.8955 2.25504 30.4537 1.39646 29.6385C0.537874 28.8234 0.0372248 27.7012 0.00415039 26.5177V4.9788C0.0380386 3.79514 0.539619 2.67315 1.39903 1.85853C2.25844 1.0439 3.40565 0.603041 4.58943 0.632489H30.4441C31.6279 0.603041 32.7751 1.0439 33.6346 1.85853C34.494 2.67315 34.9955 3.79514 35.0294 4.9788V8.75354C35.0182 8.9847 34.9185 9.2027 34.751 9.36235C34.5834 9.522 34.3609 9.61105 34.1294 9.61105C33.898 9.61105 33.6754 9.522 33.5079 9.36235C33.3403 9.2027 33.2406 8.9847 33.2294 8.75354V4.9788C33.2087 4.25984 32.9041 3.57833 32.382 3.08353C31.86 2.58873 31.1632 2.32094 30.4441 2.33878H4.58522C3.86619 2.32094 3.16935 2.58873 2.64733 3.08353C2.1253 3.57833 1.8206 4.25984 1.79993 4.9788V26.5177C1.82087 27.2365 2.12572 27.9177 2.64771 28.4123C3.16971 28.9069 3.86636 29.1745 4.58522 29.1567H30.4399C31.1589 29.1748 31.8557 28.9072 32.3777 28.4126C32.8998 27.918 33.2045 27.2366 33.2252 26.5177V22.8009C33.2364 22.5697 33.3361 22.3517 33.5036 22.1921C33.6712 22.0325 33.8938 21.9434 34.1252 21.9434C34.3566 21.9434 34.5792 22.0325 34.7468 22.1921C34.9143 22.3517 35.014 22.5697 35.0252 22.8009V26.5177C34.9922 27.7019 34.4909 28.8248 33.6314 29.6401C32.7719 30.4554 31.6242 30.8967 30.4399 30.8672Z" fill="#5CB8B2" fill-opacity="0.5"/>
<path d="M25.9085 10.7662H5.9611C5.8447 10.7733 5.72807 10.7565 5.61841 10.7168C5.50874 10.6772 5.40838 10.6155 5.32345 10.5356C5.23852 10.4556 5.17083 10.3592 5.12457 10.2521C5.07831 10.1451 5.05444 10.0297 5.05444 9.9131C5.05444 9.79648 5.07831 9.68109 5.12457 9.57404C5.17083 9.46699 5.23852 9.37053 5.32345 9.29061C5.40838 9.21069 5.50874 9.14901 5.61841 9.10933C5.72807 9.06966 5.8447 9.05284 5.9611 9.05993H25.9085C26.0249 9.05284 26.1415 9.06966 26.2512 9.10933C26.3608 9.14901 26.4612 9.21069 26.5461 9.29061C26.6311 9.37053 26.6988 9.46699 26.745 9.57404C26.7913 9.68109 26.8151 9.79648 26.8151 9.9131C26.8151 10.0297 26.7913 10.1451 26.745 10.2521C26.6988 10.3592 26.6311 10.4556 26.5461 10.5356C26.4612 10.6155 26.3608 10.6772 26.2512 10.7168C26.1415 10.7565 26.0249 10.7733 25.9085 10.7662Z" fill="#5CB8B2" fill-opacity="0.5"/>
<path d="M24.3137 17.0314H5.9611C5.8447 17.0385 5.72807 17.0216 5.61841 16.982C5.50874 16.9423 5.40838 16.8806 5.32345 16.8007C5.23852 16.7208 5.17083 16.6243 5.12457 16.5173C5.07831 16.4102 5.05444 16.2949 5.05444 16.1782C5.05444 16.0616 5.07831 15.9462 5.12457 15.8392C5.17083 15.7321 5.23852 15.6357 5.32345 15.5557C5.40838 15.4758 5.50874 15.4141 5.61841 15.3745C5.72807 15.3348 5.8447 15.318 5.9611 15.3251H24.3137C24.4301 15.318 24.5468 15.3348 24.6564 15.3745C24.7661 15.4141 24.8665 15.4758 24.9514 15.5557C25.0364 15.6357 25.104 15.7321 25.1503 15.8392C25.1966 15.9462 25.2204 16.0616 25.2204 16.1782C25.2204 16.2949 25.1966 16.4102 25.1503 16.5173C25.104 16.6243 25.0364 16.7208 24.9514 16.8007C24.8665 16.8806 24.7661 16.9423 24.6564 16.982C24.5468 17.0216 24.4301 17.0385 24.3137 17.0314Z" fill="#5CB8B2" fill-opacity="0.5"/>
<path d="M21.0074 23.2955H5.9611C5.8447 23.3026 5.72807 23.2858 5.61841 23.2461C5.50874 23.2065 5.40838 23.1448 5.32345 23.0649C5.23852 22.9849 5.17083 22.8885 5.12457 22.7814C5.07831 22.6744 5.05444 22.559 5.05444 22.4424C5.05444 22.3258 5.07831 22.2104 5.12457 22.1033C5.17083 21.9963 5.23852 21.8998 5.32345 21.8199C5.40838 21.74 5.50874 21.6783 5.61841 21.6386C5.72807 21.5989 5.8447 21.5821 5.9611 21.5892H21.0074C21.1238 21.5821 21.2405 21.5989 21.3501 21.6386C21.4598 21.6783 21.5602 21.74 21.6451 21.8199C21.73 21.8998 21.7977 21.9963 21.844 22.1033C21.8902 22.2104 21.9141 22.3258 21.9141 22.4424C21.9141 22.559 21.8902 22.6744 21.844 22.7814C21.7977 22.8885 21.73 22.9849 21.6451 23.0649C21.5602 23.1448 21.4598 23.2065 21.3501 23.2461C21.2405 23.2858 21.1238 23.3026 21.0074 23.2955Z" fill="#5CB8B2" fill-opacity="0.5"/>
<path d="M34.5767 23.6587C34.4772 23.6587 34.3784 23.6427 34.2841 23.6113L26.5388 21.085C26.317 21.0143 26.1317 20.8593 26.023 20.6534C25.9715 20.5533 25.9413 20.4437 25.9342 20.3314C25.9272 20.2191 25.9434 20.1065 25.982 20.0008L30.1188 8.62184C30.1585 8.51412 30.2193 8.41538 30.2975 8.33135C30.3758 8.24732 30.4699 8.17968 30.5746 8.13237C30.7909 8.03303 31.0367 8.01872 31.263 8.09235L39.0062 10.6187C39.1156 10.6507 39.2175 10.7047 39.3055 10.7773C39.3934 10.8499 39.4657 10.9396 39.518 11.041C39.5703 11.1424 39.6014 11.2533 39.6095 11.3671C39.6176 11.4809 39.6025 11.5951 39.5651 11.7029L35.4283 23.0818C35.3883 23.1896 35.3274 23.2883 35.2489 23.3724C35.1705 23.4564 35.0762 23.524 34.9714 23.5713C34.8477 23.6285 34.713 23.6583 34.5767 23.6587ZM27.9767 19.7471L34.0198 21.7208L37.5693 11.9545L31.5272 9.98077L27.9767 19.7471Z" fill="#5CB8B2"/>
<path d="M28.5082 28.4366C28.4084 28.4369 28.3093 28.4213 28.2145 28.3903C28.0712 28.3453 27.942 28.2641 27.8393 28.1546C27.7366 28.045 27.6639 27.9108 27.6282 27.765L25.9534 20.4576C25.93 20.3457 25.9293 20.2302 25.9514 20.118C25.9734 20.0058 26.0179 19.8992 26.082 19.8045C26.1462 19.7099 26.2287 19.6291 26.3247 19.5669C26.4207 19.5048 26.5282 19.4626 26.6408 19.4429C26.869 19.3902 27.1087 19.4289 27.3088 19.5507C27.5088 19.6724 27.6533 19.8676 27.7113 20.0945L29.0724 26.0303L34.0019 22.1492C34.1879 22.0059 34.421 21.9378 34.655 21.9583C34.8889 21.9788 35.1067 22.0863 35.265 22.2597C35.3402 22.3445 35.3971 22.444 35.4321 22.5518C35.4672 22.6596 35.4796 22.7734 35.4686 22.8862C35.4577 22.9991 35.4235 23.1084 35.3684 23.2074C35.3133 23.3065 35.2383 23.3931 35.1482 23.4618L29.0787 28.2397C28.9157 28.367 28.715 28.4362 28.5082 28.4366Z" fill="#5CB8B2"/>
<path d="M27.7083 24.0967L31.4061 25.3041L28.5083 27.5851L27.7083 24.0967Z" fill="#5CB8B2"/>
<path d="M37.4777 12.6124L31.1619 10.5514C30.9311 10.4833 30.7166 10.3692 30.5312 10.2158C30.3459 10.0625 30.1936 9.87306 30.0835 9.65911C29.9735 9.44517 29.9081 9.2111 29.8911 8.97112C29.8742 8.73113 29.9062 8.49022 29.9851 8.26295C30.1665 7.80207 30.5186 7.42888 30.9682 7.22105C31.4178 7.01322 31.9301 6.98676 32.3987 7.14716L38.7145 9.20819C38.9453 9.27624 39.1599 9.39041 39.3453 9.54376C39.5307 9.69711 39.683 9.88648 39.7931 10.1004C39.9033 10.3143 39.9688 10.5483 39.9859 10.7883C40.003 11.0283 39.9712 11.2693 39.8924 11.4966C39.7104 11.9573 39.358 12.3301 38.9084 12.5379C38.4588 12.7456 37.9465 12.7723 37.4777 12.6124Z" fill="#5CB8B2"/>
</g>
<defs>
<clipPath id="clip0_5158_9915">
<rect width="40" height="30.2347" fill="white" transform="translate(0 0.632568)"/>
</clipPath>
</defs>
</svg>
