<svg width="43" height="46" viewBox="0 0 43 46" fill="none" xmlns="http://www.w3.org/2000/svg">
<path d="M3.13188 1.66079L3.13157 1.66093C2.02279 2.17091 1.3125 3.27995 1.3125 4.5V40.75C1.3125 41.9722 2.0228 43.0809 3.13334 43.5896L3.13364 43.5897C4.24184 44.097 5.54444 43.915 6.47108 43.1211L6.47115 43.1211L8.8127 41.1147L11.1556 43.1213L11.1561 43.1217C12.3271 44.1235 14.0479 44.1235 15.2189 43.1217L15.2194 43.1213L17.5625 41.1145L19.9056 43.1213L19.9061 43.1217C21.0771 44.1235 22.7979 44.1235 23.9689 43.1217L23.9694 43.1213L24.8852 42.3369L25.6625 41.6712L25.1633 40.7778L24.1801 39.018L23.2957 35.0659L24.0925 32.6752L29.6527 27.1151L32.9003 26.2035L33.8125 25.9474V25V4.5C33.8125 3.27612 33.0954 2.1698 31.9919 1.6613L31.9918 1.66125C30.8839 1.15083 29.5803 1.33302 28.6548 2.12776C28.6546 2.12792 28.6544 2.12808 28.6542 2.12824L26.3125 4.13446L23.9695 2.12714L23.9691 2.1268C22.7981 1.1244 21.0769 1.1244 19.9059 2.1268L19.9055 2.12714L17.5625 4.13446L15.2195 2.12714L15.2191 2.1268C14.0481 1.1244 12.3269 1.1244 11.1559 2.1268L11.1555 2.12714L8.8127 4.13428L6.47131 2.12734L6.47104 2.12711C5.54426 1.33318 4.24086 1.15107 3.13188 1.66079ZM10.0625 30.125V28.875C10.0625 30.125 10.0625 30.125 10.0626 30.125H10.0625Z" stroke="#5CB8B2" stroke-width="2.5"/>
<rect x="22" y="25" width="20.4763" height="20.4763" rx="10.2382" fill="#F3CBC7"/>
<path d="M32.2395 45.4763C30.2145 45.4766 28.2348 44.8763 26.551 43.7514C24.8671 42.6265 23.5547 41.0276 22.7796 39.1567C22.0045 37.2859 21.8017 35.2272 22.1967 33.2411C22.5917 31.255 23.5668 29.4306 24.9987 27.9987C26.4306 26.5668 28.255 25.5917 30.2411 25.1967C32.2273 24.8017 34.2859 25.0045 36.1567 25.7796C38.0276 26.5547 39.6265 27.8671 40.7514 29.551C41.8763 31.2348 42.4766 33.2144 42.4763 35.2395C42.4732 37.9535 41.3937 40.5555 39.4746 42.4746C37.5555 44.3937 34.9535 45.4732 32.2395 45.4763ZM32.2395 27.3908C30.6871 27.3905 29.1695 27.8506 27.8786 28.7129C26.5877 29.5752 25.5816 30.8008 24.9873 32.235C24.3931 33.6691 24.2374 35.2473 24.5401 36.7699C24.8428 38.2924 25.5902 39.6911 26.6878 40.7889C27.7855 41.8866 29.1839 42.6343 30.7065 42.9373C32.229 43.2402 33.8072 43.0849 35.2414 42.4909C36.6757 41.8968 37.9015 40.8909 38.764 39.6001C39.6265 38.3094 40.0869 36.7919 40.0869 35.2395C40.0848 33.1587 39.2574 31.1638 37.7862 29.6924C36.315 28.221 34.3202 27.3932 32.2395 27.3908Z" fill="#EF6079"/>
<path d="M32.7145 31.1879L33.8247 33.4368C33.8488 33.4858 33.8845 33.5282 33.9287 33.5604C33.9729 33.5925 34.0242 33.6134 34.0783 33.6212L36.5602 33.9818C36.6224 33.9908 36.6809 34.0171 36.7289 34.0576C36.777 34.0981 36.8128 34.1513 36.8323 34.2111C36.8517 34.2708 36.854 34.3349 36.8389 34.3959C36.8239 34.457 36.7921 34.5126 36.747 34.5564L34.9512 36.3073C34.912 36.3454 34.8827 36.3925 34.8659 36.4444C34.849 36.4964 34.8451 36.5517 34.8544 36.6055L35.2782 39.0775C35.2889 39.1395 35.282 39.2033 35.2584 39.2616C35.2347 39.3199 35.1952 39.3704 35.1443 39.4074C35.0934 39.4444 35.0332 39.4664 34.9704 39.4709C34.9077 39.4754 34.8449 39.4623 34.7892 39.433L32.5692 38.2659C32.5208 38.2406 32.467 38.2274 32.4124 38.2274C32.3578 38.2274 32.304 38.2406 32.2556 38.2659L30.0359 39.433C29.9802 39.4623 29.9175 39.4754 29.8547 39.4709C29.792 39.4664 29.7317 39.4444 29.6808 39.4074C29.6299 39.3704 29.5904 39.3199 29.5668 39.2616C29.5431 39.2033 29.5362 39.1395 29.5469 39.0775L29.9707 36.6055C29.98 36.5517 29.9761 36.4964 29.9593 36.4444C29.9424 36.3925 29.9131 36.3454 29.874 36.3073L28.0781 34.5564C28.0331 34.5126 28.0012 34.457 27.9862 34.396C27.9711 34.335 27.9734 34.271 27.9928 34.2112C28.0122 34.1514 28.0479 34.0983 28.0959 34.0577C28.1439 34.0172 28.2023 33.9909 28.2645 33.9818L30.7468 33.6212C30.8009 33.6133 30.8522 33.5924 30.8964 33.5603C30.9406 33.5282 30.9763 33.4858 31.0004 33.4368L32.1102 31.1879C32.1381 31.1315 32.1811 31.084 32.2345 31.0508C32.2879 31.0176 32.3495 31 32.4124 31C32.4752 31 32.5369 31.0176 32.5903 31.0508C32.6437 31.084 32.6867 31.1315 32.7145 31.1879V31.1879Z" stroke="#EF6079" stroke-width="1.5" stroke-linecap="round" stroke-linejoin="round"/>
<line x1="10.0625" y1="15.125" x2="25.0625" y2="15.125" stroke="#5CB8B2" stroke-width="2.5" stroke-linecap="round"/>
<line x1="10.0625" y1="22.625" x2="25.0625" y2="22.625" stroke="#5CB8B2" stroke-width="2.5" stroke-linecap="round"/>
<line x1="10.0625" y1="30.125" x2="20.2125" y2="30.125" stroke="#5CB8B2" stroke-width="2.5" stroke-linecap="round"/>
</svg>
