<svg width="43" height="46" viewBox="0 0 43 46" fill="none" xmlns="http://www.w3.org/2000/svg">
<path d="M3.56938 2.03579L3.56907 2.03593C2.46029 2.54591 1.75 3.65495 1.75 4.875V41.125C1.75 42.3472 2.4603 43.4559 3.57084 43.9646L3.57114 43.9647C4.67934 44.472 5.98194 44.29 6.90858 43.4961L6.90865 43.4961L9.2502 41.4897L11.5931 43.4963L11.5936 43.4967C12.7646 44.4985 14.4854 44.4985 15.6564 43.4967L15.6569 43.4963L18 41.4895L20.3431 43.4963L20.3436 43.4967C21.5146 44.4985 23.2354 44.4985 24.4064 43.4967L24.4069 43.4963L25.3227 42.7119L26.1 42.0462L25.6008 41.1528L24.6176 39.393L23.7332 35.4409L24.53 33.0502L30.0902 27.4901L33.3378 26.5785L34.25 26.3224V25.375V4.875C34.25 3.65112 33.5329 2.5448 32.4294 2.0363L32.4293 2.03625C31.3214 1.52583 30.0178 1.70802 29.0923 2.50276C29.0921 2.50292 29.0919 2.50308 29.0917 2.50324L26.75 4.50946L24.407 2.50214L24.4066 2.5018C23.2356 1.4994 21.5144 1.4994 20.3434 2.5018L20.343 2.50214L18 4.50946L15.657 2.50214L15.6566 2.5018C14.4856 1.4994 12.7644 1.4994 11.5934 2.5018L11.593 2.50214L9.2502 4.50928L6.90881 2.50234L6.90854 2.50211C5.98176 1.70818 4.67836 1.52607 3.56938 2.03579ZM10.5 30.5V29.25C10.5 30.5 10.5 30.5 10.5001 30.5H10.5Z" stroke="white" stroke-width="2.5"/>
<rect x="22.4375" y="25.375" width="20.4763" height="20.4763" rx="10.2382" fill="#EF6079"/>
<path d="M32.677 45.8513C30.652 45.8516 28.6723 45.2513 26.9885 44.1264C25.3046 43.0015 23.9922 41.4026 23.2171 39.5317C22.442 37.6609 22.2392 35.6022 22.6342 33.6161C23.0292 31.63 24.0043 29.8056 25.4362 28.3737C26.8681 26.9418 28.6925 25.9667 30.6786 25.5717C32.6648 25.1767 34.7234 25.3795 36.5942 26.1546C38.4651 26.9297 40.064 28.2421 41.1889 29.926C42.3138 31.6098 42.9141 33.5894 42.9138 35.6145C42.9107 38.3285 41.8312 40.9305 39.9121 42.8496C37.993 44.7687 35.391 45.8482 32.677 45.8513ZM32.677 27.7658C31.1246 27.7655 29.607 28.2256 28.3161 29.0879C27.0252 29.9502 26.0191 31.1758 25.4248 32.61C24.8306 34.0441 24.6749 35.6223 24.9776 37.1449C25.2803 38.6674 26.0277 40.0661 27.1253 41.1639C28.223 42.2616 29.6214 43.0093 31.144 43.3123C32.6665 43.6152 34.2447 43.4599 35.6789 42.8659C37.1132 42.2718 38.339 41.2659 39.2015 39.9751C40.064 38.6844 40.5244 37.1669 40.5244 35.6145C40.5223 33.5337 39.6949 31.5388 38.2237 30.0674C36.7525 28.596 34.7577 27.7682 32.677 27.7658Z" fill="white"/>
<path d="M33.152 31.5629L34.2622 33.8118C34.2863 33.8608 34.322 33.9032 34.3662 33.9354C34.4104 33.9675 34.4617 33.9884 34.5158 33.9962L36.9977 34.3568C37.0599 34.3658 37.1184 34.3921 37.1664 34.4326C37.2145 34.4731 37.2503 34.5263 37.2698 34.5861C37.2892 34.6458 37.2915 34.7099 37.2764 34.7709C37.2614 34.832 37.2296 34.8876 37.1845 34.9314L35.3887 36.6823C35.3495 36.7204 35.3202 36.7675 35.3034 36.8194C35.2865 36.8714 35.2826 36.9267 35.2919 36.9805L35.7157 39.4525C35.7264 39.5145 35.7195 39.5783 35.6959 39.6366C35.6722 39.6949 35.6327 39.7454 35.5818 39.7824C35.5309 39.8194 35.4707 39.8414 35.4079 39.8459C35.3452 39.8504 35.2824 39.8373 35.2267 39.808L33.0067 38.6409C32.9583 38.6156 32.9045 38.6024 32.8499 38.6024C32.7953 38.6024 32.7415 38.6156 32.6931 38.6409L30.4734 39.808C30.4177 39.8373 30.355 39.8504 30.2922 39.8459C30.2295 39.8414 30.1692 39.8194 30.1183 39.7824C30.0674 39.7454 30.0279 39.6949 30.0043 39.6366C29.9806 39.5783 29.9737 39.5145 29.9844 39.4525L30.4082 36.9805C30.4175 36.9267 30.4136 36.8714 30.3968 36.8194C30.3799 36.7675 30.3506 36.7204 30.3115 36.6823L28.5156 34.9314C28.4706 34.8876 28.4387 34.832 28.4237 34.771C28.4086 34.71 28.4109 34.646 28.4303 34.5862C28.4497 34.5264 28.4854 34.4733 28.5334 34.4327C28.5814 34.3922 28.6398 34.3659 28.702 34.3568L31.1843 33.9962C31.2384 33.9883 31.2897 33.9674 31.3339 33.9353C31.3781 33.9032 31.4138 33.8608 31.4379 33.8118L32.5477 31.5629C32.5756 31.5065 32.6186 31.459 32.672 31.4258C32.7254 31.3926 32.787 31.375 32.8499 31.375C32.9127 31.375 32.9744 31.3926 33.0278 31.4258C33.0812 31.459 33.1242 31.5065 33.152 31.5629V31.5629Z" stroke="white" stroke-width="1.5" stroke-linecap="round" stroke-linejoin="round"/>
<line x1="10.5" y1="15.5" x2="25.5" y2="15.5" stroke="white" stroke-width="2.5" stroke-linecap="round"/>
<line x1="10.5" y1="23" x2="25.5" y2="23" stroke="white" stroke-width="2.5" stroke-linecap="round"/>
<line x1="10.5" y1="30.5" x2="20.65" y2="30.5" stroke="white" stroke-width="2.5" stroke-linecap="round"/>
</svg>
