<svg width="44" height="37" viewBox="0 0 44 37" fill="none" xmlns="http://www.w3.org/2000/svg">
<path d="M35.3333 28.1388H36.3333V27.1388V6.02767C36.3333 3.63511 34.3926 1.69434 32 1.69434H12C9.60744 1.69434 7.66667 3.63511 7.66667 6.02767V27.1388V28.1388H8.66667H35.3333ZM28.7557 9.99867L28.7595 9.99487C28.9921 9.75975 29.3666 9.7367 29.6309 9.94151L29.6995 10.0094C29.9546 10.2618 29.96 10.6812 29.6957 10.9456L20.8137 19.8275L20.81 19.8313C20.5576 20.0864 20.1381 20.0919 19.8738 19.8275L15.4293 15.3831L15.4293 15.383L15.4255 15.3793C15.1752 15.1316 15.1659 14.7094 15.4331 14.4393C15.6855 14.1842 16.1049 14.1788 16.3693 14.4431L19.6332 17.707L20.3403 18.4141L21.0474 17.707L28.7557 9.99867ZM7.44444 20.4721V19.4721H6.44444H5.33333C2.94077 19.4721 1 21.4129 1 23.8054V30.4721C1 32.8647 2.94077 34.8054 5.33333 34.8054H38.6667C41.0592 34.8054 43 32.8647 43 30.4721V23.8054C43 21.4129 41.0592 19.4721 38.6667 19.4721H37.5556H36.5556V20.4721V28.361H7.44444V20.4721Z" stroke="#F3CBC7" stroke-width="2"/>
<path d="M30.4029 9.29159C29.7501 8.63881 28.6946 8.63881 28.0487 9.29159L20.3404 16.9999L17.0765 13.736C16.4237 13.0833 15.3682 13.0833 14.7223 13.736C14.0765 14.3888 14.0696 15.4444 14.7223 16.0902L19.1668 20.5346C19.8196 21.1874 20.8751 21.1874 21.5209 20.5346L30.4029 11.6527C31.0557 10.9999 31.0557 9.94436 30.4029 9.29853V9.29159Z" fill="#EF6079"/>
</svg>
