<svg width="56" height="45" viewBox="0 0 56 45" fill="none" xmlns="http://www.w3.org/2000/svg">
<path d="M44.2292 34.9611H45.4792V33.7111V7.32218C45.4792 4.33148 43.0532 1.90552 40.0625 1.90552H15.0625C12.0718 1.90552 9.64583 4.33148 9.64583 7.32218V33.7111V34.9611H10.8958H44.2292ZM36.0072 12.2859L36.0119 12.2812C36.3026 11.9873 36.7708 11.9585 37.1011 12.2145L37.1868 12.2993C37.5057 12.6148 37.5125 13.1391 37.1821 13.4695L26.0797 24.572L26.0796 24.572L26.0749 24.5767C25.7595 24.8956 25.2352 24.9024 24.9047 24.572L19.3492 19.0164L19.3492 19.0164L19.3444 19.0117C19.0315 18.7022 19.0198 18.1744 19.3539 17.8367C19.6694 17.5179 20.1937 17.511 20.5241 17.8415L24.604 21.9213L25.4878 22.8052L26.3717 21.9213L36.0072 12.2859ZM9.36806 25.3777V24.1277H8.11806H6.72917C3.73846 24.1277 1.3125 26.5537 1.3125 29.5444V37.8777C1.3125 40.8684 3.73846 43.2944 6.72917 43.2944H48.3958C51.3865 43.2944 53.8125 40.8684 53.8125 37.8777V29.5444C53.8125 26.5537 51.3865 24.1277 48.3958 24.1277H47.0069H45.7569V25.3777V35.2388H9.36806V25.3777Z" stroke="#5CB8B2" stroke-width="2.5"/>
<path d="M38.0659 11.402C37.2499 10.586 35.9305 10.586 35.1232 11.402L25.4877 21.0374L21.4079 16.9576C20.5919 16.1416 19.2725 16.1416 18.4652 16.9576C17.6579 17.7735 17.6492 19.093 18.4652 19.9003L24.0207 25.4558C24.8367 26.2718 26.1561 26.2718 26.9634 25.4558L38.0659 14.3534C38.8818 13.5374 38.8818 12.218 38.0659 11.4107V11.402Z" fill="#EF6079"/>
</svg>
