<svg width="26" height="26" viewBox="0 0 26 26" fill="none" xmlns="http://www.w3.org/2000/svg">
<path d="M0.885084 8.53547C1.04607 8.53547 1.20046 8.47151 1.3143 8.35768C1.42813 8.24384 1.49209 8.08946 1.49209 7.92848V1.52845H7.89209C7.97381 1.53177 8.05536 1.51856 8.13183 1.48957C8.20831 1.46059 8.27815 1.41646 8.33714 1.35981C8.39613 1.30317 8.44306 1.23516 8.47513 1.15992C8.50719 1.08468 8.52373 1.00373 8.52373 0.921946C8.52373 0.84016 8.50719 0.759209 8.47513 0.68397C8.44306 0.608731 8.39613 0.540787 8.33714 0.484141C8.27815 0.427495 8.20831 0.383364 8.13183 0.354381C8.05536 0.325397 7.97381 0.312121 7.89209 0.31544H0.283094V7.92445C0.282029 8.08526 0.344816 8.23995 0.457685 8.3545C0.570555 8.46906 0.724271 8.53415 0.885084 8.53547V8.53547Z" fill="white"/>
<path d="M23.4731 0.31947H18.0551C17.9734 0.316151 17.8918 0.329366 17.8154 0.35835C17.7389 0.387333 17.669 0.431464 17.61 0.48811C17.5511 0.544756 17.5041 0.612761 17.472 0.688C17.44 0.763239 17.4235 0.84419 17.4235 0.925977C17.4235 1.00776 17.44 1.08871 17.472 1.16395C17.5041 1.23919 17.5511 1.30714 17.61 1.36378C17.669 1.42043 17.7389 1.46456 17.8154 1.49354C17.8918 1.52253 17.9734 1.5358 18.0551 1.53248H23.4691C23.7205 1.53301 23.9615 1.63316 24.1392 1.81105C24.3169 1.98893 24.4168 2.23002 24.4171 2.48146V7.92848C24.4171 8.08947 24.481 8.24384 24.5949 8.35768C24.7087 8.47151 24.8631 8.53547 25.0241 8.53547C25.1851 8.53547 25.3395 8.47151 25.4533 8.35768C25.5671 8.24384 25.6311 8.08947 25.6311 7.92848V2.48146C25.6303 1.90899 25.4028 1.36014 24.9984 0.954968C24.594 0.549801 24.0456 0.321321 23.4731 0.31947V0.31947Z" fill="white"/>
<path d="M25.028 17.4705C24.9484 17.4703 24.8695 17.4859 24.7958 17.5163C24.7222 17.5467 24.6553 17.5913 24.5989 17.6476C24.5425 17.7039 24.4978 17.7707 24.4673 17.8443C24.4368 17.9179 24.4211 17.9968 24.4211 18.0765V24.4764H18.021C17.8602 24.4764 17.7059 24.5404 17.5922 24.6541C17.4785 24.7679 17.4146 24.9221 17.4146 25.0829C17.4146 25.2438 17.4785 25.398 17.5922 25.5118C17.7059 25.6255 17.8602 25.6895 18.021 25.6895H25.6301V18.0704C25.6285 17.9114 25.5645 17.7595 25.4519 17.6472C25.3393 17.535 25.187 17.4715 25.028 17.4705V17.4705Z" fill="white"/>
<path d="M7.85504 24.4705H2.44104C2.1896 24.4699 1.94863 24.3697 1.77094 24.1918C1.59324 24.0139 1.49331 23.7729 1.49304 23.5214V18.0704C1.49304 17.9094 1.4291 17.7551 1.31526 17.6412C1.20143 17.5274 1.04703 17.4634 0.886047 17.4634C0.725061 17.4634 0.570667 17.5274 0.456833 17.6412C0.342998 17.7551 0.279053 17.9094 0.279053 18.0704V23.5175C0.279846 24.0906 0.507881 24.6401 0.913162 25.0453C1.31844 25.4506 1.86789 25.6786 2.44104 25.6794H7.85504C8.0159 25.6794 8.17016 25.6156 8.28391 25.5018C8.39765 25.3881 8.46155 25.2338 8.46155 25.0729C8.46155 24.9121 8.39765 24.7578 8.28391 24.6441C8.17016 24.5304 8.0159 24.4664 7.85504 24.4664V24.4705Z" fill="white"/>
<path d="M3.78101 5.52246V12.0015H11.926V3.85547H5.448C5.00588 3.85547 4.58188 4.03107 4.26926 4.34369C3.95663 4.65631 3.78101 5.08035 3.78101 5.52246Z" fill="white"/>
<path d="M20.4481 22.4625H21.6881C21.9196 22.4625 22.1417 22.3704 22.3054 22.2067C22.4691 22.043 22.5611 21.821 22.5611 21.5894V14.3145H14.4131V18.0704H20.4481V22.4625Z" fill="white"/>
<path d="M22.5551 5.52246C22.5548 5.08043 22.3791 4.65656 22.0665 4.34399C21.7539 4.03143 21.3301 3.85573 20.8881 3.85547H14.4091V12.0015H22.5551V5.52246ZM21.3421 10.7875H15.6231V5.07043H20.8881C21.0084 5.0707 21.1237 5.11865 21.2088 5.20374C21.2939 5.28882 21.3418 5.40415 21.3421 5.52448V10.7875Z" fill="white"/>
<path d="M3.81409 21.1534C3.81435 21.5004 3.95239 21.8332 4.19785 22.0784C4.4433 22.3237 4.7761 22.4614 5.12309 22.4614H11.9601V14.3154H3.81409V21.1534ZM5.02809 15.5284H10.7471V21.2485H5.12309C5.09657 21.2485 5.07114 21.2379 5.05238 21.2192C5.03363 21.2004 5.02309 21.175 5.02309 21.1484L5.02809 15.5284Z" fill="white"/>
<path d="M19.206 18.8654H17.431V22.4614H19.206V18.8654Z" fill="white"/>
<path d="M16.1891 18.8654H14.4141V22.4614H16.1891V18.8654Z" fill="white"/>
</svg>
