<svg width="21" height="20" viewBox="0 0 21 20" fill="none" xmlns="http://www.w3.org/2000/svg">
<path d="M8.4165 5.41663V7.91663H5.9165V5.41663H8.4165ZM9.6665 4.16663H4.6665V9.16663H9.6665V4.16663ZM8.4165 12.0833V14.5833H5.9165V12.0833H8.4165ZM9.6665 10.8333H4.6665V15.8333H9.6665V10.8333ZM15.0832 5.41663V7.91663H12.5832V5.41663H15.0832ZM16.3332 4.16663H11.3332V9.16663H16.3332V4.16663ZM11.3332 10.8333H12.5832V12.0833H11.3332V10.8333ZM12.5832 12.0833H13.8332V13.3333H12.5832V12.0833ZM13.8332 10.8333H15.0832V12.0833H13.8332V10.8333ZM11.3332 13.3333H12.5832V14.5833H11.3332V13.3333ZM12.5832 14.5833H13.8332V15.8333H12.5832V14.5833ZM13.8332 13.3333H15.0832V14.5833H13.8332V13.3333ZM15.0832 12.0833H16.3332V13.3333H15.0832V12.0833ZM15.0832 14.5833H16.3332V15.8333H15.0832V14.5833ZM17.9998 5.83329C17.5415 5.83329 17.1665 5.45829 17.1665 4.99996V3.33329H15.4998C15.0415 3.33329 14.6665 2.95829 14.6665 2.49996C14.6665 2.04163 15.0415 1.66663 15.4998 1.66663H17.9998C18.4582 1.66663 18.8332 2.04163 18.8332 2.49996V4.99996C18.8332 5.45829 18.4582 5.83329 17.9998 5.83329ZM18.8332 17.5V15C18.8332 14.5416 18.4582 14.1666 17.9998 14.1666C17.5415 14.1666 17.1665 14.5416 17.1665 15V16.6666H15.4998C15.0415 16.6666 14.6665 17.0416 14.6665 17.5C14.6665 17.9583 15.0415 18.3333 15.4998 18.3333H17.9998C18.4582 18.3333 18.8332 17.9583 18.8332 17.5ZM2.99984 18.3333H5.49984C5.95817 18.3333 6.33317 17.9583 6.33317 17.5C6.33317 17.0416 5.95817 16.6666 5.49984 16.6666H3.83317V15C3.83317 14.5416 3.45817 14.1666 2.99984 14.1666C2.5415 14.1666 2.1665 14.5416 2.1665 15V17.5C2.1665 17.9583 2.5415 18.3333 2.99984 18.3333ZM2.1665 2.49996V4.99996C2.1665 5.45829 2.5415 5.83329 2.99984 5.83329C3.45817 5.83329 3.83317 5.45829 3.83317 4.99996V3.33329H5.49984C5.95817 3.33329 6.33317 2.95829 6.33317 2.49996C6.33317 2.04163 5.95817 1.66663 5.49984 1.66663H2.99984C2.5415 1.66663 2.1665 2.04163 2.1665 2.49996Z" fill="white"/>
</svg>
