<svg width="27" height="26" viewBox="0 0 27 26" fill="none" xmlns="http://www.w3.org/2000/svg">
<path d="M1.4285 8.53547C1.58948 8.53547 1.74388 8.47151 1.85771 8.35768C1.97154 8.24384 2.03551 8.08946 2.03551 7.92848V1.52845H8.4355C8.51722 1.53177 8.59877 1.51856 8.67525 1.48957C8.75172 1.46059 8.82156 1.41646 8.88055 1.35981C8.93955 1.30317 8.98647 1.23516 9.01854 1.15992C9.0506 1.08468 9.06714 1.00373 9.06714 0.921946C9.06714 0.84016 9.0506 0.759209 9.01854 0.68397C8.98647 0.608731 8.93955 0.540787 8.88055 0.484141C8.82156 0.427495 8.75172 0.383364 8.67525 0.354381C8.59877 0.325397 8.51722 0.312121 8.4355 0.31544H0.826506V7.92445C0.82544 8.08526 0.888227 8.23995 1.0011 8.3545C1.11397 8.46906 1.26768 8.53415 1.4285 8.53547Z" fill="#EF6079"/>
<path d="M24.0165 0.31947H18.5985C18.5168 0.316151 18.4352 0.329366 18.3588 0.35835C18.2823 0.387333 18.2125 0.431464 18.1535 0.48811C18.0945 0.544756 18.0475 0.612761 18.0155 0.688C17.9834 0.763239 17.9669 0.84419 17.9669 0.925977C17.9669 1.00776 17.9834 1.08871 18.0155 1.16395C18.0475 1.23919 18.0945 1.30714 18.1535 1.36378C18.2125 1.42043 18.2823 1.46456 18.3588 1.49354C18.4352 1.52253 18.5168 1.5358 18.5985 1.53248H24.0125C24.2639 1.53301 24.5049 1.63316 24.6826 1.81105C24.8603 1.98893 24.9602 2.23002 24.9605 2.48146V7.92848C24.9605 8.08947 25.0245 8.24384 25.1383 8.35768C25.2521 8.47151 25.4065 8.53547 25.5675 8.53547C25.7285 8.53547 25.8829 8.47151 25.9967 8.35768C26.1106 8.24384 26.1745 8.08947 26.1745 7.92848V2.48146C26.1737 1.90899 25.9462 1.36014 25.5418 0.954968C25.1374 0.549801 24.589 0.321321 24.0165 0.31947Z" fill="#EF6079"/>
<path d="M25.5715 17.4705C25.4918 17.4703 25.4129 17.4859 25.3393 17.5163C25.2657 17.5467 25.1987 17.5913 25.1423 17.6476C25.086 17.7039 25.0412 17.7707 25.0107 17.8443C24.9802 17.9179 24.9645 17.9968 24.9645 18.0765V24.4764H18.5645C18.4036 24.4764 18.2494 24.5404 18.1357 24.6541C18.0219 24.7679 17.958 24.9221 17.958 25.0829C17.958 25.2438 18.0219 25.398 18.1357 25.5118C18.2494 25.6255 18.4036 25.6895 18.5645 25.6895H26.1735V18.0704C26.1719 17.9114 26.1079 17.7595 25.9953 17.6472C25.8827 17.535 25.7305 17.4715 25.5715 17.4705Z" fill="#EF6079"/>
<path d="M8.3985 24.4704H2.9845C2.73306 24.4699 2.49209 24.3697 2.31439 24.1918C2.13669 24.0139 2.03676 23.7728 2.0365 23.5214V18.0704C2.0365 17.9094 1.97255 17.755 1.85872 17.6412C1.74488 17.5273 1.59049 17.4634 1.4295 17.4634C1.26852 17.4634 1.11412 17.5273 1.00029 17.6412C0.886455 17.755 0.82251 17.9094 0.82251 18.0704V23.5174C0.823303 24.0905 1.05134 24.64 1.45662 25.0453C1.8619 25.4506 2.41134 25.6786 2.9845 25.6794H8.3985C8.55935 25.6794 8.71362 25.6155 8.82736 25.5018C8.9411 25.388 9.005 25.2337 9.005 25.0729C9.005 24.912 8.9411 24.7578 8.82736 24.644C8.71362 24.5303 8.55935 24.4664 8.3985 24.4664V24.4704Z" fill="#EF6079"/>
<path d="M4.32451 5.52246V12.0015H12.4695V3.85547H5.9915C5.54938 3.85547 5.12538 4.03107 4.81276 4.34369C4.50014 4.65631 4.32451 5.08035 4.32451 5.52246Z" fill="#EF6079"/>
<path d="M20.9915 22.4625H22.2315C22.463 22.4625 22.6851 22.3704 22.8488 22.2067C23.0125 22.043 23.1045 21.821 23.1045 21.5894V14.3145H14.9565V18.0704H20.9915V22.4625Z" fill="#EF6079"/>
<path d="M23.0985 5.52246C23.0982 5.08043 22.9225 4.65656 22.61 4.34399C22.2974 4.03143 21.8735 3.85573 21.4315 3.85547H14.9525V12.0015H23.0985V5.52246ZM21.8855 10.7875H16.1665V5.07043H21.4315C21.5518 5.0707 21.6672 5.11865 21.7522 5.20374C21.8373 5.28882 21.8852 5.40415 21.8855 5.52448V10.7875Z" fill="#EF6079"/>
<path d="M4.3575 21.1534C4.35776 21.5004 4.4958 21.8332 4.74126 22.0784C4.98671 22.3237 5.31951 22.4614 5.6665 22.4614H12.5035V14.3154H4.3575V21.1534ZM5.5715 15.5284H11.2905V21.2485H5.6665C5.63998 21.2485 5.61455 21.2379 5.59579 21.2192C5.57704 21.2004 5.5665 21.175 5.5665 21.1484L5.5715 15.5284Z" fill="#EF6079"/>
<path d="M19.7495 18.8655H17.9745V22.4615H19.7495V18.8655Z" fill="#EF6079"/>
<path d="M16.7325 18.8655H14.9575V22.4615H16.7325V18.8655Z" fill="#EF6079"/>
</svg>
