<svg width="47" height="46" viewBox="0 0 47 46" fill="none" xmlns="http://www.w3.org/2000/svg">
<g filter="url(#filter0_dddd_1276_6722)">
<path d="M11.4285 18.5355C11.5895 18.5355 11.7439 18.4715 11.8577 18.3577C11.9715 18.2438 12.0355 18.0895 12.0355 17.9285V11.5285H18.4355C18.5172 11.5318 18.5988 11.5186 18.6752 11.4896C18.7517 11.4606 18.8215 11.4165 18.8805 11.3598C18.9395 11.3032 18.9865 11.2352 19.0185 11.1599C19.0506 11.0847 19.0671 11.0037 19.0671 10.9219C19.0671 10.8402 19.0506 10.7592 19.0185 10.684C18.9865 10.6087 18.9395 10.5408 18.8805 10.4841C18.8215 10.4275 18.7517 10.3834 18.6752 10.3544C18.5988 10.3254 18.5172 10.3121 18.4355 10.3154H10.8265V17.9244C10.8254 18.0853 10.8882 18.2399 11.0011 18.3545C11.114 18.4691 11.2677 18.5342 11.4285 18.5355Z" fill="white"/>
<path d="M34.0165 10.3195H28.5985C28.5168 10.3162 28.4352 10.3294 28.3587 10.3583C28.2823 10.3873 28.2124 10.4315 28.1534 10.4881C28.0944 10.5448 28.0475 10.6128 28.0154 10.688C27.9834 10.7632 27.9669 10.8442 27.9669 10.926C27.9669 11.0078 27.9834 11.0887 28.0154 11.164C28.0475 11.2392 28.0944 11.3071 28.1534 11.3638C28.2124 11.4204 28.2823 11.4646 28.3587 11.4935C28.4352 11.5225 28.5168 11.5358 28.5985 11.5325H34.0125C34.2639 11.533 34.5049 11.6332 34.6826 11.811C34.8603 11.9889 34.9602 12.23 34.9605 12.4815V17.9285C34.9605 18.0895 35.0244 18.2438 35.1383 18.3577C35.2521 18.4715 35.4065 18.5355 35.5675 18.5355C35.7285 18.5355 35.8829 18.4715 35.9967 18.3577C36.1105 18.2438 36.1745 18.0895 36.1745 17.9285V12.4815C36.1737 11.909 35.9462 11.3601 35.5418 10.955C35.1374 10.5498 34.589 10.3213 34.0165 10.3195Z" fill="white"/>
<path d="M35.5715 27.4705C35.4918 27.4703 35.4129 27.4859 35.3393 27.5163C35.2657 27.5467 35.1987 27.5913 35.1423 27.6476C35.086 27.7039 35.0412 27.7707 35.0107 27.8443C34.9802 27.9179 34.9645 27.9968 34.9645 28.0765V34.4764H28.5645C28.4036 34.4764 28.2494 34.5404 28.1357 34.6541C28.0219 34.7679 27.958 34.9221 27.958 35.0829C27.958 35.2438 28.0219 35.398 28.1357 35.5118C28.2494 35.6255 28.4036 35.6895 28.5645 35.6895H36.1735V28.0704C36.1719 27.9114 36.1079 27.7595 35.9953 27.6472C35.8827 27.535 35.7305 27.4715 35.5715 27.4705Z" fill="white"/>
<path d="M18.3985 34.4704H12.9845C12.7331 34.4699 12.4921 34.3697 12.3144 34.1918C12.1367 34.0139 12.0368 33.7728 12.0365 33.5214V28.0704C12.0365 27.9094 11.9726 27.755 11.8587 27.6412C11.7449 27.5273 11.5905 27.4634 11.4295 27.4634C11.2685 27.4634 11.1141 27.5273 11.0003 27.6412C10.8865 27.755 10.8225 27.9094 10.8225 28.0704V33.5174C10.8233 34.0905 11.0513 34.64 11.4566 35.0453C11.8619 35.4506 12.4113 35.6786 12.9845 35.6794H18.3985C18.5594 35.6794 18.7136 35.6155 18.8274 35.5018C18.9411 35.388 19.005 35.2337 19.005 35.0729C19.005 34.912 18.9411 34.7578 18.8274 34.644C18.7136 34.5303 18.5594 34.4664 18.3985 34.4664V34.4704Z" fill="white"/>
<path d="M14.3245 15.5225V22.0015H22.4695V13.8555H15.9915C15.5494 13.8555 15.1254 14.0311 14.8128 14.3437C14.5002 14.6563 14.3245 15.0803 14.3245 15.5225Z" fill="white"/>
<path d="M30.9915 32.4625H32.2315C32.463 32.4625 32.6851 32.3704 32.8488 32.2067C33.0125 32.043 33.1045 31.821 33.1045 31.5894V24.3145H24.9565V28.0704H30.9915V32.4625Z" fill="white"/>
<path d="M33.0985 15.5225C33.0983 15.0804 32.9225 14.6566 32.61 14.344C32.2974 14.0314 31.8736 13.8557 31.4315 13.8555H24.9525V22.0015H33.0985V15.5225ZM31.8855 20.7875H26.1665V15.0704H31.4315C31.5518 15.0707 31.6672 15.1187 31.7523 15.2037C31.8373 15.2888 31.8852 15.4041 31.8855 15.5245V20.7875Z" fill="white"/>
<path d="M14.3575 31.1534C14.3577 31.5004 14.4958 31.8332 14.7412 32.0784C14.9867 32.3237 15.3195 32.4614 15.6665 32.4614H22.5035V24.3154H14.3575V31.1534ZM15.5715 25.5284H21.2905V31.2485H15.6665C15.64 31.2485 15.6145 31.2379 15.5958 31.2192C15.577 31.2004 15.5665 31.175 15.5665 31.1484L15.5715 25.5284Z" fill="white"/>
<path d="M29.7495 28.8655H27.9745V32.4615H29.7495V28.8655Z" fill="white"/>
<path d="M26.7325 28.8655H24.9575V32.4615H26.7325V28.8655Z" fill="white"/>
</g>
<defs>
<filter id="filter0_dddd_1276_6722" x="0.82251" y="0.314941" width="45.3519" height="45.3745" filterUnits="userSpaceOnUse" color-interpolation-filters="sRGB">
<feFlood flood-opacity="0" result="BackgroundImageFix"/>
<feColorMatrix in="SourceAlpha" type="matrix" values="0 0 0 0 0 0 0 0 0 0 0 0 0 0 0 0 0 0 127 0" result="hardAlpha"/>
<feOffset/>
<feGaussianBlur stdDeviation="5"/>
<feComposite in2="hardAlpha" operator="out"/>
<feColorMatrix type="matrix" values="0 0 0 0 0.937255 0 0 0 0 0.376471 0 0 0 0 0.47451 0 0 0 1 0"/>
<feBlend mode="normal" in2="BackgroundImageFix" result="effect1_dropShadow_1276_6722"/>
<feColorMatrix in="SourceAlpha" type="matrix" values="0 0 0 0 0 0 0 0 0 0 0 0 0 0 0 0 0 0 127 0" result="hardAlpha"/>
<feOffset/>
<feGaussianBlur stdDeviation="5"/>
<feComposite in2="hardAlpha" operator="out"/>
<feColorMatrix type="matrix" values="0 0 0 0 0.937255 0 0 0 0 0.376471 0 0 0 0 0.47451 0 0 0 1 0"/>
<feBlend mode="normal" in2="effect1_dropShadow_1276_6722" result="effect2_dropShadow_1276_6722"/>
<feColorMatrix in="SourceAlpha" type="matrix" values="0 0 0 0 0 0 0 0 0 0 0 0 0 0 0 0 0 0 127 0" result="hardAlpha"/>
<feOffset/>
<feGaussianBlur stdDeviation="5"/>
<feComposite in2="hardAlpha" operator="out"/>
<feColorMatrix type="matrix" values="0 0 0 0 0.937255 0 0 0 0 0.376471 0 0 0 0 0.47451 0 0 0 1 0"/>
<feBlend mode="normal" in2="effect2_dropShadow_1276_6722" result="effect3_dropShadow_1276_6722"/>
<feColorMatrix in="SourceAlpha" type="matrix" values="0 0 0 0 0 0 0 0 0 0 0 0 0 0 0 0 0 0 127 0" result="hardAlpha"/>
<feOffset/>
<feGaussianBlur stdDeviation="5"/>
<feComposite in2="hardAlpha" operator="out"/>
<feColorMatrix type="matrix" values="0 0 0 0 0.937255 0 0 0 0 0.376471 0 0 0 0 0.47451 0 0 0 1 0"/>
<feBlend mode="normal" in2="effect3_dropShadow_1276_6722" result="effect4_dropShadow_1276_6722"/>
<feBlend mode="normal" in="SourceGraphic" in2="effect4_dropShadow_1276_6722" result="shape"/>
</filter>
</defs>
</svg>
