<svg width="52" height="51" viewBox="0 0 52 51" fill="none" xmlns="http://www.w3.org/2000/svg">
<circle cx="26" cy="25.5" r="25.5" fill="url(#paint0_radial_1276_12285)"/>
<path d="M36.0052 32.0098C38.6808 32.0098 40.8498 29.8408 40.8498 27.1652C40.8498 24.4897 38.6808 22.3207 36.0052 22.3207C33.3296 22.3207 31.1606 24.4897 31.1606 27.1652C31.1606 29.8408 33.3296 32.0098 36.0052 32.0098Z" stroke="white" stroke-width="1.30051" stroke-linecap="round" stroke-linejoin="round"/>
<path d="M32.7663 30.8733L29.4887 37.2679C29.4128 37.416 29.3671 37.5778 29.3542 37.7438C29.3413 37.9098 29.3615 38.0767 29.4136 38.2348C29.4658 38.3929 29.5488 38.539 29.6579 38.6648C29.767 38.7906 29.9 38.8934 30.0492 38.9673C30.3451 39.1139 30.6869 39.1381 31.0006 39.0347C31.3143 38.9312 31.5746 38.7084 31.7253 38.4144L35.0186 31.9887" stroke="white" stroke-width="1.30051" stroke-linecap="round" stroke-linejoin="round"/>
<path d="M37.2225 24.7083C37.7057 24.9475 38.1077 25.3238 38.3782 25.7901C38.6487 26.2565 38.7758 26.7923 38.7435 27.3305" stroke="white" stroke-width="1.30051" stroke-linecap="round" stroke-linejoin="round"/>
<path d="M36.0052 32.0098C38.6808 32.0098 40.8498 29.8408 40.8498 27.1652C40.8498 24.4897 38.6808 22.3207 36.0052 22.3207C33.3296 22.3207 31.1606 24.4897 31.1606 27.1652C31.1606 29.8408 33.3296 32.0098 36.0052 32.0098Z" stroke="white" stroke-width="1.30051" stroke-linecap="round" stroke-linejoin="round"/>
<path d="M32.6148 23.705H14.1506V36.6012H29.8293" stroke="white" stroke-width="1.30051" stroke-linecap="round" stroke-linejoin="round"/>
<path d="M37.8289 31.6503V36.6013H32.6541" stroke="white" stroke-width="1.30051" stroke-linecap="round" stroke-linejoin="round"/>
<path d="M32.6027 23.717H14.1506V19.9002C14.1506 19.2023 14.4278 18.5331 14.9212 18.0396C15.4147 17.5461 16.084 17.2689 16.7818 17.2689H35.1977C35.8955 17.2689 36.5648 17.5461 37.0583 18.0396C37.5517 18.5331 37.8289 19.2023 37.8289 19.9002V22.6797" stroke="white" stroke-width="1.30051" stroke-linecap="round" stroke-linejoin="round"/>
<path d="M23.415 23.7054H28.5639V26.2799C28.5639 26.9626 28.2926 27.6174 27.8098 28.1002C27.327 28.583 26.6722 28.8543 25.9894 28.8543C25.3067 28.8543 24.6519 28.583 24.1691 28.1002C23.6863 27.6174 23.415 26.9626 23.415 26.2799V23.7054Z" stroke="white" stroke-width="1.30051" stroke-linecap="round" stroke-linejoin="round"/>
<path d="M18.9788 16.6551C18.9788 16.1615 19.076 15.6728 19.2648 15.2168C19.4537 14.7608 19.7305 14.3465 20.0795 13.9975C20.4284 13.6484 20.8428 13.3716 21.2987 13.1827C21.7547 12.9938 22.2434 12.8966 22.737 12.8966H29.2423C30.239 12.8967 31.1949 13.2927 31.8997 13.9975C32.6045 14.7024 33.0004 15.6583 33.0004 16.6551V17.2678" stroke="white" stroke-width="1.30051" stroke-linecap="round" stroke-linejoin="round"/>
<defs>
<radialGradient id="paint0_radial_1276_12285" cx="0" cy="0" r="1" gradientUnits="userSpaceOnUse" gradientTransform="translate(26 25.5) rotate(90) scale(25.5)">
<stop stop-color="#EF6079"/>
<stop offset="1" stop-color="#EF6079" stop-opacity="0"/>
</radialGradient>
</defs>
</svg>
