<svg width="29" height="28" viewBox="0 0 29 28" fill="none" xmlns="http://www.w3.org/2000/svg">
<path d="M22.7832 20.01C25.4587 20.01 27.6277 17.841 27.6277 15.1654C27.6277 12.4898 25.4587 10.3209 22.7832 10.3209C20.1076 10.3209 17.9386 12.4898 17.9386 15.1654C17.9386 17.841 20.1076 20.01 22.7832 20.01Z" stroke="white" stroke-width="1.30051" stroke-linecap="round" stroke-linejoin="round"/>
<path d="M19.5443 18.8734L16.2667 25.2679C16.1908 25.4161 16.1451 25.5779 16.1322 25.7438C16.1193 25.9098 16.1395 26.0767 16.1917 26.2348C16.2438 26.3929 16.3268 26.5391 16.4359 26.6649C16.545 26.7906 16.678 26.8934 16.8272 26.9674C17.1232 27.114 17.465 27.1382 17.7786 27.0347C18.0923 26.9313 18.3527 26.7085 18.5033 26.4145L21.7966 19.9888" stroke="white" stroke-width="1.30051" stroke-linecap="round" stroke-linejoin="round"/>
<path d="M24.0006 12.7084C24.4838 12.9476 24.8857 13.3239 25.1563 13.7903C25.4268 14.2566 25.5539 14.7924 25.5216 15.3306" stroke="white" stroke-width="1.30051" stroke-linecap="round" stroke-linejoin="round"/>
<path d="M22.7832 20.01C25.4587 20.01 27.6277 17.841 27.6277 15.1654C27.6277 12.4898 25.4587 10.3209 22.7832 10.3209C20.1076 10.3209 17.9386 12.4898 17.9386 15.1654C17.9386 17.841 20.1076 20.01 22.7832 20.01Z" stroke="white" stroke-width="1.30051" stroke-linecap="round" stroke-linejoin="round"/>
<path d="M19.3928 11.7051H0.928589V24.6013H16.6073" stroke="white" stroke-width="1.30051" stroke-linecap="round" stroke-linejoin="round"/>
<path d="M24.6069 19.6503V24.6014H19.4321" stroke="white" stroke-width="1.30051" stroke-linecap="round" stroke-linejoin="round"/>
<path d="M19.3807 11.7172H0.928589V7.90031C0.928589 7.20246 1.20581 6.53318 1.69926 6.03972C2.19272 5.54626 2.862 5.26904 3.55985 5.26904H21.9757C22.6735 5.26904 23.3428 5.54626 23.8363 6.03972C24.3297 6.53318 24.607 7.20246 24.607 7.90031V10.6798" stroke="white" stroke-width="1.30051" stroke-linecap="round" stroke-linejoin="round"/>
<path d="M10.1931 11.7054H15.3419V14.2799C15.3419 14.9626 15.0707 15.6174 14.5879 16.1002C14.1051 16.583 13.4503 16.8543 12.7675 16.8543C12.0847 16.8543 11.4299 16.583 10.9471 16.1002C10.4643 15.6174 10.1931 14.9626 10.1931 14.2799V11.7054Z" stroke="white" stroke-width="1.30051" stroke-linecap="round" stroke-linejoin="round"/>
<path d="M5.75684 4.65521C5.7568 4.16165 5.85398 3.67291 6.04282 3.21691C6.23167 2.76092 6.50849 2.34659 6.85747 1.99758C7.20646 1.64856 7.62077 1.3717 8.07675 1.18282C8.53273 0.993933 9.02146 0.896729 9.51501 0.896729H16.0203C17.017 0.896809 17.973 1.29283 18.6777 1.99767C19.3825 2.70251 19.7785 3.65845 19.7785 4.65521V5.26796" stroke="white" stroke-width="1.30051" stroke-linecap="round" stroke-linejoin="round"/>
</svg>
