<svg width="33" height="32" viewBox="0 0 33 32" fill="none" xmlns="http://www.w3.org/2000/svg">
<path d="M25.9818 22.7608C29.0039 22.7608 31.4538 20.3109 31.4538 17.2888C31.4538 14.2667 29.0039 11.8168 25.9818 11.8168C22.9597 11.8168 20.5098 14.2667 20.5098 17.2888C20.5098 20.3109 22.9597 22.7608 25.9818 22.7608Z" stroke="#5CB8B2" stroke-width="1.30051" stroke-linecap="round" stroke-linejoin="round"/>
<path d="M22.3234 21.477L18.6213 28.6998C18.5356 28.8672 18.4839 29.0499 18.4693 29.2374C18.4548 29.4248 18.4776 29.6133 18.5365 29.7919C18.5954 29.9705 18.6892 30.1356 18.8124 30.2777C18.9356 30.4197 19.0858 30.5359 19.2543 30.6194C19.5886 30.785 19.9747 30.8123 20.329 30.6954C20.6833 30.5786 20.9774 30.3269 21.1476 29.9949L24.8674 22.7369" stroke="#5CB8B2" stroke-width="1.30051" stroke-linecap="round" stroke-linejoin="round"/>
<path d="M27.3568 14.5135C27.9025 14.7837 28.3566 15.2088 28.6621 15.7356C28.9677 16.2623 29.1112 16.8675 29.0748 17.4754" stroke="#5CB8B2" stroke-width="1.30051" stroke-linecap="round" stroke-linejoin="round"/>
<path d="M25.9818 22.7608C29.0039 22.7608 31.4538 20.3109 31.4538 17.2888C31.4538 14.2667 29.0039 11.8168 25.9818 11.8168C22.9597 11.8168 20.5098 14.2667 20.5098 17.2888C20.5098 20.3109 22.9597 22.7608 25.9818 22.7608Z" stroke="#5CB8B2" stroke-width="1.30051" stroke-linecap="round" stroke-linejoin="round"/>
<path d="M22.1522 13.3803H1.29657V27.9468H19.006" stroke="#5CB8B2" stroke-width="1.30051" stroke-linecap="round" stroke-linejoin="round"/>
<path d="M28.0417 22.3546V27.9469H22.1967" stroke="#5CB8B2" stroke-width="1.30051" stroke-linecap="round" stroke-linejoin="round"/>
<path d="M22.1386 13.3939H1.29657V9.08275C1.29657 8.29451 1.6097 7.53855 2.16707 6.98118C2.72444 6.42381 3.48039 6.11069 4.26863 6.11069H25.0696C25.8579 6.11069 26.6139 6.42381 27.1712 6.98118C27.7286 7.53855 28.0417 8.29451 28.0417 9.08275V12.2222" stroke="#5CB8B2" stroke-width="1.30051" stroke-linecap="round" stroke-linejoin="round"/>
<path d="M11.761 13.3807H17.5766V16.2886C17.5766 17.0598 17.2703 17.7994 16.7249 18.3447C16.1796 18.8901 15.44 19.1964 14.6688 19.1964C13.8976 19.1964 13.158 18.8901 12.6126 18.3447C12.0673 17.7994 11.761 17.0598 11.761 16.2886V13.3807Z" stroke="#5CB8B2" stroke-width="1.30051" stroke-linecap="round" stroke-linejoin="round"/>
<path d="M6.75014 5.41732C6.7501 4.85984 6.85987 4.30781 7.07317 3.79275C7.28648 3.27769 7.59915 2.8097 7.99334 2.41548C8.38752 2.02127 8.85549 1.70855 9.37053 1.4952C9.88557 1.28185 10.4376 1.17206 10.9951 1.17206H18.3429C19.4688 1.17215 20.5485 1.61946 21.3445 2.41559C22.1406 3.21172 22.5878 4.29147 22.5878 5.41732V6.10944" stroke="#5CB8B2" stroke-width="1.30051" stroke-linecap="round" stroke-linejoin="round"/>
</svg>
