<svg width="29" height="28" viewBox="0 0 29 28" fill="none" xmlns="http://www.w3.org/2000/svg">
<path d="M23.0052 20.0098C25.6808 20.0098 27.8497 17.8408 27.8497 15.1652C27.8497 12.4897 25.6808 10.3207 23.0052 10.3207C20.3296 10.3207 18.1606 12.4897 18.1606 15.1652C18.1606 17.8408 20.3296 20.0098 23.0052 20.0098Z" stroke="#EF6079" stroke-width="1.30051" stroke-linecap="round" stroke-linejoin="round"/>
<path d="M19.7663 18.8733L16.4887 25.2679C16.4128 25.416 16.3671 25.5778 16.3542 25.7438C16.3413 25.9098 16.3615 26.0767 16.4137 26.2348C16.4658 26.3929 16.5488 26.539 16.6579 26.6648C16.767 26.7906 16.9 26.8934 17.0492 26.9673C17.3451 27.1139 17.687 27.1381 18.0006 27.0347C18.3143 26.9312 18.5746 26.7084 18.7253 26.4144L22.0186 19.9887" stroke="#EF6079" stroke-width="1.30051" stroke-linecap="round" stroke-linejoin="round"/>
<path d="M24.2225 12.7083C24.7057 12.9475 25.1077 13.3238 25.3782 13.7901C25.6487 14.2565 25.7758 14.7923 25.7435 15.3305" stroke="#EF6079" stroke-width="1.30051" stroke-linecap="round" stroke-linejoin="round"/>
<path d="M23.0052 20.0098C25.6808 20.0098 27.8497 17.8408 27.8497 15.1652C27.8497 12.4897 25.6808 10.3207 23.0052 10.3207C20.3296 10.3207 18.1606 12.4897 18.1606 15.1652C18.1606 17.8408 20.3296 20.0098 23.0052 20.0098Z" stroke="#EF6079" stroke-width="1.30051" stroke-linecap="round" stroke-linejoin="round"/>
<path d="M19.6148 11.705H1.15056V24.6012H16.8293" stroke="#EF6079" stroke-width="1.30051" stroke-linecap="round" stroke-linejoin="round"/>
<path d="M24.8289 19.6503V24.6013H19.6541" stroke="#EF6079" stroke-width="1.30051" stroke-linecap="round" stroke-linejoin="round"/>
<path d="M19.6027 11.717H1.15056V7.90019C1.15056 7.20234 1.42778 6.53305 1.92123 6.0396C2.41469 5.54614 3.08397 5.26892 3.78182 5.26892H22.1977C22.8955 5.26892 23.5648 5.54614 24.0583 6.0396C24.5517 6.53305 24.8289 7.20234 24.8289 7.90019V10.6797" stroke="#EF6079" stroke-width="1.30051" stroke-linecap="round" stroke-linejoin="round"/>
<path d="M10.415 11.7054H15.5638V14.2799C15.5638 14.9626 15.2926 15.6174 14.8098 16.1002C14.327 16.583 13.6722 16.8543 12.9894 16.8543C12.3067 16.8543 11.6519 16.583 11.1691 16.1002C10.6863 15.6174 10.415 14.9626 10.415 14.2799V11.7054Z" stroke="#EF6079" stroke-width="1.30051" stroke-linecap="round" stroke-linejoin="round"/>
<path d="M5.97879 4.65508C5.97875 4.16153 6.07593 3.67279 6.26478 3.21679C6.45363 2.7608 6.73045 2.34646 7.07943 1.99745C7.42841 1.64844 7.84272 1.37158 8.2987 1.1827C8.75469 0.993811 9.24341 0.896606 9.73697 0.896606H16.2422C17.239 0.896687 18.1949 1.2927 18.8997 1.99755C19.6045 2.70239 20.0004 3.65833 20.0004 4.65508V5.26784" stroke="#EF6079" stroke-width="1.30051" stroke-linecap="round" stroke-linejoin="round"/>
</svg>
