<svg width="21" height="21" viewBox="0 0 21 21" fill="none" xmlns="http://www.w3.org/2000/svg">
<g clip-path="url(#clip0_1207_22778)">
<path d="M19.7044 11.76L18.5527 14.9812L17.3499 14.5512C17.2596 14.5198 17.1614 14.5195 17.071 14.5504C16.9805 14.5813 16.903 14.6416 16.8508 14.7216C16.4163 15.3699 15.8904 15.952 15.2895 16.4497C15.2166 16.5087 15.1655 16.5903 15.1443 16.6816C15.1231 16.7729 15.133 16.8687 15.1724 16.9537L15.7197 18.1103L12.6269 19.5739L12.0827 18.4239C12.0418 18.3395 11.9739 18.2711 11.8898 18.2297C11.8056 18.1883 11.71 18.1762 11.6182 18.1954C10.8506 18.3467 10.0652 18.3864 9.28622 18.3133C9.19142 18.3032 9.09591 18.3249 9.0149 18.3752C8.9339 18.4255 8.87203 18.5014 8.83911 18.5909L8.54397 19.4166C8.50931 19.5134 8.43766 19.5925 8.34477 19.6364C8.25187 19.6804 8.14533 19.6857 8.04852 19.6512L5.55506 18.7597C5.50711 18.7426 5.46301 18.7162 5.42527 18.682C5.38752 18.6478 5.35686 18.6065 5.33508 18.5605C5.3133 18.5145 5.30082 18.4646 5.29832 18.4137C5.29582 18.3629 5.30335 18.312 5.32051 18.2641L5.61566 17.4385C5.647 17.3484 5.64734 17.2505 5.61662 17.1602C5.5859 17.0699 5.52588 16.9924 5.4461 16.9401C4.79747 16.5027 4.21533 15.974 3.7176 15.3705C3.65879 15.2973 3.57717 15.246 3.48578 15.2246C3.3944 15.2032 3.29849 15.213 3.21334 15.2525L2.41397 15.6309C2.36793 15.6527 2.31802 15.6652 2.26715 15.6676C2.21628 15.6701 2.16542 15.6626 2.11747 15.6454C2.06953 15.6282 2.02545 15.6017 1.98773 15.5675C1.95002 15.5333 1.91942 15.4919 1.89769 15.4459L0.765681 13.0537C0.743919 13.0077 0.731452 12.9578 0.728975 12.907C0.726498 12.8561 0.734067 12.8053 0.751252 12.7573C0.768438 12.7094 0.794897 12.6654 0.829125 12.6277C0.863353 12.59 0.904682 12.5594 0.950735 12.5377L1.75682 12.1563C1.84118 12.1155 1.9095 12.0476 1.95094 11.9636C1.99238 11.8795 2.00458 11.7841 1.98559 11.6923C1.83662 10.9263 1.79898 10.1428 1.87386 9.36606C1.88428 9.27108 1.86264 9.17534 1.81233 9.0941C1.76203 9.01286 1.68598 8.9508 1.59631 8.9178L0.758283 8.61825C0.710337 8.60114 0.666225 8.57474 0.628485 8.54058C0.590745 8.50641 0.560112 8.46515 0.53833 8.41914C0.516548 8.37312 0.504072 8.32327 0.501568 8.27243C0.499064 8.22158 0.506605 8.17074 0.523761 8.12281L1.4145 5.63144C1.44911 5.53464 1.52076 5.45555 1.61367 5.41157C1.70658 5.36759 1.81314 5.3623 1.90994 5.39689L2.7563 5.69943C2.84615 5.73073 2.94387 5.73118 3.03402 5.70073C3.12417 5.67027 3.20159 5.61064 3.25406 5.53126C3.69029 4.88801 4.21638 4.31053 4.81629 3.81639C4.889 3.75793 4.94005 3.67683 4.9613 3.58599C4.98256 3.49515 4.97278 3.3998 4.93355 3.31516L4.54311 2.49032C4.52135 2.44429 4.50888 2.39443 4.50641 2.34358C4.50393 2.29273 4.5115 2.24189 4.52868 2.19396C4.54587 2.14603 4.57233 2.10197 4.60656 2.06428C4.64078 2.02658 4.68208 1.996 4.72814 1.97429L7.12006 0.840897C7.16611 0.819131 7.21599 0.806643 7.26686 0.804163C7.31773 0.801683 7.36859 0.809257 7.41653 0.826441C7.46448 0.843625 7.50856 0.870083 7.54627 0.904314C7.58399 0.938544 7.61461 0.979891 7.63634 1.02595L8.02955 1.85864C8.0699 1.94244 8.13716 2.0103 8.22059 2.05143C8.30401 2.09255 8.3988 2.10456 8.48984 2.08554C9.24984 1.93753 10.0271 1.89915 10.798 1.97152C10.8928 1.98169 10.9884 1.95989 11.0694 1.9096C11.1504 1.85932 11.2124 1.78342 11.2454 1.69394L11.553 0.8335C11.5877 0.736744 11.6593 0.657691 11.7522 0.613716C11.8451 0.569741 11.9516 0.56443 12.0484 0.598949L14.5419 1.49039C14.5899 1.50753 14.634 1.53397 14.6717 1.56815C14.7094 1.60234 14.7401 1.64362 14.7619 1.68965C14.7836 1.73568 14.7961 1.78555 14.7987 1.83642C14.8012 1.88728 14.7936 1.93815 14.7764 1.98609L14.4688 2.84631C14.4374 2.93646 14.4371 3.03452 14.4678 3.12488C14.4986 3.21524 14.5587 3.29272 14.6386 3.345C15.2803 3.77777 15.8567 4.30028 16.3502 4.89659C16.4087 4.96891 16.4896 5.01957 16.5802 5.04053C16.6708 5.06149 16.7658 5.05154 16.8501 5.01224L17.6828 4.61901C17.7758 4.57511 17.8824 4.56996 17.9792 4.60466C18.076 4.63936 18.1551 4.71108 18.199 4.80406L19.331 7.19618C19.3528 7.24221 19.3653 7.29209 19.3677 7.34295C19.3702 7.3938 19.3626 7.44464 19.3455 7.49257C19.3283 7.54049 19.3018 7.58456 19.2676 7.62225C19.2334 7.65994 19.192 7.69053 19.146 7.71224L18.3212 8.10268C18.237 8.14328 18.1689 8.21093 18.1278 8.29479C18.0866 8.37865 18.0747 8.47388 18.094 8.56528C18.2448 9.32771 18.2856 10.1078 18.215 10.8818C18.2051 10.9764 18.2271 11.0715 18.2773 11.1523C18.3276 11.233 18.4033 11.2946 18.4926 11.3275L19.7044 11.76Z" stroke="#5CB8B2" stroke-width="0.994605" stroke-linecap="round" stroke-linejoin="round"/>
<path d="M10.1023 14.696C12.6265 14.696 14.6729 12.6497 14.6729 10.1255C14.6729 7.60124 12.6265 5.55493 10.1023 5.55493C7.57805 5.55493 5.53174 7.60124 5.53174 10.1255C5.53174 12.6497 7.57805 14.696 10.1023 14.696Z" stroke="#5CB8B2" stroke-width="0.994605" stroke-linecap="round" stroke-linejoin="round"/>
</g>
<defs>
<clipPath id="clip0_1207_22778">
<rect width="20.2016" height="20.1211" fill="white" transform="translate(0 0.0769043)"/>
</clipPath>
</defs>
</svg>
