<svg width="15" height="18" viewBox="0 0 15 18" fill="none" xmlns="http://www.w3.org/2000/svg">
<path d="M7.49611 11.7554C7.83905 11.7554 8.13413 11.4683 8.13413 11.1334V2.94284L8.08628 1.74657L8.62062 2.3128L9.83284 3.60479C9.9445 3.73239 10.104 3.79619 10.2635 3.79619C10.5905 3.79619 10.8457 3.55693 10.8457 3.22995C10.8457 3.06247 10.7739 2.93487 10.6543 2.81524L7.95867 0.21533C7.79917 0.0558263 7.66359 0 7.49611 0C7.33661 0 7.20103 0.0558263 7.03355 0.21533L4.33794 2.81524C4.21831 2.93487 4.15451 3.06247 4.15451 3.22995C4.15451 3.55693 4.39376 3.79619 4.72872 3.79619C4.88025 3.79619 5.0557 3.73239 5.16736 3.60479L6.37161 2.3128L6.91392 1.74657L6.86607 2.94284V11.1334C6.86607 11.4683 7.15318 11.7554 7.49611 11.7554ZM2.92633 18H12.0739C13.7407 18 14.5781 17.1706 14.5781 15.5277V7.56845C14.5781 5.92556 13.7407 5.09615 12.0739 5.09615H9.84879V6.38015H12.0499C12.8395 6.38015 13.2941 6.81081 13.2941 7.64023V15.4559C13.2941 16.2853 12.8395 16.716 12.0499 16.716H2.94228C2.14476 16.716 1.70612 16.2853 1.70612 15.4559V7.64023C1.70612 6.81081 2.14476 6.38015 2.94228 6.38015H5.15141V5.09615H2.92633C1.25951 5.09615 0.422119 5.92556 0.422119 7.56845V15.5277C0.422119 17.1706 1.25951 18 2.92633 18Z" fill="#007AFF"/>
</svg>
