<svg width="16" height="16" viewBox="0 0 16 16" fill="none" xmlns="http://www.w3.org/2000/svg">
<g clip-path="url(#clip0_2526_18011)">
<path d="M14.2774 14.2551H2.10897C1.95154 14.2547 1.79802 14.206 1.66918 14.1155C1.54035 14.025 1.44244 13.8971 1.38868 13.7492L0.661441 11.7372C0.574246 11.4956 0.546488 11.2366 0.580504 10.982C0.61452 10.7275 0.70931 10.4848 0.856874 10.2746C1.00444 10.0644 1.20044 9.89281 1.4283 9.77432C1.65617 9.65584 1.90921 9.59394 2.16604 9.59387H14.3305C14.5939 9.59389 14.8533 9.65894 15.0855 9.78327C15.3178 9.90759 15.5157 10.0873 15.6618 10.3065C15.8079 10.5257 15.8976 10.7776 15.923 11.0398C15.9484 11.302 15.9086 11.5665 15.8073 11.8096L14.9835 13.785C14.9253 13.9243 14.8273 14.0433 14.7016 14.1269C14.576 14.2106 14.4284 14.2552 14.2774 14.2551ZM2.16713 10.3555C2.03257 10.3555 1.89999 10.388 1.78061 10.45C1.66123 10.5121 1.55855 10.6021 1.48126 10.7122C1.40398 10.8224 1.35434 10.9495 1.33657 11.0829C1.3188 11.2163 1.33342 11.352 1.37917 11.4785L2.10605 13.4905L14.2774 13.4931C14.2783 13.4931 14.2791 13.4929 14.2799 13.4925C14.2806 13.492 14.2811 13.4913 14.2815 13.4905L15.1053 11.5151C15.1584 11.3877 15.1793 11.2492 15.166 11.1118C15.1527 10.9745 15.1057 10.8425 15.0291 10.7276C14.9526 10.6128 14.8489 10.5186 14.7272 10.4535C14.6055 10.3884 14.4696 10.3544 14.3316 10.3544L2.16713 10.3555Z" fill="#EF6079"/>
<path d="M10.0172 10.3555H6.57454C6.48083 10.3554 6.39042 10.3208 6.32058 10.2584C6.25074 10.1959 6.20636 10.1098 6.19592 10.0167L5.41198 2.92832C5.4104 2.91435 5.40955 2.90032 5.40942 2.88626C5.41798 2.12635 5.72586 1.40047 6.26624 0.866128C6.80663 0.331791 7.53593 0.0321045 8.29588 0.0321045C9.05584 0.0321045 9.78514 0.331791 10.3255 0.866128C10.8659 1.40047 11.1738 2.12635 11.1823 2.88626C11.1823 2.90031 11.1816 2.91435 11.1801 2.92832L10.3958 10.0167C10.3855 10.1099 10.3411 10.1959 10.2713 10.2584C10.2014 10.3209 10.111 10.3555 10.0172 10.3555ZM6.91548 9.59383H9.67629L10.4207 2.86613C10.4207 2.30264 10.1969 1.76222 9.79843 1.36378C9.39998 0.965326 8.85956 0.741484 8.29606 0.741484C7.73257 0.741484 7.19216 0.965326 6.79371 1.36378C6.39526 1.76222 6.17142 2.30264 6.17142 2.86613L6.91548 9.59383Z" fill="#EF6079"/>
<path d="M14.0555 15.9993H2.44381C2.34281 15.9993 2.24594 15.9592 2.17453 15.8878C2.10311 15.8163 2.06299 15.7195 2.06299 15.6185C2.06299 15.5175 2.10311 15.4206 2.17453 15.3492C2.24594 15.2778 2.34281 15.2377 2.44381 15.2377H14.0555C14.1565 15.2377 14.2533 15.2778 14.3248 15.3492C14.3962 15.4206 14.4363 15.5175 14.4363 15.6185C14.4363 15.7195 14.3962 15.8163 14.3248 15.8878C14.2533 15.9592 14.1565 15.9993 14.0555 15.9993Z" fill="#EF6079"/>
</g>
<defs>
<clipPath id="clip0_2526_18011">
<rect width="15.3642" height="16" fill="white" transform="translate(0.567871)"/>
</clipPath>
</defs>
</svg>
