<svg width="20" height="21" viewBox="0 0 20 21" fill="none" xmlns="http://www.w3.org/2000/svg">
<g clip-path="url(#clip0_1207_22770)">
<path d="M12.2738 15.7706H1.74169C1.65559 15.7706 1.57157 15.7441 1.5011 15.6946C1.43063 15.6452 1.37712 15.5752 1.34789 15.4942L0.558137 13.3056C0.485596 13.1054 0.462376 12.8908 0.490441 12.6798C0.518506 12.4688 0.597041 12.2676 0.719369 12.0934C0.841697 11.9192 1.00421 11.7771 1.19316 11.6791C1.38211 11.581 1.59192 11.53 1.80479 11.5303H15.0325C15.2977 11.5295 15.557 11.6086 15.7766 11.7572C15.9962 11.9058 16.166 12.1171 16.2639 12.3635" stroke="#5CB8B2" stroke-width="0.935515" stroke-linecap="round" stroke-linejoin="round"/>
<path d="M10.341 11.5299H6.59699L5.74414 3.82079C5.74414 3.09812 6.03119 2.40504 6.54218 1.89402C7.05316 1.383 7.74623 1.09588 8.46889 1.09583C9.1916 1.09583 9.88469 1.38294 10.3957 1.89397C10.9067 2.405 11.1939 3.09809 11.1939 3.82079L10.341 11.5299Z" stroke="#5CB8B2" stroke-width="0.935515" stroke-linecap="round" stroke-linejoin="round"/>
<path d="M12.6873 17.6676H2.1051" stroke="#5CB8B2" stroke-width="0.935515" stroke-linecap="round" stroke-linejoin="round"/>
<path d="M15.8997 19.6094C17.9061 19.6094 19.5325 17.983 19.5325 15.9766C19.5325 13.9702 17.9061 12.3438 15.8997 12.3438C13.8933 12.3438 12.2668 13.9702 12.2668 15.9766C12.2668 17.983 13.8933 19.6094 15.8997 19.6094Z" stroke="#5CB8B2" stroke-width="0.935515" stroke-linecap="round" stroke-linejoin="round"/>
<path d="M13.9573 15.9762H17.8414" stroke="#5CB8B2" stroke-width="0.935515" stroke-linecap="round" stroke-linejoin="round"/>
<path d="M15.8994 14.0345V17.9187" stroke="#5CB8B2" stroke-width="0.935515" stroke-linecap="round" stroke-linejoin="round"/>
</g>
<defs>
<clipPath id="clip0_1207_22770">
<rect width="20" height="19.4494" fill="white" transform="translate(0 0.627563)"/>
</clipPath>
</defs>
</svg>
