<svg width="39" height="40" viewBox="0 0 39 40" fill="none" xmlns="http://www.w3.org/2000/svg">
<g clip-path="url(#clip0_1261_16216)">
<path d="M34.6938 35.6376H4.27267C3.87908 35.6367 3.49528 35.5149 3.1732 35.2887C2.85113 35.0625 2.60633 34.7428 2.47195 34.3728L0.653847 29.3429C0.435858 28.7389 0.366463 28.0914 0.451503 27.455C0.536544 26.8186 0.77352 26.212 1.14243 25.6865C1.51134 25.1609 2.00134 24.732 2.571 24.4357C3.14067 24.1395 3.77327 23.9848 4.41534 23.9846H34.8264C35.485 23.9847 36.1334 24.1473 36.714 24.4581C37.2946 24.7689 37.7896 25.2183 38.1548 25.7663C38.5201 26.3143 38.7444 26.944 38.8078 27.5995C38.8712 28.2551 38.7718 28.9161 38.5184 29.5239L36.4589 34.4625C36.3135 34.8107 36.0684 35.1081 35.7543 35.3172C35.4402 35.5264 35.0712 35.6379 34.6938 35.6376ZM4.41808 25.8887C4.08166 25.8888 3.75023 25.9698 3.45177 26.125C3.15331 26.2803 2.89663 26.5051 2.7034 26.7805C2.51018 27.0559 2.38609 27.3737 2.34167 27.7072C2.29725 28.0407 2.33378 28.3799 2.44817 28.6963L4.26536 33.7262L34.6938 33.7327C34.696 33.7328 34.6981 33.7322 34.6999 33.7311C34.7017 33.7299 34.7031 33.7282 34.7039 33.7262L36.7634 28.7877C36.8963 28.4693 36.9484 28.123 36.9152 27.7795C36.882 27.4361 36.7645 27.1062 36.5731 26.819C36.3817 26.5319 36.1224 26.2965 35.8182 26.1338C35.5139 25.971 35.1742 25.8858 34.8292 25.8859L4.41808 25.8887Z" fill="#333F48"/>
<path d="M24.0431 25.8887H15.4364C15.2021 25.8886 14.9761 25.8022 14.8015 25.646C14.6269 25.4897 14.516 25.2747 14.4899 25.0419L12.53 7.32087C12.5261 7.28595 12.5239 7.25085 12.5236 7.21571C12.545 5.31594 13.3147 3.50122 14.6657 2.16538C16.0166 0.829538 17.8399 0.0803223 19.7398 0.0803223C21.6397 0.0803223 23.4629 0.829538 24.8139 2.16538C26.1648 3.50122 26.9345 5.31594 26.9559 7.21571C26.9559 7.25083 26.9541 7.28593 26.9504 7.32087L24.9897 25.0419C24.9638 25.2748 24.8529 25.4899 24.6783 25.6462C24.5036 25.8024 24.2775 25.8888 24.0431 25.8887ZM16.2888 23.9846H23.1908L25.0519 7.16539C25.0519 5.75665 24.4923 4.40562 23.4961 3.4095C22.5 2.41338 21.149 1.85377 19.7402 1.85377C18.3315 1.85377 16.9805 2.41338 15.9843 3.4095C14.9882 4.40562 14.4286 5.75665 14.4286 7.16539L16.2888 23.9846Z" fill="#333F48"/>
<path d="M34.1387 39.9982H5.10949C4.85699 39.9982 4.61482 39.8979 4.43628 39.7193C4.25774 39.5408 4.15744 39.2987 4.15744 39.0462C4.15744 38.7937 4.25774 38.5515 4.43628 38.373C4.61482 38.1944 4.85699 38.0941 5.10949 38.0941H34.1387C34.3912 38.0941 34.6333 38.1944 34.8119 38.373C34.9904 38.5515 35.0907 38.7937 35.0907 39.0462C35.0907 39.2987 34.9904 39.5408 34.8119 39.7193C34.6333 39.8979 34.3912 39.9982 34.1387 39.9982Z" fill="#333F48"/>
</g>
<defs>
<clipPath id="clip0_1261_16216">
<rect width="38.4105" height="40" fill="white" transform="translate(0.419739)"/>
</clipPath>
</defs>
</svg>
