<svg width="39" height="40" viewBox="0 0 39 40" fill="none" xmlns="http://www.w3.org/2000/svg">
<g clip-path="url(#clip0_5775_90971)">
<path d="M34.7355 35.6377H4.31436C3.92077 35.6368 3.53697 35.5149 3.21489 35.2887C2.89281 35.0625 2.64802 34.7428 2.51364 34.3728L0.695534 29.3429C0.477545 28.739 0.40815 28.0914 0.49319 27.455C0.578231 26.8186 0.815207 26.212 1.18412 25.6865C1.55303 25.161 2.04302 24.732 2.61269 24.4358C3.18235 24.1396 3.81495 23.9848 4.45703 23.9846H34.8681C35.5267 23.9847 36.1751 24.1473 36.7557 24.4581C37.3363 24.7689 37.8312 25.2183 38.1965 25.7663C38.5618 26.3143 38.786 26.944 38.8495 27.5996C38.9129 28.2551 38.8135 28.9161 38.5601 29.524L36.5006 34.4625C36.3552 34.8107 36.1101 35.1081 35.796 35.3173C35.4819 35.5264 35.1129 35.6379 34.7355 35.6377V35.6377ZM4.45976 25.8887C4.12335 25.8888 3.79191 25.9699 3.49346 26.1251C3.195 26.2803 2.93831 26.5051 2.74509 26.7805C2.55187 27.0559 2.42778 27.3738 2.38336 27.7072C2.33893 28.0407 2.37547 28.38 2.48986 28.6963L4.30704 33.7263L34.7355 33.7327C34.7376 33.7328 34.7398 33.7323 34.7416 33.7311C34.7434 33.73 34.7448 33.7283 34.7456 33.7263L36.8051 28.7878C36.9379 28.4693 36.9901 28.123 36.9569 27.7796C36.9237 27.4361 36.8062 27.1062 36.6148 26.8191C36.4234 26.532 36.1641 26.2966 35.8599 26.1338C35.5556 25.971 35.2159 25.8859 34.8709 25.886L4.45976 25.8887Z" fill="white"/>
<path d="M24.0848 25.8887H15.4781C15.2438 25.8886 15.0178 25.8022 14.8432 25.646C14.6686 25.4897 14.5576 25.2747 14.5316 25.0419L12.5717 7.32087C12.5677 7.28595 12.5656 7.25085 12.5653 7.21571C12.5867 5.31594 13.3564 3.50122 14.7074 2.16538C16.0583 0.829538 17.8816 0.0803223 19.7815 0.0803223C21.6814 0.0803223 23.5046 0.829538 24.8556 2.16538C26.2065 3.50122 26.9762 5.31594 26.9976 7.21571C26.9976 7.25084 26.9958 7.28593 26.9921 7.32087L25.0314 25.0419C25.0055 25.2748 24.8946 25.4899 24.72 25.6462C24.5453 25.8024 24.3192 25.8888 24.0848 25.8887V25.8887ZM16.3305 23.9846H23.2325L25.0935 7.16539C25.0935 5.75665 24.5339 4.40562 23.5378 3.4095C22.5417 2.41338 21.1906 1.85377 19.7819 1.85377C18.3732 1.85377 17.0221 2.41338 16.026 3.4095C15.0299 4.40562 14.4703 5.75665 14.4703 7.16539L16.3305 23.9846Z" fill="white"/>
<path d="M34.1804 39.9982H5.15114C4.89865 39.9982 4.65648 39.8979 4.47794 39.7193C4.2994 39.5408 4.1991 39.2986 4.1991 39.0461C4.1991 38.7937 4.2994 38.5515 4.47794 38.3729C4.65648 38.1944 4.89865 38.0941 5.15114 38.0941H34.1804C34.4329 38.0941 34.675 38.1944 34.8535 38.3729C35.0321 38.5515 35.1324 38.7937 35.1324 39.0461C35.1324 39.2986 35.0321 39.5408 34.8535 39.7193C34.675 39.8979 34.4329 39.9982 34.1804 39.9982V39.9982Z" fill="white"/>
</g>
<defs>
<clipPath id="clip0_5775_90971">
<rect width="38.4105" height="40" fill="white" transform="translate(0.461426)"/>
</clipPath>
</defs>
</svg>
