<svg width="20" height="18" viewBox="0 0 20 18" fill="none" xmlns="http://www.w3.org/2000/svg">
<path d="M19.9961 7.62304C19.9961 7.60248 19.9961 7.58115 19.9923 7.55983C19.9901 7.53278 19.9853 7.50597 19.9779 7.47985L18.3118 1.33353C18.2081 0.952153 17.982 0.615402 17.6681 0.375176C17.3543 0.134951 16.9702 0.00454523 16.575 0.0040299H3.2947C2.89281 0.00349792 2.50234 0.137724 2.1857 0.385215C1.86905 0.632706 1.64452 0.979197 1.54796 1.36932L0.025079 7.489C0.0186549 7.51864 0.0140733 7.54864 0.011369 7.57884C-0.0385101 8.25511 0.147411 8.92778 0.53752 9.48244V17.6299H8.06893C8.12963 17.6299 8.18974 17.6179 8.24582 17.5947C8.30189 17.5715 8.35282 17.5374 8.39574 17.4945C8.43866 17.4516 8.47272 17.4006 8.49594 17.3446C8.51917 17.2885 8.53112 17.2284 8.53112 17.1677V13.3384C8.53112 13.2875 8.55135 13.2387 8.58733 13.2027C8.62332 13.1667 8.67213 13.1465 8.72302 13.1465H11.6637C11.689 13.1464 11.714 13.1513 11.7374 13.1609C11.7607 13.1705 11.782 13.1846 11.7999 13.2025C11.8178 13.2203 11.832 13.2415 11.8417 13.2648C11.8513 13.2881 11.8563 13.3131 11.8563 13.3384V17.1677C11.8563 17.2903 11.905 17.4078 11.9917 17.4945C12.0784 17.5812 12.1959 17.6299 12.3185 17.6299H19.4677V9.48932C19.8425 8.94143 20.0281 8.2861 19.9961 7.62304ZM0.92814 7.67402L2.44418 1.59239C2.49121 1.40251 2.60057 1.2339 2.75477 1.11352C2.90897 0.993143 3.09908 0.928002 3.2947 0.928457H16.575C16.7673 0.928785 16.9542 0.992189 17.107 1.10896C17.2598 1.22574 17.3701 1.38944 17.421 1.57492L19.074 7.67709C19.0937 8.11635 18.9764 8.55088 18.7382 8.92052C18.6622 8.97515 18.6046 9.05166 18.573 9.13983C18.3567 9.39167 18.0801 9.58447 17.7689 9.70022C17.2693 9.90207 16.7119 9.90776 16.2083 9.71616C15.7046 9.52457 15.292 9.14983 15.0529 8.66695C15.015 8.58936 14.956 8.52398 14.8828 8.47822C14.8096 8.43245 14.725 8.40816 14.6386 8.40809C14.5523 8.40812 14.4677 8.43228 14.3943 8.47789C14.321 8.52351 14.2619 8.58876 14.2237 8.66621C14.0485 9.02162 13.7774 9.32089 13.441 9.53017C13.1046 9.73945 12.7163 9.85038 12.3201 9.85038C11.9239 9.85038 11.5355 9.73945 11.1991 9.53017C10.8627 9.32089 10.5916 9.02162 10.4165 8.66621C10.3784 8.58876 10.3195 8.52352 10.2463 8.47789C10.1731 8.43227 10.0885 8.40809 10.0022 8.40809C9.91596 8.40809 9.83141 8.43227 9.75819 8.47789C9.68498 8.52352 9.62602 8.58876 9.588 8.66621C9.41288 9.02162 9.14178 9.32089 8.80535 9.53017C8.46892 9.73945 8.08061 9.85038 7.6844 9.85038C7.28819 9.85038 6.8999 9.73945 6.56347 9.53017C6.22704 9.32089 5.95592 9.02162 5.7808 8.66621C5.74259 8.58876 5.68348 8.52351 5.61015 8.47789C5.53681 8.43228 5.45218 8.40812 5.36582 8.40809C5.27952 8.40842 5.19504 8.43281 5.12186 8.47854C5.04868 8.52428 4.98972 8.58953 4.9516 8.66695C4.71892 9.13093 4.32578 9.49474 3.84518 9.69079C3.36458 9.88684 2.82915 9.90183 2.33833 9.73299C1.98351 9.61788 1.66733 9.4071 1.4246 9.12384C1.39311 9.04463 1.34043 8.97559 1.27232 8.92433C1.02336 8.55669 0.902399 8.11727 0.92814 7.67402ZM12.78 16.7032V13.3361C12.7798 13.0401 12.6621 12.7563 12.4528 12.547C12.2435 12.3377 11.9597 12.22 11.6637 12.2198H8.72302C8.42709 12.2202 8.14339 12.338 7.93413 12.5472C7.72488 12.7565 7.60715 13.0402 7.60674 13.3361V16.7032H1.45887V10.3429C1.64667 10.4558 1.84669 10.547 2.05508 10.6147C2.63479 10.8093 3.25932 10.827 3.84908 10.6653C4.43884 10.5037 4.96712 10.1701 5.36658 9.7071C5.65302 10.0417 6.0085 10.3103 6.4086 10.4945C6.80871 10.6786 7.24394 10.774 7.6844 10.774C8.12486 10.774 8.5601 10.6786 8.9602 10.4945C9.36031 10.3103 9.7158 10.0417 10.0022 9.7071C10.2887 10.0413 10.6441 10.3096 11.0441 10.4935C11.4441 10.6775 11.8791 10.7727 12.3193 10.7727C12.7595 10.7727 13.1945 10.6775 13.5945 10.4935C13.9944 10.3096 14.3499 10.0413 14.6364 9.7071C14.9199 10.0431 15.2737 10.3128 15.6729 10.497C16.0721 10.6812 16.5069 10.7754 16.9466 10.7731C17.3365 10.7721 17.7232 10.702 18.0887 10.566C18.2469 10.5072 18.3998 10.4348 18.5456 10.3498V16.7024L12.78 16.7032Z" fill="#5CB8B2"/>
</svg>
