<svg width="27" height="24" viewBox="0 0 27 24" fill="none" xmlns="http://www.w3.org/2000/svg">
<path d="M26.628 10.4335C26.628 10.4065 26.628 10.3785 26.623 10.3505C26.6201 10.315 26.6137 10.2798 26.604 10.2455L24.416 2.17352C24.2798 1.67266 23.9828 1.23041 23.5706 0.914919C23.1585 0.599431 22.654 0.428169 22.135 0.427492H4.69401C4.1662 0.426794 3.6534 0.603073 3.23755 0.928103C2.8217 1.25313 2.52682 1.70818 2.40001 2.22052L0.400014 10.2575C0.391577 10.2964 0.38556 10.3358 0.382009 10.3755C0.316503 11.2636 0.560673 12.1471 1.073 12.8755V23.5755H10.964C11.0437 23.5755 11.1227 23.5598 11.1963 23.5293C11.27 23.4988 11.3368 23.4541 11.3932 23.3977C11.4496 23.3413 11.4943 23.2745 11.5248 23.2008C11.5553 23.1272 11.571 23.0482 11.571 22.9685V17.9395C11.571 17.8727 11.5976 17.8086 11.6448 17.7613C11.6921 17.714 11.7562 17.6875 11.823 17.6875H15.685C15.7182 17.6874 15.7511 17.6938 15.7818 17.7064C15.8124 17.719 15.8403 17.7376 15.8639 17.761C15.8874 17.7844 15.906 17.8122 15.9187 17.8428C15.9314 17.8735 15.938 17.9063 15.938 17.9395V22.9685C15.938 23.1295 16.002 23.2839 16.1158 23.3977C16.2296 23.5115 16.384 23.5755 16.545 23.5755H25.934V12.8845C26.4263 12.165 26.67 11.3043 26.628 10.4335ZM1.586 10.5005L3.57702 2.51349C3.63878 2.26412 3.78241 2.04268 3.98491 1.88458C4.18742 1.72649 4.4371 1.64094 4.69401 1.64154H22.135C22.3876 1.64197 22.633 1.72524 22.8337 1.8786C23.0344 2.03196 23.1793 2.24695 23.246 2.49054L25.417 10.5045C25.4429 11.0814 25.2887 11.6521 24.976 12.1375C24.8761 12.2093 24.8005 12.3097 24.759 12.4255C24.475 12.7563 24.1116 13.0095 23.703 13.1615C23.0469 13.4266 22.3148 13.4341 21.6534 13.1824C20.992 12.9308 20.45 12.4387 20.136 11.8045C20.0862 11.7026 20.0088 11.6167 19.9127 11.5566C19.8165 11.4965 19.7054 11.4646 19.592 11.4645C19.4786 11.4646 19.3674 11.4963 19.2711 11.5562C19.1748 11.6161 19.0972 11.7018 19.047 11.8035C18.817 12.2703 18.461 12.6633 18.0191 12.9382C17.5773 13.213 17.0674 13.3587 16.547 13.3587C16.0267 13.3587 15.5167 13.213 15.0749 12.9382C14.633 12.6633 14.277 12.2703 14.047 11.8035C13.9971 11.7018 13.9197 11.6161 13.8235 11.5562C13.7273 11.4963 13.6163 11.4645 13.503 11.4645C13.3897 11.4645 13.2787 11.4963 13.1825 11.5562C13.0864 11.6161 13.0089 11.7018 12.959 11.8035C12.729 12.2703 12.373 12.6633 11.9311 12.9382C11.4893 13.213 10.9793 13.3587 10.459 13.3587C9.93866 13.3587 9.42871 13.213 8.98688 12.9382C8.54505 12.6633 8.18899 12.2703 7.959 11.8035C7.90882 11.7018 7.83119 11.6161 7.73488 11.5562C7.63857 11.4963 7.52743 11.4646 7.41401 11.4645C7.30068 11.465 7.18972 11.497 7.09362 11.5571C6.99751 11.6171 6.92007 11.7028 6.87002 11.8045C6.56444 12.4138 6.04813 12.8916 5.41695 13.1491C4.78578 13.4066 4.08261 13.4263 3.43801 13.2045C2.97202 13.0534 2.55678 12.7765 2.23801 12.4045C2.19665 12.3005 2.12746 12.2098 2.03801 12.1425C1.71106 11.6597 1.5522 11.0826 1.586 10.5005ZM17.151 22.3585V17.9365C17.1508 17.5478 16.9962 17.1751 16.7213 16.9002C16.4465 16.6253 16.0737 16.4708 15.685 16.4705H11.823C11.4344 16.4711 11.0618 16.6256 10.787 16.9005C10.5122 17.1753 10.3575 17.5479 10.357 17.9365V22.3585H2.28301V14.0055C2.52965 14.1538 2.79234 14.2735 3.06601 14.3625C3.82735 14.6181 4.64755 14.6412 5.42208 14.429C6.19661 14.2167 6.8904 13.7786 7.41501 13.1705C7.79119 13.61 8.25804 13.9627 8.7835 14.2046C9.30896 14.4465 9.88055 14.5717 10.459 14.5717C11.0375 14.5717 11.6091 14.4465 12.1345 14.2046C12.66 13.9627 13.1268 13.61 13.503 13.1705C13.8793 13.6095 14.346 13.9618 14.8713 14.2034C15.3966 14.4449 15.9679 14.57 16.546 14.57C17.1242 14.57 17.6955 14.4449 18.2207 14.2034C18.746 13.9618 19.2127 13.6095 19.589 13.1705C19.9613 13.6118 20.4261 13.966 20.9503 14.2079C21.4746 14.4498 22.0456 14.5736 22.623 14.5705C23.1352 14.5692 23.643 14.4771 24.123 14.2985C24.3308 14.2213 24.5315 14.1262 24.723 14.0145V22.3575L17.151 22.3585Z" fill="#EF6079"/>
</svg>
