<svg width="47" height="44" viewBox="0 0 47 44" fill="none" xmlns="http://www.w3.org/2000/svg">
<g filter="url(#filter0_ddddd_1276_7670)">
<path d="M36.6279 20.4335C36.6279 20.4065 36.6279 20.3785 36.6229 20.3505C36.62 20.315 36.6136 20.2798 36.6039 20.2455L34.4159 12.1735C34.2797 11.6727 33.9827 11.2304 33.5705 10.9149C33.1584 10.5994 32.6539 10.4282 32.1349 10.4275H14.6939C14.1661 10.4268 13.6533 10.6031 13.2374 10.9281C12.8216 11.2531 12.5267 11.7082 12.3999 12.2205L10.3999 20.2575C10.3915 20.2964 10.3855 20.3358 10.3819 20.3755C10.3164 21.2636 10.5606 22.1471 11.0729 22.8755V33.5755H20.9639C21.0436 33.5755 21.1226 33.5598 21.1962 33.5293C21.2698 33.4988 21.3367 33.4541 21.3931 33.3977C21.4495 33.3413 21.4942 33.2745 21.5247 33.2008C21.5552 33.1272 21.5709 33.0482 21.5709 32.9685V27.9395C21.5709 27.8727 21.5975 27.8086 21.6447 27.7613C21.692 27.714 21.7561 27.6875 21.8229 27.6875H25.6849C25.7181 27.6874 25.751 27.6938 25.7817 27.7064C25.8123 27.719 25.8402 27.7376 25.8637 27.761C25.8872 27.7844 25.9059 27.8122 25.9186 27.8428C25.9313 27.8735 25.9379 27.9063 25.9379 27.9395V32.9685C25.9379 33.1295 26.0019 33.2839 26.1157 33.3977C26.2295 33.5115 26.3839 33.5755 26.5449 33.5755H35.9339V22.8845C36.4262 22.165 36.6699 21.3043 36.6279 20.4335ZM11.5859 20.5005L13.5769 12.5135C13.6387 12.2641 13.7823 12.0427 13.9848 11.8846C14.1873 11.7265 14.437 11.6409 14.6939 11.6415H32.1349C32.3875 11.642 32.6329 11.7252 32.8336 11.8786C33.0343 12.032 33.1792 12.2469 33.2459 12.4905L35.4169 20.5045C35.4428 21.0814 35.2886 21.6521 34.9759 22.1375C34.876 22.2093 34.8004 22.3097 34.7589 22.4255C34.4749 22.7563 34.1115 23.0095 33.7029 23.1615C33.0468 23.4266 32.3147 23.4341 31.6533 23.1824C30.9919 22.9308 30.4499 22.4387 30.1359 21.8045C30.0861 21.7026 30.0087 21.6167 29.9126 21.5566C29.8164 21.4965 29.7053 21.4646 29.5919 21.4645C29.4785 21.4646 29.3673 21.4963 29.271 21.5562C29.1747 21.6161 29.0971 21.7018 29.0469 21.8035C28.8169 22.2703 28.4608 22.6633 28.019 22.9382C27.5772 23.213 27.0673 23.3587 26.5469 23.3587C26.0266 23.3587 25.5166 23.213 25.0748 22.9382C24.6329 22.6633 24.2769 22.2703 24.0469 21.8035C23.997 21.7018 23.9196 21.6161 23.8234 21.5562C23.7272 21.4963 23.6162 21.4645 23.5029 21.4645C23.3896 21.4645 23.2786 21.4963 23.1824 21.5562C23.0863 21.6161 23.0088 21.7018 22.9589 21.8035C22.7289 22.2703 22.3729 22.6633 21.931 22.9382C21.4892 23.213 20.9792 23.3587 20.4589 23.3587C19.9386 23.3587 19.4286 23.213 18.9868 22.9382C18.5449 22.6633 18.1889 22.2703 17.9589 21.8035C17.9087 21.7018 17.8311 21.6161 17.7348 21.5562C17.6385 21.4963 17.5273 21.4646 17.4139 21.4645C17.3006 21.465 17.1896 21.497 17.0935 21.5571C16.9974 21.6171 16.92 21.7028 16.8699 21.8045C16.5643 22.4138 16.048 22.8916 15.4168 23.1491C14.7857 23.4066 14.0825 23.4263 13.4379 23.2045C12.9719 23.0534 12.5567 22.7765 12.2379 22.4045C12.1965 22.3005 12.1274 22.2098 12.0379 22.1425C11.711 21.6597 11.5521 21.0826 11.5859 20.5005ZM27.1509 32.3585V27.9365C27.1507 27.5478 26.9961 27.1751 26.7212 26.9002C26.4464 26.6253 26.0736 26.4708 25.6849 26.4705H21.8229C21.4343 26.4711 21.0617 26.6256 20.7869 26.9005C20.5121 27.1753 20.3574 27.5479 20.3569 27.9365V32.3585H12.2829V24.0055C12.5295 24.1538 12.7922 24.2735 13.0659 24.3625C13.8272 24.6181 14.6474 24.6412 15.422 24.429C16.1965 24.2167 16.8903 23.7786 17.4149 23.1705C17.7911 23.61 18.2579 23.9627 18.7834 24.2046C19.3088 24.4465 19.8804 24.5717 20.4589 24.5717C21.0374 24.5717 21.6089 24.4465 22.1344 24.2046C22.6599 23.9627 23.1267 23.61 23.5029 23.1705C23.8792 23.6095 24.3459 23.9618 24.8712 24.2034C25.3964 24.4449 25.9678 24.57 26.5459 24.57C27.124 24.57 27.6954 24.4449 28.2206 24.2034C28.7459 23.9618 29.2126 23.6095 29.5889 23.1705C29.9612 23.6118 30.426 23.966 30.9502 24.2079C31.4745 24.4498 32.0455 24.5736 32.6229 24.5705C33.135 24.5692 33.6429 24.4771 34.1229 24.2985C34.3307 24.2213 34.5314 24.1262 34.7229 24.0145V32.3575L27.1509 32.3585Z" fill="white"/>
</g>
<defs>
<filter id="filter0_ddddd_1276_7670" x="0.37146" y="0.42749" width="46.2611" height="43.1479" filterUnits="userSpaceOnUse" color-interpolation-filters="sRGB">
<feFlood flood-opacity="0" result="BackgroundImageFix"/>
<feColorMatrix in="SourceAlpha" type="matrix" values="0 0 0 0 0 0 0 0 0 0 0 0 0 0 0 0 0 0 127 0" result="hardAlpha"/>
<feOffset/>
<feGaussianBlur stdDeviation="5"/>
<feComposite in2="hardAlpha" operator="out"/>
<feColorMatrix type="matrix" values="0 0 0 0 0.937255 0 0 0 0 0.376471 0 0 0 0 0.47451 0 0 0 1 0"/>
<feBlend mode="normal" in2="BackgroundImageFix" result="effect1_dropShadow_1276_7670"/>
<feColorMatrix in="SourceAlpha" type="matrix" values="0 0 0 0 0 0 0 0 0 0 0 0 0 0 0 0 0 0 127 0" result="hardAlpha"/>
<feOffset/>
<feGaussianBlur stdDeviation="5"/>
<feComposite in2="hardAlpha" operator="out"/>
<feColorMatrix type="matrix" values="0 0 0 0 0.937255 0 0 0 0 0.376471 0 0 0 0 0.47451 0 0 0 1 0"/>
<feBlend mode="normal" in2="effect1_dropShadow_1276_7670" result="effect2_dropShadow_1276_7670"/>
<feColorMatrix in="SourceAlpha" type="matrix" values="0 0 0 0 0 0 0 0 0 0 0 0 0 0 0 0 0 0 127 0" result="hardAlpha"/>
<feOffset/>
<feGaussianBlur stdDeviation="5"/>
<feComposite in2="hardAlpha" operator="out"/>
<feColorMatrix type="matrix" values="0 0 0 0 0.937255 0 0 0 0 0.376471 0 0 0 0 0.47451 0 0 0 1 0"/>
<feBlend mode="normal" in2="effect2_dropShadow_1276_7670" result="effect3_dropShadow_1276_7670"/>
<feColorMatrix in="SourceAlpha" type="matrix" values="0 0 0 0 0 0 0 0 0 0 0 0 0 0 0 0 0 0 127 0" result="hardAlpha"/>
<feOffset/>
<feGaussianBlur stdDeviation="5"/>
<feComposite in2="hardAlpha" operator="out"/>
<feColorMatrix type="matrix" values="0 0 0 0 0.937255 0 0 0 0 0.376471 0 0 0 0 0.47451 0 0 0 1 0"/>
<feBlend mode="normal" in2="effect3_dropShadow_1276_7670" result="effect4_dropShadow_1276_7670"/>
<feColorMatrix in="SourceAlpha" type="matrix" values="0 0 0 0 0 0 0 0 0 0 0 0 0 0 0 0 0 0 127 0" result="hardAlpha"/>
<feOffset/>
<feGaussianBlur stdDeviation="5"/>
<feComposite in2="hardAlpha" operator="out"/>
<feColorMatrix type="matrix" values="0 0 0 0 0.937255 0 0 0 0 0.376471 0 0 0 0 0.47451 0 0 0 1 0"/>
<feBlend mode="normal" in2="effect4_dropShadow_1276_7670" result="effect5_dropShadow_1276_7670"/>
<feBlend mode="normal" in="SourceGraphic" in2="effect5_dropShadow_1276_7670" result="shape"/>
</filter>
</defs>
</svg>
