<svg width="20" height="20" viewBox="0 0 20 20" fill="none" xmlns="http://www.w3.org/2000/svg">
<g clip-path="url(#clip0_1381_13331)">
<path d="M12.6835 15.9934H11.0519" stroke="#5CB8B2" stroke-width="0.900656" stroke-miterlimit="10" stroke-linecap="round"/>
<path d="M16.3134 11.5697V8.32104" stroke="#5CB8B2" stroke-width="0.900656" stroke-miterlimit="10" stroke-linecap="round"/>
<path d="M1.47693 8.32166V15.994H6.90829" stroke="#5CB8B2" stroke-width="0.900656" stroke-miterlimit="10" stroke-linecap="round"/>
<path d="M11.0514 15.9941V12.261C11.0514 12.0917 10.9842 11.9294 10.8645 11.8097C10.7448 11.69 10.5825 11.6228 10.4132 11.6228H7.54642C7.37716 11.6228 7.21482 11.69 7.09513 11.8097C6.97544 11.9294 6.9082 12.0917 6.9082 12.261V15.9941" stroke="#5CB8B2" stroke-width="0.900656" stroke-miterlimit="10" stroke-linecap="round"/>
<path d="M17.3363 6.31253C17.363 6.78306 17.2397 7.24994 16.9842 7.64597C16.7287 8.04199 16.3542 8.34675 15.9145 8.51641C15.3773 8.73013 14.7793 8.73379 14.2395 8.52666C13.6996 8.31953 13.2576 7.91681 13.0012 7.39857C12.8123 7.78154 12.52 8.104 12.1574 8.32948C11.7947 8.55497 11.3762 8.67447 10.9492 8.67447C10.5222 8.67447 10.1036 8.55497 9.741 8.32948C9.37836 8.104 9.08605 7.78154 8.89715 7.39857C8.70832 7.78181 8.41598 8.10453 8.05321 8.3302C7.69044 8.55587 7.27173 8.67547 6.84449 8.67547C6.41726 8.67547 5.99855 8.55587 5.63578 8.3302C5.27301 8.10453 4.98067 7.78181 4.79184 7.39857C4.54468 7.89939 4.12343 8.29295 3.60698 8.50555C3.09054 8.71814 2.5143 8.73517 1.98619 8.55349C1.51481 8.40085 1.10813 8.09478 0.831005 7.68406C0.553877 7.27334 0.422267 6.78164 0.457172 6.2874L0.458221 6.27441L1.80899 2.26544C1.87297 2.00894 2.02088 1.78121 2.22922 1.61847C2.43755 1.45572 2.69432 1.3673 2.95869 1.36731H14.7152C14.9754 1.36727 15.2285 1.45294 15.4352 1.61108C15.6419 1.76921 15.7907 1.991 15.8588 2.2422L17.3334 6.27441C17.335 6.28719 17.335 6.29976 17.3363 6.31253Z" stroke="#5CB8B2" stroke-width="0.900656" stroke-linecap="round" stroke-linejoin="round"/>
<path d="M16.0524 18.5539C17.984 18.5539 19.5499 16.988 19.5499 15.0564C19.5499 13.1248 17.984 11.559 16.0524 11.559C14.1208 11.559 12.5549 13.1248 12.5549 15.0564C12.5549 16.988 14.1208 18.5539 16.0524 18.5539Z" stroke="#5CB8B2" stroke-width="0.900656" stroke-linecap="round" stroke-linejoin="round"/>
<path d="M14.1827 15.0563H17.9221" stroke="#5CB8B2" stroke-width="0.900656" stroke-linecap="round" stroke-linejoin="round"/>
<path d="M16.0526 13.1868V16.9262" stroke="#5CB8B2" stroke-width="0.900656" stroke-linecap="round" stroke-linejoin="round"/>
</g>
<defs>
<clipPath id="clip0_1381_13331">
<rect width="20" height="18.087" fill="white" transform="translate(0 0.916992)"/>
</clipPath>
</defs>
</svg>
