<svg width="21" height="20" viewBox="0 0 21 20" fill="none" xmlns="http://www.w3.org/2000/svg">
<path d="M13.5169 16.0327H11.8853" stroke="#5CB8B2" stroke-width="0.900656" stroke-miterlimit="10" stroke-linecap="round"/>
<path d="M17.1467 11.609V8.36035" stroke="#5CB8B2" stroke-width="0.900656" stroke-miterlimit="10" stroke-linecap="round"/>
<path d="M2.3103 8.36084V16.0332H7.74167" stroke="#5CB8B2" stroke-width="0.900656" stroke-miterlimit="10" stroke-linecap="round"/>
<path d="M11.8847 16.0334V12.3003C11.8847 12.1311 11.8175 11.9687 11.6978 11.849C11.5781 11.7294 11.4157 11.6621 11.2465 11.6621H8.37968C8.21041 11.6621 8.04807 11.7294 7.92838 11.849C7.8087 11.9687 7.74146 12.1311 7.74146 12.3003V16.0334" stroke="#5CB8B2" stroke-width="0.900656" stroke-miterlimit="10" stroke-linecap="round"/>
<path d="M18.1695 6.35196C18.1962 6.82249 18.0729 7.28937 17.8175 7.6854C17.562 8.08142 17.1874 8.38617 16.7478 8.55584C16.2105 8.76956 15.6125 8.77322 15.0727 8.56609C14.5329 8.35896 14.0908 7.95624 13.8345 7.438C13.6456 7.82097 13.3532 8.14343 12.9906 8.36891C12.628 8.59439 12.2095 8.7139 11.7824 8.7139C11.3554 8.7139 10.9369 8.59439 10.5743 8.36891C10.2116 8.14343 9.91931 7.82097 9.7304 7.438C9.54157 7.82124 9.24923 8.14396 8.88646 8.36963C8.52369 8.5953 8.10498 8.7149 7.67775 8.7149C7.25051 8.7149 6.83181 8.5953 6.46904 8.36963C6.10626 8.14396 5.81392 7.82124 5.62509 7.438C5.37793 7.93882 4.95668 8.33238 4.44024 8.54497C3.92379 8.75757 3.34756 8.7746 2.81944 8.59291C2.34807 8.44028 1.94139 8.13421 1.66426 7.72349C1.38713 7.31277 1.25552 6.82107 1.29042 6.32683L1.29147 6.31384L2.64224 2.30487C2.70622 2.04837 2.85414 1.82064 3.06247 1.65789C3.2708 1.49515 3.52758 1.40673 3.79194 1.40674H15.5484C15.8087 1.4067 16.0617 1.49237 16.2684 1.65051C16.4751 1.80864 16.624 2.03043 16.692 2.28163L18.1666 6.31384C18.1683 6.32662 18.1683 6.33919 18.1695 6.35196Z" stroke="#5CB8B2" stroke-width="0.900656" stroke-linecap="round" stroke-linejoin="round"/>
<path d="M16.8857 18.5933C18.8173 18.5933 20.3831 17.0275 20.3831 15.0959C20.3831 13.1643 18.8173 11.5984 16.8857 11.5984C14.9541 11.5984 13.3882 13.1643 13.3882 15.0959C13.3882 17.0275 14.9541 18.5933 16.8857 18.5933Z" stroke="#5CB8B2" stroke-width="0.900656" stroke-linecap="round" stroke-linejoin="round"/>
<path d="M15.0161 15.0957H18.7555" stroke="#5CB8B2" stroke-width="0.900656" stroke-linecap="round" stroke-linejoin="round"/>
<path d="M16.8857 13.2263V16.9657" stroke="#5CB8B2" stroke-width="0.900656" stroke-linecap="round" stroke-linejoin="round"/>
<g clip-path="url(#clip0_6004_92455)">
<rect x="13.0332" y="11.2466" width="7.78" height="7.78" rx="3.89" fill="white"/>
<path d="M20.4632 15.1366C20.4632 17.0919 18.8785 18.6766 16.9232 18.6766C14.9679 18.6766 13.3832 17.0919 13.3832 15.1366C13.3832 13.1813 14.9679 11.5966 16.9232 11.5966C18.8785 11.5966 20.4632 13.1813 20.4632 15.1366ZM16.3301 15.7297V16.0022H16.3154C15.92 16.0022 15.6007 16.3215 15.6007 16.7169C15.6007 17.1123 15.92 17.4316 16.3154 17.4316H17.531C17.9264 17.4316 18.2457 17.1123 18.2457 16.7169C18.2457 16.4014 18.0424 16.1344 17.7595 16.0393V15.015C17.7595 14.7392 17.6041 14.5005 17.376 14.3813C17.6068 14.2325 17.7595 13.9732 17.7595 13.6778C17.7595 13.2156 17.3855 12.8416 16.9232 12.8416C16.4609 12.8416 16.087 13.2156 16.087 13.6778C16.087 13.9252 16.1941 14.1473 16.3645 14.3003H16.3154C15.92 14.3003 15.6007 14.6196 15.6007 15.015C15.6007 15.4104 15.92 15.7297 16.3154 15.7297H16.3301Z" fill="white" stroke="#5CB8B2" stroke-width="0.7"/>
</g>
<defs>
<clipPath id="clip0_6004_92455">
<rect x="13.0332" y="11.2466" width="7.78" height="7.78" rx="3.89" fill="white"/>
</clipPath>
</defs>
</svg>
