<svg width="27" height="24" viewBox="0 0 27 24" fill="none" xmlns="http://www.w3.org/2000/svg">
<path d="M26.8961 10.4335C26.8961 10.4065 26.8961 10.3785 26.8911 10.3505C26.8881 10.315 26.8818 10.2798 26.8721 10.2455L24.6841 2.17352C24.5479 1.67266 24.2509 1.23041 23.8387 0.914919C23.4266 0.599431 22.9221 0.428169 22.4031 0.427492H4.96209C4.43429 0.426794 3.92148 0.603073 3.50564 0.928103C3.08979 1.25313 2.7949 1.70818 2.6681 2.22052L0.668096 10.2575C0.659659 10.2964 0.653642 10.3358 0.650091 10.3755C0.584584 11.2636 0.828755 12.1471 1.34108 12.8755V23.5755H11.2321C11.3118 23.5755 11.3907 23.5598 11.4644 23.5293C11.538 23.4988 11.6049 23.4541 11.6613 23.3977C11.7177 23.3413 11.7624 23.2745 11.7929 23.2008C11.8234 23.1272 11.8391 23.0482 11.8391 22.9685V17.9395C11.8391 17.8727 11.8656 17.8086 11.9129 17.7613C11.9602 17.714 12.0243 17.6875 12.0911 17.6875H15.9531C15.9863 17.6874 16.0192 17.6938 16.0498 17.7064C16.0805 17.719 16.1084 17.7376 16.1319 17.761C16.1554 17.7844 16.1741 17.8122 16.1868 17.8428C16.1995 17.8735 16.2061 17.9063 16.2061 17.9395V22.9685C16.2061 23.1295 16.2701 23.2839 16.3839 23.3977C16.4977 23.5115 16.6521 23.5755 16.8131 23.5755H26.2021V12.8845C26.6943 12.165 26.938 11.3043 26.8961 10.4335V10.4335ZM1.85409 10.5005L3.8451 2.51349C3.90686 2.26412 4.05049 2.04267 4.253 1.88458C4.4555 1.72649 4.70518 1.64094 4.96209 1.64154H22.4031C22.6557 1.64197 22.9011 1.72524 23.1018 1.8786C23.3025 2.03196 23.4473 2.24695 23.5141 2.49054L25.6851 10.5045C25.711 11.0814 25.5568 11.6521 25.2441 12.1375C25.1442 12.2093 25.0685 12.3097 25.0271 12.4255C24.7431 12.7563 24.3797 13.0095 23.9711 13.1615C23.315 13.4266 22.5829 13.4341 21.9215 13.1824C21.2601 12.9308 20.7181 12.4387 20.4041 11.8045C20.3543 11.7026 20.2769 11.6167 20.1808 11.5566C20.0846 11.4965 19.9735 11.4646 19.8601 11.4645V11.4645C19.7467 11.4646 19.6355 11.4963 19.5392 11.5562C19.4429 11.6161 19.3653 11.7018 19.3151 11.8035C19.0851 12.2703 18.729 12.6633 18.2872 12.9382C17.8454 13.213 17.3354 13.3587 16.8151 13.3587C16.2948 13.3587 15.7848 13.213 15.343 12.9382C14.9011 12.6633 14.5451 12.2703 14.3151 11.8035C14.2652 11.7018 14.1877 11.6161 14.0916 11.5562C13.9954 11.4963 13.8844 11.4645 13.7711 11.4645C13.6578 11.4645 13.5468 11.4963 13.4506 11.5562C13.3544 11.6161 13.277 11.7018 13.2271 11.8035C12.9971 12.2703 12.6411 12.6633 12.1992 12.9382C11.7574 13.213 11.2474 13.3587 10.7271 13.3587C10.2067 13.3587 9.69679 13.213 9.25496 12.9382C8.81313 12.6633 8.45707 12.2703 8.22709 11.8035C8.17691 11.7018 8.09927 11.6161 8.00297 11.5562C7.90666 11.4963 7.79551 11.4646 7.68209 11.4645V11.4645C7.56876 11.465 7.45781 11.497 7.3617 11.5571C7.26559 11.6171 7.18816 11.7028 7.1381 11.8045C6.83252 12.4138 6.31621 12.8916 5.68503 13.1491C5.05386 13.4066 4.35069 13.4263 3.70609 13.2045C3.2401 13.0534 2.82486 12.7765 2.50609 12.4045C2.46473 12.3005 2.39554 12.2098 2.3061 12.1425C1.97914 11.6597 1.82028 11.0826 1.85409 10.5005V10.5005ZM17.4191 22.3585V17.9365C17.4188 17.5478 17.2643 17.1751 16.9894 16.9002C16.7145 16.6253 16.3418 16.4708 15.9531 16.4705H12.0911C11.7025 16.4711 11.3299 16.6256 11.0551 16.9005C10.7802 17.1753 10.6256 17.5479 10.6251 17.9365V22.3585H2.55109V14.0055C2.79773 14.1538 3.06042 14.2735 3.3341 14.3625C4.09543 14.6181 4.91563 14.6412 5.69016 14.429C6.46469 14.2167 7.15848 13.7786 7.6831 13.1705C8.05927 13.61 8.52612 13.9627 9.05158 14.2046C9.57704 14.4465 10.1486 14.5717 10.7271 14.5717C11.3055 14.5717 11.8771 14.4465 12.4026 14.2046C12.928 13.9627 13.3949 13.61 13.7711 13.1705C14.1474 13.6095 14.6141 13.9618 15.1394 14.2034C15.6646 14.4449 16.2359 14.57 16.8141 14.57C17.3922 14.57 17.9636 14.4449 18.4888 14.2034C19.0141 13.9618 19.4808 13.6095 19.8571 13.1705C20.2294 13.6118 20.6941 13.966 21.2184 14.2079C21.7427 14.4498 22.3137 14.5736 22.8911 14.5705C23.4032 14.5692 23.9111 14.4771 24.3911 14.2985C24.5989 14.2213 24.7996 14.1262 24.9911 14.0145V22.3575L17.4191 22.3585Z" fill="white"/>
</svg>
