<svg width="49" height="40" viewBox="0 0 49 40" fill="none" xmlns="http://www.w3.org/2000/svg">
<g clip-path="url(#clip0_5775_90959)">
<path d="M46.9269 16.3403C46.7857 16.3405 46.6458 16.3127 46.5152 16.2588C46.3846 16.2048 46.266 16.1257 46.1661 16.0258C46.0661 15.926 45.9868 15.8074 45.9327 15.6769C45.8786 15.5464 45.8508 15.4065 45.8508 15.2652V6.15123H36.5075L33.8534 10.2748C33.7561 10.4262 33.6223 10.5507 33.4643 10.6369C33.3063 10.7231 33.1293 10.7683 32.9493 10.7683C32.7693 10.7683 32.5923 10.7231 32.4343 10.6369C32.2763 10.5507 32.1425 10.4262 32.0452 10.2748L29.3911 6.15123H2.81596V15.2652C2.80722 15.5447 2.69007 15.8098 2.4893 16.0043C2.28854 16.1989 2.01993 16.3077 1.74035 16.3077C1.46077 16.3077 1.19216 16.1989 0.991394 16.0043C0.790633 15.8098 0.673474 15.5447 0.664734 15.2652V5.07509C0.665013 4.78986 0.778519 4.51642 0.980303 4.31483C1.18209 4.11324 1.45565 4 1.74088 4H29.9739C30.1537 4.00018 30.3307 4.04544 30.4885 4.13162C30.6464 4.21781 30.7801 4.34216 30.8775 4.49335L32.9456 7.70599L35.0116 4.49335C35.1091 4.34201 35.243 4.21756 35.4011 4.13136C35.5591 4.04517 35.7363 4 35.9163 4H46.9269C47.212 4.00028 47.4853 4.11366 47.6868 4.31522C47.8884 4.51677 48.0017 4.79004 48.002 5.07509V15.2652C48.002 15.4064 47.9742 15.5462 47.9202 15.6766C47.8662 15.8071 47.787 15.9256 47.6871 16.0254C47.5873 16.1253 47.4688 16.2044 47.3384 16.2585C47.2079 16.3125 47.0681 16.3403 46.9269 16.3403V16.3403Z" fill="white"/>
<path d="M46.9269 36H35.9163C35.7361 36 35.5589 35.9547 35.4008 35.8683C35.2427 35.7819 35.1089 35.6572 35.0116 35.5056L32.9456 32.2909L30.8785 35.5056C30.7812 35.6571 30.6473 35.7818 30.4893 35.8682C30.3312 35.9546 30.154 35.9999 29.9739 36H1.74086C1.45545 36 1.18172 35.8866 0.97991 35.6848C0.778096 35.483 0.66471 35.2093 0.66471 34.9239V24.7348C0.660204 24.5907 0.684706 24.4472 0.736733 24.3128C0.788759 24.1783 0.867258 24.0557 0.967583 23.9522C1.06791 23.8487 1.188 23.7664 1.32074 23.7102C1.45349 23.654 1.59617 23.625 1.74033 23.625C1.88448 23.625 2.02716 23.654 2.15991 23.7102C2.29265 23.7664 2.41274 23.8487 2.51307 23.9522C2.61339 24.0557 2.69191 24.1783 2.74393 24.3128C2.79596 24.4472 2.82045 24.5907 2.81594 24.7348V33.8509H29.3858L32.0399 29.7231C32.1375 29.5715 32.2715 29.4469 32.4298 29.3605C32.588 29.2741 32.7653 29.2288 32.9456 29.2287C33.1257 29.2289 33.3029 29.2742 33.4609 29.3606C33.619 29.447 33.7528 29.5716 33.8503 29.7231L36.5075 33.8509H45.855V24.7369C45.855 24.5956 45.8828 24.4558 45.9369 24.3253C45.9909 24.1948 46.0701 24.0762 46.17 23.9763C46.2699 23.8764 46.3885 23.7972 46.519 23.7432C46.6495 23.6891 46.7894 23.6613 46.9306 23.6613C47.0719 23.6613 47.2117 23.6891 47.3422 23.7432C47.4727 23.7972 47.5913 23.8764 47.6912 23.9763C47.7911 24.0762 47.8703 24.1948 47.9243 24.3253C47.9784 24.4558 48.0062 24.5956 48.0062 24.7369V34.926C48.0059 35.0674 47.9778 35.2073 47.9234 35.3379C47.869 35.4684 47.7894 35.5869 47.6892 35.6867C47.5889 35.7864 47.47 35.8655 47.3392 35.9192C47.2084 35.973 47.0683 36.0004 46.9269 36V36Z" fill="white"/>
<path d="M32.8836 14.8855C32.7423 14.8856 32.6024 14.8579 32.4718 14.804C32.3413 14.75 32.2226 14.6708 32.1227 14.5709C32.0227 14.4711 31.9435 14.3526 31.8894 14.2221C31.8353 14.0916 31.8074 13.9517 31.8074 13.8104V9.95924C31.8074 9.67397 31.9208 9.40038 32.1225 9.19867C32.3242 8.99695 32.5978 8.88364 32.883 8.88364C33.1683 8.88364 33.4419 8.99695 33.6436 9.19867C33.8453 9.40038 33.9586 9.67397 33.9586 9.95924V13.8104C33.9586 14.0955 33.8454 14.369 33.6438 14.5706C33.4421 14.7722 33.1687 14.8855 32.8836 14.8855Z" fill="white"/>
<path d="M32.8836 23.4367C32.5983 23.4367 32.3248 23.3235 32.123 23.1219C31.9212 22.9203 31.8077 22.6468 31.8074 22.3616V18.5094C31.8074 18.2241 31.9208 17.9505 32.1225 17.7488C32.3242 17.5471 32.5978 17.4338 32.883 17.4338C33.1683 17.4338 33.4419 17.5471 33.6436 17.7488C33.8453 17.9505 33.9586 18.2241 33.9586 18.5094V22.3616C33.9584 22.6467 33.845 22.9199 33.6434 23.1215C33.4419 23.323 33.1686 23.4364 32.8836 23.4367V23.4367Z" fill="white"/>
<path d="M32.8836 31.9889C32.7423 31.9891 32.6024 31.9614 32.4718 31.9074C32.3413 31.8535 32.2226 31.7743 32.1227 31.6744C32.0227 31.5746 31.9435 31.456 31.8894 31.3255C31.8353 31.195 31.8074 31.0552 31.8074 30.9139V27.0627C31.8074 26.7775 31.9208 26.5039 32.1225 26.3022C32.3242 26.1004 32.5978 25.9871 32.883 25.9871C33.1683 25.9871 33.4419 26.1004 33.6436 26.3022C33.8453 26.5039 33.9586 26.7775 33.9586 27.0627V30.9139C33.9586 31.199 33.8454 31.4725 33.6438 31.6741C33.4421 31.8757 33.1687 31.9889 32.8836 31.9889Z" fill="white"/>
<path d="M1.7409 25.8099C1.45563 25.8099 1.18204 25.6966 0.980323 25.4948C0.778607 25.2931 0.665283 25.0195 0.665283 24.7343C0.665283 24.449 0.778607 24.1754 0.980323 23.9737C1.18204 23.772 1.45563 23.6587 1.7409 23.6587C2.22665 23.6669 2.70917 23.5783 3.16033 23.3982C3.6115 23.218 4.02228 22.9497 4.36871 22.6091C4.71513 22.2685 4.99028 21.8624 5.1781 21.4143C5.36591 20.9663 5.46264 20.4853 5.46264 19.9995C5.46264 19.5137 5.36591 19.0327 5.1781 18.5846C4.99028 18.1366 4.71513 17.7305 4.36871 17.3899C4.02228 17.0492 3.6115 16.781 3.16033 16.6008C2.70917 16.4206 2.22665 16.3321 1.7409 16.3403C1.45577 16.3403 1.18231 16.227 0.980692 16.0254C0.779075 15.8238 0.665813 15.5504 0.665813 15.2652C0.665813 14.9801 0.779075 14.7067 0.980692 14.505C1.18231 14.3034 1.45577 14.1901 1.7409 14.1901C3.28177 14.1901 4.75953 14.8023 5.84909 15.8918C6.93865 16.9814 7.55075 18.4591 7.55075 20C7.55075 21.5409 6.93865 23.0186 5.84909 24.1082C4.75953 25.1978 3.28177 25.8099 1.7409 25.8099Z" fill="white"/>
<path d="M46.9269 25.8099C45.3861 25.8099 43.9083 25.1978 42.8187 24.1082C41.7292 23.0186 41.1171 21.5409 41.1171 20C41.1171 18.4591 41.7292 16.9814 42.8187 15.8918C43.9083 14.8023 45.3861 14.1901 46.9269 14.1901C47.2121 14.1901 47.4855 14.3034 47.6871 14.505C47.8888 14.7067 48.002 14.9801 48.002 15.2652C48.002 15.5504 47.8888 15.8238 47.6871 16.0254C47.4855 16.227 47.2121 16.3403 46.9269 16.3403C46.4412 16.3321 45.9587 16.4206 45.5075 16.6008C45.0563 16.781 44.6456 17.0492 44.2991 17.3899C43.9527 17.7305 43.6776 18.1366 43.4897 18.5846C43.3019 19.0327 43.2052 19.5137 43.2052 19.9995C43.2052 20.4853 43.3019 20.9663 43.4897 21.4143C43.6776 21.8624 43.9527 22.2685 44.2991 22.6091C44.6456 22.9497 45.0563 23.218 45.5075 23.3982C45.9587 23.5783 46.4412 23.6669 46.9269 23.6587C47.2122 23.6587 47.4858 23.772 47.6875 23.9737C47.8892 24.1754 48.0025 24.449 48.0025 24.7343C48.0025 25.0195 47.8892 25.2931 47.6875 25.4948C47.4858 25.6966 47.2122 25.8099 46.9269 25.8099Z" fill="white"/>
<path d="M26.5141 21.5116H19.2041C18.919 21.5116 18.6455 21.3984 18.4439 21.1967C18.2423 20.9951 18.129 20.7217 18.129 20.4366C18.129 20.1514 18.2423 19.878 18.4439 19.6764C18.6455 19.4747 18.919 19.3615 19.2041 19.3615H26.5141C26.7992 19.3615 27.0726 19.4747 27.2742 19.6764C27.4759 19.878 27.5891 20.1514 27.5891 20.4366C27.5891 20.7217 27.4759 20.9951 27.2742 21.1967C27.0726 21.3984 26.7992 21.5116 26.5141 21.5116Z" fill="white"/>
<path d="M26.9348 26.7282H12.4296C12.1502 26.7195 11.8851 26.6023 11.6905 26.4016C11.496 26.2008 11.3871 25.9322 11.3871 25.6526C11.3871 25.373 11.496 25.1044 11.6905 24.9037C11.8851 24.7029 12.1502 24.5858 12.4296 24.577H26.9348C27.0789 24.5725 27.2224 24.597 27.3569 24.649C27.4913 24.701 27.6139 24.7795 27.7174 24.8799C27.8209 24.9802 27.9032 25.1003 27.9594 25.2331C28.0156 25.3658 28.0446 25.5085 28.0446 25.6526C28.0446 25.7968 28.0156 25.9394 27.9594 26.0722C27.9032 26.2049 27.8209 26.325 27.7174 26.4253C27.6139 26.5257 27.4913 26.6042 27.3569 26.6562C27.2224 26.7083 27.0789 26.7327 26.9348 26.7282V26.7282Z" fill="white"/>
</g>
<defs>
<clipPath id="clip0_5775_90959">
<rect width="47.3373" height="32" fill="white" transform="translate(0.664734 4)"/>
</clipPath>
</defs>
</svg>
