<svg width="19" height="12" viewBox="0 0 19 12" fill="none" xmlns="http://www.w3.org/2000/svg">
<g clip-path="url(#clip0_2474_40083)">
<path d="M18.2226 4.62762C18.1696 4.62767 18.1171 4.61728 18.0682 4.59704C18.0192 4.5768 17.9747 4.54712 17.9373 4.50968C17.8998 4.47224 17.8701 4.42777 17.8498 4.37883C17.8295 4.32989 17.819 4.27744 17.819 4.22446V0.806711H14.3153L13.32 2.35306C13.2835 2.40981 13.2333 2.4565 13.1741 2.48883C13.1149 2.52115 13.0485 2.5381 12.981 2.5381C12.9135 2.5381 12.8471 2.52115 12.7878 2.48883C12.7286 2.4565 12.6784 2.40981 12.6419 2.35306L11.6467 0.806711H1.68098V4.22446C1.6777 4.32926 1.63377 4.42866 1.55848 4.50162C1.4832 4.57459 1.38247 4.6154 1.27762 4.6154C1.17278 4.6154 1.07205 4.57459 0.996765 4.50162C0.92148 4.42866 0.877545 4.32926 0.874268 4.22446V0.403157C0.874372 0.296197 0.916937 0.193657 0.992606 0.118061C1.06828 0.0424664 1.17086 -5.11022e-08 1.27782 0H11.8652C11.9326 6.64458e-05 11.999 0.0170386 12.0582 0.0493578C12.1174 0.081677 12.1675 0.12831 12.2041 0.185007L12.9796 1.38975L13.7543 0.185007C13.7909 0.128254 13.8411 0.0815837 13.9004 0.0492615C13.9597 0.0169393 14.0261 4.98773e-07 14.0936 0H18.2226C18.3295 0.000104437 18.432 0.0426222 18.5076 0.118206C18.5831 0.19379 18.6256 0.296265 18.6257 0.403157V4.22446C18.6257 4.27741 18.6153 4.32982 18.5951 4.37874C18.5748 4.42765 18.5451 4.4721 18.5077 4.50953C18.4702 4.54697 18.4258 4.57666 18.3769 4.59692C18.328 4.61718 18.2755 4.62762 18.2226 4.62762Z" fill="#EF6079"/>
<path d="M18.2226 12H14.0936C14.026 12 13.9595 11.983 13.9003 11.9506C13.841 11.9182 13.7908 11.8715 13.7543 11.8146L12.9796 10.6091L12.2044 11.8146C12.1679 11.8714 12.1177 11.9182 12.0584 11.9506C11.9992 11.983 11.9327 12 11.8652 12H1.27777C1.17075 12 1.0681 11.9575 0.992421 11.8818C0.91674 11.8061 0.874221 11.7035 0.874221 11.5965V7.77554C0.872531 7.72151 0.881719 7.6677 0.901229 7.61728C0.920739 7.56687 0.950176 7.52088 0.987798 7.48207C1.02542 7.44325 1.07045 7.4124 1.12023 7.39132C1.17001 7.37024 1.22352 7.35938 1.27758 7.35938C1.33163 7.35938 1.38514 7.37024 1.43492 7.39132C1.4847 7.4124 1.52973 7.44325 1.56735 7.48207C1.60498 7.52088 1.63442 7.56687 1.65393 7.61728C1.67344 7.6677 1.68262 7.72151 1.68093 7.77554V11.1941H11.6446L12.6399 9.64615C12.6765 9.58932 12.7268 9.54258 12.7861 9.51019C12.8454 9.4778 12.912 9.4608 12.9796 9.46075C13.0471 9.46083 13.1135 9.47784 13.1728 9.51023C13.2321 9.54262 13.2823 9.58935 13.3188 9.64615L14.3153 11.1941H17.8206V7.77634C17.8206 7.72337 17.831 7.67092 17.8513 7.62198C17.8715 7.57304 17.9013 7.52857 17.9387 7.49112C17.9762 7.45367 18.0206 7.42395 18.0696 7.40368C18.1185 7.38341 18.171 7.37299 18.2239 7.37299C18.2769 7.37299 18.3294 7.38341 18.3783 7.40368C18.4272 7.42395 18.4717 7.45367 18.5091 7.49112C18.5466 7.52857 18.5763 7.57304 18.5966 7.62198C18.6169 7.67092 18.6273 7.72337 18.6273 7.77634V11.5972C18.6272 11.6503 18.6166 11.7028 18.5962 11.7517C18.5758 11.8006 18.546 11.8451 18.5084 11.8825C18.4708 11.9199 18.4262 11.9495 18.3772 11.9697C18.3281 11.9899 18.2756 12.0002 18.2226 12Z" fill="#EF6079"/>
<path d="M12.9563 4.08206C12.9033 4.08211 12.8508 4.07172 12.8019 4.05148C12.7529 4.03124 12.7084 4.00155 12.671 3.96411C12.6335 3.92666 12.6037 3.88221 12.5835 3.83327C12.5632 3.78433 12.5527 3.73188 12.5527 3.6789V2.23472C12.5527 2.12774 12.5952 2.02514 12.6709 1.9495C12.7465 1.87386 12.8491 1.83137 12.9561 1.83137C13.0631 1.83137 13.1657 1.87386 13.2413 1.9495C13.3169 2.02514 13.3594 2.12774 13.3594 2.23472V3.6789C13.3594 3.78583 13.317 3.88837 13.2414 3.96397C13.1658 4.03958 13.0632 4.08206 12.9563 4.08206Z" fill="#EF6079"/>
<path d="M12.9563 7.28876C12.8493 7.28876 12.7467 7.2463 12.6711 7.1707C12.5954 7.09511 12.5528 6.99257 12.5527 6.88561V5.44102C12.5527 5.33405 12.5952 5.23145 12.6709 5.15581C12.7465 5.08016 12.8491 5.03767 12.9561 5.03767C13.0631 5.03767 13.1657 5.08016 13.2413 5.15581C13.3169 5.23145 13.3594 5.33405 13.3594 5.44102V6.88561C13.3593 6.9925 13.3168 7.09497 13.2412 7.17056C13.1657 7.24614 13.0632 7.28866 12.9563 7.28876Z" fill="#EF6079"/>
<path d="M12.9563 10.4959C12.9033 10.4959 12.8508 10.4855 12.8019 10.4653C12.7529 10.4451 12.7084 10.4154 12.671 10.3779C12.6335 10.3405 12.6037 10.296 12.5835 10.2471C12.5632 10.1981 12.5527 10.1457 12.5527 10.0927V8.64853C12.5527 8.54155 12.5952 8.43896 12.6709 8.36331C12.7465 8.28767 12.8491 8.24518 12.9561 8.24518C13.0631 8.24518 13.1657 8.28767 13.2413 8.36331C13.3169 8.43896 13.3594 8.54155 13.3594 8.64853V10.0927C13.3594 10.1996 13.317 10.3022 13.2414 10.3778C13.1658 10.4534 13.0632 10.4959 12.9563 10.4959Z" fill="#EF6079"/>
<path d="M1.27787 8.1787C1.17089 8.1787 1.06829 8.13621 0.992651 8.06056C0.917008 7.98492 0.874512 7.88232 0.874512 7.77535C0.874512 7.66837 0.917008 7.56578 0.992651 7.49013C1.06829 7.41449 1.17089 7.372 1.27787 7.372C1.46002 7.37509 1.64097 7.34188 1.81016 7.27431C1.97934 7.20673 2.13339 7.10615 2.2633 6.97842C2.39321 6.8507 2.49639 6.69838 2.56682 6.53036C2.63725 6.36235 2.67352 6.18198 2.67352 5.9998C2.67352 5.81762 2.63725 5.63726 2.56682 5.46924C2.49639 5.30122 2.39321 5.14892 2.2633 5.02119C2.13339 4.89347 1.97934 4.79288 1.81016 4.72531C1.64097 4.65774 1.46002 4.62453 1.27787 4.62762C1.17094 4.62762 1.0684 4.58514 0.99279 4.50953C0.917184 4.43393 0.87471 4.33139 0.87471 4.22446C0.87471 4.11754 0.917184 4.015 0.99279 3.93939C1.0684 3.86378 1.17094 3.8213 1.27787 3.8213C1.85569 3.8213 2.40985 4.05084 2.81844 4.45943C3.22702 4.86801 3.45656 5.42218 3.45656 6.00001C3.45656 6.57783 3.22702 7.13199 2.81844 7.54057C2.40985 7.94916 1.85569 8.1787 1.27787 8.1787Z" fill="#EF6079"/>
<path d="M18.2226 8.1787C17.6448 8.1787 17.0907 7.94916 16.6821 7.54057C16.2735 7.13199 16.0439 6.57783 16.0439 6.00001C16.0439 5.42218 16.2735 4.86801 16.6821 4.45943C17.0907 4.05084 17.6448 3.8213 18.2226 3.8213C18.3296 3.8213 18.4321 3.86378 18.5077 3.93939C18.5833 4.015 18.6258 4.11754 18.6258 4.22446C18.6258 4.33139 18.5833 4.43393 18.5077 4.50953C18.4321 4.58514 18.3296 4.62762 18.2226 4.62762C18.0405 4.62453 17.8595 4.65774 17.6904 4.72531C17.5212 4.79288 17.3671 4.89347 17.2372 5.02119C17.1073 5.14892 17.0041 5.30122 16.9337 5.46924C16.8633 5.63726 16.827 5.81762 16.827 5.9998C16.827 6.18198 16.8633 6.36235 16.9337 6.53036C17.0041 6.69838 17.1073 6.8507 17.2372 6.97842C17.3671 7.10615 17.5212 7.20673 17.6904 7.27431C17.8595 7.34188 18.0405 7.37509 18.2226 7.372C18.3296 7.372 18.4322 7.41449 18.5079 7.49013C18.5835 7.56578 18.626 7.66837 18.626 7.77535C18.626 7.88232 18.5835 7.98492 18.5079 8.06056C18.4322 8.13621 18.3296 8.1787 18.2226 8.1787Z" fill="#EF6079"/>
<path d="M10.5677 6.56687H7.8265C7.71957 6.56687 7.61703 6.52439 7.54142 6.44878C7.46581 6.37317 7.42334 6.27063 7.42334 6.16371C7.42334 6.05679 7.46581 5.95424 7.54142 5.87864C7.61703 5.80303 7.71957 5.76055 7.8265 5.76055H10.5677C10.6746 5.76055 10.7772 5.80303 10.8528 5.87864C10.9284 5.95424 10.9709 6.05679 10.9709 6.16371C10.9709 6.27063 10.9284 6.37317 10.8528 6.44878C10.7772 6.52439 10.6746 6.56687 10.5677 6.56687Z" fill="#EF6079"/>
<path d="M10.7254 8.52309H5.28595C5.18116 8.51981 5.08176 8.47587 5.00879 8.40058C4.93582 8.3253 4.89502 8.22457 4.89502 8.11973C4.89502 8.01488 4.93582 7.91415 5.00879 7.83887C5.08176 7.76358 5.18116 7.71965 5.28595 7.71638H10.7254C10.7794 7.71469 10.8332 7.72387 10.8837 7.74338C10.9341 7.76289 10.9801 7.79233 11.0189 7.82995C11.0577 7.86757 11.0885 7.91262 11.1096 7.96239C11.1307 8.01217 11.1416 8.06567 11.1416 8.11973C11.1416 8.17378 11.1307 8.22729 11.1096 8.27707C11.0885 8.32685 11.0577 8.37188 11.0189 8.4095C10.9801 8.44713 10.9341 8.47657 10.8837 8.49608C10.8332 8.51559 10.7794 8.52478 10.7254 8.52309Z" fill="#EF6079"/>
</g>
<defs>
<clipPath id="clip0_2474_40083">
<rect width="17.7515" height="12" fill="white" transform="translate(0.874268)"/>
</clipPath>
</defs>
</svg>
