<svg width="19" height="12" viewBox="0 0 19 12" fill="none" xmlns="http://www.w3.org/2000/svg">
<g clip-path="url(#clip0_2683_18229)">
<path d="M18.2226 4.62762C18.1696 4.62767 18.1171 4.61728 18.0682 4.59704C18.0192 4.5768 17.9747 4.54712 17.9373 4.50968C17.8998 4.47224 17.8701 4.42777 17.8498 4.37883C17.8295 4.32989 17.819 4.27744 17.819 4.22446V0.806711H14.3153L13.32 2.35306C13.2835 2.40981 13.2333 2.4565 13.1741 2.48883C13.1149 2.52115 13.0485 2.5381 12.981 2.5381C12.9135 2.5381 12.8471 2.52115 12.7878 2.48883C12.7286 2.4565 12.6784 2.40981 12.6419 2.35306L11.6467 0.806711H1.68098V4.22446C1.6777 4.32925 1.63377 4.42866 1.55848 4.50162C1.4832 4.57459 1.38247 4.6154 1.27762 4.6154C1.17278 4.6154 1.07205 4.57459 0.996765 4.50162C0.92148 4.42866 0.877545 4.32925 0.874268 4.22446V0.403157C0.874372 0.296197 0.916937 0.193657 0.992606 0.118061C1.06827 0.0424664 1.17086 -5.11022e-08 1.27782 0H11.8652C11.9326 6.64458e-05 11.999 0.0170386 12.0582 0.0493578C12.1174 0.081677 12.1675 0.12831 12.2041 0.185008L12.9796 1.38975L13.7543 0.185008C13.7909 0.128254 13.8411 0.0815837 13.9004 0.0492615C13.9597 0.0169393 14.0261 4.98773e-07 14.0936 0H18.2226C18.3295 0.000104437 18.432 0.0426222 18.5076 0.118206C18.5831 0.19379 18.6256 0.296265 18.6257 0.403157V4.22446C18.6257 4.27741 18.6153 4.32982 18.5951 4.37874C18.5748 4.42765 18.5451 4.4721 18.5077 4.50953C18.4702 4.54697 18.4258 4.57666 18.3769 4.59692C18.328 4.61718 18.2755 4.62762 18.2226 4.62762V4.62762Z" fill="#333F48"/>
<path d="M18.2226 12H14.0936C14.026 12 13.9595 11.983 13.9003 11.9506C13.841 11.9182 13.7908 11.8714 13.7543 11.8146L12.9796 10.6091L12.2044 11.8146C12.1679 11.8714 12.1177 11.9182 12.0584 11.9506C11.9992 11.983 11.9327 12 11.8652 12H1.27777C1.17075 12 1.0681 11.9575 0.992421 11.8818C0.91674 11.8061 0.874221 11.7035 0.874221 11.5964V7.77553C0.872531 7.7215 0.881719 7.66769 0.901229 7.61728C0.920739 7.56686 0.950176 7.52088 0.987798 7.48206C1.02542 7.44324 1.07045 7.41239 1.12023 7.39131C1.17001 7.37024 1.22352 7.35938 1.27758 7.35938C1.33163 7.35938 1.38514 7.37024 1.43492 7.39131C1.4847 7.41239 1.52973 7.44324 1.56735 7.48206C1.60498 7.52088 1.63442 7.56686 1.65393 7.61728C1.67344 7.66769 1.68262 7.7215 1.68093 7.77553V11.1941H11.6446L12.6399 9.64615C12.6765 9.58932 12.7268 9.54257 12.7861 9.51018C12.8454 9.4778 12.912 9.46079 12.9796 9.46074C13.0471 9.46082 13.1135 9.47783 13.1728 9.51022C13.2321 9.54261 13.2823 9.58935 13.3188 9.64615L14.3153 11.1941H17.8206V7.77633C17.8206 7.72336 17.831 7.67091 17.8513 7.62197C17.8715 7.57303 17.9013 7.52857 17.9387 7.49111C17.9762 7.45366 18.0206 7.42395 18.0696 7.40368C18.1185 7.38341 18.171 7.37298 18.2239 7.37298C18.2769 7.37298 18.3294 7.38341 18.3783 7.40368C18.4272 7.42395 18.4717 7.45366 18.5091 7.49111C18.5466 7.52857 18.5763 7.57303 18.5966 7.62197C18.6169 7.67091 18.6273 7.72336 18.6273 7.77633V11.5972C18.6272 11.6503 18.6166 11.7027 18.5962 11.7517C18.5758 11.8006 18.546 11.8451 18.5084 11.8825C18.4708 11.9199 18.4262 11.9495 18.3772 11.9697C18.3281 11.9899 18.2756 12.0002 18.2226 12V12Z" fill="#333F48"/>
<path d="M12.9563 4.08211C12.9033 4.08216 12.8508 4.07177 12.8019 4.05154C12.7529 4.0313 12.7084 4.0016 12.671 3.96416C12.6335 3.92672 12.6037 3.88226 12.5835 3.83333C12.5632 3.78439 12.5527 3.73193 12.5527 3.67896V2.23477C12.5527 2.12779 12.5952 2.0252 12.6709 1.94955C12.7465 1.87391 12.8491 1.83142 12.9561 1.83142C13.0631 1.83142 13.1657 1.87391 13.2413 1.94955C13.3169 2.0252 13.3594 2.12779 13.3594 2.23477V3.67896C13.3594 3.78588 13.317 3.88842 13.2414 3.96403C13.1658 4.03963 13.0632 4.08211 12.9563 4.08211Z" fill="#333F48"/>
<path d="M12.9563 7.28881C12.8493 7.28881 12.7467 7.24634 12.6711 7.17075C12.5954 7.09515 12.5528 6.99261 12.5527 6.88565V5.44107C12.5527 5.33409 12.5952 5.2315 12.6709 5.15585C12.7465 5.08021 12.8491 5.03772 12.9561 5.03772C13.0631 5.03772 13.1657 5.08021 13.2413 5.15585C13.3169 5.2315 13.3594 5.33409 13.3594 5.44107V6.88565C13.3593 6.99254 13.3168 7.09502 13.2412 7.1706C13.1657 7.24619 13.0632 7.28871 12.9563 7.28881V7.28881Z" fill="#333F48"/>
<path d="M12.9563 10.4958C12.9033 10.4958 12.8508 10.4855 12.8019 10.4652C12.7529 10.445 12.7084 10.4153 12.671 10.3779C12.6335 10.3404 12.6037 10.296 12.5835 10.247C12.5632 10.1981 12.5527 10.1456 12.5527 10.0927V8.64847C12.5527 8.54149 12.5952 8.43889 12.6709 8.36325C12.7465 8.28761 12.8491 8.24512 12.9561 8.24512C13.0631 8.24512 13.1657 8.28761 13.2413 8.36325C13.3169 8.43889 13.3594 8.54149 13.3594 8.64847V10.0927C13.3594 10.1996 13.317 10.3021 13.2414 10.3777C13.1658 10.4533 13.0632 10.4958 12.9563 10.4958Z" fill="#333F48"/>
<path d="M1.27787 8.17868C1.17089 8.17868 1.06829 8.13619 0.992651 8.06055C0.917008 7.98491 0.874512 7.88231 0.874512 7.77533C0.874512 7.66836 0.917008 7.56576 0.992651 7.49012C1.06829 7.41447 1.17089 7.37198 1.27787 7.37198C1.46002 7.37507 1.64097 7.34186 1.81016 7.27429C1.97934 7.20672 2.13339 7.10613 2.2633 6.97841C2.39321 6.85068 2.49639 6.69837 2.56682 6.53035C2.63725 6.36233 2.67352 6.18197 2.67352 5.99979C2.67352 5.8176 2.63725 5.63724 2.56682 5.46923C2.49639 5.30121 2.39321 5.1489 2.2633 5.02118C2.13339 4.89345 1.97934 4.79287 1.81016 4.7253C1.64097 4.65772 1.46002 4.62451 1.27787 4.6276C1.17094 4.6276 1.0684 4.58512 0.99279 4.50952C0.917184 4.43391 0.87471 4.33137 0.87471 4.22445C0.87471 4.11752 0.917184 4.01498 0.99279 3.93937C1.0684 3.86377 1.17094 3.82129 1.27787 3.82129C1.85569 3.82129 2.40985 4.05083 2.81844 4.45941C3.22702 4.868 3.45656 5.42216 3.45656 5.99999C3.45656 6.57782 3.22702 7.13197 2.81844 7.54056C2.40985 7.94914 1.85569 8.17868 1.27787 8.17868Z" fill="#333F48"/>
<path d="M18.2226 8.17868C17.6448 8.17868 17.0907 7.94914 16.6821 7.54056C16.2735 7.13197 16.0439 6.57782 16.0439 5.99999C16.0439 5.42216 16.2735 4.868 16.6821 4.45941C17.0907 4.05083 17.6448 3.82129 18.2226 3.82129C18.3296 3.82129 18.4321 3.86377 18.5077 3.93937C18.5833 4.01498 18.6258 4.11752 18.6258 4.22445C18.6258 4.33137 18.5833 4.43391 18.5077 4.50952C18.4321 4.58512 18.3296 4.6276 18.2226 4.6276C18.0405 4.62451 17.8595 4.65772 17.6904 4.7253C17.5212 4.79287 17.3671 4.89345 17.2372 5.02118C17.1073 5.1489 17.0041 5.30121 16.9337 5.46923C16.8633 5.63724 16.827 5.8176 16.827 5.99979C16.827 6.18197 16.8633 6.36233 16.9337 6.53035C17.0041 6.69837 17.1073 6.85068 17.2372 6.97841C17.3671 7.10613 17.5212 7.20672 17.6904 7.27429C17.8595 7.34186 18.0405 7.37507 18.2226 7.37198C18.3296 7.37198 18.4322 7.41447 18.5079 7.49012C18.5835 7.56576 18.626 7.66836 18.626 7.77533C18.626 7.88231 18.5835 7.98491 18.5079 8.06055C18.4322 8.13619 18.3296 8.17868 18.2226 8.17868Z" fill="#333F48"/>
<path d="M10.5677 6.56681H7.8265C7.71957 6.56681 7.61703 6.52433 7.54142 6.44873C7.46581 6.37312 7.42334 6.27058 7.42334 6.16366C7.42334 6.05673 7.46581 5.95419 7.54142 5.87858C7.61703 5.80298 7.71957 5.7605 7.8265 5.7605H10.5677C10.6746 5.7605 10.7772 5.80298 10.8528 5.87858C10.9284 5.95419 10.9709 6.05673 10.9709 6.16366C10.9709 6.27058 10.9284 6.37312 10.8528 6.44873C10.7772 6.52433 10.6746 6.56681 10.5677 6.56681Z" fill="#333F48"/>
<path d="M10.7254 8.52309H5.28595C5.18116 8.51982 5.08176 8.47588 5.00879 8.40059C4.93582 8.32531 4.89502 8.22458 4.89502 8.11973C4.89502 8.01489 4.93582 7.91416 5.00879 7.83888C5.08176 7.76359 5.18116 7.71966 5.28595 7.71638H10.7254C10.7794 7.71469 10.8332 7.72388 10.8837 7.74339C10.9341 7.7629 10.9801 7.79233 11.0189 7.82995C11.0577 7.86758 11.0885 7.91262 11.1096 7.9624C11.1307 8.01218 11.1416 8.06568 11.1416 8.11973C11.1416 8.17379 11.1307 8.2273 11.1096 8.27708C11.0885 8.32686 11.0577 8.37189 11.0189 8.40951C10.9801 8.44713 10.9341 8.47658 10.8837 8.49609C10.8332 8.5156 10.7794 8.52478 10.7254 8.52309V8.52309Z" fill="#333F48"/>
</g>
<defs>
<clipPath id="clip0_2683_18229">
<rect width="17.7515" height="12" fill="white" transform="translate(0.874268)"/>
</clipPath>
</defs>
</svg>
