<svg width="18" height="18" viewBox="0 0 18 18" fill="none" xmlns="http://www.w3.org/2000/svg">
<g clip-path="url(#clip0_1630_16296)">
<path d="M9.71284 12.2968C9.82956 11.9967 9.75452 11.6549 9.52108 11.4214L7.77861 9.70396L7.80362 9.67894C9.21607 8.10914 10.2713 6.25175 10.8967 4.23477H12.5141C12.9643 4.23477 13.3395 3.8596 13.3395 3.40939V3.39272C13.3395 2.94251 12.9643 2.56734 12.5141 2.56734H7.50349V1.73362C7.50349 1.27508 7.12831 0.899902 6.66977 0.899902C6.21122 0.899902 5.83605 1.27508 5.83605 1.73362V2.56734H0.825411C0.375203 2.56734 3.05176e-05 2.94251 3.05176e-05 3.39272C3.05176e-05 3.85126 0.375203 4.2181 0.825411 4.2181H9.31265C8.74073 5.87253 7.84195 7.39507 6.66977 8.69516C5.99446 7.95315 5.42753 7.14444 4.95231 6.29405C4.8896 6.17594 4.79597 6.07709 4.68143 6.00807C4.56689 5.93905 4.43574 5.90246 4.30201 5.90221C3.72675 5.90221 3.35991 6.52749 3.64337 7.02772C4.16862 7.96982 4.81058 8.87024 5.56092 9.70396L1.91758 13.2973C1.83842 13.3742 1.77549 13.4662 1.73252 13.5679C1.68955 13.6696 1.6674 13.7788 1.6674 13.8892C1.6674 13.9996 1.68955 14.1089 1.73252 14.2105C1.77549 14.3122 1.83842 14.4042 1.91758 14.4812C2.24273 14.8063 2.76797 14.8063 3.10146 14.4812L6.66977 10.9045L8.35388 12.5886C8.77907 13.0138 9.50441 12.8554 9.71284 12.2968V12.2968ZM13.7564 7.56964C13.2561 7.56964 12.8059 7.87811 12.6308 8.35333L9.5711 16.5238C9.37101 17.0323 9.75452 17.5742 10.2964 17.5742C10.6216 17.5742 10.9134 17.3742 11.0301 17.0657L11.7721 15.0731H15.7323L16.4826 17.0657C16.5993 17.3658 16.8911 17.5742 17.2163 17.5742C17.7582 17.5742 18.1417 17.0323 17.95 16.5238L14.8902 8.35333C14.7068 7.87811 14.2566 7.56964 13.7564 7.56964V7.56964ZM12.4057 13.4057L13.7564 9.79566L15.107 13.4057H12.4057V13.4057Z" fill="#EF6079"/>
</g>
<defs>
<clipPath id="clip0_1630_16296">
<rect width="18" height="18" fill="white"/>
</clipPath>
</defs>
</svg>
