<svg width="27" height="26" viewBox="0 0 27 26" fill="none" xmlns="http://www.w3.org/2000/svg">
<path d="M13.5 11.4754C14.6076 11.4754 15.6903 11.147 16.6112 10.5316C17.5321 9.91628 18.2499 9.0417 18.6737 8.01843C19.0976 6.99517 19.2085 5.86919 18.9924 4.7829C18.7763 3.69661 18.243 2.69876 17.4598 1.91559C16.6766 1.13242 15.6788 0.599075 14.5925 0.382998C13.5062 0.16692 12.3802 0.277811 11.357 0.701662C10.3337 1.12551 9.45909 1.84331 8.84375 2.76422C8.22841 3.68514 7.89999 4.76785 7.89999 5.87543C7.90264 7.35983 8.49349 8.78265 9.54312 9.83228C10.5928 10.8819 12.0156 11.4728 13.5 11.4754ZM13.5 1.48041C14.3685 1.48041 15.2174 1.73791 15.9395 2.2204C16.6616 2.70289 17.2244 3.38869 17.5568 4.19104C17.8891 4.99339 17.976 5.87626 17.8066 6.72803C17.6372 7.5798 17.219 8.36223 16.6049 8.97632C15.9908 9.59041 15.2084 10.0086 14.3566 10.178C13.5049 10.3475 12.622 10.2605 11.8196 9.92816C11.0173 9.59582 10.3315 9.03301 9.849 8.31091C9.36651 7.58882 9.10898 6.73986 9.10898 5.8714C9.11136 4.70757 9.57475 3.59206 10.3977 2.76911C11.2207 1.94615 12.3362 1.48279 13.5 1.48041Z" fill="#EF6079"/>
<path d="M19.805 19.1444C19.644 19.1444 19.4896 19.2084 19.3758 19.3222C19.262 19.436 19.198 19.5904 19.198 19.7514V25.0714C19.198 25.2323 19.2619 25.3865 19.3756 25.5002C19.4894 25.614 19.6437 25.6779 19.8045 25.6779C19.9654 25.6779 20.1196 25.614 20.2334 25.5002C20.3471 25.3865 20.411 25.2323 20.411 25.0714V19.7514C20.4111 19.6717 20.3955 19.5928 20.3651 19.5192C20.3347 19.4455 20.2901 19.3786 20.2339 19.3223C20.1776 19.2659 20.1107 19.2211 20.0371 19.1906C19.9636 19.1601 19.8847 19.1444 19.805 19.1444Z" fill="#EF6079"/>
<path d="M7.19501 19.1444C7.03402 19.1444 6.87961 19.2084 6.76578 19.3222C6.65194 19.436 6.58798 19.5904 6.58798 19.7514V25.0714C6.58798 25.2324 6.65194 25.3868 6.76578 25.5006C6.87961 25.6144 7.03402 25.6784 7.19501 25.6784C7.35599 25.6784 7.51037 25.6144 7.62421 25.5006C7.73804 25.3868 7.802 25.2324 7.802 25.0714V19.7514C7.802 19.5904 7.73804 19.436 7.62421 19.3222C7.51037 19.2084 7.35599 19.1444 7.19501 19.1444Z" fill="#EF6079"/>
<path d="M13.5 12.3513C10.114 12.3563 6.86823 13.704 4.47437 16.0986C2.0805 18.4932 0.733948 21.7394 0.72998 25.1254C0.72998 25.2862 0.793882 25.4405 0.907623 25.5542C1.02136 25.6679 1.17563 25.7318 1.33649 25.7318C1.49734 25.7318 1.65161 25.6679 1.76535 25.5542C1.87909 25.4405 1.94299 25.2862 1.94299 25.1254C1.97134 22.0777 3.20191 19.1644 5.36703 17.0193C7.53216 14.8743 10.4567 13.6708 13.5045 13.6708C16.5523 13.6708 19.4768 14.8743 21.642 17.0193C23.8071 19.1644 25.0376 22.0777 25.066 25.1254C25.066 25.2864 25.1299 25.4407 25.2438 25.5546C25.3576 25.6684 25.512 25.7324 25.673 25.7324C25.834 25.7324 25.9884 25.6684 26.1022 25.5546C26.216 25.4407 26.28 25.2864 26.28 25.1254C26.276 21.7377 24.9281 18.4899 22.5321 16.095C20.136 13.7001 16.8877 12.3537 13.5 12.3513Z" fill="#EF6079"/>
</svg>
