<svg width="47" height="46" viewBox="0 0 47 46" fill="none" xmlns="http://www.w3.org/2000/svg">
<g filter="url(#filter0_ddddd_1276_12246)">
<path d="M23.5 21.4754C24.6076 21.4754 25.6903 21.147 26.6112 20.5316C27.5321 19.9163 28.2499 19.0417 28.6737 18.0184C29.0976 16.9952 29.2085 15.8692 28.9924 14.7829C28.7764 13.6966 28.243 12.6988 27.4598 11.9156C26.6766 11.1324 25.6788 10.5991 24.5925 10.383C23.5062 10.1669 22.3803 10.2778 21.357 10.7017C20.3337 11.1255 19.4591 11.8433 18.8438 12.7642C18.2284 13.6851 17.9 14.7679 17.9 15.8754C17.9027 17.3598 18.4935 18.7826 19.5432 19.8323C20.5928 20.8819 22.0156 21.4728 23.5 21.4754ZM23.5 11.4804C24.3685 11.4804 25.2174 11.7379 25.9395 12.2204C26.6616 12.7029 27.2244 13.3887 27.5568 14.191C27.8891 14.9934 27.9761 15.8763 27.8066 16.728C27.6372 17.5798 27.219 18.3622 26.6049 18.9763C25.9908 19.5904 25.2084 20.0086 24.3567 20.178C23.5049 20.3475 22.622 20.2605 21.8197 19.9282C21.0173 19.5958 20.3315 19.033 19.849 18.3109C19.3665 17.5888 19.109 16.7399 19.109 15.8714C19.1114 14.7076 19.5748 13.5921 20.3977 12.7691C21.2207 11.9461 22.3362 11.4828 23.5 11.4804Z" fill="white"/>
<path d="M29.805 29.1444C29.644 29.1444 29.4896 29.2084 29.3758 29.3222C29.262 29.436 29.198 29.5904 29.198 29.7514V35.0714C29.198 35.2323 29.2619 35.3865 29.3756 35.5002C29.4894 35.614 29.6437 35.6779 29.8045 35.6779C29.9654 35.6779 30.1196 35.614 30.2334 35.5002C30.3471 35.3865 30.411 35.2323 30.411 35.0714V29.7514C30.4111 29.6717 30.3955 29.5928 30.3651 29.5192C30.3347 29.4455 30.2901 29.3786 30.2339 29.3223C30.1776 29.2659 30.1107 29.2211 30.0371 29.1906C29.9636 29.1601 29.8847 29.1444 29.805 29.1444Z" fill="white"/>
<path d="M17.195 29.1444C17.0341 29.1444 16.8796 29.2084 16.7658 29.3222C16.652 29.436 16.588 29.5904 16.588 29.7514V35.0714C16.588 35.2324 16.652 35.3868 16.7658 35.5006C16.8796 35.6144 17.0341 35.6784 17.195 35.6784C17.356 35.6784 17.5104 35.6144 17.6242 35.5006C17.7381 35.3868 17.802 35.2324 17.802 35.0714V29.7514C17.802 29.5904 17.7381 29.436 17.6242 29.3222C17.5104 29.2084 17.356 29.1444 17.195 29.1444Z" fill="white"/>
<path d="M23.5 22.3513C20.114 22.3563 16.8682 23.704 14.4744 26.0986C12.0805 28.4932 10.7339 31.7394 10.73 35.1254C10.73 35.2862 10.7939 35.4405 10.9076 35.5542C11.0214 35.6679 11.1756 35.7318 11.3365 35.7318C11.4973 35.7318 11.6516 35.6679 11.7654 35.5542C11.8791 35.4405 11.943 35.2862 11.943 35.1254C11.9713 32.0777 13.2019 29.1644 15.367 27.0193C17.5322 24.8743 20.4567 23.6708 23.5045 23.6708C26.5523 23.6708 29.4768 24.8743 31.642 27.0193C33.8071 29.1644 35.0376 32.0777 35.066 35.1254C35.066 35.2864 35.1299 35.4407 35.2438 35.5546C35.3576 35.6684 35.512 35.7324 35.673 35.7324C35.834 35.7324 35.9884 35.6684 36.1022 35.5546C36.216 35.4407 36.28 35.2864 36.28 35.1254C36.276 31.7377 34.9281 28.4899 32.5321 26.095C30.136 23.7001 26.8877 22.3537 23.5 22.3513Z" fill="white"/>
</g>
<defs>
<filter id="filter0_ddddd_1276_12246" x="0.72998" y="0.275391" width="45.55" height="45.457" filterUnits="userSpaceOnUse" color-interpolation-filters="sRGB">
<feFlood flood-opacity="0" result="BackgroundImageFix"/>
<feColorMatrix in="SourceAlpha" type="matrix" values="0 0 0 0 0 0 0 0 0 0 0 0 0 0 0 0 0 0 127 0" result="hardAlpha"/>
<feOffset/>
<feGaussianBlur stdDeviation="5"/>
<feComposite in2="hardAlpha" operator="out"/>
<feColorMatrix type="matrix" values="0 0 0 0 0.937255 0 0 0 0 0.376471 0 0 0 0 0.47451 0 0 0 1 0"/>
<feBlend mode="normal" in2="BackgroundImageFix" result="effect1_dropShadow_1276_12246"/>
<feColorMatrix in="SourceAlpha" type="matrix" values="0 0 0 0 0 0 0 0 0 0 0 0 0 0 0 0 0 0 127 0" result="hardAlpha"/>
<feOffset/>
<feGaussianBlur stdDeviation="5"/>
<feComposite in2="hardAlpha" operator="out"/>
<feColorMatrix type="matrix" values="0 0 0 0 0.937255 0 0 0 0 0.376471 0 0 0 0 0.47451 0 0 0 1 0"/>
<feBlend mode="normal" in2="effect1_dropShadow_1276_12246" result="effect2_dropShadow_1276_12246"/>
<feColorMatrix in="SourceAlpha" type="matrix" values="0 0 0 0 0 0 0 0 0 0 0 0 0 0 0 0 0 0 127 0" result="hardAlpha"/>
<feOffset/>
<feGaussianBlur stdDeviation="5"/>
<feComposite in2="hardAlpha" operator="out"/>
<feColorMatrix type="matrix" values="0 0 0 0 0.937255 0 0 0 0 0.376471 0 0 0 0 0.47451 0 0 0 1 0"/>
<feBlend mode="normal" in2="effect2_dropShadow_1276_12246" result="effect3_dropShadow_1276_12246"/>
<feColorMatrix in="SourceAlpha" type="matrix" values="0 0 0 0 0 0 0 0 0 0 0 0 0 0 0 0 0 0 127 0" result="hardAlpha"/>
<feOffset/>
<feGaussianBlur stdDeviation="5"/>
<feComposite in2="hardAlpha" operator="out"/>
<feColorMatrix type="matrix" values="0 0 0 0 0.937255 0 0 0 0 0.376471 0 0 0 0 0.47451 0 0 0 1 0"/>
<feBlend mode="normal" in2="effect3_dropShadow_1276_12246" result="effect4_dropShadow_1276_12246"/>
<feColorMatrix in="SourceAlpha" type="matrix" values="0 0 0 0 0 0 0 0 0 0 0 0 0 0 0 0 0 0 127 0" result="hardAlpha"/>
<feOffset/>
<feGaussianBlur stdDeviation="5"/>
<feComposite in2="hardAlpha" operator="out"/>
<feColorMatrix type="matrix" values="0 0 0 0 0.937255 0 0 0 0 0.376471 0 0 0 0 0.47451 0 0 0 1 0"/>
<feBlend mode="normal" in2="effect4_dropShadow_1276_12246" result="effect5_dropShadow_1276_12246"/>
<feBlend mode="normal" in="SourceGraphic" in2="effect5_dropShadow_1276_12246" result="shape"/>
</filter>
</defs>
</svg>
