<svg width="27" height="26" viewBox="0 0 27 26" fill="none" xmlns="http://www.w3.org/2000/svg">
<path d="M13.6762 11.4755C14.7838 11.4755 15.8664 11.147 16.7874 10.5317C17.7083 9.91634 18.426 9.04176 18.8499 8.0185C19.2737 6.99523 19.3847 5.86925 19.1686 4.78296C18.9525 3.69667 18.4191 2.69883 17.636 1.91565C16.8528 1.13248 15.855 0.599136 14.7687 0.383059C13.6824 0.166981 12.5564 0.277872 11.5331 0.701723C10.5099 1.12557 9.63526 1.84337 9.01993 2.76428C8.40459 3.6852 8.07617 4.76791 8.07617 5.87549C8.07882 7.35989 8.66967 8.78271 9.7193 9.83234C10.7689 10.882 12.1918 11.4728 13.6762 11.4755V11.4755ZM13.6762 1.48047C14.5446 1.48047 15.3936 1.73797 16.1157 2.22046C16.8378 2.70295 17.4006 3.38875 17.7329 4.1911C18.0653 4.99345 18.1522 5.87632 17.9828 6.72809C17.8134 7.57986 17.3952 8.36229 16.7811 8.97638C16.167 9.59047 15.3846 10.0087 14.5328 10.1781C13.681 10.3475 12.7982 10.2606 11.9958 9.92822C11.1935 9.59588 10.5077 9.03307 10.0252 8.31098C9.54269 7.58888 9.28516 6.73992 9.28516 5.87146C9.28753 4.70763 9.75093 3.59212 10.5739 2.76917C11.3968 1.94621 12.5123 1.48285 13.6762 1.48047V1.48047Z" fill="white"/>
<path d="M19.9811 19.1445C19.8202 19.1445 19.6658 19.2084 19.5519 19.3223C19.4381 19.4361 19.3741 19.5905 19.3741 19.7515V25.0715C19.3741 25.2323 19.438 25.3866 19.5518 25.5003C19.6655 25.614 19.8198 25.678 19.9807 25.678C20.1415 25.678 20.2958 25.614 20.4095 25.5003C20.5233 25.3866 20.5871 25.2323 20.5871 25.0715V19.7515C20.5873 19.6718 20.5717 19.5929 20.5413 19.5192C20.5109 19.4456 20.4663 19.3787 20.41 19.3223C20.3537 19.2659 20.2869 19.2212 20.2133 19.1907C20.1397 19.1602 20.0608 19.1445 19.9811 19.1445V19.1445Z" fill="white"/>
<path d="M7.37119 19.1445C7.2102 19.1445 7.05579 19.2084 6.94196 19.3223C6.82812 19.4361 6.76416 19.5905 6.76416 19.7515V25.0715C6.76416 25.2325 6.82812 25.3868 6.94196 25.5007C7.05579 25.6145 7.2102 25.6785 7.37119 25.6785C7.53217 25.6785 7.68655 25.6145 7.80038 25.5007C7.91422 25.3868 7.97818 25.2325 7.97818 25.0715V19.7515C7.97818 19.5905 7.91422 19.4361 7.80038 19.3223C7.68655 19.2084 7.53217 19.1445 7.37119 19.1445V19.1445Z" fill="white"/>
<path d="M13.6761 12.3514C10.2902 12.3565 7.04438 13.7041 4.65051 16.0987C2.25665 18.4933 0.910096 21.7395 0.906128 25.1255C0.906128 25.2863 0.97003 25.4406 1.08377 25.5543C1.19751 25.6681 1.35178 25.7319 1.51263 25.7319C1.67349 25.7319 1.82776 25.6681 1.9415 25.5543C2.05524 25.4406 2.11914 25.2863 2.11914 25.1255C2.14748 22.0778 3.37806 19.1646 5.54318 17.0195C7.70831 14.8744 10.6328 13.671 13.6806 13.671C16.7284 13.671 19.653 14.8744 21.8181 17.0195C23.9832 19.1646 25.2138 22.0778 25.2421 25.1255C25.2421 25.2865 25.3061 25.4409 25.4199 25.5547C25.5338 25.6685 25.6882 25.7325 25.8492 25.7325C26.0101 25.7325 26.1645 25.6685 26.2784 25.5547C26.3922 25.4409 26.4561 25.2865 26.4561 25.1255C26.4522 21.7378 25.1042 18.4901 22.7082 16.0952C20.3122 13.7003 17.0638 12.3538 13.6761 12.3514Z" fill="white"/>
</svg>
