<svg width="39" height="32" viewBox="0 0 39 32" fill="none" xmlns="http://www.w3.org/2000/svg">
<g clip-path="url(#clip0_1105_12538)">
<path d="M34.476 29.971H5.276C4.1428 30.002 3.04349 29.5826 2.21881 28.8048C1.39413 28.027 0.911284 26.9541 0.875992 25.821V5.24901C0.911284 4.11593 1.39413 3.043 2.21881 2.26518C3.04349 1.48736 4.1428 1.06804 5.276 1.09901H34.476C35.6092 1.06804 36.7085 1.48736 37.5332 2.26518C38.3579 3.043 38.8407 4.11593 38.876 5.24901V25.821C38.8407 26.9541 38.3579 28.027 37.5332 28.8048C36.7085 29.5826 35.6092 30.002 34.476 29.971ZM5.276 2.72899C4.58771 2.7096 3.91983 2.96405 3.4189 3.43648C2.91797 3.90891 2.6249 4.56076 2.60399 5.24901V25.821C2.6249 26.5092 2.91797 27.1611 3.4189 27.6335C3.91983 28.106 4.58771 28.3604 5.276 28.341H34.476C35.1643 28.3604 35.8322 28.106 36.3331 27.6335C36.834 27.1611 37.1271 26.5092 37.148 25.821V5.24901C37.1271 4.56076 36.834 3.90891 36.3331 3.43648C35.8322 2.96405 35.1643 2.7096 34.476 2.72899H5.276Z" fill="#5CB8B2"/>
<path d="M14.786 20.3999V10.6699C14.7927 10.5368 14.8337 10.4076 14.9051 10.295C14.9765 10.1824 15.0758 10.0902 15.1933 10.0272C15.3109 9.96434 15.4427 9.9329 15.576 9.936C15.7093 9.9391 15.8395 9.97662 15.954 10.0449L24.587 14.9099C24.7006 14.97 24.7958 15.06 24.8621 15.1701C24.9284 15.2802 24.9635 15.4063 24.9635 15.5349C24.9635 15.6635 24.9284 15.7896 24.8621 15.8997C24.7958 16.0099 24.7006 16.0998 24.587 16.1599L15.954 21.0249C15.8395 21.0932 15.7093 21.1307 15.576 21.1338C15.4427 21.1369 15.3109 21.1055 15.1933 21.0426C15.0758 20.9797 14.9765 20.8874 14.9051 20.7748C14.8337 20.6622 14.7927 20.5331 14.786 20.3999Z" fill="#5CB8B2"/>
<path d="M8.057 6.43701H6.408C5.78392 6.43701 5.278 6.94293 5.278 7.56701V8.99601C5.278 9.62009 5.78392 10.126 6.408 10.126H8.057C8.68108 10.126 9.187 9.62009 9.187 8.99601V7.56701C9.187 6.94293 8.68108 6.43701 8.057 6.43701Z" fill="#5CB8B2"/>
<path d="M8.057 13.3411H6.408C5.78392 13.3411 5.278 13.847 5.278 14.4711V15.9001C5.278 16.5241 5.78392 17.0301 6.408 17.0301H8.057C8.68108 17.0301 9.187 16.5241 9.187 15.9001V14.4711C9.187 13.847 8.68108 13.3411 8.057 13.3411Z" fill="#5CB8B2"/>
<path d="M8.057 20.246H6.408C5.78392 20.246 5.278 20.7519 5.278 21.376V22.805C5.278 23.4291 5.78392 23.935 6.408 23.935H8.057C8.68108 23.935 9.187 23.4291 9.187 22.805V21.376C9.187 20.7519 8.68108 20.246 8.057 20.246Z" fill="#5CB8B2"/>
<path d="M33.102 6.43701H31.453C30.8289 6.43701 30.323 6.94293 30.323 7.56701V8.99601C30.323 9.62009 30.8289 10.126 31.453 10.126H33.102C33.7261 10.126 34.232 9.62009 34.232 8.99601V7.56701C34.232 6.94293 33.7261 6.43701 33.102 6.43701Z" fill="#5CB8B2"/>
<path d="M33.102 13.3411H31.453C30.8289 13.3411 30.323 13.847 30.323 14.4711V15.9001C30.323 16.5241 30.8289 17.0301 31.453 17.0301H33.102C33.7261 17.0301 34.232 16.5241 34.232 15.9001V14.4711C34.232 13.847 33.7261 13.3411 33.102 13.3411Z" fill="#5CB8B2"/>
<path d="M33.102 20.246H31.453C30.8289 20.246 30.323 20.7519 30.323 21.376V22.805C30.323 23.4291 30.8289 23.935 31.453 23.935H33.102C33.7261 23.935 34.232 23.4291 34.232 22.805V21.376C34.232 20.7519 33.7261 20.246 33.102 20.246Z" fill="#5CB8B2"/>
</g>
<defs>
<clipPath id="clip0_1105_12538">
<rect width="38" height="28.872" fill="white" transform="translate(0.875 1.099)"/>
</clipPath>
</defs>
</svg>
