<svg width="21" height="18" viewBox="0 0 21 18" fill="none" xmlns="http://www.w3.org/2000/svg">
<path d="M6.7915 0.625C5.27435 0.625 4.0415 1.85784 4.0415 3.375V14.0625C4.0415 14.0781 4.03556 14.0934 4.02272 14.1062C4.00987 14.1191 3.99464 14.125 3.979 14.125C3.96337 14.125 3.94814 14.1191 3.93529 14.1062C3.92245 14.0934 3.9165 14.0781 3.9165 14.0625V4.5C3.9165 3.60159 3.18991 2.875 2.2915 2.875C1.3931 2.875 0.666504 3.60159 0.666504 4.5V14.0625C0.666504 15.8925 2.14896 17.375 3.979 17.375H16.9165C18.4337 17.375 19.6665 16.1422 19.6665 14.625V3.375C19.6665 1.85784 18.4337 0.625 16.9165 0.625H6.7915ZM7.2915 7.03125V4.21875C7.2915 4.02731 7.44382 3.875 7.63525 3.875H16.0728C16.2642 3.875 16.4165 4.02731 16.4165 4.21875V7.03125C16.4165 7.22269 16.2642 7.375 16.0728 7.375H7.63525C7.44382 7.375 7.2915 7.22269 7.2915 7.03125ZM7.354 10.75C7.33837 10.75 7.32314 10.7441 7.31029 10.7312C7.29745 10.7184 7.2915 10.7031 7.2915 10.6875C7.2915 10.6719 7.29745 10.6566 7.31029 10.6438C7.32314 10.6309 7.33837 10.625 7.354 10.625H10.729C10.7446 10.625 10.7599 10.6309 10.7727 10.6438C10.7856 10.6566 10.7915 10.6719 10.7915 10.6875C10.7915 10.7031 10.7856 10.7184 10.7727 10.7312C10.7599 10.7441 10.7446 10.75 10.729 10.75H7.354ZM12.979 10.75C12.9634 10.75 12.9481 10.7441 12.9353 10.7312C12.9224 10.7184 12.9165 10.7031 12.9165 10.6875C12.9165 10.6719 12.9224 10.6566 12.9353 10.6438C12.9481 10.6309 12.9634 10.625 12.979 10.625H16.354C16.3696 10.625 16.3849 10.6309 16.3977 10.6438C16.4106 10.6566 16.4165 10.6719 16.4165 10.6875C16.4165 10.7031 16.4106 10.7184 16.3977 10.7312C16.3849 10.7441 16.3696 10.75 16.354 10.75H12.979ZM7.354 14.125C7.33837 14.125 7.32314 14.1191 7.31029 14.1062C7.29745 14.0934 7.2915 14.0781 7.2915 14.0625C7.2915 14.0469 7.29745 14.0316 7.31029 14.0188C7.32314 14.0059 7.33837 14 7.354 14H10.729C10.7446 14 10.7599 14.0059 10.7727 14.0188C10.7856 14.0316 10.7915 14.0469 10.7915 14.0625C10.7915 14.0781 10.7856 14.0934 10.7727 14.1062C10.7599 14.1191 10.7446 14.125 10.729 14.125H7.354ZM12.979 14.125C12.9634 14.125 12.9481 14.1191 12.9353 14.1062C12.9224 14.0934 12.9165 14.0781 12.9165 14.0625C12.9165 14.0469 12.9224 14.0316 12.9353 14.0188C12.9481 14.0059 12.9634 14 12.979 14H16.354C16.3696 14 16.3849 14.0059 16.3977 14.0188C16.4106 14.0316 16.4165 14.0469 16.4165 14.0625C16.4165 14.0781 16.4106 14.0934 16.3977 14.1062C16.3849 14.1191 16.3696 14.125 16.354 14.125H12.979Z" stroke="#5CB8B2"/>
</svg>
