<svg width="40" height="30" viewBox="0 0 40 30" fill="none" xmlns="http://www.w3.org/2000/svg">
<path d="M33.9031 6.57852L33.6679 6.35895C28.3806 1.29519 21.4956 1.86371 17.861 2.65376C16.5998 2.91454 15.3658 3.29326 14.1754 3.78492C14.0237 3.85208 13.8939 3.96042 13.8006 4.09766C13.7074 4.23489 13.6545 4.39552 13.648 4.56131C13.6415 4.72709 13.6815 4.89138 13.7637 5.03553C13.8458 5.17968 13.9667 5.2979 14.1127 5.37678C14.6792 5.68457 14.991 6.02764 15.0361 6.3962C15.1164 7.0549 14.4656 7.87631 14.1009 8.22722C12.781 9.16621 11.5588 10.2354 10.4526 11.4188C10.4055 11.26 10.3507 11.1031 10.2938 10.9502C10.8878 10.6032 11.3622 9.97984 11.6661 9.13686C11.97 8.30564 12.3071 6.52166 11.4171 5.72965C11.2257 5.56006 10.9863 5.45408 10.7321 5.42634C10.4779 5.3986 10.2213 5.45047 9.9978 5.57478C9.36226 5.89944 8.80912 6.36474 8.38045 6.93531C7.78447 6.62753 6.74152 6.25701 5.70053 6.67654C4.73798 7.06077 4.61055 7.79005 4.60076 8.08412C4.57135 9.02511 5.46136 9.87985 6.30239 10.2759C6.87112 10.5383 7.50298 10.6328 8.12362 10.5484C8.5909 11.2878 8.88138 12.125 8.97248 12.995C8.9749 13.056 8.98478 13.1166 9.00189 13.1753C8.55441 13.781 8.15272 14.4193 7.80015 15.0848C7.49934 14.5824 7.0659 14.1727 6.54744 13.9007C6.08389 13.6699 5.56558 13.5718 5.04977 13.6171C4.53395 13.6624 4.0407 13.8495 3.62448 14.1575C2.51682 14.9593 1.62485 16.7433 2.13455 17.8411C2.2169 18.0195 2.6874 18.8899 3.9499 18.5723C5.31041 18.2391 6.11224 17.0903 6.48666 16.3865C6.72623 17.0334 6.84131 17.7199 6.82584 18.4096C6.8284 18.4683 6.83561 18.5266 6.8474 18.5841C6.78565 19.5413 6.86491 20.5024 7.08264 21.4365C7.53153 23.4508 8.75649 25.2069 10.4918 26.3238L10.5193 26.3395C12.1072 27.1766 13.7147 27.4256 15.2929 27.0825C16.4945 26.8065 17.6083 26.2351 18.5334 25.4201C19.757 26.3344 21.1227 27.0411 22.5758 27.5118C22.5895 27.5158 24.005 27.9882 26.4966 27.9667L26.5692 27.9745C26.5927 27.9764 26.6162 27.9784 26.6397 27.9784L26.675 27.9804C27.4457 27.97 28.2134 27.8827 28.9668 27.7196C34.3501 26.5493 38.2317 21.5953 38.1944 15.9375C38.169 12.3951 36.5261 8.80947 33.9031 6.57852ZM8.0099 8.52325C7.9854 8.66634 7.9736 8.81133 7.97463 8.9565L7.97267 9.10157L7.8276 9.11137C7.77662 9.11333 7.72761 9.11529 7.6786 9.11529C7.41962 9.11888 7.1631 9.06464 6.92775 8.9565C6.60132 8.80806 6.32145 8.57358 6.11812 8.27819L6.03381 8.1351L6.18084 8.06061C6.20292 8.04717 6.22664 8.03662 6.25142 8.02924C6.85916 7.78418 7.56881 8.13118 7.93935 8.36055L8.02953 8.41741L8.0099 8.52325ZM5.38691 15.2926C5.38298 15.3063 4.82817 16.8099 3.65781 17.1393L3.41668 17.2079L3.4598 16.9609C3.60861 16.3211 3.96838 15.7501 4.48117 15.3396C4.6432 15.2211 4.82814 15.1376 5.02421 15.0946C5.09382 15.0787 5.16466 15.0689 5.23595 15.0652L5.45355 15.0534L5.38691 15.2926ZM9.17637 8.54873C9.37132 7.96048 9.75697 7.45409 10.2722 7.10978L10.5075 6.94119L10.5212 7.22938C10.5409 7.8821 10.3902 8.52868 10.084 9.10548C9.95594 9.36641 9.74968 9.5809 9.49396 9.7191L9.3587 9.78379L9.29007 9.65049C9.10801 9.31271 9.06713 8.91657 9.17637 8.54873ZM19.4039 21.7933C19.216 22.3219 18.9403 22.815 18.5883 23.2519L18.4727 23.4028L18.3472 23.2577C17.6226 22.462 17.16 21.4628 17.0219 20.3955C17.02 20.3857 16.9435 19.58 17.3748 19.1017C17.5479 18.9085 17.7755 18.7724 18.0277 18.7115C18.4335 18.6233 18.8295 18.8037 19.2039 19.2506C19.2823 19.3683 19.8587 20.3132 19.4039 21.7933ZM28.5904 25.9866C27.9705 26.1213 27.3387 26.1942 26.7045 26.2042L26.626 26.1964C26.5986 26.1944 26.5672 26.1925 26.5378 26.1925H26.528C24.3735 26.214 23.1443 25.8318 23.1326 25.8278C21.9282 25.434 20.7906 24.8595 19.7587 24.1242C20.2119 23.5546 20.564 22.9114 20.7997 22.2226C21.5074 19.925 20.4292 18.4469 20.388 18.3939L20.3566 18.3488C19.3607 17.1393 18.2747 17.1628 17.7179 17.2843C17.1656 17.4093 16.6661 17.7032 16.2887 18.1254C15.4183 19.0958 15.5536 20.4151 15.5732 20.5622C15.7376 21.916 16.3162 23.1861 17.2298 24.1987C16.5609 24.7604 15.7679 25.1549 14.9165 25.3495C13.7618 25.6004 12.5659 25.4083 11.3701 24.7829C10.071 23.9046 9.15547 22.5642 8.80979 21.0346C8.44939 19.5164 8.5539 17.9249 9.10974 16.4669C9.16657 16.3237 10.5604 12.9283 15.1811 9.63676C15.2085 9.61676 15.2347 9.59516 15.2595 9.57206C15.4399 9.40936 17.0082 7.93905 16.7965 6.18448C16.7411 5.72021 16.5632 5.27905 16.2809 4.90628C16.9122 4.70632 17.5689 4.53185 18.2394 4.38678C22.2563 3.51439 27.9827 3.36932 32.4465 7.64302L32.7014 7.88611L32.719 7.90179C32.7288 7.90767 32.7367 7.91552 32.7406 7.91747C33.8837 8.90447 34.797 10.1296 35.4165 11.507C36.0607 12.901 36.4021 14.4157 36.4183 15.9513C36.4516 20.7719 33.1601 24.9927 28.5904 25.9866Z" fill="#333F48"/>
<path d="M31.7192 11.7285C31.4251 10.8855 30.9154 10.6366 30.539 10.5758C30.2254 10.5248 29.6098 10.5562 29.0236 11.3207C28.8371 11.5691 28.6824 11.8398 28.5629 12.1265C28.0575 11.7106 27.4577 11.4251 26.8162 11.2953C26.5775 11.244 26.3298 11.2536 26.0959 11.3231C25.8619 11.3927 25.6491 11.5199 25.4772 11.6932C25.0655 12.1402 24.9754 12.8989 25.242 13.6752C25.4576 14.3084 26.232 15.8258 28.759 16.3943C28.7435 16.8949 28.6818 17.393 28.5747 17.8822C28.548 18.0116 28.5504 18.1453 28.5816 18.2737C28.6127 18.402 28.672 18.5219 28.755 18.6246C28.8381 18.7274 28.9429 18.8104 29.0619 18.8678C29.1808 18.9252 29.3111 18.9555 29.4432 18.9566C29.5058 18.9563 29.5683 18.949 29.6294 18.935C29.7961 18.8988 29.9489 18.8155 30.0695 18.6948C30.1901 18.5742 30.2735 18.4214 30.3096 18.2547C30.5067 17.3766 30.5714 16.474 30.5018 15.5768C31.0409 15.1122 32.4073 13.6928 31.7192 11.7285ZM30.1018 12.3166L30.2959 12.0049L30.3861 12.3598C30.4512 12.6434 30.4502 12.9381 30.3832 13.2213C30.3162 13.5044 30.1851 13.7684 29.9999 13.9928L29.8078 14.2457L29.7235 13.9418C29.5882 13.4537 29.8627 12.6989 30.1018 12.3166V12.3166ZM26.5594 12.9459L26.5241 12.7009L26.7613 12.7715C27.6382 13.1109 28.3545 13.7691 28.7668 14.6143L28.9295 14.9475L28.5766 14.8319C27.5298 14.4888 27.0259 13.9477 26.7868 13.5537V13.5517C26.6718 13.3667 26.5945 13.1609 26.5594 12.9459V12.9459Z" fill="#333F48"/>
</svg>
