<svg width="201" height="158" viewBox="0 0 201 158" fill="none" xmlns="http://www.w3.org/2000/svg">
<path d="M173.4 34.4942L172.167 33.3429C144.443 6.79134 108.342 9.77231 89.2842 13.9149C82.671 15.2823 76.2009 17.2681 69.9592 19.8461C69.1637 20.1982 68.4828 20.7663 67.9939 21.4859C67.5051 22.2055 67.2278 23.0478 67.1935 23.917C67.1593 24.7863 67.3694 25.6478 67.8002 26.4036C68.2309 27.1594 68.8649 27.7794 69.6303 28.193C72.6009 29.8068 74.2354 31.6057 74.4718 33.5382C74.8932 36.9921 71.4805 41.2991 69.5685 43.1391C62.6476 48.0627 56.2388 53.6691 50.4387 59.8739C50.1919 59.0413 49.9041 58.2189 49.606 57.4171C52.7206 55.5977 55.2083 52.3288 56.8015 47.9087C58.3949 43.5503 60.1629 34.196 55.4962 30.0432C54.4924 29.154 53.2374 28.5983 51.9043 28.4528C50.5712 28.3074 49.2258 28.5793 48.0539 29.2311C44.7215 30.9335 41.8212 33.3733 39.5734 36.365C36.4485 34.7512 30.9798 32.8084 25.5214 35.0082C20.4743 37.0229 19.8061 40.8468 19.7548 42.3887C19.6006 47.3228 24.2673 51.8046 28.6772 53.881C31.6594 55.2571 34.9725 55.7528 38.2268 55.3099C40.6769 59.187 42.2 63.577 42.6777 68.1385C42.6904 68.4588 42.7422 68.7764 42.8319 69.0842C40.4856 72.2603 38.3794 75.6069 36.5307 79.0962C34.9534 76.4623 32.6807 74.3141 29.9622 72.8875C27.5315 71.6777 24.8138 71.1632 22.1092 71.4008C19.4045 71.6385 16.8181 72.619 14.6357 74.2342C8.82779 78.4384 4.15076 87.7926 6.82336 93.549C7.25513 94.4845 9.72221 99.0485 16.3421 97.3832C23.4758 95.6357 27.6802 89.6121 29.6435 85.9217C30.8996 89.3141 31.503 92.9135 31.4219 96.53C31.4354 96.8375 31.4732 97.1434 31.535 97.4449C31.2112 102.464 31.6268 107.503 32.7684 112.401C35.1222 122.963 41.5452 132.171 50.6442 138.028L50.7881 138.11C59.1144 142.499 67.5435 143.805 75.8183 142.006C82.1191 140.559 87.9594 137.563 92.8101 133.289C99.2257 138.083 106.387 141.789 114.006 144.257C114.078 144.278 121.5 146.755 134.565 146.642L134.945 146.683C135.069 146.693 135.192 146.704 135.315 146.704L135.5 146.714C139.541 146.66 143.567 146.202 147.517 145.347C175.744 139.21 196.097 113.234 195.902 83.5678C195.768 64.993 187.154 46.1921 173.4 34.4942ZM37.6305 44.6913C37.502 45.4416 37.4401 46.2018 37.4455 46.9631L37.4352 47.7237L36.6746 47.7751C36.4073 47.7854 36.1503 47.7957 35.8933 47.7957C34.5354 47.8145 33.1903 47.53 31.9563 46.9631C30.2447 46.1847 28.7772 44.9552 27.711 43.4064L27.269 42.656L28.0399 42.2655C28.1557 42.195 28.2801 42.1397 28.4099 42.101C31.5966 40.8161 35.3176 42.6355 37.2606 43.8382L37.7334 44.1363L37.6305 44.6913ZM23.8769 80.1858C23.8564 80.2578 20.9472 88.1421 14.8105 89.869L13.5461 90.2288L13.7723 88.9336C14.5525 85.5791 16.4389 82.5848 19.1278 80.4326C19.9773 79.8111 20.9471 79.3735 21.9752 79.1477C22.3402 79.0647 22.7116 79.0131 23.0854 78.9935L24.2264 78.9319L23.8769 80.1858ZM43.7468 44.8249C44.769 41.7405 46.7912 39.0852 49.4929 37.2799L50.7264 36.3958L50.7984 37.9069C50.9015 41.3294 50.1114 44.7198 48.5062 47.7442C47.8345 49.1124 46.7529 50.237 45.4121 50.9617L44.7029 51.3009L44.343 50.6019C43.3884 48.8308 43.174 46.7537 43.7468 44.8249ZM97.3742 114.272C96.3893 117.044 94.9436 119.63 93.098 121.92L92.4915 122.712L91.8335 121.951C88.0343 117.778 85.6086 112.539 84.8847 106.943C84.8745 106.892 84.4736 102.667 86.735 100.159C87.6424 99.1458 88.8362 98.4324 90.1581 98.1131C92.2859 97.6506 94.3623 98.5963 96.3257 100.94C96.7368 101.557 99.759 106.511 97.3742 114.272ZM145.543 136.26C142.293 136.966 138.98 137.348 135.655 137.401L135.243 137.36C135.099 137.349 134.935 137.339 134.781 137.339H134.729C123.432 137.452 116.987 135.448 116.926 135.427C110.611 133.362 104.646 130.35 99.2347 126.494C101.611 123.507 103.457 120.135 104.693 116.523C108.404 104.476 102.75 96.7254 102.534 96.4478L102.37 96.2114C97.1479 89.869 91.4533 89.9924 88.5339 90.6297C85.6382 91.2847 83.0188 92.8262 81.0402 95.0395C76.4762 100.128 77.1854 107.046 77.2883 107.817C78.1504 114.916 81.184 121.575 85.9744 126.885C82.4671 129.83 78.3094 131.898 73.8447 132.919C67.7903 134.235 61.5198 133.227 55.2495 129.948C48.4379 125.343 43.6372 118.314 41.8247 110.294C39.9349 102.333 40.4829 93.9884 43.3974 86.3432C43.6954 85.5928 51.004 67.789 75.2325 50.53C75.3762 50.4251 75.5134 50.3118 75.6436 50.1907C76.5894 49.3376 84.8128 41.6281 83.7027 32.4281C83.4122 29.9937 82.4791 27.6805 80.9992 25.7259C84.3092 24.6774 87.7527 23.7626 91.2683 23.0019C112.331 18.4276 142.357 17.6669 165.763 40.0759L167.099 41.3505L167.191 41.4327C167.243 41.4635 167.284 41.5047 167.305 41.5149C173.298 46.6902 178.088 53.1143 181.336 60.3364C184.713 67.6459 186.504 75.5881 186.589 83.6397C186.763 108.917 169.504 131.048 145.543 136.26Z" fill="white"/>
<path d="M161.949 61.4978C160.407 57.0777 157.735 55.7722 155.761 55.4535C154.116 55.1863 150.888 55.3508 147.815 59.3597C146.837 60.662 146.026 62.0812 145.399 63.5845C142.749 61.4037 139.604 59.9071 136.24 59.226C134.989 58.9573 133.69 59.0076 132.463 59.3722C131.237 59.7369 130.121 60.4042 129.22 61.3127C127.061 63.6564 126.588 67.6345 127.986 71.7052C129.117 75.0254 133.177 82.9816 146.427 85.9627C146.346 88.5876 146.023 91.1993 145.461 93.7647C145.321 94.4431 145.333 95.144 145.497 95.8171C145.661 96.4902 145.971 97.1187 146.407 97.6573C146.842 98.196 147.392 98.6314 148.015 98.9324C148.639 99.2333 149.322 99.3922 150.015 99.3977C150.343 99.3962 150.671 99.3583 150.991 99.2847C151.865 99.0951 152.666 98.658 153.299 98.0255C153.931 97.393 154.369 96.5919 154.558 95.7178C155.591 91.1135 155.931 86.3807 155.565 81.6761C158.392 79.24 165.557 71.7977 161.949 61.4978ZM153.469 64.5816L154.486 62.9473L154.959 64.8078C155.3 66.2948 155.295 67.8403 154.944 69.325C154.593 70.8097 153.905 72.1938 152.934 73.3705L151.927 74.6965L151.485 73.1033C150.775 70.5437 152.214 66.5861 153.469 64.5816V64.5816ZM134.894 67.8813L134.709 66.5964L135.953 66.9664C140.551 68.7464 144.307 72.1976 146.468 76.6291L147.322 78.3766L145.471 77.7701C139.982 75.9712 137.34 73.1341 136.086 71.0679V71.0577C135.483 70.0877 135.078 69.0083 134.894 67.8813V67.8813Z" fill="white"/>
</svg>
