<svg width="117" height="40" viewBox="0 0 117 40" fill="none" xmlns="http://www.w3.org/2000/svg">
<path d="M9.89746 16.8418L8.83556 17.3928L8.30463 15.623C6.04995 16.3938 3.7295 16.9568 1.37227 17.3049L1.03483 15.8843C1.25491 15.7927 1.45225 15.6539 1.61298 15.4779C3.16117 13.5358 4.50043 11.436 5.60861 9.21332C4.06828 9.56138 2.52737 9.87995 1.03483 10.1124L0.722168 8.69123C0.959608 8.56961 1.15324 8.37701 1.27612 8.14023C2.78246 5.57866 4.01665 2.8665 4.9585 0.0480576L6.18616 0.627966C5.1812 3.40766 3.88206 6.072 2.31086 8.5756C3.65887 8.37207 5.00689 8.08241 6.38144 7.73435C6.88643 6.74797 7.41618 5.67488 7.94594 4.51447L9.07687 5.03657C6.55076 10.1993 4.48932 13.767 2.89256 15.7398C4.59275 15.4127 6.27239 14.9866 7.92293 14.4638C7.56189 13.419 7.20085 12.491 6.83981 11.6498L7.82678 11.1861C8.65959 13.016 9.35182 14.9067 9.89746 16.8418ZM3.06127 19.2198C2.93875 21.5569 2.55124 23.8725 1.90618 26.1221L0.750487 25.6873C1.44339 23.5354 1.85601 21.3032 1.97814 19.0458L3.06127 19.2198ZM6.38321 25.282L5.25171 25.459C5.22237 23.329 5.02112 21.2048 4.64996 19.1072L5.71186 18.962C6.11646 21.0455 6.34107 23.16 6.38321 25.282ZM9.92283 23.2515L8.86093 23.8025C8.44405 22.028 7.93805 20.2756 7.34481 18.552L8.30758 18.0877C8.96157 19.7706 9.50082 21.4958 9.92164 23.2515H9.92283ZM10.7169 3.29684V1.78719H21.6691V3.29507H16.8552V23.8314H22.367V25.3398H9.99362V23.8314H15.5538V3.29684H10.7169Z" fill="#333F48"/>
<path d="M37.3442 8.0246V3.49801C35.8388 3.8474 34.3106 4.08969 32.771 4.22304L32.3374 2.77298C35.7823 2.53696 39.1567 1.68351 42.2996 0.253355L42.9486 1.55889C41.5696 2.21398 40.1359 2.74696 38.6638 3.15172V8.024H43.2134V9.56138H38.6656V11.1855C40.3129 12.9773 41.8637 14.8556 43.3114 16.8123L42.5651 18.2045C41.3594 16.34 40.0579 14.5392 38.6656 12.8096V26.4961H37.3442V12.491C36.2 15.5635 34.5395 18.4179 32.4341 20.9312L31.8318 19.1614C34.384 16.4288 36.2705 13.1436 37.3442 9.56197H32.3374V8.0246H37.3442ZM46.7802 2.74584V20.7861H45.4823V2.74584H46.7802ZM46.9241 26.21L46.6356 24.7015C47.7907 24.7605 48.9222 24.8195 49.9812 24.8195C50.8 24.8195 51.2092 24.2974 51.2088 23.2532V0.135368H52.5327V23.6573C52.5327 25.3398 51.8348 26.21 50.4384 26.21H46.9241Z" fill="#333F48"/>
<path d="M68.2051 26.384H66.9072V11.0409C66.2087 13.9323 65.1831 16.7347 63.8502 19.3939L63.2726 17.7119C65.0494 14.4988 66.2701 11.0083 66.8831 7.38805H63.7304V5.90731H66.9072V0.0486412H68.2051V5.90731H70.5648V7.38628H68.2051V9.30121C69.2404 10.7513 70.2758 12.3754 71.3317 14.1735L70.6339 15.4206C69.6711 13.5647 68.8764 12.0851 68.2021 10.9831L68.2051 26.384ZM75.2584 0.135363H76.486V12.9842C76.4137 19.2485 74.857 23.8107 71.8161 26.6707L70.8049 25.5976C73.4526 23.2198 74.9209 19.5075 75.21 14.4608C74.0574 15.987 72.6772 17.327 71.1176 18.434L70.3955 17.0129C72.2984 15.8392 73.9509 14.3016 75.2584 12.4881V0.135363ZM74.7044 10.3737L73.6697 10.9831C72.9316 8.7081 72.0553 6.48028 71.0456 4.31211L72.1506 3.67498C73.0437 5.70437 73.8862 7.93728 74.7044 10.3737ZM80.1908 23.0196C80.1908 24.1216 80.5277 24.7015 81.2498 24.7015H82.2609C82.4988 24.7261 82.7387 24.6818 82.9521 24.5738C83.1654 24.4659 83.3433 24.2989 83.4644 24.0927C83.7535 23.5706 83.97 22.0621 84.0903 19.5974L85.2454 20.0322C85.1015 22.8745 84.8124 24.6437 84.3552 25.3109C84.1347 25.584 83.85 25.7984 83.5267 25.935C83.2033 26.0716 82.8512 26.1261 82.5016 26.0938H80.8645C79.5407 26.0938 78.8912 25.1658 78.8912 23.3382V0.135363H80.1891V11.7371C82.0455 13.2064 83.7112 14.9018 85.1475 16.784L84.4012 18.1467C83.1898 16.4007 81.7759 14.8042 80.1891 13.3907L80.1908 23.0196ZM84.8608 3.99296C84.0802 6.27505 83.0305 8.45606 81.7341 10.4899L80.6994 9.61978C81.9616 7.6561 82.9724 5.54176 83.708 3.32633L84.8608 3.99296Z" fill="#333F48"/>
<path d="M105.688 12.7234V8.31485C107.957 6.77011 110.041 4.96873 111.898 2.94642H97.8889V1.4409H113.703V2.94878C111.658 5.23526 109.402 7.32329 106.964 9.18501V12.7246H116.278V14.2614H106.963V23.8609C106.963 25.485 106.264 26.2973 104.916 26.2973H100.872L100.512 24.7888C101.692 24.7888 102.989 24.8177 104.386 24.8177C105.254 24.8177 105.686 24.3246 105.684 23.3382V14.2602H95.3858V12.7234H105.688Z" fill="#333F48"/>
<path d="M27.2615 31.8203H25.3534V37.73H24.5787V31.8203H22.6752V31.1199H27.2615V31.8203Z" fill="#333F48"/>
<path d="M31.6761 37.7294H30.9226V36.9919H30.9043C30.7663 37.2553 30.5569 37.4745 30.3001 37.6245C30.0433 37.7744 29.7495 37.849 29.4523 37.8398C29.0498 37.8637 28.6538 37.73 28.3483 37.4669C28.215 37.3396 28.1105 37.1853 28.0417 37.0144C27.9729 36.8434 27.9415 36.6597 27.9495 36.4756C27.9495 35.5933 28.4689 35.0802 29.5077 34.9362L30.9238 34.738C30.9238 33.9356 30.5997 33.5345 29.9514 33.5349C29.3845 33.5342 28.8368 33.7407 28.4114 34.1155V33.3408C28.8921 33.0411 29.4494 32.8874 30.0157 32.8983C31.125 32.8983 31.6796 33.4854 31.6796 34.6595L31.6761 37.7294ZM30.9226 35.3416L29.7838 35.4985C29.5033 35.5236 29.2322 35.6126 28.9914 35.7588C28.8955 35.8381 28.8208 35.9402 28.7741 36.0556C28.7274 36.1711 28.7103 36.2964 28.7242 36.4202C28.7209 36.5267 28.7413 36.6326 28.7839 36.7302C28.8266 36.8279 28.8904 36.9149 28.9708 36.9848C29.1543 37.1378 29.3888 37.216 29.6275 37.2037C29.8015 37.2086 29.9745 37.1759 30.1348 37.1079C30.2951 37.0399 30.4388 36.9381 30.5562 36.8096C30.8041 36.5377 30.9357 36.1796 30.9226 35.8119V35.3416Z" fill="#333F48"/>
<path d="M36.2318 37.8398C35.9223 37.8541 35.6133 37.8025 35.3253 37.6885C35.0372 37.5745 34.7767 37.4006 34.5608 37.1783C34.13 36.6988 33.9056 36.0687 33.9366 35.4248C33.9165 35.0876 33.9636 34.7497 34.075 34.4308C34.1864 34.1118 34.3599 33.8182 34.5856 33.5668C34.8162 33.3399 35.0914 33.1633 35.3937 33.0483C35.6961 32.9332 36.019 32.8821 36.3421 32.8983C36.6474 32.8811 36.9527 32.9302 37.2372 33.0423C37.5217 33.1543 37.7785 33.3266 37.9901 33.5473C38.4087 34.0513 38.6196 34.6959 38.5801 35.3498C38.6123 36.0132 38.383 36.6627 37.9417 37.1589C37.7213 37.3872 37.4548 37.566 37.16 37.6834C36.8652 37.8008 36.5488 37.8541 36.2318 37.8398ZM36.2872 33.5326C36.0703 33.5228 35.8539 33.5622 35.6543 33.6479C35.4547 33.7337 35.2772 33.8635 35.1349 34.0276C34.8328 34.417 34.6821 34.9027 34.7107 35.3947C34.6839 35.8737 34.8369 36.3454 35.1396 36.7175C35.2832 36.878 35.4607 37.0047 35.6591 37.0883C35.8575 37.172 36.0721 37.2106 36.2872 37.2014C36.4987 37.2143 36.7103 37.1784 36.9057 37.0966C37.1011 37.0148 37.2751 36.8891 37.4142 36.7293C37.7002 36.3394 37.8397 35.8613 37.8083 35.3788C37.8399 34.8918 37.7005 34.4091 37.4142 34.014C37.2764 33.8531 37.1034 33.7262 36.9085 33.6431C36.7137 33.56 36.5023 33.5229 36.2908 33.5349L36.2872 33.5326Z" fill="#333F48"/>
<path d="M44.7096 33.0092L42.5383 38.4852C42.1512 39.4623 41.6072 39.9511 40.9062 39.9515C40.7398 39.9554 40.5737 39.9355 40.413 39.8925V39.2139C40.5566 39.2654 40.7076 39.2933 40.8602 39.2965C41.057 39.2887 41.2463 39.2183 41.4004 39.0957C41.5546 38.9731 41.6656 38.8045 41.7175 38.6145L42.0957 37.72L40.2519 33.0092H41.0909L42.3677 36.6414C42.3831 36.6874 42.4153 36.8074 42.4645 37.0013H42.4922C42.5076 36.9278 42.5382 36.8109 42.5843 36.6508L43.926 33.0092H44.7096Z" fill="#333F48"/>
<path d="M50.4978 37.7294H49.7414V36.9824H49.7231C49.5892 37.2509 49.3803 37.4747 49.1217 37.6268C48.8632 37.779 48.5661 37.853 48.2664 37.8397C47.1418 37.8397 46.5795 37.1699 46.5795 35.8301V33.0092H47.3312V35.7103C47.3312 36.7063 47.7121 37.2041 48.4741 37.2037C48.6466 37.208 48.818 37.1736 48.9755 37.103C49.133 37.0325 49.2728 36.9276 49.3845 36.796C49.6319 36.4969 49.7591 36.1164 49.7414 35.7286V33.0092H50.4978V37.7294Z" fill="#333F48"/>
<path d="M56.5624 37.7295H55.8066V36.9919H55.7877C55.6499 37.2554 55.4406 37.4746 55.1839 37.6246C54.9272 37.7746 54.6334 37.8491 54.3362 37.8398C53.9336 37.8636 53.5375 37.7299 53.2317 37.4669C53.0986 37.3395 52.9942 37.1852 52.9255 37.0143C52.8569 36.8433 52.8255 36.6597 52.8334 36.4756C52.8334 35.5933 53.3526 35.0802 54.3911 34.9362L55.8072 34.738C55.8072 33.9356 55.4829 33.5345 54.8342 33.5349C54.2674 33.5342 53.7199 33.7407 53.2948 34.1155V33.3408C53.7754 33.041 54.3328 32.8873 54.8991 32.8983C56.0084 32.8983 56.563 33.4854 56.563 34.6595L56.5624 37.7295ZM55.8066 35.3416L54.6678 35.4985C54.3871 35.5236 54.1158 35.6126 53.8748 35.7588C53.779 35.8382 53.7044 35.9403 53.6577 36.0557C53.6111 36.1712 53.5938 36.2964 53.6075 36.4202C53.6042 36.5267 53.6247 36.6326 53.6673 36.7303C53.71 36.8279 53.7738 36.9149 53.8542 36.9848C54.0378 37.1377 54.2722 37.2159 54.5109 37.2037C54.685 37.2086 54.8581 37.176 55.0185 37.108C55.1788 37.04 55.3227 36.9382 55.4402 36.8096C55.6881 36.5377 55.8196 36.1796 55.8066 35.8119V35.3416Z" fill="#333F48"/>
<path d="M63.0654 37.7294H62.3072V35.0371C62.3072 34.0356 61.9414 33.5349 61.2098 33.5349C61.0315 33.5312 60.8546 33.5675 60.6922 33.6412C60.5299 33.715 60.3861 33.8242 60.2716 33.9609C60.0188 34.2612 59.8867 34.6448 59.9011 35.0371V37.7294H59.1447V33.0092H59.9011V33.7927H59.9194C60.0693 33.5148 60.2935 33.2839 60.567 33.126C60.8405 32.968 61.1525 32.8892 61.4682 32.8983C61.6909 32.8845 61.9138 32.9226 62.1193 33.0094C62.3249 33.0962 62.5075 33.2294 62.653 33.3986C62.9536 33.818 63.0996 34.3287 63.066 34.8436L63.0654 37.7294Z" fill="#333F48"/>
<path d="M70.2711 35.2292V37.7274H69.4982V31.119H71.3143C71.9071 31.0817 72.4926 31.2656 72.9575 31.6353C73.1559 31.8203 73.311 32.0467 73.4118 32.2986C73.5126 32.5504 73.5565 32.8213 73.5404 33.0921C73.5492 33.3803 73.4958 33.6669 73.3838 33.9326C73.2718 34.1982 73.1039 34.4366 72.8914 34.6315C72.4075 35.0496 71.7806 35.2644 71.142 35.231L70.2711 35.2292ZM70.2711 31.8176V34.5282H71.0824C71.5212 34.5586 71.9562 34.4284 72.3061 34.1618C72.4491 34.0316 72.5611 33.8711 72.6341 33.6921C72.7071 33.513 72.7392 33.3199 72.728 33.1269C72.728 32.2541 72.2117 31.8176 71.1792 31.8176H70.2711Z" fill="#333F48"/>
<path d="M77.4684 37.8398C77.1589 37.8542 76.8499 37.8027 76.5618 37.6886C76.2738 37.5746 76.0132 37.4007 75.7974 37.1783C75.3662 36.699 75.1416 36.0688 75.1726 35.4248C75.1526 35.0875 75.1996 34.7497 75.311 34.4308C75.4224 34.1118 75.596 33.8182 75.8216 33.5668C76.0523 33.3399 76.3274 33.1633 76.6298 33.0483C76.9321 32.9332 77.2551 32.8821 77.5782 32.8983C77.8834 32.8811 78.1887 32.9302 78.4732 33.0423C78.7577 33.1543 79.0145 33.3266 79.2261 33.5473C79.6446 34.0514 79.8556 34.6959 79.8161 35.3498C79.8491 36.0133 79.6205 36.6633 79.1795 37.1601C78.9589 37.3883 78.6922 37.567 78.3972 37.6842C78.1021 37.8014 77.7855 37.8544 77.4684 37.8398ZM77.5233 33.5326C77.3063 33.5228 77.0899 33.5622 76.8903 33.6479C76.6908 33.7337 76.5132 33.8635 76.3709 34.0276C76.0688 34.417 75.9181 34.9027 75.9467 35.3947C75.9199 35.8737 76.0729 36.3454 76.3757 36.7175C76.5193 36.878 76.6967 37.0047 76.8951 37.0883C77.0936 37.172 77.3081 37.2106 77.5233 37.2014C77.7347 37.2143 77.9463 37.1785 78.1417 37.0967C78.3372 37.0148 78.5112 36.8891 78.6502 36.7293C78.9362 36.3394 79.0757 35.8613 79.0444 35.3788C79.076 34.8918 78.9366 34.4091 78.6502 34.014C78.5119 33.8524 78.338 33.725 78.1421 33.6418C77.9463 33.5587 77.7339 33.5221 77.5215 33.5349L77.5233 33.5326Z" fill="#333F48"/>
<path d="M82.5722 31.8112C82.5083 31.8124 82.4447 31.8007 82.3853 31.7769C82.3259 31.7531 82.2719 31.7176 82.2265 31.6725C82.1796 31.6274 82.1427 31.5729 82.1181 31.5127C82.0935 31.4524 82.0818 31.3877 82.0837 31.3226C82.0824 31.2579 82.0942 31.1936 82.1182 31.1335C82.1422 31.0734 82.1781 31.0187 82.2237 30.9727C82.2692 30.9267 82.3236 30.8903 82.3834 30.8657C82.4433 30.8411 82.5075 30.8287 82.5722 30.8294C82.6377 30.8278 82.7027 30.8394 82.7635 30.8636C82.8244 30.8877 82.8797 30.9238 82.9262 30.9698C82.9723 31.0156 83.0088 31.07 83.0337 31.1299C83.0587 31.1899 83.0715 31.2542 83.0715 31.3191C83.0715 31.384 83.0587 31.4483 83.0337 31.5082C83.0088 31.5682 82.9723 31.6226 82.9262 31.6684C82.88 31.7149 82.8247 31.7515 82.7639 31.7761C82.703 31.8006 82.6378 31.8126 82.5722 31.8112ZM82.941 37.7298H82.1875V33.0095H82.9434L82.941 37.7298Z" fill="#333F48"/>
<path d="M89.5499 37.7294H88.7953V35.0371C88.7953 34.0356 88.4296 33.5349 87.6984 33.5349C87.5201 33.5311 87.3432 33.5674 87.1809 33.6412C87.0185 33.7149 86.8748 33.8242 86.7603 33.9609C86.5072 34.2611 86.3749 34.6447 86.3891 35.0371V37.7294H85.6333V33.0092H86.3891V33.7927H86.4074C86.5573 33.5148 86.7815 33.2839 87.055 33.126C87.3285 32.968 87.6406 32.8892 87.9563 32.8983C88.179 32.8845 88.4018 32.9226 88.6074 33.0094C88.813 33.0962 88.9956 33.2294 89.141 33.3986C89.4419 33.8179 89.5879 34.3286 89.5541 34.8436L89.5499 37.7294Z" fill="#333F48"/>
<path d="M94.3248 37.6836C94.1048 37.7912 93.8614 37.8419 93.6168 37.8311C92.7908 37.8311 92.3777 37.3701 92.3777 36.4481V33.6549H91.5676V33.0094H92.3789V31.8571L93.1347 31.6128V33.0094H94.3242V33.6549H93.1347V36.3148C93.1138 36.5521 93.1705 36.7898 93.2964 36.9921C93.3638 37.0649 93.4472 37.1211 93.5399 37.1563C93.6326 37.1915 93.7323 37.2048 93.831 37.1951C94.0083 37.1992 94.1819 37.144 94.3242 37.0381L94.3248 37.6836Z" fill="#333F48"/>
</svg>
