<svg width="251" height="60" viewBox="0 0 251 60" fill="none" xmlns="http://www.w3.org/2000/svg">
<path d="M5.60058 11.316H1.37322V9.69654H5.92555V0.627441H8.85232V9.69654H11.1285V11.316H8.85234V15.203C10.1118 16.4356 11.3058 17.733 12.4294 19.0896C12.32 21.0331 12.0489 22.3288 11.6163 22.9766C10.8569 22.3289 9.93554 20.3855 8.85234 17.1465V40.6289H5.92557V22.3289C4.51553 25.2438 2.99809 28.1589 1.37323 31.0743H0.397644C3.334 24.8618 5.09767 18.1642 5.60058 11.316ZM15.3558 12.9355V0.627441H18.2826V25.8918C18.3893 29.5635 16.1131 34.3682 11.4538 40.3058H9.82793C13.405 35.9858 15.2476 31.2891 15.3559 26.2156V22.0049C14.3806 25.4615 12.7547 27.6209 10.4782 28.4831C10.5799 27.1541 10.3568 25.8204 9.82793 24.5961C11.8858 24.4898 13.7285 22.9243 15.3559 19.8995V14.2312L13.405 17.4702C12.9705 15.5267 12.5912 13.5833 12.2669 11.64C11.9722 9.92742 11.8091 8.19491 11.7791 6.45759L11.9416 6.29574C13.2307 8.42867 14.3715 10.6471 15.3559 12.9355L15.3558 12.9355ZM19.9085 37.7137V0.627441H22.8353V15.3648L27.0626 7.10532L28.3632 7.75305L22.8353 18.4419C24.619 20.0663 26.3023 21.797 27.8757 23.6243C27.6892 25.0407 27.2486 26.4121 26.5748 27.6732C25.4901 26.5951 24.2436 23.95 22.8353 19.7377V35.4468C22.7261 36.6338 23.3222 37.2275 24.6236 37.2278C25.9245 37.2278 26.6291 36.6342 26.7373 35.4468L27.7129 28.4831H28.526V34.1511H29.0138V37.3906C28.9044 39.3341 27.8203 40.3058 25.7617 40.3058H22.6728C20.7216 40.1965 19.8002 39.3325 19.9085 37.7137L19.9085 37.7137Z" fill="white"/>
<path d="M61.6479 1.27539V2.40899H80.021L79.8582 1.27539H83.2728V40.4676H79.8582V38.3625H61.8107V40.4676H58.3962V1.27539H61.6479ZM79.8582 4.19062H61.6479V36.7421H79.8582V4.19062ZM68.8021 22.9768H67.664V24.2722H64.5747V15.2032H67.664V16.6608H74.4928V15.365H77.582V23.9486L78.0698 23.3008L79.2079 24.2723L74.8181 29.131C75.7934 29.9964 77.3108 30.6443 79.3704 31.0745C78.9423 31.7106 78.6744 32.4401 78.5895 33.2013C78.5046 33.9624 78.6051 34.7328 78.8826 35.447C75.5217 34.584 72.7035 31.291 70.4279 25.568C70.2945 25.7118 70.1848 25.8758 70.1029 26.0539V35.771H67.1762V28.6451C66.0914 29.5106 64.7906 30.5363 63.2738 31.7222H61.8107C65.1692 29.131 67.4996 26.2159 68.8021 22.9768V22.9768ZM69.2899 4.83833H72.3791V7.59139H77.9074V9.049H72.3791V12.4501H79.0454V14.0696H62.461V12.4501H69.2899V9.04902H63.4366V7.59141H69.2899V4.83833ZM74.4928 18.1181H67.664V21.5192H74.4928V18.1181ZM74.4928 22.9768H72.3791C71.963 23.6752 71.4724 24.3268 70.9157 24.9203C71.5648 26.2947 72.5082 27.5109 73.6797 28.4832L77.2567 24.4344H74.4928L74.4928 22.9768Z" fill="white"/>
<path d="M113.143 7.91549V6.13386H126.476C126.278 5.88651 126.114 5.61431 125.988 5.32428C125.119 3.78069 124.411 2.15265 123.874 0.465571L124.037 0.303711C125.81 1.23207 127.497 2.316 129.077 3.54264C128.821 4.48421 128.379 5.36526 127.776 6.13385H141.109V7.91548H128.752V14.3934H134.443V12.9358H137.857V32.046C137.748 34.3135 136.338 35.9331 133.629 36.905C133.52 36.1479 133.141 35.8779 132.491 36.0948L130.053 36.5807L129.727 35.7711C133.086 35.3408 134.658 34.1531 134.443 32.2081V16.175H128.752V40.6292H125.338V16.175H119.484V36.0948H116.07V12.9358H119.484V14.3934H125.338V7.9155L113.143 7.91549Z" fill="white"/>
<path d="M168.052 35.4468H170.166V0.627441H173.581V2.24691H189.189V0.627441H192.604V13.5835H189.189V11.964H183.986V19.2518H194.392V21.0331H184.149C184.581 28.2677 187.453 33.0723 192.766 35.4468L194.23 27.835L194.88 27.9972L194.392 35.7708L195.368 36.0945V40.4674C186.044 37.5521 181.167 31.0741 180.735 21.0331H173.581V35.4468C175.857 34.9078 178.35 33.6121 181.06 31.5598C181.385 31.3448 181.492 31.4535 181.385 31.8838C179.541 35.4468 175.205 38.146 168.378 39.9815C168.81 38.9005 168.701 37.3889 168.052 35.4468ZM189.189 4.02826H173.581V10.1824H189.189V4.02826ZM173.581 11.9641V19.2518H180.572V11.964L173.581 11.9641Z" fill="white"/>
<path d="M234.018 15.5267V0.627441H237.595V7.10531H248.651V9.0488H237.595V15.5267H250.602V17.4702H237.595V40.6289H234.018V17.4702H222.961V15.5267H234.018ZM239.546 20.2235L239.708 20.0614C239.746 20.4046 239.857 20.7358 240.034 21.0331C242.091 25.2438 244.747 27.943 248.001 29.1308C247.353 30.7326 247.296 32.511 247.838 34.151L247.513 34.3132C242.526 32.2634 239.87 27.5669 239.546 20.2235Z" fill="white"/>
<path d="M34.6151 59.2279C33.7671 59.2283 32.9381 58.9781 32.2329 58.5091C31.5276 58.04 30.9779 57.3732 30.6532 56.593C30.3285 55.8127 30.2435 54.954 30.4088 54.1256C30.5741 53.2972 30.9823 52.5362 31.5819 51.9389C32.1814 51.3416 32.9454 50.9348 33.7771 50.77C34.6088 50.6053 35.4708 50.6899 36.2542 51.0132C37.0376 51.3364 37.7072 51.8839 38.1782 52.5863C38.6492 53.2886 38.9005 54.1144 38.9003 54.959C38.8981 56.0904 38.4459 57.1749 37.6428 57.975C36.8397 58.7751 35.751 59.2256 34.6151 59.2279ZM34.6139 51.5522C33.9384 51.5539 33.2785 51.7549 32.7176 52.1298C32.1567 52.5048 31.7199 53.0368 31.4623 53.6588C31.2047 54.2808 31.1378 54.9648 31.2702 55.6246C31.4026 56.2844 31.7282 56.8904 32.206 57.366C32.6838 57.8416 33.2924 58.1655 33.9549 58.2969C34.6174 58.4284 35.3041 58.3613 35.9284 58.1043C36.5527 57.8473 37.0865 57.4119 37.4625 56.8529C37.8386 56.294 38.0399 55.6366 38.0412 54.9638C38.04 54.0589 37.6785 53.1915 37.0359 52.5519C36.3934 51.9123 35.5223 51.5528 34.6139 51.5522Z" fill="white"/>
<path d="M9.6079 51.6937L1.96857 51.6924C1.91271 51.6929 1.85734 51.6822 1.80565 51.6611C1.75397 51.64 1.70703 51.6089 1.66756 51.5695C1.6281 51.5301 1.59691 51.4833 1.57581 51.4318C1.55471 51.3803 1.54413 51.3251 1.54468 51.2695C1.54384 51.2126 1.55437 51.1562 1.57567 51.1034C1.59697 51.0506 1.6286 51.0026 1.66873 50.9622C1.70885 50.9217 1.75666 50.8897 1.80937 50.8678C1.86207 50.846 1.91861 50.8348 1.97569 50.835L9.60708 50.8354C9.66377 50.8355 9.71988 50.8468 9.77219 50.8685C9.8245 50.8902 9.872 50.922 9.91197 50.9621C9.95195 51.0021 9.98362 51.0496 10.0052 51.1018C10.0267 51.154 10.0377 51.21 10.0375 51.2664C10.0388 51.3229 10.0285 51.3791 10.0073 51.4315C9.98619 51.484 9.95459 51.5316 9.91443 51.5716C9.87428 51.6115 9.82642 51.6429 9.77373 51.6639C9.72105 51.6849 9.66463 51.695 9.6079 51.6937Z" fill="white"/>
<path d="M5.79136 59.0903C5.73425 59.0919 5.6774 59.0819 5.62436 59.0607C5.57131 59.0396 5.52319 59.0078 5.48298 58.9674C5.44276 58.9269 5.41131 58.8787 5.39056 58.8257C5.36982 58.7727 5.36022 58.716 5.36237 58.6591L5.35727 54.225C5.35563 54.1679 5.36561 54.1111 5.38662 54.058C5.40763 54.0049 5.43922 53.9566 5.47949 53.916C5.51976 53.8754 5.56788 53.8434 5.62093 53.8218C5.67398 53.8003 5.73087 53.7896 5.78816 53.7906C5.90331 53.7914 6.01354 53.8372 6.095 53.9183C6.17646 53.9994 6.22261 54.1091 6.22349 54.2238L6.22566 58.6594C6.22611 58.7162 6.21518 58.7726 6.19349 58.8252C6.1718 58.8778 6.1398 58.9255 6.09936 58.9657C6.05892 59.0058 6.01084 59.0375 5.95796 59.0589C5.90507 59.0803 5.84844 59.091 5.79136 59.0903Z" fill="white"/>
<path d="M136.517 51.6939L128.887 51.6904C128.83 51.6909 128.774 51.6802 128.721 51.6589C128.668 51.6376 128.62 51.6061 128.579 51.5662C128.539 51.5263 128.507 51.4788 128.485 51.4264C128.463 51.374 128.451 51.3178 128.451 51.2611C128.453 51.1468 128.5 51.0379 128.582 50.9575C128.663 50.8772 128.773 50.8318 128.888 50.8311L136.519 50.8354C136.576 50.8334 136.632 50.8431 136.685 50.8638C136.739 50.8845 136.787 50.9159 136.827 50.9559C136.868 50.9959 136.899 51.0438 136.92 51.0965C136.942 51.1493 136.952 51.2058 136.95 51.2625C136.95 51.3192 136.939 51.3754 136.917 51.4279C136.896 51.4803 136.864 51.528 136.823 51.5681C136.783 51.6082 136.735 51.64 136.683 51.6616C136.63 51.6831 136.574 51.6941 136.517 51.6939Z" fill="white"/>
<path d="M132.707 59.0897C132.591 59.0877 132.48 59.0406 132.398 58.9586C132.317 58.8766 132.27 58.7661 132.269 58.6504L132.269 54.2142C132.27 54.0995 132.317 53.9899 132.398 53.9091C132.48 53.8283 132.59 53.7828 132.705 53.7827C132.762 53.7829 132.819 53.7943 132.872 53.8163C132.924 53.8383 132.972 53.8705 133.012 53.9111C133.052 53.9516 133.084 53.9996 133.105 54.0524C133.126 54.1051 133.137 54.1616 133.136 54.2184L133.134 58.6497C133.135 58.7065 133.124 58.763 133.104 58.8158C133.083 58.8687 133.052 58.9169 133.012 58.9578C132.972 58.9987 132.925 59.0313 132.873 59.054C132.82 59.0766 132.764 59.0887 132.707 59.0897Z" fill="white"/>
<path d="M49.0234 59.0888C48.9659 59.0889 48.9089 59.0778 48.8557 59.0559C48.8025 59.0341 48.7542 59.002 48.7134 58.9616C48.6727 58.9211 48.6403 58.873 48.6183 58.8201C48.5962 58.7672 48.5848 58.7105 48.5848 58.6532L48.5864 57.3595C48.5874 57.2452 48.6337 57.1359 48.7152 57.0555C48.7967 56.9751 48.9069 56.9301 49.0216 56.9302C49.0782 56.9295 49.1344 56.94 49.1869 56.9612C49.2394 56.9824 49.2871 57.0138 49.3272 57.0536C49.3673 57.0934 49.3991 57.1408 49.4206 57.193C49.442 57.2452 49.4528 57.3011 49.4523 57.3575L49.4581 58.6628C49.4555 58.7762 49.4087 58.8841 49.3275 58.9636C49.2464 59.0432 49.1373 59.0881 49.0234 59.0888Z" fill="white"/>
<path d="M63.4294 59.093C62.343 59.0884 61.3025 58.6559 60.5351 57.89C59.7676 57.1241 59.3354 56.0869 59.3328 55.0047L59.3417 51.2649C59.3413 51.2088 59.352 51.1533 59.3732 51.1014C59.3944 51.0495 59.4257 51.0022 59.4653 50.9624C59.5049 50.9226 59.552 50.8909 59.6039 50.8693C59.6559 50.8477 59.7115 50.8365 59.7678 50.8363C59.8241 50.8362 59.8798 50.8471 59.9318 50.8685C59.9838 50.8899 60.0311 50.9213 60.0709 50.961C60.1107 51.0006 60.1422 51.0477 60.1637 51.0995C60.1852 51.1513 60.1961 51.2068 60.196 51.2629L60.2023 55.0096C60.2027 55.8637 60.5437 56.6827 61.1504 57.2864C61.757 57.8901 62.5796 58.229 63.4371 58.2286C64.2946 58.2282 65.1168 57.8885 65.7229 57.2842C66.3289 56.68 66.6692 55.8607 66.6688 55.0066L66.6618 51.2632C66.6627 51.1483 66.709 51.0383 66.7907 50.9572C66.8724 50.876 66.9829 50.8302 67.0983 50.8296C67.2126 50.8333 67.3212 50.8805 67.4019 50.9614C67.4825 51.0422 67.5291 51.1508 67.532 51.2647L67.5298 55.0057C67.5286 56.0888 67.0963 57.1272 66.3277 57.8934C65.5591 58.6596 64.5168 59.091 63.4294 59.093Z" fill="white"/>
<path d="M95.9147 59.0908C95.8003 59.0894 95.691 59.043 95.6107 58.9617C95.5305 58.8804 95.4857 58.7708 95.4863 58.6568L95.4829 54.9807C95.484 54.5575 95.4012 54.1382 95.2393 53.7469C95.0774 53.3557 94.8396 53.0001 94.5394 52.7005C94.2392 52.401 93.8827 52.1634 93.4901 52.0014C93.0976 51.8394 92.6768 51.7562 92.252 51.7565C91.8271 51.7568 91.4064 51.8406 91.0141 52.0032C90.6218 52.1658 90.2656 52.4038 89.9659 52.7038C89.6662 53.0038 89.4288 53.3597 89.2675 53.7512C89.1062 54.1428 89.024 54.5621 89.0257 54.9853L89.0205 58.6558C89.0214 58.7125 89.0109 58.7689 88.9897 58.8215C88.9686 58.8742 88.9371 58.9222 88.8972 58.9627C88.8573 59.0032 88.8098 59.0354 88.7573 59.0574C88.7048 59.0795 88.6484 59.091 88.5915 59.0912C88.5345 59.0914 88.4781 59.0804 88.4254 59.0588C88.3728 59.0371 88.325 59.0053 88.2847 58.9651C88.2445 58.9249 88.2127 58.8772 88.1911 58.8247C88.1695 58.7722 88.1586 58.716 88.1589 58.6592L88.166 54.9865C88.1652 54.4506 88.2706 53.9198 88.476 53.4244C88.6814 52.9291 88.9828 52.4789 89.363 52.0997C89.7432 51.7205 90.1947 51.4196 90.6917 51.2144C91.1887 51.0091 91.7214 50.9034 92.2595 50.9033C92.7975 50.9033 93.3303 51.0089 93.8273 51.2141C94.3244 51.4192 94.776 51.72 95.1562 52.0992C95.5365 52.4783 95.838 52.9284 96.0435 53.4237C96.249 53.919 96.3544 54.4498 96.3538 54.9857L96.3526 58.6569C96.3526 58.714 96.3413 58.7707 96.3192 58.8235C96.2972 58.8763 96.2649 58.9242 96.2242 58.9645C96.1836 59.0048 96.1352 59.0368 96.0821 59.0584C96.029 59.0801 95.9721 59.0911 95.9147 59.0908Z" fill="white"/>
<path d="M184.637 59.0808C184.523 59.0815 184.414 59.0374 184.332 58.958C184.251 58.8787 184.204 58.7705 184.203 58.657L184.203 54.9776C184.204 54.5551 184.121 54.1365 183.959 53.746C183.797 53.3554 183.56 53.0004 183.26 52.7014C182.961 52.4024 182.605 52.1653 182.213 52.0035C181.821 51.8418 181.401 51.7587 180.977 51.7589C180.552 51.7591 180.132 51.8427 179.741 52.0049C179.349 52.1671 178.993 52.4046 178.694 52.704C178.395 53.0033 178.157 53.3585 177.996 53.7493C177.835 54.14 177.753 54.5587 177.754 54.9812L177.745 58.6508C177.745 58.7075 177.734 58.7637 177.712 58.8162C177.691 58.8686 177.659 58.9163 177.619 58.9565C177.579 58.9967 177.531 59.0285 177.478 59.0503C177.426 59.0721 177.369 59.0833 177.312 59.0833C177.255 59.0833 177.199 59.0721 177.146 59.0504C177.094 59.0286 177.046 58.9968 177.006 58.9566C176.966 58.9164 176.934 58.8688 176.912 58.8163C176.891 58.7639 176.88 58.7077 176.88 58.651L176.881 54.9791C176.881 53.8971 177.313 52.8594 178.081 52.0943C178.849 51.3293 179.891 50.8994 180.977 50.8994C182.063 50.8994 183.105 51.3292 183.873 52.0943C184.641 52.8594 185.073 53.8971 185.073 54.9791L185.078 58.6515C185.077 58.7667 185.03 58.8766 184.947 58.9571C184.864 59.0376 184.753 59.0821 184.637 59.0808Z" fill="white"/>
<path d="M117.254 59.0904L114.355 59.0867C113.817 59.0867 113.283 58.9809 112.786 58.7752C112.288 58.5696 111.837 58.2681 111.456 57.8882C111.076 57.5082 110.775 57.0573 110.57 56.5611C110.365 56.065 110.26 55.5334 110.262 54.9969C110.265 53.9087 110.695 52.8648 111.458 52.0868C112.222 51.3088 113.26 50.858 114.353 50.8301L117.252 50.8313C117.366 50.8322 117.476 50.8775 117.558 50.9576C117.64 51.0377 117.687 51.1462 117.69 51.2604C117.689 51.3172 117.678 51.3734 117.656 51.4259C117.634 51.4783 117.602 51.526 117.562 51.566C117.521 51.606 117.473 51.6377 117.42 51.6592C117.367 51.6806 117.311 51.6915 117.254 51.6911L114.352 51.6937C113.488 51.7162 112.667 52.0742 112.065 52.6913C111.462 53.3085 111.125 54.1358 111.127 54.9968C111.126 55.8508 111.465 56.6704 112.07 57.2755C112.675 57.8806 113.497 58.2218 114.354 58.2242L117.252 58.2245C117.309 58.2242 117.366 58.2352 117.418 58.2567C117.471 58.2783 117.519 58.31 117.559 58.3501C117.6 58.3901 117.632 58.4377 117.654 58.4902C117.675 58.5426 117.687 58.5988 117.687 58.6556C117.685 58.7698 117.64 58.8791 117.559 58.9603C117.478 59.0414 117.369 59.0881 117.254 59.0904Z" fill="white"/>
<path d="M206.703 59.0867L203.81 59.0867C203.27 59.0865 202.735 58.9804 202.237 58.7745C201.738 58.5685 201.285 58.2666 200.903 57.8862C200.521 57.5057 200.219 57.0541 200.012 56.5571C199.806 56.0602 199.7 55.5275 199.7 54.9897C199.706 53.8999 200.138 52.8553 200.905 52.078C201.672 51.3007 202.713 50.852 203.806 50.8274L206.699 50.8267C206.756 50.8261 206.813 50.8368 206.866 50.8581C206.919 50.8794 206.967 50.9109 207.008 50.9508C207.048 50.9907 207.081 51.0383 207.103 51.0907C207.125 51.1431 207.137 51.1994 207.137 51.2563C207.136 51.3718 207.089 51.4822 207.007 51.5634C206.924 51.6445 206.812 51.6897 206.697 51.689L203.808 51.6866C202.943 51.7079 202.121 52.0652 201.517 52.6822C200.913 53.2991 200.575 54.1269 200.575 54.9888C200.573 55.4125 200.656 55.8324 200.817 56.2244C200.979 56.6163 201.217 56.9726 201.517 57.2728C201.817 57.573 202.174 57.8112 202.567 57.9737C202.96 58.1362 203.381 58.2198 203.807 58.2198L206.704 58.2199C206.819 58.22 206.93 58.2658 207.011 58.3472C207.093 58.4285 207.138 58.5388 207.138 58.6537C207.138 58.7686 207.092 58.8788 207.01 58.96C206.929 59.0412 206.818 59.0868 206.703 59.0867Z" fill="white"/>
<path d="M228.39 59.6612C228.333 59.6612 228.276 59.6499 228.224 59.628C228.171 59.6062 228.123 59.5741 228.083 59.5338C228.043 59.4934 228.011 59.4455 227.989 59.3929C227.968 59.3402 227.957 59.2838 227.957 59.227L227.956 55.4348C227.955 55.3775 227.966 55.3207 227.987 55.2675C228.008 55.2142 228.04 55.1658 228.08 55.1247C228.12 55.0837 228.168 55.051 228.221 55.0284C228.274 55.0058 228.331 54.9938 228.388 54.9931L233.647 54.9958C234.082 54.9939 234.498 54.8209 234.805 54.5146C235.113 54.2083 235.286 53.7934 235.287 53.3604C235.286 52.923 235.113 52.5037 234.806 52.1912C234.498 51.8788 234.081 51.6979 233.642 51.6869L228.387 51.6849C228.273 51.6844 228.165 51.6388 228.084 51.5584C228.004 51.4779 227.96 51.3691 227.96 51.2558C227.96 51.1425 228.006 51.0339 228.087 50.954C228.167 50.8741 228.276 50.8293 228.39 50.8295L233.645 50.8286C234.312 50.8348 234.949 51.1031 235.419 51.5751C235.888 52.0471 236.151 52.6846 236.15 53.3488C236.15 54.0129 235.886 54.65 235.416 55.1213C234.946 55.5926 234.308 55.8599 233.642 55.8651L228.823 55.8659L228.826 59.2302C228.825 59.3448 228.779 59.4544 228.697 59.5351C228.615 59.6159 228.505 59.6612 228.39 59.6612Z" fill="white"/>
<path d="M246.496 59.0691L242.817 59.0712C242.76 59.0719 242.703 59.0611 242.65 59.0395C242.597 59.0178 242.549 58.9858 242.508 58.9452C242.468 58.9046 242.436 58.8564 242.415 58.8034C242.394 58.7503 242.384 58.6936 242.385 58.6365L242.381 51.2556C242.38 51.1991 242.391 51.1431 242.413 51.0909C242.434 51.0386 242.466 50.9912 242.506 50.9513C242.546 50.9114 242.594 50.8799 242.647 50.8586C242.699 50.8373 242.755 50.8266 242.812 50.8272L246.499 50.8279C247.592 50.8503 248.633 51.2977 249.4 52.0746C250.166 52.8514 250.598 53.8961 250.601 54.9853C250.599 56.0687 250.166 57.1071 249.396 57.8726C248.627 58.6382 247.584 59.0685 246.496 59.0691ZM243.247 58.1988L246.5 58.1995C247.355 58.1998 248.176 57.8624 248.782 57.2612C249.388 56.66 249.729 55.8441 249.732 54.9922C249.733 54.1298 249.396 53.3012 248.792 52.6831C248.188 52.065 247.365 51.7063 246.5 51.6835L243.247 51.6865L243.247 58.1988Z" fill="white"/>
<path d="M169.809 59.0754L166.562 59.0767C165.477 59.074 164.436 58.6427 163.669 57.8773C162.901 57.1119 162.47 56.0747 162.469 54.993C162.472 53.904 162.901 52.8591 163.666 52.0809C164.431 51.3027 165.471 50.8528 166.564 50.8271L169.813 50.8303C169.87 50.8295 169.927 50.84 169.98 50.8614C170.033 50.8827 170.081 50.9144 170.122 50.9546C170.162 50.9947 170.194 51.0426 170.216 51.0953C170.238 51.148 170.249 51.2045 170.248 51.2615C170.248 51.3185 170.236 51.3749 170.214 51.4272C170.191 51.4796 170.158 51.5269 170.117 51.5664C170.075 51.6059 170.027 51.6368 169.973 51.6573C169.92 51.6778 169.863 51.6875 169.806 51.6857L166.56 51.6899C165.697 51.7148 164.878 52.073 164.275 52.6888C163.673 53.3045 163.335 54.1295 163.332 54.9892C163.335 55.8423 163.677 56.6597 164.283 57.2622C164.889 57.8647 165.711 58.2033 166.567 58.2037L169.807 58.2019C169.923 58.2022 170.034 58.2483 170.116 58.3299C170.198 58.4116 170.244 58.5223 170.245 58.6377C170.245 58.7532 170.199 58.8641 170.118 58.9461C170.036 59.0281 169.925 59.0746 169.809 59.0754L169.809 59.0754Z" fill="white"/>
<path d="M49.025 55.173C48.966 55.176 48.9072 55.166 48.8526 55.1437C48.798 55.1215 48.749 55.0874 48.7092 55.044L45.2448 51.5903C45.1648 51.5089 45.1195 51.3998 45.1185 51.286C45.1175 51.1721 45.1608 51.0622 45.2394 50.9795C45.279 50.9384 45.3267 50.9059 45.3793 50.8837C45.432 50.8615 45.4887 50.8503 45.5458 50.8505C45.603 50.8508 45.6595 50.8627 45.712 50.8854C45.7644 50.908 45.8117 50.9411 45.851 50.9825L49.021 54.1298L52.1907 50.9782C52.2303 50.9377 52.2777 50.9056 52.33 50.8836C52.3822 50.8616 52.4384 50.8502 52.4952 50.8501C52.5519 50.85 52.6081 50.8611 52.6605 50.8828C52.7129 50.9046 52.7604 50.9365 52.8003 50.9768C52.8411 51.0171 52.8735 51.0651 52.8957 51.118C52.9178 51.1709 52.9293 51.2276 52.9293 51.285C52.9293 51.3423 52.918 51.399 52.8959 51.4519C52.8738 51.5048 52.8414 51.5529 52.8005 51.5933L49.3238 55.0457C49.2861 55.0871 49.2399 55.1198 49.1883 55.1418C49.1368 55.1638 49.081 55.1744 49.025 55.173Z" fill="white"/>
<path d="M20.7681 58.1417L19.6283 58.147C19.5129 58.1454 19.4028 58.0984 19.3221 58.0162C19.2414 57.934 19.1966 57.8233 19.1975 57.7083C19.1985 57.5934 19.2451 57.4834 19.3272 57.4026C19.4092 57.3217 19.5201 57.2765 19.6355 57.2768L20.7661 57.2759C20.8814 57.2756 20.992 57.321 21.0737 57.402C21.1554 57.483 21.2015 57.593 21.2017 57.7078C21.202 57.8226 21.1565 57.9329 21.0751 58.0142C20.9938 58.0956 20.8834 58.1415 20.7681 58.1417Z" fill="white"/>
<path d="M24.0758 59.6708C23.9942 59.6713 23.9141 59.6484 23.8451 59.6049C23.7761 59.5614 23.7211 59.499 23.6866 59.4253L20.2029 52.2576L16.7219 59.4329C16.6689 59.5343 16.5785 59.6114 16.4697 59.648C16.3608 59.6846 16.242 59.6778 16.1381 59.6291C16.0866 59.6045 16.0406 59.5698 16.0027 59.5273C15.9648 59.4847 15.9358 59.4351 15.9174 59.3812C15.899 59.3274 15.8916 59.2704 15.8955 59.2137C15.8995 59.1569 15.9148 59.1015 15.9405 59.0508L19.8034 51.0819C19.843 51.0132 19.9 50.9561 19.9687 50.9161C20.0374 50.8761 20.1154 50.8547 20.1949 50.854C20.2744 50.8533 20.3528 50.8734 20.4222 50.9122C20.4915 50.951 20.5495 51.0071 20.5903 51.0751L24.4636 59.0472C24.5139 59.1508 24.5214 59.2699 24.4846 59.3789C24.4477 59.488 24.3694 59.5783 24.2665 59.6306C24.2066 59.6575 24.1415 59.6713 24.0758 59.6708Z" fill="white"/>
<path d="M217.569 58.1387L216.438 58.1373C216.38 58.1376 216.323 58.1266 216.269 58.1047C216.216 58.0829 216.167 58.0508 216.126 58.0101C216.085 57.9695 216.053 57.9212 216.031 57.868C216.008 57.8148 215.997 57.7578 215.997 57.7002C215.997 57.6427 216.009 57.5857 216.031 57.5326C216.054 57.4795 216.086 57.4314 216.127 57.3909C216.169 57.3505 216.217 57.3185 216.271 57.297C216.324 57.2754 216.382 57.2646 216.44 57.2652L217.571 57.2698C217.627 57.2696 217.683 57.2808 217.736 57.3026C217.788 57.3244 217.835 57.3564 217.875 57.3967C217.914 57.437 217.945 57.4848 217.966 57.5373C217.987 57.5898 217.997 57.6458 217.995 57.7022C217.996 57.7588 217.987 57.8152 217.966 57.868C217.945 57.9208 217.914 57.9689 217.874 58.0095C217.835 58.0502 217.787 58.0825 217.735 58.1047C217.683 58.1269 217.626 58.1385 217.569 58.1387Z" fill="white"/>
<path d="M168.753 55.468L167.623 55.4691C167.565 55.4703 167.508 55.46 167.454 55.4387C167.4 55.4174 167.351 55.3857 167.309 55.3453C167.268 55.3049 167.235 55.2566 167.212 55.2034C167.19 55.1501 167.178 55.0929 167.178 55.0352C167.178 54.9774 167.189 54.9202 167.212 54.8669C167.234 54.8135 167.267 54.7652 167.308 54.7247C167.349 54.6842 167.399 54.6523 167.452 54.6308C167.506 54.6094 167.564 54.5989 167.622 54.5999L168.753 54.5996C168.868 54.6005 168.978 54.6467 169.059 54.7282C169.139 54.8096 169.185 54.9195 169.185 55.0341C169.186 55.0911 169.175 55.1477 169.154 55.2007C169.133 55.2536 169.101 55.3017 169.061 55.3422C169.021 55.3827 168.972 55.4146 168.92 55.4363C168.867 55.4579 168.81 55.4687 168.753 55.468Z" fill="white"/>
<path d="M213.132 59.6627C213.066 59.6615 213.002 59.6459 212.944 59.617C212.892 59.5939 212.845 59.5605 212.806 59.5188C212.768 59.4772 212.738 59.4281 212.719 59.3747C212.701 59.3212 212.693 59.2645 212.697 59.208C212.701 59.1515 212.716 59.0964 212.742 59.046L216.61 51.0705C216.649 51.001 216.706 50.943 216.774 50.9025C216.843 50.8621 216.921 50.8406 217.001 50.8403C217.081 50.8401 217.159 50.861 217.228 50.901C217.297 50.9411 217.354 50.9987 217.394 51.068L221.268 59.0417C221.317 59.145 221.323 59.2635 221.285 59.3712C221.246 59.479 221.167 59.5672 221.063 59.6168C220.96 59.6663 220.841 59.673 220.733 59.6355C220.624 59.598 220.535 59.5193 220.485 59.4166L217.007 52.2534L213.524 59.4162C213.488 59.4894 213.432 59.5511 213.363 59.5947C213.294 59.6382 213.214 59.6617 213.132 59.6627Z" fill="white"/>
<path d="M78.4088 58.1396L77.2796 58.14C77.2221 58.1408 77.1651 58.1302 77.1118 58.1088C77.0585 58.0875 77.01 58.0559 76.969 58.0158C76.9281 57.9757 76.8955 57.9279 76.8732 57.8751C76.8509 57.8224 76.8393 57.7658 76.8391 57.7086C76.8389 57.6514 76.8501 57.5947 76.872 57.5418C76.8939 57.4889 76.9261 57.4409 76.9668 57.4005C77.0074 57.3601 77.0557 57.3281 77.1088 57.3063C77.162 57.2846 77.2189 57.2736 77.2763 57.2739L78.4132 57.2769C78.47 57.2772 78.5262 57.2886 78.5786 57.3106C78.631 57.3326 78.6785 57.3646 78.7184 57.405C78.7583 57.4453 78.7898 57.493 78.8111 57.5455C78.8325 57.598 78.8432 57.6541 78.8427 57.7108C78.8411 57.8246 78.7948 57.9333 78.7137 58.0135C78.6325 58.0936 78.5231 58.1389 78.4088 58.1396Z" fill="white"/>
<path d="M73.979 59.6732C73.9096 59.6668 73.8413 59.6519 73.7757 59.6287C73.6747 59.5769 73.5977 59.4882 73.5607 59.3812C73.5238 59.2742 73.5297 59.1571 73.5774 59.0543L77.4463 51.075C77.4865 51.006 77.5443 50.9488 77.6139 50.9092C77.6834 50.8697 77.7622 50.8491 77.8423 50.8496C77.9224 50.8502 78.0009 50.8718 78.0699 50.9123C78.1389 50.9528 78.1959 51.0108 78.2352 51.0803L82.1062 59.0498C82.1311 59.1009 82.1457 59.1564 82.1491 59.2131C82.1525 59.2698 82.1446 59.3266 82.126 59.3803C82.1073 59.434 82.0782 59.4835 82.0404 59.526C82.0025 59.5684 81.9567 59.6031 81.9054 59.6279C81.8541 59.6527 81.7984 59.6672 81.7415 59.6706C81.6845 59.674 81.6275 59.6662 81.5736 59.6476C81.5197 59.6291 81.47 59.6001 81.4274 59.5624C81.3847 59.5247 81.35 59.479 81.325 59.4279L77.8367 52.256L74.3557 59.4313C74.3213 59.5022 74.2679 59.5622 74.2014 59.6049C74.135 59.6476 74.058 59.6712 73.979 59.6732Z" fill="white"/>
<path d="M123.147 59.0896C123.031 59.09 122.92 59.0447 122.837 58.9636C122.755 58.8825 122.708 58.7722 122.707 58.6568L122.707 51.261C122.706 51.2046 122.717 51.1485 122.738 51.0962C122.759 51.0439 122.791 50.9964 122.831 50.9564C122.871 50.9164 122.918 50.8848 122.971 50.8635C123.023 50.8421 123.079 50.8315 123.136 50.8321C123.193 50.8309 123.25 50.8411 123.304 50.8622C123.357 50.8833 123.405 50.9148 123.446 50.9549C123.487 50.9949 123.52 51.0427 123.542 51.0955C123.564 51.1482 123.575 51.2048 123.575 51.262L123.576 58.6547C123.577 58.7114 123.566 58.7676 123.545 58.8202C123.524 58.8728 123.492 58.9207 123.452 58.9611C123.412 59.0015 123.365 59.0337 123.312 59.0557C123.26 59.0778 123.204 59.0893 123.147 59.0896Z" fill="white"/>
<path d="M142.263 59.0732C142.148 59.073 142.038 59.0275 141.958 58.9468C141.877 58.8661 141.831 58.7567 141.831 58.6426L141.829 51.3464C141.828 51.2892 141.839 51.2325 141.861 51.1796C141.883 51.1266 141.915 51.0786 141.956 51.0381C141.996 50.9977 142.045 50.9656 142.098 50.9439C142.151 50.9222 142.208 50.9112 142.265 50.9116C142.381 50.9115 142.491 50.9566 142.574 51.037C142.656 51.1174 142.703 51.2268 142.705 51.3417L142.71 58.6378C142.709 58.7546 142.661 58.866 142.577 58.9477C142.493 59.0293 142.38 59.0744 142.263 59.0732Z" fill="white"/>
<path d="M155.84 59.0766L149.492 59.074C149.41 59.0725 149.33 59.048 149.261 59.0034C149.192 58.9588 149.137 58.8958 149.103 58.8216C149.065 58.7469 149.051 58.6627 149.062 58.5799C149.073 58.497 149.108 58.4193 149.164 58.3568L154.89 51.7771L149.739 51.7751C149.682 51.775 149.625 51.7636 149.573 51.7418C149.52 51.7199 149.472 51.688 149.432 51.6477C149.392 51.6074 149.36 51.5597 149.338 51.5071C149.317 51.4546 149.305 51.3983 149.306 51.3415C149.306 51.2847 149.317 51.2285 149.339 51.176C149.361 51.1236 149.393 51.0759 149.433 51.0359C149.474 50.9958 149.522 50.964 149.575 50.9424C149.627 50.9208 149.684 50.9097 149.741 50.9098L155.841 50.9072C155.923 50.9098 156.003 50.9352 156.071 50.9807C156.139 51.0261 156.193 51.0897 156.227 51.1642C156.26 51.2387 156.272 51.3211 156.261 51.4021C156.25 51.483 156.217 51.5593 156.164 51.6221L150.446 58.2087L155.839 58.2067C155.954 58.2078 156.064 58.254 156.146 58.3353C156.227 58.4166 156.273 58.5264 156.274 58.6412C156.275 58.6984 156.264 58.7552 156.243 58.8083C156.222 58.8613 156.19 58.9096 156.149 58.9502C156.109 58.9907 156.06 59.0228 156.007 59.0445C155.954 59.0663 155.897 59.0772 155.84 59.0766Z" fill="white"/>
<path d="M234.988 59.5839C234.905 59.5847 234.823 59.5613 234.753 59.5166C234.683 59.4719 234.628 59.4077 234.594 59.3321L234.129 58.2938C234.083 58.1886 234.081 58.0696 234.123 57.9628C234.165 57.856 234.247 57.7699 234.352 57.7231C234.404 57.6992 234.461 57.6861 234.519 57.6847C234.576 57.6833 234.633 57.6935 234.687 57.7148C234.74 57.7361 234.789 57.768 234.829 57.8085C234.87 57.8491 234.902 57.8974 234.923 57.9507L235.387 58.9793C235.41 59.0308 235.422 59.0863 235.424 59.1426C235.425 59.1989 235.415 59.2549 235.395 59.3074C235.374 59.3599 235.343 59.4078 235.304 59.4484C235.265 59.4891 235.218 59.5216 235.166 59.5441C235.111 59.5717 235.05 59.5853 234.988 59.5839Z" fill="white"/>
</svg>
