<svg width="128" height="30" viewBox="0 0 128 30" fill="none" xmlns="http://www.w3.org/2000/svg">
<path d="M3.49394 5.56576H1.35813V4.74755H3.65813V0.165527H5.13683V4.74755H6.28683V5.56576H5.13684V7.52959C5.77316 8.15238 6.3764 8.80783 6.9441 9.49327C6.8888 10.4752 6.75186 11.1298 6.53329 11.4571C6.1496 11.1299 5.68411 10.148 5.13684 8.51151V20.3757H3.65813V11.1299C2.94574 12.6026 2.17907 14.0754 1.35814 15.5483H0.865234C2.34878 12.4096 3.23985 9.02571 3.49394 5.56576ZM8.42264 6.38397V0.165527H9.90134V12.93C9.95526 14.785 8.80521 17.2125 6.45119 20.2124H5.62974C7.437 18.0298 8.36797 15.6568 8.42265 13.0935V10.9661C7.9299 12.7126 7.10845 13.8036 5.95829 14.2392C6.00968 13.5677 5.89695 12.8939 5.62974 12.2753C6.66946 12.2216 7.60043 11.4307 8.42265 9.90245V7.03863L7.437 8.67506C7.2175 7.69314 7.02583 6.71128 6.862 5.72946C6.71309 4.8642 6.6307 3.98888 6.61555 3.11112L6.69764 3.02935C7.34894 4.10698 7.92529 5.22781 8.42266 6.38397L8.42264 6.38397ZM10.7228 18.9028V0.165527H12.2015V7.61137L14.3373 3.43838L14.9944 3.76563L12.2015 9.16601C13.1027 9.98672 13.9532 10.8611 14.7481 11.7844C14.6539 12.4999 14.4313 13.1928 14.0909 13.83C13.5428 13.2853 12.913 11.9489 12.2015 9.82067V17.7575C12.1464 18.3572 12.4475 18.6572 13.1051 18.6573C13.7623 18.6573 14.1183 18.3574 14.173 17.7575L14.6659 14.2392H15.0767V17.1028H15.3231V18.7396C15.2678 19.7215 14.7201 20.2124 13.6801 20.2124H12.1194C11.1336 20.1572 10.6681 19.7206 10.7228 18.9028L10.7228 18.9028Z" fill="white"/>
<path d="M31.8109 0.492676V1.06541H41.0936L41.0113 0.492676H42.7365V20.2939H41.0113V19.2304H31.8931V20.2939H30.168V0.492676H31.8109ZM41.0113 1.96555H31.8109V18.4117H41.0113V1.96555ZM35.4254 11.457H34.8504V12.1115H33.2896V7.52948H34.8504V8.26592H38.3005V7.61126H39.8613V11.9479L40.1078 11.6207L40.6828 12.1115L38.4649 14.5663C38.9576 15.0035 39.7243 15.3308 40.7649 15.5482C40.5486 15.8696 40.4132 16.2382 40.3703 16.6227C40.3274 17.0073 40.3782 17.3965 40.5184 17.7574C38.8204 17.3213 37.3965 15.6576 36.2468 12.7662C36.1794 12.8388 36.124 12.9217 36.0826 13.0116V17.9211H34.6039V14.3208C34.0559 14.7581 33.3987 15.2763 32.6323 15.8755H31.8931C33.5899 14.5663 34.7674 13.0935 35.4254 11.457V11.457ZM35.6718 2.2928H37.2326V3.68374H40.0257V4.42017H37.2326V6.13853H40.6007V6.95674H32.2217V6.13853H35.6718V4.42018H32.7146V3.68375H35.6718V2.2928ZM38.3005 9.00218H34.8504V10.7205H38.3005V9.00218ZM38.3005 11.457H37.2326C37.0224 11.8099 36.7745 12.1391 36.4933 12.4389C36.8212 13.1333 37.2979 13.7477 37.8897 14.239L39.697 12.1934H38.3005L38.3005 11.457Z" fill="white"/>
<path d="M57.8281 3.84769V2.94755H64.5642C64.4644 2.82258 64.3816 2.68505 64.3178 2.53852C63.8788 1.75864 63.5209 0.936104 63.2499 0.0837307L63.332 0.00195312C64.228 0.470993 65.0802 1.01863 65.8786 1.63837C65.7494 2.11409 65.526 2.55922 65.2213 2.94754H71.9575V3.84769H65.7142V7.12053H68.5894V6.3841H70.3146V16.0392C70.2593 17.1849 69.5473 18.0032 68.1786 18.4942C68.1235 18.1117 67.9318 17.9753 67.6036 18.0849L66.3715 18.3303L66.2072 17.9213C67.904 17.7039 68.6981 17.1039 68.5894 16.1212V8.02068H65.7142V20.3758H63.9892V8.02068H61.0318V18.0849H59.3068V6.3841H61.0318V7.12054H63.9892V3.8477L57.8281 3.84769Z" fill="white"/>
<path d="M85.5703 17.7575H86.6382V0.165527H88.3634V0.983739H96.2495V0.165527H97.9747V6.71138H96.2495V5.89317H93.6208V9.5752H98.8782V10.4752H93.7029C93.9212 14.1304 95.3724 16.5578 98.0568 17.7575L98.7961 13.9117L99.1247 13.9937L98.8782 17.9212L99.3711 18.0847V20.294C94.6605 18.8212 92.1961 15.5482 91.9779 10.4752H88.3634V17.7575C89.5134 17.4851 90.773 16.8305 92.1421 15.7936C92.3065 15.685 92.3604 15.7399 92.3065 15.9573C91.3746 17.7575 89.184 19.1212 85.7347 20.0486C85.9529 19.5024 85.8981 18.7387 85.5703 17.7575ZM96.2495 1.88374H88.3634V4.99304H96.2495V1.88374ZM88.3634 5.89318V9.5752H91.8958V5.89317L88.3634 5.89318Z" fill="white"/>
<path d="M118.898 7.69313V0.165527H120.705V3.43837H126.291V4.42029H120.705V7.69313H127.277V8.67505H120.705V20.3757H118.898V8.67505H113.312V7.69313H118.898ZM121.691 10.0662L121.773 9.98422C121.792 10.1576 121.848 10.325 121.937 10.4752C122.977 12.6026 124.319 13.9663 125.963 14.5664C125.636 15.3757 125.606 16.2742 125.881 17.1028L125.716 17.1847C123.197 16.1491 121.855 13.7763 121.691 10.0662Z" fill="white"/>
<path d="M18.1531 29.7724C17.7246 29.7726 17.3058 29.6462 16.9495 29.4092C16.5932 29.1723 16.3154 28.8354 16.1514 28.4412C15.9873 28.0469 15.9444 27.6131 16.0279 27.1946C16.1114 26.776 16.3177 26.3915 16.6206 26.0898C16.9235 25.788 17.3095 25.5825 17.7297 25.4992C18.1499 25.416 18.5854 25.4587 18.9812 25.6221C19.377 25.7854 19.7153 26.062 19.9533 26.4168C20.1912 26.7717 20.3182 27.1889 20.3181 27.6156C20.317 28.1873 20.0885 28.7352 19.6828 29.1394C19.277 29.5436 18.727 29.7713 18.1531 29.7724ZM18.1525 25.8944C17.8112 25.8953 17.4778 25.9968 17.1944 26.1862C16.911 26.3757 16.6903 26.6445 16.5602 26.9587C16.43 27.273 16.3962 27.6186 16.4631 27.9519C16.53 28.2853 16.6945 28.5914 16.9359 28.8317C17.1773 29.072 17.4848 29.2357 17.8195 29.3021C18.1542 29.3685 18.5012 29.3346 18.8166 29.2048C19.132 29.0749 19.4017 28.8549 19.5917 28.5725C19.7817 28.2901 19.8834 27.958 19.8841 27.618C19.8835 27.1609 19.7008 26.7226 19.3762 26.3995C19.0515 26.0763 18.6114 25.8947 18.1525 25.8944V25.8944Z" fill="white"/>
<path d="M5.51867 25.9661L1.65901 25.9655C1.63079 25.9657 1.60281 25.9603 1.5767 25.9496C1.55059 25.939 1.52687 25.9232 1.50693 25.9033C1.487 25.8835 1.47124 25.8598 1.46058 25.8338C1.44992 25.8077 1.44457 25.7799 1.44485 25.7518C1.44442 25.723 1.44974 25.6945 1.4605 25.6678C1.47127 25.6412 1.48725 25.6169 1.50752 25.5965C1.52779 25.5761 1.55195 25.5599 1.57858 25.5488C1.60521 25.5378 1.63377 25.5321 1.66261 25.5322L5.51826 25.5324C5.54689 25.5325 5.57524 25.5382 5.60167 25.5492C5.6281 25.5602 5.6521 25.5762 5.6723 25.5964C5.69249 25.6167 5.70849 25.6407 5.71938 25.667C5.73026 25.6934 5.73581 25.7217 5.73572 25.7502C5.73635 25.7788 5.73117 25.8071 5.72048 25.8336C5.70979 25.8601 5.69383 25.8842 5.67354 25.9044C5.65325 25.9246 5.62907 25.9404 5.60245 25.951C5.57583 25.9616 5.54733 25.9668 5.51867 25.9661V25.9661Z" fill="white"/>
<path d="M3.5905 29.703C3.56164 29.7038 3.53292 29.6988 3.50612 29.6881C3.47932 29.6774 3.45501 29.6613 3.43469 29.6409C3.41437 29.6205 3.39848 29.5961 3.388 29.5693C3.37752 29.5425 3.37267 29.5139 3.37376 29.4852L3.37118 27.2449C3.37035 27.2161 3.3754 27.1874 3.38601 27.1605C3.39662 27.1337 3.41259 27.1093 3.43293 27.0888C3.45328 27.0683 3.47759 27.0521 3.50439 27.0412C3.5312 27.0303 3.55994 27.0249 3.58888 27.0254C3.64706 27.0258 3.70275 27.049 3.74391 27.09C3.78507 27.1309 3.80838 27.1864 3.80883 27.2443L3.80992 29.4853C3.81015 29.514 3.80463 29.5425 3.79367 29.5691C3.78271 29.5956 3.76654 29.6198 3.74611 29.6401C3.72568 29.6603 3.70139 29.6763 3.67467 29.6871C3.64795 29.698 3.61934 29.7034 3.5905 29.703V29.703Z" fill="white"/>
<path d="M69.6375 25.966L65.7829 25.9642C65.7541 25.9645 65.7255 25.9591 65.6988 25.9483C65.6721 25.9375 65.6478 25.9216 65.6274 25.9014C65.6069 25.8813 65.5906 25.8573 65.5795 25.8308C65.5683 25.8044 65.5626 25.776 65.5625 25.7473C65.5636 25.6895 65.5873 25.6345 65.6285 25.5939C65.6698 25.5533 65.7253 25.5304 65.7833 25.53L69.6385 25.5322C69.6673 25.5312 69.696 25.5361 69.7228 25.5466C69.7496 25.557 69.774 25.5729 69.7944 25.5931C69.8148 25.6133 69.8308 25.6375 69.8415 25.6642C69.8522 25.6908 69.8572 25.7193 69.8564 25.748C69.8565 25.7767 69.8509 25.8051 69.8399 25.8316C69.829 25.8581 69.8128 25.8821 69.7925 25.9024C69.7721 25.9227 69.748 25.9387 69.7214 25.9496C69.6948 25.9605 69.6663 25.9661 69.6375 25.966Z" fill="white"/>
<path d="M67.7126 29.7027C67.654 29.7017 67.598 29.678 67.5567 29.6365C67.5154 29.5951 67.4919 29.5392 67.4912 29.4808L67.4915 27.2395C67.492 27.1816 67.5153 27.1261 67.5566 27.0853C67.5978 27.0445 67.6536 27.0215 67.7118 27.0215C67.7406 27.0216 67.7692 27.0273 67.7958 27.0385C67.8223 27.0496 67.8465 27.0659 67.8667 27.0863C67.8869 27.1068 67.9029 27.1311 67.9137 27.1577C67.9244 27.1844 67.9298 27.2129 67.9294 27.2416L67.9281 29.4805C67.9286 29.5092 67.9235 29.5377 67.9129 29.5644C67.9024 29.5911 67.8866 29.6155 67.8666 29.6361C67.8466 29.6568 67.8227 29.6733 67.7963 29.6847C67.7699 29.6961 67.7414 29.7023 67.7126 29.7027V29.7027Z" fill="white"/>
<path d="M25.4326 29.7022C25.4035 29.7023 25.3747 29.6966 25.3478 29.6856C25.3209 29.6745 25.2965 29.6583 25.2759 29.6379C25.2554 29.6175 25.239 29.5932 25.2279 29.5664C25.2167 29.5397 25.211 29.511 25.2109 29.4821L25.2118 28.8285C25.2122 28.7707 25.2356 28.7155 25.2768 28.6749C25.318 28.6343 25.3737 28.6115 25.4316 28.6116C25.4602 28.6112 25.4886 28.6165 25.5152 28.6272C25.5417 28.6379 25.5658 28.6538 25.586 28.6739C25.6063 28.694 25.6224 28.718 25.6332 28.7444C25.6441 28.7707 25.6495 28.799 25.6493 28.8275L25.6522 29.487C25.6509 29.5442 25.6272 29.5988 25.5862 29.6389C25.5452 29.6791 25.4901 29.7018 25.4326 29.7022Z" fill="white"/>
<path d="M32.7109 29.7045C32.162 29.7022 31.6363 29.4837 31.2485 29.0967C30.8608 28.7097 30.6424 28.1857 30.6411 27.639L30.6456 25.7495C30.6454 25.7212 30.6508 25.6931 30.6615 25.6668C30.6723 25.6406 30.6881 25.6168 30.7081 25.5966C30.7281 25.5765 30.7519 25.5605 30.7781 25.5496C30.8043 25.5387 30.8325 25.533 30.8609 25.5329C30.8893 25.5329 30.9175 25.5384 30.9438 25.5492C30.97 25.56 30.9939 25.5759 31.014 25.5959C31.0341 25.6159 31.0501 25.6397 31.0609 25.6659C31.0718 25.6921 31.0773 25.7201 31.0772 25.7484L31.0804 27.6414C31.0806 28.073 31.2529 28.4867 31.5594 28.7917C31.8659 29.0967 32.2815 29.268 32.7147 29.2678C33.148 29.2676 33.5634 29.0959 33.8696 28.7907C34.1758 28.4854 34.3477 28.0714 34.3475 27.6399L34.344 25.7486C34.3444 25.6906 34.3678 25.635 34.4091 25.594C34.4504 25.553 34.5062 25.5298 34.5645 25.5295C34.6223 25.5314 34.6772 25.5552 34.7179 25.5961C34.7586 25.637 34.7821 25.6918 34.7836 25.7494L34.7825 27.6394C34.7819 28.1867 34.5635 28.7113 34.1752 29.0984C33.7868 29.4855 33.2603 29.7035 32.7109 29.7045V29.7045Z" fill="white"/>
<path d="M49.1236 29.7032C49.0657 29.7025 49.0105 29.6791 48.97 29.638C48.9294 29.597 48.9068 29.5416 48.9071 29.484L48.9054 27.6267C48.9059 27.4129 48.8641 27.201 48.7823 27.0033C48.7005 26.8057 48.5804 26.626 48.4287 26.4747C48.2771 26.3233 48.0969 26.2033 47.8986 26.1214C47.7003 26.0396 47.4877 25.9975 47.273 25.9977C47.0583 25.9979 46.8458 26.0402 46.6476 26.1223C46.4494 26.2045 46.2694 26.3248 46.118 26.4763C45.9666 26.6279 45.8467 26.8077 45.7652 27.0055C45.6836 27.2033 45.6421 27.4152 45.643 27.629L45.6404 29.4835C45.6408 29.5121 45.6355 29.5406 45.6248 29.5672C45.6141 29.5938 45.5983 29.6181 45.5781 29.6385C45.5579 29.659 45.5339 29.6752 45.5074 29.6864C45.4809 29.6975 45.4524 29.7033 45.4236 29.7035C45.3948 29.7036 45.3663 29.698 45.3397 29.6871C45.3131 29.6761 45.289 29.66 45.2686 29.6398C45.2483 29.6195 45.2322 29.5953 45.2213 29.5688C45.2104 29.5423 45.2049 29.5139 45.2051 29.4852L45.2086 27.6296C45.2083 27.3588 45.2615 27.0907 45.3653 26.8404C45.469 26.5901 45.6213 26.3627 45.8134 26.1711C46.0055 25.9795 46.2336 25.8275 46.4847 25.7238C46.7358 25.6201 47.005 25.5667 47.2768 25.5667C47.5487 25.5666 47.8178 25.62 48.069 25.7236C48.3201 25.8273 48.5482 25.9793 48.7403 26.1708C48.9325 26.3624 49.0848 26.5898 49.1886 26.84C49.2924 27.0903 49.3457 27.3584 49.3454 27.6292L49.3448 29.484C49.3448 29.5129 49.3391 29.5415 49.3279 29.5682C49.3168 29.5949 49.3005 29.6191 49.28 29.6394C49.2594 29.6598 49.235 29.6759 49.2082 29.6869C49.1813 29.6978 49.1526 29.7034 49.1236 29.7032V29.7032Z" fill="white"/>
<path d="M93.9496 29.6982C93.8921 29.6986 93.8367 29.6763 93.7956 29.6362C93.7545 29.5961 93.7309 29.5414 93.7301 29.4841L93.7301 27.6251C93.7306 27.4117 93.6887 27.2002 93.607 27.0029C93.5253 26.8055 93.4053 26.6262 93.2539 26.4751C93.1025 26.3241 92.9226 26.2043 92.7246 26.1225C92.5266 26.0408 92.3144 25.9988 92.1001 25.9989C91.8858 25.9991 91.6736 26.0413 91.4757 26.1232C91.2778 26.2052 91.0981 26.3252 90.9469 26.4764C90.7956 26.6277 90.6758 26.8071 90.5943 27.0045C90.5128 27.202 90.4712 27.4135 90.4719 27.6269L90.4672 29.481C90.4674 29.5096 90.4618 29.538 90.4509 29.5645C90.44 29.591 90.4239 29.6151 90.4036 29.6354C90.3833 29.6557 90.3592 29.6718 90.3326 29.6828C90.306 29.6938 90.2776 29.6995 90.2488 29.6995C90.2201 29.6995 90.1916 29.6938 90.165 29.6828C90.1384 29.6719 90.1143 29.6558 90.094 29.6355C90.0737 29.6152 90.0576 29.5911 90.0467 29.5646C90.0358 29.5381 90.0302 29.5097 90.0303 29.4811L90.0309 27.6259C90.0309 27.0793 90.2489 26.555 90.637 26.1684C91.0251 25.7819 91.5514 25.5647 92.1003 25.5647C92.6491 25.5647 93.1755 25.7819 93.5635 26.1684C93.9516 26.5549 94.1697 27.0792 94.1697 27.6259L94.1724 29.4813C94.1717 29.5395 94.1479 29.595 94.1061 29.6357C94.0643 29.6764 94.008 29.6989 93.9496 29.6982Z" fill="white"/>
<path d="M59.9054 29.7032L58.4408 29.7013C58.1687 29.7013 57.8992 29.6479 57.6479 29.544C57.3965 29.44 57.1682 29.2877 56.9761 29.0958C56.784 28.9038 56.6317 28.676 56.5282 28.4253C56.4246 28.1746 56.3717 27.9061 56.3726 27.635C56.3744 27.0852 56.5913 26.5578 56.9772 26.1647C57.3631 25.7717 57.8876 25.5439 58.4394 25.5298L59.9043 25.5304C59.9622 25.5309 60.0176 25.5538 60.0589 25.5942C60.1001 25.6347 60.124 25.6895 60.1254 25.7472C60.1253 25.7759 60.1196 25.8043 60.1085 25.8308C60.0974 25.8573 60.0812 25.8814 60.0607 25.9016C60.0403 25.9218 60.016 25.9378 59.9893 25.9487C59.9626 25.9595 59.934 25.965 59.9052 25.9648L58.4393 25.9661C58.0027 25.9775 57.5879 26.1584 57.2835 26.4702C56.979 26.782 56.8089 27.2 56.8096 27.6349C56.8091 28.0664 56.9805 28.4805 57.2862 28.7862C57.5919 29.092 58.0069 29.2644 58.4401 29.2656L59.9044 29.2657C59.9332 29.2656 59.9617 29.2711 59.9884 29.282C60.015 29.2929 60.0392 29.3089 60.0596 29.3291C60.08 29.3494 60.0962 29.3734 60.1072 29.3999C60.1182 29.4264 60.1239 29.4548 60.1239 29.4835C60.1233 29.5412 60.1001 29.5964 60.0593 29.6374C60.0185 29.6785 59.9633 29.702 59.9054 29.7032V29.7032Z" fill="white"/>
<path d="M105.098 29.7013L103.636 29.7013C103.363 29.7013 103.093 29.6477 102.841 29.5436C102.589 29.4395 102.36 29.287 102.167 29.0948C101.975 28.9026 101.822 28.6744 101.717 28.4233C101.613 28.1722 101.559 27.9031 101.56 27.6314C101.562 27.0808 101.781 26.553 102.168 26.1603C102.556 25.7676 103.082 25.5409 103.634 25.5284L105.096 25.5281C105.125 25.5278 105.153 25.5332 105.18 25.5439C105.207 25.5547 105.231 25.5706 105.252 25.5908C105.272 25.611 105.289 25.635 105.3 25.6615C105.311 25.688 105.317 25.7164 105.317 25.7451C105.316 25.8035 105.293 25.8593 105.251 25.9003C105.209 25.9413 105.153 25.9641 105.094 25.9638L103.635 25.9625C103.198 25.9733 102.783 26.1538 102.477 26.4655C102.172 26.7773 102.001 27.1955 102.001 27.6309C102.001 27.845 102.042 28.0572 102.124 28.2552C102.206 28.4532 102.326 28.6332 102.478 28.7849C102.629 28.9366 102.81 29.0569 103.008 29.139C103.207 29.2211 103.419 29.2634 103.634 29.2633L105.098 29.2634C105.156 29.2635 105.212 29.2866 105.253 29.3277C105.295 29.3688 105.318 29.4245 105.318 29.4826C105.318 29.5406 105.294 29.5963 105.253 29.6373C105.212 29.6784 105.156 29.7014 105.098 29.7013V29.7013Z" fill="white"/>
<path d="M116.055 29.9916C116.026 29.9916 115.998 29.9859 115.971 29.9748C115.944 29.9638 115.92 29.9476 115.9 29.9272C115.879 29.9068 115.863 29.8826 115.853 29.856C115.842 29.8294 115.836 29.8009 115.836 29.7722L115.835 27.8563C115.835 27.8273 115.84 27.7986 115.851 27.7717C115.862 27.7448 115.878 27.7203 115.898 27.6996C115.919 27.6789 115.943 27.6623 115.969 27.6509C115.996 27.6395 116.025 27.6334 116.054 27.6331L118.711 27.6344C118.931 27.6335 119.141 27.5461 119.296 27.3913C119.451 27.2366 119.539 27.027 119.54 26.8082C119.539 26.5872 119.451 26.3753 119.296 26.2175C119.141 26.0596 118.93 25.9682 118.708 25.9627L116.053 25.9617C115.996 25.9614 115.941 25.9384 115.901 25.8978C115.86 25.8571 115.837 25.8021 115.838 25.7449C115.838 25.6876 115.861 25.6328 115.902 25.5924C115.942 25.552 115.997 25.5294 116.055 25.5295L118.71 25.5291C119.047 25.5322 119.369 25.6677 119.606 25.9062C119.843 26.1447 119.976 26.4668 119.976 26.8023C119.975 27.1379 119.842 27.4598 119.605 27.6979C119.367 27.936 119.045 28.071 118.708 28.0737L116.274 28.0741L116.275 29.7738C116.275 29.8317 116.251 29.8871 116.21 29.9279C116.169 29.9687 116.113 29.9916 116.055 29.9916Z" fill="white"/>
<path d="M125.203 29.6924L123.344 29.6935C123.315 29.6939 123.286 29.6884 123.26 29.6775C123.233 29.6665 123.208 29.6503 123.188 29.6298C123.168 29.6093 123.152 29.585 123.141 29.5582C123.13 29.5314 123.125 29.5027 123.126 29.4739L123.124 25.7448C123.123 25.7163 123.129 25.688 123.14 25.6616C123.151 25.6352 123.167 25.6112 123.187 25.591C123.207 25.5709 123.231 25.555 123.258 25.5442C123.284 25.5334 123.313 25.528 123.341 25.5283L125.204 25.5287C125.756 25.54 126.282 25.7661 126.67 26.1586C127.057 26.551 127.275 27.0788 127.277 27.6292C127.276 28.1765 127.057 28.7012 126.668 29.088C126.279 29.4748 125.752 29.6921 125.203 29.6924V29.6924ZM123.561 29.2527L125.205 29.2531C125.637 29.2532 126.051 29.0828 126.358 28.779C126.664 28.4753 126.836 28.063 126.838 27.6327C126.838 27.1969 126.668 26.7783 126.363 26.466C126.057 26.1537 125.642 25.9725 125.205 25.961L123.561 25.9625L123.561 29.2527Z" fill="white"/>
<path d="M86.458 29.6956L84.8176 29.6963C84.269 29.6949 83.7432 29.477 83.3556 29.0903C82.9679 28.7036 82.75 28.1796 82.7495 27.6331C82.7508 27.0829 82.9679 26.5549 83.3543 26.1617C83.7408 25.7686 84.2661 25.5413 84.8183 25.5283L86.4597 25.5299C86.4887 25.5295 86.5174 25.5348 86.5442 25.5456C86.571 25.5564 86.5953 25.5724 86.6159 25.5927C86.6364 25.613 86.6526 25.6372 86.6636 25.6638C86.6746 25.6904 86.6802 25.719 86.6799 25.7478C86.6797 25.7766 86.6737 25.805 86.6623 25.8315C86.6508 25.8579 86.6342 25.8819 86.6134 25.9018C86.5925 25.9218 86.5679 25.9374 86.5409 25.9478C86.5139 25.9581 86.4851 25.963 86.4562 25.9621L84.8163 25.9642C84.3804 25.9768 83.9665 26.1578 83.6621 26.4689C83.3578 26.78 83.1869 27.1968 83.1855 27.6311C83.1868 28.0622 83.3595 28.4751 83.6659 28.7795C83.9723 29.0839 84.3873 29.255 84.82 29.2552L86.4571 29.2543C86.5156 29.2545 86.5718 29.2777 86.6132 29.319C86.6546 29.3602 86.6779 29.4162 86.678 29.4745C86.6782 29.5328 86.6551 29.5889 86.6139 29.6303C86.5726 29.6717 86.5166 29.6952 86.4581 29.6956L86.458 29.6956Z" fill="white"/>
<path d="M25.4336 27.7239C25.4039 27.7254 25.3741 27.7204 25.3465 27.7091C25.319 27.6978 25.2942 27.6806 25.2741 27.6587L23.5238 25.9137C23.4834 25.8727 23.4605 25.8175 23.46 25.76C23.4595 25.7025 23.4813 25.647 23.521 25.6052C23.5411 25.5844 23.5651 25.568 23.5917 25.5568C23.6184 25.5456 23.647 25.5399 23.6759 25.54C23.7048 25.5402 23.7333 25.5461 23.7598 25.5576C23.7863 25.5691 23.8102 25.5858 23.83 25.6067L25.4316 27.1968L27.0331 25.6045C27.0531 25.5841 27.077 25.5678 27.1034 25.5567C27.1299 25.5456 27.1582 25.5399 27.1869 25.5398C27.2156 25.5397 27.244 25.5454 27.2704 25.5563C27.2969 25.5673 27.3209 25.5835 27.3411 25.6038C27.3617 25.6242 27.3781 25.6484 27.3893 25.6752C27.4005 25.7019 27.4062 25.7305 27.4062 25.7595C27.4063 25.7885 27.4005 25.8171 27.3894 25.8439C27.3782 25.8706 27.3618 25.8949 27.3412 25.9153L25.5846 27.6596C25.5656 27.6805 25.5422 27.697 25.5162 27.7081C25.4901 27.7192 25.462 27.7246 25.4336 27.7239V27.7239Z" fill="white"/>
<path d="M11.1573 29.2236L10.5814 29.2263C10.5231 29.2255 10.4675 29.2017 10.4267 29.1602C10.3859 29.1186 10.3633 29.0627 10.3638 29.0046C10.3643 28.9465 10.3878 28.891 10.4293 28.8501C10.4707 28.8093 10.5267 28.7864 10.5851 28.7866L11.1563 28.7861C11.2145 28.786 11.2704 28.8089 11.3117 28.8498C11.353 28.8908 11.3762 28.9463 11.3764 29.0044C11.3765 29.0624 11.3535 29.1181 11.3124 29.1592C11.2713 29.2003 11.2155 29.2235 11.1573 29.2236V29.2236Z" fill="white"/>
<path d="M12.8283 29.9963C12.7871 29.9966 12.7466 29.985 12.7117 29.963C12.6769 29.941 12.6491 29.9095 12.6317 29.8723L10.8716 26.2509L9.11287 29.8761C9.08607 29.9274 9.04041 29.9663 8.98542 29.9848C8.93044 30.0033 8.87041 29.9998 8.8179 29.9752C8.79189 29.9628 8.76863 29.9453 8.74948 29.9238C8.73034 29.9023 8.71569 29.8772 8.70639 29.85C8.6971 29.8228 8.69334 29.794 8.69535 29.7653C8.69736 29.7367 8.70508 29.7087 8.71808 29.683L10.6697 25.6569C10.6898 25.6222 10.7186 25.5933 10.7533 25.5731C10.788 25.5529 10.8274 25.5421 10.8675 25.5418C10.9077 25.5414 10.9473 25.5515 10.9824 25.5711C11.0174 25.5907 11.0467 25.6191 11.0673 25.6535L13.0243 29.6812C13.0497 29.7336 13.0534 29.7937 13.0348 29.8488C13.0162 29.9039 12.9767 29.9496 12.9247 29.976C12.8944 29.9896 12.8615 29.9965 12.8283 29.9963Z" fill="white"/>
<path d="M110.588 29.2221L110.016 29.2214C109.987 29.2216 109.958 29.216 109.931 29.205C109.904 29.1939 109.879 29.1777 109.859 29.1572C109.838 29.1366 109.821 29.1122 109.81 29.0854C109.799 29.0585 109.793 29.0297 109.793 29.0006C109.794 28.9715 109.799 28.9427 109.811 28.9159C109.822 28.8891 109.838 28.8647 109.859 28.8443C109.88 28.8239 109.905 28.8077 109.932 28.7968C109.959 28.7859 109.988 28.7805 110.017 28.7808L110.588 28.7831C110.617 28.783 110.645 28.7887 110.672 28.7997C110.698 28.8107 110.722 28.8269 110.742 28.8472C110.762 28.8676 110.778 28.8918 110.788 28.9183C110.799 28.9448 110.804 28.9731 110.803 29.0016C110.804 29.0302 110.799 29.0587 110.788 29.0853C110.778 29.112 110.762 29.1363 110.742 29.1569C110.722 29.1774 110.698 29.1937 110.671 29.2049C110.645 29.2162 110.616 29.222 110.588 29.2221Z" fill="white"/>
<path d="M85.9241 27.8728L85.3535 27.8734C85.3242 27.874 85.295 27.8688 85.2678 27.858C85.2405 27.8473 85.2157 27.8312 85.1947 27.8108C85.1738 27.7904 85.1571 27.766 85.1457 27.7391C85.1343 27.7122 85.1285 27.6833 85.1284 27.6541C85.1284 27.6249 85.1342 27.596 85.1455 27.5691C85.1568 27.5422 85.1734 27.5177 85.1943 27.4973C85.2152 27.4768 85.2399 27.4607 85.2672 27.4499C85.2944 27.439 85.3235 27.4337 85.3528 27.4343L85.9241 27.4341C85.9822 27.4345 86.0377 27.4579 86.0786 27.499C86.1195 27.5402 86.1424 27.5957 86.1423 27.6536C86.1429 27.6824 86.1377 27.711 86.1269 27.7378C86.1162 27.7645 86.1002 27.7888 86.0798 27.8093C86.0594 27.8297 86.0352 27.8459 86.0084 27.8568C85.9817 27.8677 85.953 27.8732 85.9241 27.8728V27.8728Z" fill="white"/>
<path d="M108.346 29.9923C108.313 29.9917 108.28 29.9838 108.251 29.9692C108.224 29.9575 108.201 29.9406 108.181 29.9196C108.162 29.8985 108.147 29.8738 108.137 29.8468C108.128 29.8198 108.124 29.7911 108.126 29.7626C108.128 29.734 108.136 29.7062 108.149 29.6807L110.103 25.6512C110.123 25.6161 110.151 25.5868 110.186 25.5663C110.221 25.5459 110.26 25.535 110.301 25.5349C110.341 25.5348 110.381 25.5454 110.416 25.5656C110.45 25.5858 110.479 25.6149 110.499 25.6499L112.456 29.6785C112.481 29.7307 112.484 29.7906 112.465 29.845C112.446 29.8995 112.405 29.944 112.353 29.9691C112.301 29.9941 112.241 29.9975 112.186 29.9785C112.131 29.9596 112.086 29.9198 112.061 29.8679L110.304 26.2488L108.544 29.8677C108.526 29.9047 108.498 29.9359 108.463 29.9579C108.428 29.9799 108.387 29.9918 108.346 29.9923V29.9923Z" fill="white"/>
<path d="M40.2794 29.2225L39.7089 29.2227C39.6798 29.2231 39.651 29.2178 39.6241 29.207C39.5972 29.1962 39.5727 29.1802 39.552 29.16C39.5313 29.1397 39.5148 29.1155 39.5036 29.0889C39.4923 29.0623 39.4864 29.0337 39.4863 29.0048C39.4862 28.9759 39.4919 28.9472 39.5029 28.9205C39.514 28.8938 39.5303 28.8695 39.5508 28.8491C39.5714 28.8287 39.5958 28.8125 39.6226 28.8015C39.6494 28.7906 39.6782 28.785 39.7072 28.7852L40.2816 28.7866C40.3103 28.7868 40.3387 28.7926 40.3652 28.8037C40.3916 28.8148 40.4156 28.831 40.4358 28.8514C40.456 28.8717 40.4719 28.8959 40.4827 28.9224C40.4934 28.9489 40.4989 28.9773 40.4986 29.0059C40.4978 29.0634 40.4744 29.1183 40.4334 29.1588C40.3924 29.1993 40.3371 29.2222 40.2794 29.2225V29.2225Z" fill="white"/>
<path d="M38.0413 29.9975C38.0062 29.9943 37.9717 29.9868 37.9386 29.9751C37.8876 29.9489 37.8486 29.9041 37.83 29.85C37.8113 29.7959 37.8143 29.7368 37.8384 29.6849L39.7931 25.6534C39.8134 25.6186 39.8426 25.5897 39.8778 25.5697C39.9129 25.5497 39.9527 25.5393 39.9932 25.5396C40.0336 25.5398 40.0733 25.5508 40.1082 25.5712C40.143 25.5917 40.1718 25.621 40.1917 25.6561L42.1474 29.6826C42.16 29.7084 42.1674 29.7364 42.1691 29.7651C42.1708 29.7937 42.1669 29.8224 42.1574 29.8495C42.148 29.8767 42.1333 29.9017 42.1142 29.9231C42.0951 29.9446 42.0719 29.9621 42.046 29.9747C42.0201 29.9872 41.9919 29.9945 41.9632 29.9962C41.9344 29.9979 41.9056 29.994 41.8784 29.9846C41.8511 29.9752 41.826 29.9606 41.8045 29.9416C41.7829 29.9225 41.7654 29.8994 41.7528 29.8736L39.9904 26.2501L38.2316 29.8753C38.2142 29.9111 38.1873 29.9415 38.1537 29.963C38.1201 29.9846 38.0812 29.9965 38.0413 29.9975V29.9975Z" fill="white"/>
<path d="M62.8823 29.7025C62.8238 29.7027 62.7676 29.6799 62.7259 29.6389C62.6843 29.5979 62.6606 29.5422 62.6602 29.4839L62.6604 25.7472C62.6599 25.7187 62.6652 25.6904 62.6759 25.664C62.6866 25.6376 62.7025 25.6135 62.7227 25.5933C62.7429 25.5731 62.7669 25.5572 62.7934 25.5464C62.8199 25.5356 62.8483 25.5302 62.8769 25.5306C62.9059 25.53 62.9347 25.5351 62.9616 25.5458C62.9885 25.5564 63.0131 25.5723 63.0337 25.5926C63.0544 25.6128 63.0708 25.637 63.0819 25.6636C63.0931 25.6903 63.0988 25.7189 63.0986 25.7477L63.0994 29.4828C63.0998 29.5114 63.0944 29.5399 63.0836 29.5664C63.0729 29.593 63.0569 29.6172 63.0368 29.6376C63.0166 29.658 62.9926 29.6743 62.9661 29.6854C62.9396 29.6966 62.9111 29.7024 62.8823 29.7025Z" fill="white"/>
<path d="M72.5407 29.6943C72.4828 29.6942 72.4273 29.6712 72.3864 29.6305C72.3455 29.5897 72.3225 29.5344 72.3225 29.4767L72.3213 25.7905C72.3211 25.7616 72.3267 25.7329 72.3377 25.7062C72.3487 25.6794 72.365 25.6551 72.3855 25.6347C72.406 25.6143 72.4304 25.5981 72.4573 25.5871C72.4841 25.5762 72.5129 25.5706 72.5419 25.5708C72.6002 25.5708 72.6562 25.5935 72.6977 25.6341C72.7393 25.6748 72.7633 25.7301 72.7643 25.7881L72.7668 29.4743C72.7661 29.5333 72.7418 29.5896 72.6995 29.6309C72.6571 29.6721 72.6 29.6949 72.5407 29.6943V29.6943Z" fill="white"/>
<path d="M79.4 29.696L76.1928 29.6947C76.1513 29.694 76.1108 29.6816 76.0761 29.6591C76.0413 29.6365 76.0136 29.6047 75.9961 29.5672C75.9771 29.5295 75.9699 29.4869 75.9754 29.4451C75.9809 29.4032 75.9989 29.364 76.027 29.3324L78.92 26.0081L76.3175 26.0071C76.2887 26.007 76.2602 26.0013 76.2336 25.9903C76.207 25.9792 76.1829 25.9631 76.1625 25.9427C76.1422 25.9224 76.1261 25.8982 76.1151 25.8717C76.1041 25.8452 76.0985 25.8167 76.0986 25.788C76.0987 25.7593 76.1044 25.7309 76.1155 25.7044C76.1266 25.6779 76.1428 25.6538 76.1632 25.6336C76.1836 25.6133 76.2079 25.5973 76.2345 25.5864C76.2612 25.5754 76.2897 25.5699 76.3185 25.5699L79.4005 25.5686C79.442 25.5699 79.4822 25.5828 79.5166 25.6057C79.5511 25.6287 79.5784 25.6608 79.5954 25.6984C79.6124 25.7361 79.6185 25.7777 79.6129 25.8186C79.6073 25.8595 79.5904 25.898 79.5639 25.9298L76.675 29.2576L79.3993 29.2565C79.4576 29.2571 79.5132 29.2805 79.5544 29.3215C79.5955 29.3626 79.6188 29.4181 79.6192 29.4761C79.6197 29.505 79.6144 29.5337 79.6036 29.5605C79.5928 29.5873 79.5766 29.6117 79.5562 29.6322C79.5358 29.6527 79.5114 29.6689 79.4846 29.6799C79.4577 29.6908 79.429 29.6963 79.4 29.696Z" fill="white"/>
<path d="M119.389 29.9523C119.347 29.9527 119.306 29.9409 119.27 29.9183C119.235 29.8957 119.207 29.8633 119.189 29.825L118.955 29.3005C118.932 29.2473 118.93 29.1872 118.952 29.1333C118.973 29.0793 119.014 29.0358 119.067 29.0122C119.094 29.0001 119.122 28.9935 119.151 28.9927C119.181 28.992 119.209 28.9972 119.236 29.0079C119.263 29.0187 119.288 29.0348 119.309 29.0553C119.329 29.0758 119.345 29.1002 119.356 29.1271L119.59 29.6468C119.602 29.6728 119.608 29.7009 119.609 29.7293C119.609 29.7578 119.604 29.7861 119.594 29.8126C119.584 29.8391 119.568 29.8633 119.548 29.8838C119.529 29.9044 119.505 29.9208 119.479 29.9322C119.451 29.9461 119.42 29.953 119.389 29.9523Z" fill="white"/>
</svg>
