<svg width="201" height="70" viewBox="0 0 201 70" fill="none" xmlns="http://www.w3.org/2000/svg">
<path d="M16.062 29.4798L14.2171 30.437L13.2947 27.3623C9.37763 28.7014 5.34627 29.6795 1.25102 30.2843L0.664782 27.8163C1.04712 27.6571 1.38996 27.416 1.6692 27.1102C4.35891 23.7362 6.68563 20.0882 8.61088 16.2267C5.93484 16.8314 3.2578 17.3848 0.664782 17.7886L0.121582 15.3196C0.534091 15.1083 0.870482 14.7737 1.08397 14.3624C3.70096 9.91211 5.84513 5.20024 7.48144 0.303711L9.61427 1.31119C7.86834 6.14041 5.61132 10.7692 2.88165 15.1187C5.22356 14.7652 7.5655 14.2619 9.95354 13.6572C10.8309 11.9436 11.7512 10.0793 12.6716 8.06329L14.6363 8.97033C10.2477 17.9396 6.66631 24.1379 3.89223 27.5652C6.84601 26.9969 9.76408 26.2567 12.6316 25.3483C12.0043 23.5332 11.3771 21.9211 10.7499 20.4595L12.4645 19.654C13.9114 22.8331 15.114 26.1179 16.062 29.4798ZM4.18534 33.6112C3.97248 37.6714 3.29927 41.6943 2.17859 45.6026L0.170782 44.8472C1.37458 41.1087 2.09143 37.2306 2.30361 33.3088L4.18534 33.6112ZM9.9566 44.1431L7.99083 44.4506C7.93985 40.75 7.59023 37.0597 6.9454 33.4154L8.79026 33.1633C9.49317 36.783 9.88339 40.4565 9.9566 44.1431ZM16.106 40.6154L14.2612 41.5726C13.5369 38.4898 12.6578 35.4454 11.6272 32.451L13.2998 31.6444C14.436 34.568 15.3729 37.5652 16.104 40.6154H16.106ZM17.4856 5.94787V3.32514H36.513V5.9448H28.1497V41.6228H37.7254V44.2435H16.229V41.6228H25.8888V5.94787H17.4856Z" fill="white"/>
<path d="M63.7457 14.1617V6.29754C61.1304 6.90455 58.4754 7.32547 55.8006 7.55715L55.0473 5.03793C61.0322 4.62789 66.8947 3.14518 72.3549 0.660547L73.4823 2.92867C71.0866 4.06677 68.5958 4.99273 66.0384 5.69592V14.1606H73.9425V16.8315H66.0415V19.6531C68.9034 22.7661 71.5976 26.0292 74.1126 29.4287L72.8161 31.8474C70.7215 28.6081 68.4602 25.4797 66.0415 22.4747V46.2525H63.7457V21.9212C61.7579 27.2591 58.873 32.2182 55.2154 36.5846L54.1689 33.5098C58.603 28.7625 61.8804 23.055 63.7457 16.8326H55.0473V14.1617H63.7457ZM80.139 4.99078V36.3324H77.8842V4.99078H80.139ZM80.3891 45.7554L79.8879 43.1348C81.8947 43.2372 83.8605 43.3397 85.7002 43.3397C87.1228 43.3397 87.8337 42.4327 87.833 40.6186V0.455566H90.1329V41.3207C90.1329 44.2437 88.9205 45.7554 86.4945 45.7554H80.3891Z" fill="white"/>
<path d="M117.361 46.0573H115.106V19.4015C113.893 24.4247 112.111 29.2933 109.795 33.9132L108.792 30.9912C111.879 25.4089 113.999 19.3448 115.064 13.0553H109.587V10.4828H115.106V0.304443H117.361V10.4828H121.461V13.0522H117.361V16.3791C119.16 18.8983 120.958 21.7199 122.793 24.8438L121.581 27.0104C119.908 23.7861 118.527 21.2156 117.356 19.3011L117.361 46.0573ZM129.615 0.455106H131.748V22.7776C131.622 33.6607 128.918 41.5867 123.634 46.5554L121.878 44.6911C126.477 40.5601 129.029 34.1107 129.531 25.3429C127.528 27.9944 125.13 30.3224 122.421 32.2457L121.166 29.7767C124.472 27.7377 127.343 25.0663 129.615 21.9156V0.455106ZM128.652 18.2424L126.855 19.3011C125.572 15.3487 124.05 11.4782 122.296 7.71145L124.216 6.60455C125.767 10.1302 127.231 14.0095 128.652 18.2424ZM138.184 40.2123C138.184 42.1268 138.769 43.1343 140.024 43.1343H141.78C142.194 43.177 142.61 43.1 142.981 42.9125C143.352 42.7249 143.661 42.4348 143.871 42.0766C144.373 41.1695 144.75 38.5489 144.959 34.2668L146.965 35.0221C146.715 39.9601 146.213 43.0338 145.419 44.193C145.036 44.6675 144.541 45.0399 143.979 45.2772C143.418 45.5145 142.806 45.6092 142.199 45.5531H139.354C137.055 45.5531 135.926 43.9409 135.926 40.7657V0.455106H138.181V20.6109C141.406 23.1636 144.3 26.1091 146.795 29.379L145.499 31.7465C143.394 28.7131 140.938 25.9395 138.181 23.4837L138.184 40.2123ZM146.297 7.15697C144.941 11.1217 143.117 14.9108 140.865 18.4443L139.067 16.9325C141.26 13.521 143.016 9.84773 144.294 5.99883L146.297 7.15697Z" fill="white"/>
<path d="M182.48 22.3247V14.6656C186.423 11.9819 190.044 8.85234 193.269 5.33895H168.931V2.72339H196.406V5.34305C192.853 9.31539 188.933 12.943 184.697 16.1773V22.3268H200.878V24.9967H184.695V41.674C184.695 44.4955 183.482 45.9068 181.14 45.9068H174.114L173.488 43.2861C175.537 43.2861 177.792 43.3364 180.219 43.3364C181.726 43.3364 182.477 42.4795 182.474 40.7659V24.9946H164.582V22.3247H182.48Z" fill="white"/>
<path d="M46.2291 55.5024H42.914V65.7695H41.5681V55.5024H38.2612V54.2856H46.2291V55.5024Z" fill="white"/>
<path d="M53.8983 65.7685H52.5893V64.4871H52.5575C52.3177 64.9447 51.9539 65.3256 51.5078 65.5861C51.0617 65.8466 50.5512 65.9762 50.0348 65.9602C49.3356 66.0018 48.6477 65.7694 48.1169 65.3123C47.8854 65.0912 47.7038 64.8232 47.5843 64.5262C47.4648 64.2292 47.4101 63.91 47.424 63.5902C47.424 62.0574 48.3264 61.1659 50.1312 60.9158L52.5913 60.5714C52.5913 59.1773 52.0282 58.4806 50.902 58.4813C49.917 58.48 48.9656 58.8387 48.2266 59.4899V58.144C49.0616 57.6233 50.0299 57.3562 51.0138 57.3752C52.9409 57.3752 53.9045 58.3952 53.9045 60.435L53.8983 65.7685ZM52.5893 61.62L50.6109 61.8927C50.1235 61.9362 49.6525 62.0908 49.2342 62.3447C49.0675 62.4827 48.9377 62.6599 48.8567 62.8605C48.7756 63.0612 48.7458 63.2788 48.7699 63.4938C48.7642 63.6789 48.7996 63.8629 48.8737 64.0325C48.9478 64.2022 49.0587 64.3533 49.1984 64.4748C49.5172 64.7407 49.9247 64.8765 50.3393 64.8551C50.6416 64.8636 50.9422 64.8068 51.2206 64.6886C51.499 64.5705 51.7488 64.3937 51.9527 64.1704C52.3835 63.6981 52.612 63.0758 52.5893 62.437V61.62Z" fill="white"/>
<path d="M61.8132 65.9599C61.2756 65.9847 60.7388 65.8952 60.2383 65.6971C59.7379 65.499 59.2852 65.1969 58.9102 64.8108C58.1617 63.9777 57.772 62.883 57.8257 61.7643C57.7909 61.1784 57.8726 60.5914 58.0662 60.0374C58.2597 59.4833 58.5612 58.9731 58.9533 58.5363C59.3539 58.1422 59.832 57.8355 60.3573 57.6355C60.8825 57.4356 61.4436 57.3469 62.0049 57.3749C62.5352 57.3451 63.0657 57.4305 63.5599 57.6251C64.0541 57.8198 64.5003 58.1191 64.8679 58.5025C65.5951 59.3782 65.9617 60.4979 65.893 61.6341C65.9488 62.7865 65.5506 63.9149 64.7838 64.777C64.401 65.1736 63.9381 65.4843 63.4259 65.6882C62.9137 65.8922 62.364 65.9848 61.8132 65.9599ZM61.9096 58.4769C61.5326 58.4599 61.1567 58.5284 60.8099 58.6773C60.4632 58.8263 60.1548 59.0518 59.9076 59.3369C59.3827 60.0134 59.1209 60.8572 59.1706 61.712C59.1241 62.5441 59.3898 63.3637 59.9158 64.0102C60.1653 64.289 60.4735 64.509 60.8183 64.6544C61.163 64.7997 61.5358 64.8668 61.9096 64.8508C62.2769 64.8732 62.6445 64.811 62.984 64.6688C63.3235 64.5266 63.6258 64.3083 63.8674 64.0307C64.3642 63.3533 64.6067 62.5226 64.5522 61.6843C64.6071 60.8384 64.3649 59.9998 63.8674 59.3133C63.6281 59.0338 63.3275 58.8132 62.9889 58.6689C62.6504 58.5245 62.2831 58.4602 61.9157 58.481L61.9096 58.4769Z" fill="white"/>
<path d="M76.5417 57.5676L72.7695 67.0813C72.0971 68.7788 71.1519 69.6279 69.9341 69.6286C69.6451 69.6355 69.3565 69.6009 69.0772 69.5261V68.3472C69.3268 68.4366 69.5891 68.4851 69.8542 68.4908C70.1961 68.4771 70.5249 68.3549 70.7927 68.1419C71.0605 67.9288 71.2535 67.6359 71.3436 67.3058L72.0007 65.7518L68.7974 57.5676H70.255L72.4733 63.8779C72.4999 63.9579 72.5559 64.1663 72.6414 64.5032H72.6895C72.7162 64.3754 72.7695 64.1725 72.8494 63.8944L75.1805 57.5676H76.5417Z" fill="white"/>
<path d="M86.598 65.7682H85.2839V64.4704H85.2521C85.0194 64.9368 84.6564 65.3257 84.2073 65.59C83.7581 65.8543 83.2419 65.9828 82.7212 65.9599C80.7674 65.9599 79.7905 64.7961 79.7905 62.4685V57.5676H81.0965V62.2604C81.0965 63.9907 81.7583 64.8555 83.082 64.8548C83.3818 64.8623 83.6795 64.8026 83.9532 64.68C84.2269 64.5574 84.4696 64.3751 84.6637 64.1465C85.0935 63.6269 85.3146 62.9658 85.2839 62.2922V57.5676H86.598V65.7682Z" fill="white"/>
<path d="M97.1338 65.7685H95.8207V64.4872H95.7879C95.5485 64.9448 95.185 65.3258 94.739 65.5863C94.293 65.8469 93.7825 65.9764 93.2663 65.9602C92.5668 66.0016 91.8786 65.7693 91.3473 65.3123C91.1161 65.091 90.9348 64.823 90.8155 64.526C90.6961 64.229 90.6416 63.91 90.6554 63.5902C90.6554 62.0574 91.5575 61.1659 93.3616 60.9158L95.8217 60.5714C95.8217 59.1773 95.2583 58.4806 94.1314 58.4813C93.1468 58.48 92.1956 58.8387 91.457 59.4899V58.144C92.292 57.6232 93.2603 57.3561 94.2442 57.3752C96.1713 57.3752 97.1349 58.3952 97.1349 60.4351L97.1338 65.7685ZM95.8207 61.62L93.8423 61.8927C93.3546 61.9362 92.8833 62.0909 92.4647 62.3448C92.2981 62.4829 92.1685 62.6601 92.0875 62.8607C92.0064 63.0613 91.9765 63.2788 92.0003 63.4939C91.9946 63.6789 92.0301 63.8629 92.1042 64.0326C92.1783 64.2022 92.2891 64.3533 92.4288 64.4748C92.7478 64.7405 93.1551 64.8763 93.5697 64.8552C93.8722 64.8637 94.173 64.8069 94.4516 64.6888C94.7302 64.5706 94.98 64.3938 95.1842 64.1704C95.6149 63.6981 95.8434 63.0758 95.8207 62.437V61.62Z" fill="white"/>
<path d="M108.432 65.7686H107.114V61.0912C107.114 59.3514 106.479 58.4814 105.208 58.4814C104.898 58.4749 104.591 58.538 104.309 58.6661C104.027 58.7942 103.777 58.984 103.578 59.2215C103.139 59.7432 102.909 60.4097 102.934 61.0912V65.7686H101.62V57.5681H102.934V58.9294H102.966C103.226 58.4464 103.616 58.0454 104.091 57.771C104.566 57.4965 105.108 57.3596 105.657 57.3754C106.044 57.3515 106.431 57.4176 106.788 57.5684C107.145 57.7192 107.462 57.9506 107.715 58.2446C108.237 58.9733 108.491 59.8604 108.433 60.755L108.432 65.7686Z" fill="white"/>
<path d="M120.95 61.4248V65.7649H119.607V54.2841H122.763C123.792 54.2192 124.81 54.5388 125.617 55.1811C125.962 55.5024 126.232 55.8958 126.407 56.3333C126.582 56.7708 126.658 57.2416 126.63 57.712C126.645 58.2126 126.553 58.7106 126.358 59.1721C126.163 59.6336 125.872 60.0478 125.503 60.3864C124.662 61.1127 123.573 61.4859 122.463 61.4278L120.95 61.4248ZM120.95 55.4978V60.207H122.36C123.122 60.2597 123.878 60.0335 124.486 59.5704C124.734 59.3442 124.929 59.0654 125.056 58.7543C125.182 58.4433 125.238 58.1078 125.219 57.7724C125.219 56.256 124.322 55.4978 122.528 55.4978H120.95Z" fill="white"/>
<path d="M133.454 65.9599C132.917 65.9849 132.38 65.8954 131.879 65.6973C131.379 65.4992 130.926 65.197 130.551 64.8108C129.802 63.978 129.412 62.8832 129.466 61.7643C129.431 61.1784 129.513 60.5914 129.706 60.0374C129.9 59.4833 130.201 58.9731 130.593 58.5363C130.994 58.1422 131.472 57.8355 131.997 57.6355C132.523 57.4356 133.084 57.3469 133.645 57.3749C134.175 57.3451 134.706 57.4305 135.2 57.6251C135.694 57.8198 136.14 58.1191 136.508 58.5025C137.235 59.3782 137.602 60.4979 137.533 61.6341C137.59 62.7868 137.193 63.9159 136.427 64.779C136.044 65.1756 135.58 65.486 135.068 65.6896C134.555 65.8932 134.005 65.9853 133.454 65.9599ZM133.55 58.4769C133.173 58.4599 132.797 58.5284 132.45 58.6773C132.103 58.8263 131.795 59.0518 131.548 59.3369C131.023 60.0134 130.761 60.8572 130.811 61.712C130.764 62.5441 131.03 63.3637 131.556 64.0102C131.805 64.289 132.114 64.509 132.458 64.6544C132.803 64.7997 133.176 64.8668 133.55 64.8508C133.917 64.8733 134.285 64.8111 134.624 64.6689C134.964 64.5267 135.266 64.3083 135.508 64.0307C136.004 63.3533 136.247 62.5226 136.192 61.6843C136.247 60.8384 136.005 59.9998 135.508 59.3133C135.267 59.0325 134.965 58.8112 134.625 58.6668C134.285 58.5223 133.916 58.4587 133.547 58.481L133.55 58.4769Z" fill="white"/>
<path d="M142.321 55.4865C142.21 55.4885 142.099 55.4683 141.996 55.4269C141.893 55.3855 141.799 55.3239 141.72 55.2456C141.639 55.1672 141.575 55.0726 141.532 54.9679C141.489 54.8632 141.469 54.7507 141.472 54.6377C141.47 54.5253 141.49 54.4135 141.532 54.3091C141.574 54.2047 141.636 54.1097 141.715 54.0298C141.795 53.9499 141.889 53.8867 141.993 53.8439C142.097 53.8011 142.209 53.7796 142.321 53.7808C142.435 53.7781 142.548 53.7983 142.653 53.8402C142.759 53.8821 142.855 53.9449 142.936 54.0247C143.016 54.1043 143.08 54.1988 143.123 54.303C143.166 54.4071 143.188 54.5188 143.188 54.6316C143.188 54.7444 143.166 54.856 143.123 54.9602C143.08 55.0643 143.016 55.1589 142.936 55.2384C142.856 55.3192 142.76 55.3829 142.654 55.4255C142.548 55.4681 142.435 55.4889 142.321 55.4865ZM142.962 65.7689H141.653V57.5684H142.966L142.962 65.7689Z" fill="white"/>
<path d="M154.444 65.7686H153.133V61.0912C153.133 59.3514 152.497 58.4814 151.227 58.4814C150.917 58.4748 150.61 58.5379 150.328 58.666C150.046 58.7941 149.796 58.984 149.597 59.2215C149.157 59.7431 148.928 60.4096 148.952 61.0912V65.7686H147.639V57.5681H148.952V58.9294H148.984C149.245 58.4464 149.634 58.0454 150.109 57.771C150.584 57.4965 151.126 57.3596 151.675 57.3754C152.062 57.3515 152.449 57.4176 152.806 57.5684C153.163 57.7192 153.481 57.9506 153.733 58.2446C154.256 58.973 154.51 59.8604 154.451 60.755L154.444 65.7686Z" fill="white"/>
<path d="M162.739 65.689C162.357 65.8759 161.934 65.964 161.509 65.9453C160.074 65.9453 159.356 65.1444 159.356 63.5425V58.6899H157.949V57.5684H159.358V55.5665L160.672 55.1421V57.5684H162.738V58.6899H160.672V63.3109C160.635 63.7232 160.734 64.1362 160.952 64.4876C161.07 64.6141 161.214 64.7117 161.375 64.7728C161.537 64.834 161.71 64.8571 161.881 64.8403C162.189 64.8474 162.491 64.7514 162.738 64.5676L162.739 65.689Z" fill="white"/>
</svg>
