<svg width="128" height="30" viewBox="0 0 128 30" fill="none" xmlns="http://www.w3.org/2000/svg">
<path d="M3.49404 5.56564H1.35824V4.74743H3.65823V0.165405H5.13694V4.74743H6.28694V5.56564H5.13695V7.52947C5.77327 8.15225 6.37651 8.80771 6.9442 9.49315C6.88891 10.4751 6.75197 11.1297 6.5334 11.457C6.1497 11.1297 5.68422 10.1479 5.13695 8.51139V20.3755H3.65824V11.1297C2.94584 12.6024 2.17918 14.0753 1.35824 15.5482H0.865341C2.34889 12.4094 3.23996 9.02559 3.49404 5.56564ZM8.42274 6.38385V0.165405H9.90145V12.9299C9.95536 14.7849 8.80532 17.2124 6.4513 20.2123H5.62985C7.4371 18.0297 8.36807 15.6567 8.42275 13.0934V10.966C7.93001 12.7125 7.10856 13.8035 5.9584 14.239C6.00979 13.5676 5.89706 12.8938 5.62985 12.2752C6.66956 12.2215 7.60053 11.4305 8.42275 9.90233V7.03851L7.4371 8.67493C7.21761 7.69302 7.02594 6.71115 6.8621 5.72934C6.7132 4.86408 6.63081 3.98875 6.61565 3.111L6.69775 3.02923C7.34905 4.10686 7.9254 5.22769 8.42276 6.38385L8.42274 6.38385ZM10.7229 18.9027V0.165405H12.2016V7.61125L14.3374 3.43825L14.9945 3.76551L12.2016 9.16589C13.1028 9.98659 13.9533 10.861 14.7482 11.7842C14.654 12.4998 14.4314 13.1927 14.091 13.8298C13.5429 13.2852 12.9131 11.9488 12.2016 9.82055V17.7574C12.1465 18.3571 12.4476 18.657 13.1052 18.6572C13.7624 18.6572 14.1184 18.3572 14.1731 17.7574L14.666 14.239H15.0768V17.1027H15.3232V18.7394C15.2679 19.7214 14.7202 20.2123 13.6802 20.2123H12.1195C11.1337 20.1571 10.6682 19.7205 10.7229 18.9027L10.7229 18.9027Z" fill="#333F48"/>
<path d="M31.8111 0.492798V1.06553H41.0938L41.0116 0.492798H42.7367V20.294H41.0116V19.2305H31.8934V20.294H30.1682V0.492798H31.8111ZM41.0116 1.96567H31.8111V18.4118H41.0116V1.96567ZM35.4256 11.4571H34.8506V12.1116H33.2898V7.5296H34.8506V8.26604H38.3008V7.61138H39.8616V11.9481L40.108 11.6208L40.683 12.1116L38.4651 14.5664C38.9579 15.0037 39.7245 15.331 40.7651 15.5483C40.5488 15.8697 40.4135 16.2383 40.3706 16.6229C40.3277 17.0074 40.3785 17.3966 40.5187 17.7575C38.8206 17.3214 37.3968 15.6577 36.2471 12.7663C36.1797 12.8389 36.1242 12.9218 36.0829 13.0118V17.9212H34.6042V14.3209C34.0561 14.7582 33.3989 15.2764 32.6326 15.8756H31.8934C33.5902 14.5664 34.7676 13.0936 35.4256 11.4571V11.4571ZM35.6721 2.29292H37.2329V3.68386H40.0259V4.4203H37.2329V6.13865H40.6009V6.95686H32.2219V6.13865H35.6721V4.42031H32.7148V3.68387H35.6721V2.29292ZM38.3008 9.00231H34.8506V10.7207H38.3008V9.00231ZM38.3008 11.4571H37.2329C37.0227 11.81 36.7748 12.1392 36.4935 12.439C36.8215 13.1334 37.2981 13.7479 37.89 14.2391L39.6972 12.1935H38.3008L38.3008 11.4571Z" fill="#333F48"/>
<path d="M57.8282 3.84769V2.94755H64.5643C64.4645 2.82258 64.3816 2.68505 64.3178 2.53852C63.8788 1.75864 63.521 0.936104 63.2499 0.0837307L63.332 0.00195312C64.228 0.470993 65.0803 1.01863 65.8786 1.63837C65.7495 2.11409 65.526 2.55922 65.2214 2.94754H71.9575V3.84769H65.7143V7.12053H68.5895V6.3841H70.3146V16.0392C70.2593 17.1849 69.5473 18.0032 68.1787 18.4942C68.1235 18.1117 67.9318 17.9753 67.6037 18.0849L66.3715 18.3303L66.2072 17.9213C67.904 17.7039 68.6981 17.1039 68.5895 16.1212V8.02068H65.7143V20.3758H63.9893V8.02068H61.0319V18.0849H59.3069V6.3841H61.0319V7.12054H63.9893V3.8477L57.8282 3.84769Z" fill="#333F48"/>
<path d="M85.5703 17.7575H86.6382V0.165527H88.3633V0.983739H96.2495V0.165527H97.9746V6.71138H96.2495V5.89317H93.6208V9.5752H98.8782V10.4752H93.7029C93.9211 14.1304 95.3724 16.5578 98.0567 17.7575L98.7961 13.9117L99.1246 13.9937L98.8782 17.9212L99.3711 18.0847V20.294C94.6605 18.8212 92.1961 15.5482 91.9779 10.4752H88.3634V17.7575C89.5134 17.4851 90.7729 16.8305 92.1421 15.7936C92.3064 15.685 92.3603 15.7399 92.3064 15.9573C91.3745 17.7575 89.1839 19.1212 85.7347 20.0486C85.9529 19.5024 85.8981 18.7387 85.5703 17.7575ZM96.2495 1.88374H88.3633V4.99304H96.2495V1.88374ZM88.3633 5.89318V9.5752H91.8958V5.89317L88.3633 5.89318Z" fill="#333F48"/>
<path d="M118.898 7.69313V0.165527H120.706V3.43837H126.291V4.42029H120.706V7.69313H127.277V8.67505H120.706V20.3757H118.898V8.67505H113.312V7.69313H118.898ZM121.691 10.0662L121.773 9.98422C121.793 10.1576 121.849 10.325 121.938 10.4752C122.977 12.6026 124.319 13.9663 125.963 14.5664C125.636 15.3757 125.607 16.2742 125.881 17.1028L125.717 17.1847C123.197 16.1491 121.855 13.7763 121.691 10.0662Z" fill="#333F48"/>
<path d="M18.1532 29.7723C17.7248 29.7725 17.3059 29.6461 16.9496 29.4091C16.5933 29.1722 16.3156 28.8353 16.1515 28.441C15.9875 28.0468 15.9445 27.613 16.028 27.1944C16.1115 26.7759 16.3178 26.3914 16.6207 26.0896C16.9236 25.7879 17.3096 25.5823 17.7298 25.4991C18.15 25.4158 18.5855 25.4586 18.9813 25.6219C19.3771 25.7853 19.7154 26.0619 19.9534 26.4167C20.1913 26.7716 20.3183 27.1888 20.3182 27.6155C20.3171 28.1871 20.0887 28.735 19.6829 29.1393C19.2771 29.5435 18.7271 29.7711 18.1532 29.7723ZM18.1526 25.8943C17.8113 25.8951 17.4779 25.9967 17.1945 26.1861C16.9111 26.3755 16.6904 26.6443 16.5603 26.9586C16.4301 27.2728 16.3964 27.6185 16.4632 27.9518C16.5301 28.2851 16.6946 28.5913 16.936 28.8316C17.1774 29.0719 17.4849 29.2356 17.8196 29.3019C18.1543 29.3683 18.5013 29.3345 18.8167 29.2046C19.1321 29.0748 19.4018 28.8548 19.5918 28.5724C19.7818 28.29 19.8835 27.9579 19.8842 27.6179C19.8836 27.1608 19.7009 26.7225 19.3763 26.3994C19.0516 26.0762 18.6115 25.8946 18.1526 25.8943V25.8943Z" fill="#333F48"/>
<path d="M5.51868 25.9661L1.65903 25.9655C1.63081 25.9657 1.60283 25.9603 1.57672 25.9496C1.55061 25.939 1.52689 25.9232 1.50695 25.9033C1.48701 25.8835 1.47125 25.8598 1.46059 25.8338C1.44993 25.8077 1.44459 25.7799 1.44486 25.7518C1.44444 25.723 1.44976 25.6945 1.46052 25.6678C1.47128 25.6412 1.48726 25.6169 1.50754 25.5965C1.52781 25.5761 1.55197 25.5599 1.57859 25.5488C1.60522 25.5378 1.63379 25.5321 1.66263 25.5322L5.51827 25.5324C5.54691 25.5325 5.57526 25.5382 5.60169 25.5492C5.62812 25.5602 5.65212 25.5762 5.67231 25.5964C5.69251 25.6167 5.70851 25.6407 5.71939 25.667C5.73027 25.6934 5.73583 25.7217 5.73574 25.7502C5.73637 25.7788 5.73119 25.8071 5.7205 25.8336C5.70981 25.8601 5.69384 25.8842 5.67355 25.9044C5.65327 25.9246 5.62909 25.9404 5.60247 25.951C5.57585 25.9616 5.54734 25.9668 5.51868 25.9661V25.9661Z" fill="#333F48"/>
<path d="M3.59042 29.703C3.56157 29.7038 3.53285 29.6988 3.50605 29.6881C3.47925 29.6774 3.45494 29.6613 3.43462 29.6409C3.4143 29.6205 3.39841 29.5961 3.38793 29.5693C3.37745 29.5425 3.3726 29.5139 3.37368 29.4852L3.37111 27.2449C3.37028 27.2161 3.37532 27.1874 3.38593 27.1605C3.39655 27.1337 3.41251 27.1093 3.43286 27.0888C3.4532 27.0683 3.47751 27.0521 3.50432 27.0412C3.53112 27.0303 3.55986 27.0249 3.58881 27.0254C3.64698 27.0258 3.70268 27.049 3.74383 27.09C3.78499 27.1309 3.80831 27.1864 3.80875 27.2443L3.80985 29.4853C3.81007 29.514 3.80455 29.5425 3.79359 29.5691C3.78264 29.5956 3.76647 29.6198 3.74604 29.6401C3.7256 29.6603 3.70131 29.6763 3.6746 29.6871C3.64788 29.698 3.61926 29.7034 3.59042 29.703V29.703Z" fill="#333F48"/>
<path d="M69.6374 25.966L65.7828 25.9642C65.754 25.9645 65.7254 25.9591 65.6987 25.9483C65.672 25.9375 65.6477 25.9216 65.6272 25.9014C65.6067 25.8813 65.5905 25.8573 65.5793 25.8308C65.5682 25.8044 65.5624 25.776 65.5624 25.7473C65.5635 25.6895 65.5872 25.6345 65.6284 25.5939C65.6697 25.5533 65.7252 25.5304 65.7832 25.53L69.6384 25.5322C69.6672 25.5312 69.6959 25.5361 69.7227 25.5466C69.7495 25.557 69.7738 25.5729 69.7943 25.5931C69.8147 25.6133 69.8307 25.6375 69.8414 25.6642C69.852 25.6908 69.8571 25.7193 69.8562 25.748C69.8563 25.7767 69.8508 25.8051 69.8398 25.8316C69.8288 25.8581 69.8127 25.8821 69.7924 25.9024C69.772 25.9227 69.7478 25.9387 69.7212 25.9496C69.6946 25.9605 69.6661 25.9661 69.6374 25.966Z" fill="#333F48"/>
<path d="M67.7126 29.7027C67.654 29.7017 67.5981 29.678 67.5567 29.6365C67.5154 29.5951 67.4919 29.5392 67.4912 29.4808L67.4915 27.2395C67.492 27.1816 67.5154 27.1261 67.5566 27.0853C67.5979 27.0445 67.6537 27.0215 67.7118 27.0215C67.7406 27.0216 67.7692 27.0273 67.7958 27.0385C67.8224 27.0496 67.8465 27.0659 67.8667 27.0863C67.887 27.1068 67.9029 27.1311 67.9137 27.1577C67.9245 27.1844 67.9298 27.2129 67.9294 27.2416L67.9281 29.4805C67.9287 29.5092 67.9235 29.5377 67.9129 29.5644C67.9024 29.5911 67.8867 29.6155 67.8667 29.6361C67.8466 29.6568 67.8227 29.6733 67.7963 29.6847C67.7699 29.6961 67.7414 29.7023 67.7126 29.7027V29.7027Z" fill="#333F48"/>
<path d="M25.4328 29.7023C25.4037 29.7024 25.3749 29.6967 25.348 29.6857C25.3212 29.6747 25.2967 29.6585 25.2762 29.638C25.2556 29.6176 25.2392 29.5933 25.2281 29.5666C25.2169 29.5398 25.2112 29.5112 25.2112 29.4822L25.212 28.8286C25.2125 28.7709 25.2359 28.7157 25.277 28.675C25.3182 28.6344 25.3739 28.6116 25.4319 28.6117C25.4605 28.6113 25.4889 28.6167 25.5154 28.6274C25.5419 28.6381 25.566 28.6539 25.5863 28.6741C25.6065 28.6942 25.6226 28.7181 25.6334 28.7445C25.6443 28.7709 25.6497 28.7991 25.6495 28.8276L25.6524 29.4871C25.6511 29.5444 25.6274 29.5989 25.5864 29.6391C25.5454 29.6793 25.4903 29.7019 25.4328 29.7023Z" fill="#333F48"/>
<path d="M32.7112 29.7044C32.1623 29.702 31.6366 29.4835 31.2489 29.0966C30.8611 28.7096 30.6427 28.1856 30.6414 27.6388L30.6459 25.7494C30.6457 25.721 30.6511 25.693 30.6618 25.6667C30.6726 25.6405 30.6884 25.6166 30.7084 25.5965C30.7284 25.5764 30.7522 25.5604 30.7784 25.5495C30.8047 25.5386 30.8328 25.5329 30.8612 25.5328C30.8896 25.5328 30.9178 25.5383 30.9441 25.5491C30.9704 25.5599 30.9942 25.5758 31.0143 25.5958C31.0344 25.6158 31.0504 25.6396 31.0612 25.6658C31.0721 25.692 31.0776 25.72 31.0775 25.7483L31.0807 27.6413C31.0809 28.0728 31.2532 28.4866 31.5597 28.7916C31.8662 29.0966 32.2818 29.2678 32.7151 29.2676C33.1483 29.2674 33.5637 29.0958 33.8699 28.7905C34.1761 28.4852 34.348 28.0713 34.3478 27.6398L34.3443 25.7485C34.3448 25.6904 34.3682 25.6349 34.4094 25.5939C34.4507 25.5529 34.5065 25.5297 34.5648 25.5294C34.6226 25.5313 34.6775 25.5551 34.7182 25.596C34.7589 25.6369 34.7825 25.6917 34.7839 25.7493L34.7828 27.6393C34.7822 28.1865 34.5638 28.7112 34.1755 29.0983C33.7872 29.4854 33.2606 29.7034 32.7112 29.7044V29.7044Z" fill="#333F48"/>
<path d="M49.1239 29.7031C49.0661 29.7024 49.0109 29.679 48.9703 29.6379C48.9298 29.5968 48.9072 29.5415 48.9074 29.4839L48.9057 27.6266C48.9063 27.4127 48.8645 27.2009 48.7827 27.0032C48.7009 26.8055 48.5807 26.6259 48.429 26.4745C48.2774 26.3232 48.0972 26.2032 47.8989 26.1213C47.7006 26.0395 47.488 25.9974 47.2734 25.9976C47.0587 25.9977 46.8462 26.0401 46.648 26.1222C46.4498 26.2044 46.2698 26.3246 46.1184 26.4762C45.9669 26.6278 45.847 26.8076 45.7655 27.0054C45.684 27.2032 45.6425 27.4151 45.6433 27.6289L45.6407 29.4833C45.6411 29.512 45.6359 29.5405 45.6252 29.5671C45.6145 29.5937 45.5986 29.6179 45.5784 29.6384C45.5583 29.6589 45.5342 29.6751 45.5077 29.6863C45.4812 29.6974 45.4527 29.7032 45.424 29.7033C45.3952 29.7035 45.3667 29.6979 45.3401 29.6869C45.3135 29.676 45.2893 29.6599 45.269 29.6396C45.2486 29.6193 45.2326 29.5952 45.2216 29.5687C45.2107 29.5422 45.2052 29.5137 45.2054 29.4851L45.209 27.6295C45.2086 27.3587 45.2618 27.0905 45.3656 26.8403C45.4694 26.59 45.6216 26.3626 45.8137 26.171C46.0058 25.9794 46.2339 25.8274 46.485 25.7237C46.7361 25.62 47.0053 25.5666 47.2772 25.5665C47.549 25.5665 47.8182 25.6199 48.0693 25.7235C48.3204 25.8272 48.5486 25.9792 48.7407 26.1707C48.9328 26.3623 49.0851 26.5897 49.189 26.8399C49.2928 27.0902 49.3461 27.3583 49.3457 27.6291L49.3451 29.4839C49.3451 29.5128 49.3394 29.5414 49.3283 29.5681C49.3172 29.5947 49.3008 29.6189 49.2803 29.6393C49.2597 29.6597 49.2353 29.6758 49.2085 29.6868C49.1817 29.6977 49.1529 29.7033 49.1239 29.7031V29.7031Z" fill="#333F48"/>
<path d="M93.9496 29.6982C93.8921 29.6986 93.8367 29.6763 93.7956 29.6362C93.7544 29.5961 93.7309 29.5414 93.7301 29.4841L93.7301 27.6251C93.7306 27.4117 93.6887 27.2002 93.607 27.0029C93.5253 26.8055 93.4053 26.6262 93.2539 26.4751C93.1024 26.3241 92.9226 26.2043 92.7246 26.1225C92.5266 26.0408 92.3144 25.9988 92.1001 25.9989C91.8858 25.9991 91.6736 26.0413 91.4757 26.1232C91.2778 26.2052 91.0981 26.3252 90.9468 26.4764C90.7956 26.6277 90.6758 26.8071 90.5943 27.0045C90.5128 27.202 90.4712 27.4135 90.4719 27.6269L90.4672 29.481C90.4673 29.5096 90.4618 29.538 90.4509 29.5645C90.4399 29.591 90.4239 29.6151 90.4036 29.6354C90.3833 29.6557 90.3591 29.6718 90.3326 29.6828C90.306 29.6938 90.2776 29.6995 90.2488 29.6995C90.22 29.6995 90.1915 29.6938 90.165 29.6828C90.1384 29.6719 90.1143 29.6558 90.094 29.6355C90.0737 29.6152 90.0576 29.5911 90.0467 29.5646C90.0357 29.5381 90.0302 29.5097 90.0303 29.4811L90.0309 27.6259C90.0309 27.0793 90.2489 26.555 90.637 26.1684C91.0251 25.7819 91.5514 25.5647 92.1002 25.5647C92.6491 25.5647 93.1754 25.7819 93.5635 26.1684C93.9516 26.5549 94.1696 27.0792 94.1696 27.6259L94.1724 29.4813C94.1717 29.5395 94.1479 29.595 94.1061 29.6357C94.0643 29.6764 94.008 29.6989 93.9496 29.6982Z" fill="#333F48"/>
<path d="M59.9053 29.7032L58.4407 29.7013C58.1686 29.7013 57.8991 29.6479 57.6478 29.544C57.3964 29.44 57.1681 29.2877 56.976 29.0958C56.7839 28.9038 56.6316 28.676 56.5281 28.4253C56.4245 28.1746 56.3716 27.9061 56.3725 27.635C56.3743 27.0852 56.5912 26.5578 56.9771 26.1647C57.363 25.7717 57.8875 25.5439 58.4393 25.5298L59.9042 25.5304C59.9621 25.5309 60.0175 25.5538 60.0588 25.5942C60.1 25.6347 60.1239 25.6895 60.1253 25.7472C60.1253 25.7759 60.1195 25.8043 60.1084 25.8308C60.0973 25.8573 60.0811 25.8814 60.0606 25.9016C60.0402 25.9218 60.0159 25.9378 59.9892 25.9487C59.9625 25.9595 59.9339 25.965 59.9051 25.9648L58.4392 25.9661C58.0027 25.9775 57.5879 26.1584 57.2834 26.4702C56.9789 26.782 56.8088 27.2 56.8095 27.6349C56.809 28.0664 56.9804 28.4805 57.2861 28.7862C57.5918 29.092 58.0068 29.2644 58.44 29.2656L59.9043 29.2657C59.9331 29.2656 59.9616 29.2711 59.9883 29.282C60.0149 29.2929 60.0391 29.3089 60.0595 29.3291C60.0799 29.3494 60.0961 29.3734 60.1071 29.3999C60.1182 29.4264 60.1238 29.4548 60.1238 29.4835C60.1232 29.5412 60.1 29.5964 60.0592 29.6374C60.0184 29.6785 59.9632 29.702 59.9053 29.7032V29.7032Z" fill="#333F48"/>
<path d="M105.098 29.7012L103.636 29.7012C103.364 29.7011 103.093 29.6475 102.841 29.5435C102.589 29.4394 102.36 29.2869 102.168 29.0947C101.975 28.9024 101.822 28.6743 101.718 28.4232C101.613 28.1721 101.56 27.903 101.56 27.6313C101.563 27.0807 101.781 26.5529 102.168 26.1602C102.556 25.7675 103.082 25.5408 103.635 25.5283L105.096 25.528C105.125 25.5277 105.154 25.5331 105.18 25.5438C105.207 25.5546 105.231 25.5705 105.252 25.5907C105.273 25.6108 105.289 25.6349 105.3 25.6614C105.311 25.6878 105.317 25.7163 105.317 25.745C105.317 25.8034 105.293 25.8592 105.251 25.9002C105.21 25.9412 105.153 25.964 105.095 25.9636L103.636 25.9624C103.199 25.9732 102.783 26.1537 102.478 26.4654C102.173 26.7771 102.002 27.1954 102.002 27.6308C102.001 27.8449 102.043 28.057 102.124 28.2551C102.206 28.4531 102.326 28.6331 102.478 28.7848C102.63 28.9364 102.81 29.0568 103.008 29.1389C103.207 29.221 103.42 29.2632 103.635 29.2632L105.098 29.2633C105.157 29.2634 105.212 29.2865 105.254 29.3276C105.295 29.3687 105.318 29.4244 105.318 29.4825C105.318 29.5405 105.295 29.5962 105.253 29.6372C105.212 29.6782 105.156 29.7012 105.098 29.7012V29.7012Z" fill="#333F48"/>
<path d="M116.055 29.9916C116.026 29.9916 115.998 29.9859 115.971 29.9748C115.944 29.9638 115.92 29.9476 115.9 29.9272C115.88 29.9068 115.863 29.8826 115.853 29.856C115.842 29.8294 115.836 29.8009 115.836 29.7722L115.836 27.8563C115.835 27.8273 115.841 27.7986 115.851 27.7717C115.862 27.7448 115.878 27.7203 115.898 27.6996C115.919 27.6789 115.943 27.6623 115.97 27.6509C115.996 27.6395 116.025 27.6334 116.054 27.6331L118.711 27.6344C118.931 27.6335 119.141 27.5461 119.296 27.3913C119.451 27.2366 119.539 27.027 119.54 26.8082C119.539 26.5872 119.452 26.3753 119.296 26.2175C119.141 26.0596 118.93 25.9682 118.709 25.9627L116.054 25.9617C115.996 25.9614 115.941 25.9384 115.901 25.8978C115.86 25.8571 115.838 25.8021 115.838 25.7449C115.838 25.6876 115.861 25.6328 115.902 25.5924C115.942 25.552 115.998 25.5294 116.055 25.5295L118.71 25.5291C119.047 25.5322 119.369 25.6677 119.606 25.9062C119.843 26.1447 119.976 26.4668 119.976 26.8023C119.975 27.1379 119.842 27.4598 119.605 27.6979C119.367 27.936 119.045 28.071 118.708 28.0737L116.274 28.0741L116.275 29.7738C116.275 29.8317 116.251 29.8871 116.21 29.9279C116.169 29.9687 116.113 29.9916 116.055 29.9916Z" fill="#333F48"/>
<path d="M125.203 29.6924L123.344 29.6935C123.315 29.6939 123.286 29.6884 123.26 29.6775C123.233 29.6665 123.209 29.6503 123.188 29.6298C123.168 29.6093 123.152 29.585 123.141 29.5582C123.13 29.5314 123.125 29.5027 123.126 29.4739L123.124 25.7448C123.123 25.7163 123.129 25.688 123.14 25.6616C123.151 25.6352 123.167 25.6112 123.187 25.591C123.207 25.5709 123.231 25.555 123.258 25.5442C123.284 25.5334 123.313 25.528 123.342 25.5283L125.204 25.5287C125.757 25.54 126.283 25.7661 126.67 26.1586C127.057 26.551 127.275 27.0788 127.277 27.6292C127.276 28.1765 127.057 28.7012 126.668 29.088C126.279 29.4748 125.752 29.6921 125.203 29.6924V29.6924ZM123.561 29.2527L125.205 29.2531C125.637 29.2532 126.051 29.0828 126.358 28.779C126.664 28.4753 126.836 28.063 126.838 27.6327C126.838 27.1969 126.668 26.7783 126.363 26.466C126.058 26.1537 125.642 25.9725 125.205 25.961L123.561 25.9625L123.561 29.2527Z" fill="#333F48"/>
<path d="M86.458 29.6956L84.8176 29.6963C84.2689 29.6949 83.7432 29.477 83.3555 29.0903C82.9679 28.7036 82.7499 28.1796 82.7495 27.6331C82.7508 27.0829 82.9678 26.5549 83.3543 26.1617C83.7407 25.7686 84.266 25.5413 84.8183 25.5283L86.4597 25.5299C86.4886 25.5295 86.5173 25.5348 86.5441 25.5456C86.5709 25.5564 86.5953 25.5724 86.6158 25.5927C86.6363 25.613 86.6526 25.6372 86.6636 25.6638C86.6746 25.6904 86.6801 25.719 86.6799 25.7478C86.6796 25.7766 86.6736 25.805 86.6622 25.8315C86.6508 25.8579 86.6341 25.8819 86.6133 25.9018C86.5925 25.9218 86.5678 25.9374 86.5409 25.9478C86.5139 25.9581 86.4851 25.963 86.4562 25.9621L84.8162 25.9642C84.3803 25.9768 83.9664 26.1578 83.6621 26.4689C83.3577 26.78 83.1868 27.1968 83.1855 27.6311C83.1867 28.0622 83.3595 28.4751 83.6659 28.7795C83.9722 29.0839 84.3873 29.255 84.82 29.2552L86.457 29.2543C86.5156 29.2545 86.5717 29.2777 86.6131 29.319C86.6545 29.3602 86.6778 29.4162 86.678 29.4745C86.6781 29.5328 86.655 29.5889 86.6138 29.6303C86.5726 29.6717 86.5166 29.6952 86.458 29.6956L86.458 29.6956Z" fill="#333F48"/>
<path d="M25.4335 27.7239C25.4038 27.7254 25.374 27.7204 25.3465 27.7091C25.3189 27.6978 25.2941 27.6806 25.274 27.6587L23.5237 25.9137C23.4833 25.8727 23.4604 25.8175 23.4599 25.76C23.4594 25.7025 23.4812 25.647 23.5209 25.6052C23.541 25.5844 23.565 25.568 23.5917 25.5568C23.6183 25.5456 23.6469 25.5399 23.6758 25.54C23.7047 25.5402 23.7332 25.5461 23.7597 25.5576C23.7862 25.5691 23.8101 25.5858 23.8299 25.6067L25.4316 27.1968L27.033 25.6045C27.053 25.5841 27.0769 25.5678 27.1034 25.5567C27.1298 25.5456 27.1581 25.5399 27.1868 25.5398C27.2155 25.5397 27.2439 25.5454 27.2703 25.5563C27.2968 25.5673 27.3208 25.5835 27.341 25.6038C27.3616 25.6242 27.378 25.6484 27.3892 25.6752C27.4004 25.7019 27.4061 25.7305 27.4062 25.7595C27.4062 25.7885 27.4004 25.8171 27.3893 25.8439C27.3781 25.8706 27.3617 25.8949 27.3411 25.9153L25.5846 27.6596C25.5655 27.6805 25.5421 27.697 25.5161 27.7081C25.49 27.7192 25.4619 27.7246 25.4335 27.7239V27.7239Z" fill="#333F48"/>
<path d="M11.1572 29.2237L10.5813 29.2264C10.523 29.2256 10.4674 29.2018 10.4266 29.1603C10.3859 29.1188 10.3632 29.0628 10.3637 29.0048C10.3642 28.9467 10.3877 28.8911 10.4292 28.8503C10.4707 28.8094 10.5267 28.7866 10.585 28.7867L11.1562 28.7863C11.2144 28.7861 11.2703 28.809 11.3116 28.85C11.3529 28.8909 11.3762 28.9465 11.3763 29.0045C11.3764 29.0625 11.3534 29.1182 11.3123 29.1593C11.2712 29.2004 11.2154 29.2236 11.1572 29.2237V29.2237Z" fill="#333F48"/>
<path d="M12.8284 29.9962C12.7871 29.9964 12.7467 29.9849 12.7118 29.9629C12.677 29.9409 12.6492 29.9094 12.6318 29.8721L10.8716 26.2508L9.11294 29.876C9.08613 29.9272 9.04047 29.9662 8.98548 29.9847C8.9305 30.0031 8.87047 29.9997 8.81797 29.9751C8.79195 29.9627 8.76869 29.9452 8.74955 29.9237C8.7304 29.9022 8.71575 29.8771 8.70645 29.8499C8.69716 29.8227 8.6934 29.7939 8.69541 29.7652C8.69742 29.7366 8.70514 29.7086 8.71814 29.6829L10.6698 25.6568C10.6898 25.6221 10.7186 25.5932 10.7533 25.573C10.788 25.5528 10.8274 25.542 10.8676 25.5416C10.9078 25.5413 10.9474 25.5514 10.9824 25.571C11.0175 25.5906 11.0468 25.619 11.0674 25.6534L13.0243 29.6811C13.0497 29.7334 13.0535 29.7936 13.0349 29.8487C13.0163 29.9038 12.9767 29.9495 12.9247 29.9759C12.8944 29.9895 12.8616 29.9964 12.8284 29.9962Z" fill="#333F48"/>
<path d="M110.588 29.2222L110.016 29.2215C109.987 29.2217 109.958 29.2161 109.931 29.2051C109.904 29.1941 109.88 29.1778 109.859 29.1573C109.838 29.1368 109.822 29.1123 109.811 29.0855C109.799 29.0586 109.794 29.0298 109.794 29.0007C109.794 28.9716 109.8 28.9428 109.811 28.916C109.822 28.8892 109.839 28.8649 109.86 28.8444C109.88 28.824 109.905 28.8079 109.932 28.797C109.959 28.7861 109.988 28.7806 110.017 28.7809L110.589 28.7832C110.617 28.7832 110.646 28.7888 110.672 28.7998C110.698 28.8108 110.722 28.827 110.742 28.8474C110.762 28.8677 110.778 28.8919 110.788 28.9184C110.799 28.9449 110.804 28.9732 110.803 29.0017C110.804 29.0303 110.799 29.0588 110.788 29.0855C110.778 29.1121 110.762 29.1364 110.742 29.157C110.722 29.1775 110.698 29.1939 110.672 29.2051C110.645 29.2163 110.617 29.2221 110.588 29.2222Z" fill="#333F48"/>
<path d="M85.9241 27.8727L85.3535 27.8733C85.3242 27.8739 85.2951 27.8686 85.2678 27.8579C85.2406 27.8472 85.2157 27.8311 85.1948 27.8107C85.1738 27.7903 85.1572 27.7659 85.1458 27.739C85.1344 27.7121 85.1285 27.6832 85.1285 27.654C85.1284 27.6248 85.1342 27.5959 85.1455 27.569C85.1568 27.542 85.1734 27.5176 85.1943 27.4972C85.2152 27.4767 85.24 27.4606 85.2672 27.4497C85.2944 27.4389 85.3236 27.4336 85.3529 27.4341L85.9241 27.434C85.9822 27.4344 86.0378 27.4578 86.0787 27.4989C86.1196 27.54 86.1425 27.5956 86.1424 27.6535C86.143 27.6823 86.1377 27.7109 86.127 27.7376C86.1162 27.7644 86.1002 27.7887 86.0798 27.8091C86.0595 27.8296 86.0352 27.8457 86.0085 27.8567C85.9817 27.8676 85.953 27.873 85.9241 27.8727V27.8727Z" fill="#333F48"/>
<path d="M108.346 29.9921C108.313 29.9915 108.281 29.9837 108.251 29.9691C108.225 29.9574 108.201 29.9405 108.182 29.9195C108.162 29.8984 108.147 29.8736 108.138 29.8466C108.128 29.8196 108.124 29.791 108.126 29.7624C108.128 29.7339 108.136 29.706 108.149 29.6806L110.103 25.6511C110.123 25.616 110.152 25.5867 110.186 25.5662C110.221 25.5458 110.261 25.5349 110.301 25.5348C110.341 25.5347 110.381 25.5452 110.416 25.5655C110.451 25.5857 110.479 25.6148 110.499 25.6498L112.457 29.6784C112.481 29.7306 112.485 29.7905 112.465 29.8449C112.446 29.8993 112.406 29.9439 112.353 29.9689C112.301 29.994 112.241 29.9974 112.186 29.9784C112.131 29.9595 112.086 29.9197 112.061 29.8678L110.304 26.2487L108.544 29.8676C108.526 29.9046 108.498 29.9358 108.463 29.9578C108.428 29.9798 108.387 29.9917 108.346 29.9921V29.9921Z" fill="#333F48"/>
<path d="M40.2793 29.2225L39.7088 29.2227C39.6797 29.2231 39.6509 29.2178 39.624 29.207C39.5971 29.1962 39.5726 29.1802 39.5519 29.16C39.5312 29.1397 39.5147 29.1155 39.5035 29.0889C39.4922 29.0623 39.4863 29.0337 39.4862 29.0048C39.4861 28.9759 39.4918 28.9472 39.5028 28.9205C39.5139 28.8938 39.5302 28.8695 39.5507 28.8491C39.5713 28.8287 39.5957 28.8125 39.6225 28.8015C39.6494 28.7906 39.6781 28.785 39.7071 28.7852L40.2815 28.7866C40.3102 28.7868 40.3386 28.7926 40.3651 28.8037C40.3916 28.8148 40.4156 28.831 40.4357 28.8514C40.4559 28.8717 40.4718 28.8959 40.4826 28.9224C40.4934 28.9489 40.4988 28.9773 40.4985 29.0059C40.4977 29.0634 40.4743 29.1183 40.4333 29.1588C40.3923 29.1993 40.337 29.2222 40.2793 29.2225V29.2225Z" fill="#333F48"/>
<path d="M38.0412 29.9974C38.0061 29.9942 37.9716 29.9867 37.9385 29.9749C37.8874 29.9488 37.8485 29.9039 37.8299 29.8499C37.8112 29.7958 37.8142 29.7366 37.8383 29.6847L39.793 25.6533C39.8133 25.6185 39.8425 25.5896 39.8777 25.5696C39.9128 25.5496 39.9526 25.5392 39.9931 25.5394C40.0335 25.5397 40.0732 25.5506 40.1081 25.5711C40.1429 25.5916 40.1717 25.6209 40.1916 25.656L42.1473 29.6825C42.1599 29.7083 42.1673 29.7363 42.169 29.765C42.1707 29.7936 42.1668 29.8223 42.1573 29.8494C42.1479 29.8765 42.1332 29.9016 42.1141 29.923C42.095 29.9445 42.0718 29.962 42.0459 29.9745C42.02 29.9871 41.9918 29.9944 41.9631 29.9961C41.9343 29.9978 41.9055 29.9939 41.8783 29.9845C41.851 29.9751 41.8259 29.9605 41.8044 29.9414C41.7828 29.9224 41.7653 29.8993 41.7527 29.8735L39.9903 26.25L38.2315 29.8752C38.2141 29.911 38.1872 29.9413 38.1536 29.9629C38.12 29.9845 38.0811 29.9964 38.0412 29.9974V29.9974Z" fill="#333F48"/>
<path d="M62.8824 29.7024C62.8239 29.7026 62.7677 29.6797 62.726 29.6388C62.6844 29.5978 62.6607 29.542 62.6602 29.4837L62.6604 25.7471C62.66 25.7186 62.6653 25.6903 62.676 25.6639C62.6867 25.6374 62.7026 25.6134 62.7228 25.5932C62.7429 25.573 62.767 25.5571 62.7935 25.5463C62.82 25.5355 62.8484 25.5301 62.877 25.5304C62.906 25.5298 62.9348 25.535 62.9617 25.5456C62.9886 25.5563 63.0132 25.5722 63.0338 25.5924C63.0545 25.6127 63.0709 25.6368 63.082 25.6635C63.0932 25.6901 63.0989 25.7187 63.0987 25.7476L63.0995 29.4827C63.0998 29.5113 63.0945 29.5397 63.0837 29.5663C63.0729 29.5929 63.057 29.6171 63.0368 29.6375C63.0167 29.6579 62.9926 29.6742 62.9661 29.6853C62.9396 29.6964 62.9112 29.7022 62.8824 29.7024Z" fill="#333F48"/>
<path d="M72.5406 29.6943C72.4827 29.6942 72.4272 29.6712 72.3863 29.6305C72.3454 29.5897 72.3224 29.5344 72.3223 29.4767L72.3212 25.7905C72.321 25.7616 72.3266 25.7329 72.3376 25.7062C72.3486 25.6794 72.3649 25.6551 72.3854 25.6347C72.4059 25.6143 72.4303 25.5981 72.4572 25.5871C72.484 25.5762 72.5128 25.5706 72.5418 25.5708C72.6001 25.5708 72.656 25.5935 72.6976 25.6341C72.7392 25.6748 72.7631 25.7301 72.7642 25.7881L72.7667 29.4743C72.766 29.5333 72.7417 29.5896 72.6993 29.6309C72.6569 29.6721 72.5998 29.6949 72.5406 29.6943V29.6943Z" fill="#333F48"/>
<path d="M79.4002 29.696L76.193 29.6947C76.1515 29.694 76.111 29.6816 76.0763 29.6591C76.0415 29.6365 76.0138 29.6047 75.9963 29.5672C75.9773 29.5295 75.9701 29.4869 75.9756 29.4451C75.9811 29.4032 75.9991 29.364 76.0272 29.3324L78.9202 26.0081L76.3178 26.0071C76.2889 26.007 76.2604 26.0013 76.2338 25.9903C76.2072 25.9792 76.1831 25.9631 76.1627 25.9427C76.1424 25.9224 76.1263 25.8982 76.1153 25.8717C76.1043 25.8452 76.0987 25.8167 76.0988 25.788C76.0989 25.7593 76.1046 25.7309 76.1157 25.7044C76.1268 25.6779 76.143 25.6538 76.1634 25.6336C76.1838 25.6133 76.2081 25.5973 76.2347 25.5864C76.2614 25.5754 76.2899 25.5699 76.3187 25.5699L79.4008 25.5686C79.4422 25.5699 79.4824 25.5828 79.5169 25.6057C79.5513 25.6287 79.5786 25.6608 79.5956 25.6984C79.6126 25.7361 79.6187 25.7777 79.6131 25.8186C79.6076 25.8595 79.5906 25.898 79.5641 25.9298L76.6752 29.2576L79.3996 29.2565C79.4578 29.2571 79.5135 29.2805 79.5546 29.3215C79.5957 29.3626 79.619 29.4181 79.6195 29.4761C79.6199 29.505 79.6146 29.5337 79.6038 29.5605C79.593 29.5873 79.5769 29.6117 79.5564 29.6322C79.536 29.6527 79.5116 29.6689 79.4848 29.6799C79.4579 29.6908 79.4292 29.6963 79.4002 29.696Z" fill="#333F48"/>
<path d="M119.389 29.9523C119.347 29.9527 119.305 29.9409 119.27 29.9183C119.235 29.8957 119.207 29.8633 119.189 29.825L118.955 29.3005C118.931 29.2473 118.93 29.1872 118.951 29.1333C118.973 29.0793 119.014 29.0358 119.067 29.0122C119.094 29.0001 119.122 28.9935 119.151 28.9927C119.18 28.992 119.209 28.9972 119.236 29.0079C119.263 29.0187 119.288 29.0348 119.308 29.0553C119.329 29.0758 119.345 29.1002 119.356 29.1271L119.59 29.6468C119.602 29.6728 119.608 29.7009 119.609 29.7293C119.609 29.7578 119.604 29.7861 119.594 29.8126C119.584 29.8391 119.568 29.8633 119.548 29.8838C119.529 29.9044 119.505 29.9208 119.479 29.9322C119.451 29.9461 119.42 29.953 119.389 29.9523Z" fill="#333F48"/>
</svg>
