<svg width="27" height="21" viewBox="0 0 27 21" fill="none" xmlns="http://www.w3.org/2000/svg">
<path d="M20.1855 20.1807H3.6289C2.87096 20.1988 2.13672 19.9159 1.58691 19.3939C1.03709 18.8719 0.716492 18.1533 0.695312 17.3954V3.6025C0.717014 2.84452 1.03821 2.12603 1.58855 1.60436C2.13889 1.0827 2.87354 0.800389 3.63159 0.819247H20.1882C20.9463 0.800389 21.6809 1.0827 22.2312 1.60436C22.7816 2.12603 23.1028 2.84452 23.1245 3.6025V6.01973C23.1173 6.16776 23.0535 6.30736 22.9462 6.4096C22.8389 6.51183 22.6964 6.56886 22.5481 6.56886C22.3999 6.56886 22.2574 6.51183 22.1501 6.4096C22.0428 6.30736 21.979 6.16776 21.9718 6.01973V3.6025C21.9586 3.1421 21.7635 2.70568 21.4292 2.38882C21.0949 2.07197 20.6487 1.90048 20.1882 1.9119H3.6289C3.16845 1.90048 2.72221 2.07197 2.38793 2.38882C2.05364 2.70568 1.85851 3.1421 1.84528 3.6025V17.3954C1.85869 17.8557 2.0539 18.2919 2.38817 18.6086C2.72244 18.9253 3.16856 19.0967 3.6289 19.0853H20.1855C20.6459 19.0969 21.0921 18.9256 21.4264 18.6088C21.7607 18.2921 21.9559 17.8557 21.9691 17.3954V15.0153C21.9763 14.8672 22.0401 14.7276 22.1474 14.6254C22.2547 14.5232 22.3972 14.4661 22.5455 14.4661C22.6937 14.4661 22.8362 14.5232 22.9435 14.6254C23.0508 14.7276 23.1146 14.8672 23.1218 15.0153V17.3954C23.1006 18.1537 22.7797 18.8728 22.2293 19.3949C21.6789 19.917 20.9439 20.1995 20.1855 20.1807Z" fill="#F3CBC7"/>
<path d="M17.284 7.30865H4.51029C4.43575 7.31319 4.36106 7.30242 4.29083 7.27701C4.22061 7.25161 4.15634 7.21211 4.10195 7.16093C4.04756 7.10975 4.00422 7.04799 3.97459 6.97943C3.94497 6.91088 3.92969 6.837 3.92969 6.76233C3.92969 6.68765 3.94497 6.61375 3.97459 6.5452C4.00422 6.47664 4.04756 6.41488 4.10195 6.3637C4.15634 6.31252 4.22061 6.27302 4.29083 6.24761C4.36106 6.22221 4.43575 6.21144 4.51029 6.21598H17.284C17.3586 6.21144 17.4332 6.22221 17.5035 6.24761C17.5737 6.27302 17.638 6.31252 17.6924 6.3637C17.7467 6.41488 17.7901 6.47664 17.8197 6.5452C17.8493 6.61375 17.8646 6.68765 17.8646 6.76233C17.8646 6.837 17.8493 6.91088 17.8197 6.97943C17.7901 7.04799 17.7467 7.10975 17.6924 7.16093C17.638 7.21211 17.5737 7.25161 17.5035 7.27701C17.4332 7.30242 17.3586 7.31319 17.284 7.30865Z" fill="#F3CBC7"/>
<path d="M16.2628 11.3206H4.51029C4.43575 11.3252 4.36106 11.3144 4.29083 11.289C4.22061 11.2636 4.15634 11.2241 4.10195 11.1729C4.04756 11.1217 4.00422 11.0599 3.97459 10.9914C3.94497 10.9228 3.92969 10.849 3.92969 10.7743C3.92969 10.6996 3.94497 10.6257 3.97459 10.5572C4.00422 10.4886 4.04756 10.4268 4.10195 10.3757C4.15634 10.3245 4.22061 10.285 4.29083 10.2596C4.36106 10.2342 4.43575 10.2234 4.51029 10.2279H16.2628C16.3373 10.2234 16.412 10.2342 16.4822 10.2596C16.5525 10.285 16.6168 10.3245 16.6711 10.3757C16.7255 10.4268 16.7689 10.4886 16.7985 10.5572C16.8281 10.6257 16.8434 10.6996 16.8434 10.7743C16.8434 10.849 16.8281 10.9228 16.7985 10.9914C16.7689 11.0599 16.7255 11.1217 16.6711 11.1729C16.6168 11.2241 16.5525 11.2636 16.4822 11.289C16.412 11.3144 16.3373 11.3252 16.2628 11.3206Z" fill="#F3CBC7"/>
<path d="M14.1455 15.3321H4.51029C4.43575 15.3366 4.36106 15.3259 4.29083 15.3005C4.22061 15.275 4.15634 15.2355 4.10195 15.1844C4.04756 15.1332 4.00422 15.0714 3.97459 15.0029C3.94497 14.9343 3.92969 14.8604 3.92969 14.7857C3.92969 14.7111 3.94497 14.6372 3.97459 14.5686C4.00422 14.5001 4.04756 14.4383 4.10195 14.3871C4.15634 14.336 4.22061 14.2964 4.29083 14.271C4.36106 14.2456 4.43575 14.2349 4.51029 14.2394H14.1455C14.2201 14.2349 14.2947 14.2456 14.365 14.271C14.4352 14.2964 14.4995 14.336 14.5539 14.3871C14.6083 14.4383 14.6516 14.5001 14.6812 14.5686C14.7108 14.6372 14.7261 14.7111 14.7261 14.7857C14.7261 14.8604 14.7108 14.9343 14.6812 15.0029C14.6516 15.0714 14.6083 15.1332 14.5539 15.1844C14.4995 15.2355 14.4352 15.275 14.365 15.3005C14.2947 15.3259 14.2201 15.3366 14.1455 15.3321Z" fill="#F3CBC7"/>
<path d="M22.8352 15.5646C22.7715 15.5647 22.7083 15.5544 22.6478 15.5343L17.688 13.9165C17.5459 13.8712 17.4273 13.772 17.3577 13.6401C17.3247 13.5761 17.3054 13.5058 17.3008 13.4339C17.2963 13.362 17.3067 13.2899 17.3314 13.2222L19.9805 5.93547C20.006 5.86649 20.0449 5.80325 20.095 5.74944C20.1451 5.69563 20.2054 5.65232 20.2724 5.62203C20.4109 5.55841 20.5683 5.54925 20.7132 5.59639L25.6717 7.21419C25.7418 7.23472 25.807 7.26926 25.8634 7.31575C25.9197 7.36224 25.966 7.41969 25.9995 7.48462C26.033 7.54954 26.0529 7.62059 26.0581 7.69346C26.0633 7.76632 26.0536 7.83948 26.0297 7.90849L23.3805 15.1952C23.355 15.2642 23.3159 15.3275 23.2657 15.3813C23.2155 15.4351 23.1551 15.4784 23.088 15.5087C23.0087 15.5453 22.9225 15.5644 22.8352 15.5646ZM18.6088 13.0598L22.4786 14.3237L24.7516 8.06958L20.8824 6.80569L18.6088 13.0598Z" fill="#F3CBC7"/>
<path d="M18.9494 18.6242C18.8855 18.6244 18.822 18.6144 18.7613 18.5946C18.6695 18.5658 18.5868 18.5138 18.521 18.4436C18.4552 18.3735 18.4087 18.2876 18.3858 18.1941L17.3134 13.5147C17.2984 13.4431 17.2979 13.3691 17.312 13.2973C17.3262 13.2254 17.3547 13.1571 17.3957 13.0965C17.4368 13.0359 17.4896 12.9841 17.5511 12.9444C17.6126 12.9046 17.6814 12.8776 17.7535 12.8649C17.8997 12.8312 18.0532 12.856 18.1813 12.9339C18.3094 13.0119 18.4019 13.1369 18.4391 13.2822L19.3107 17.0833L22.4673 14.598C22.5865 14.5062 22.7358 14.4626 22.8856 14.4757C23.0354 14.4888 23.1748 14.5577 23.2762 14.6688C23.3244 14.7231 23.3608 14.7867 23.3833 14.8558C23.4057 14.9248 23.4136 14.9977 23.4066 15.0699C23.3996 15.1422 23.3778 15.2122 23.3424 15.2756C23.3071 15.3391 23.2591 15.3945 23.2014 15.4385L19.3147 18.4982C19.2103 18.5797 19.0818 18.624 18.9494 18.6242Z" fill="#F3CBC7"/>
<path d="M18.4365 15.845L20.8045 16.6181L18.9488 18.0789L18.4365 15.845Z" fill="#F3CBC7"/>
<path d="M24.6931 8.49088L20.6486 7.17104C20.5009 7.12747 20.3635 7.05438 20.2448 6.95617C20.1261 6.85796 20.0285 6.73668 19.9581 6.59967C19.8876 6.46267 19.8457 6.31278 19.8349 6.1591C19.824 6.00542 19.8445 5.85115 19.895 5.70561C20.0112 5.41048 20.2367 5.1715 20.5246 5.03841C20.8125 4.90532 21.1406 4.88838 21.4407 4.99109L25.4851 6.31092C25.6329 6.35449 25.7703 6.4276 25.889 6.5258C26.0077 6.624 26.1053 6.74527 26.1758 6.88226C26.2463 7.01925 26.2883 7.16911 26.2992 7.32279C26.3102 7.47647 26.2898 7.63077 26.2394 7.77636C26.1228 8.07133 25.8972 8.31012 25.6093 8.44316C25.3214 8.5762 24.9933 8.59328 24.6931 8.49088Z" fill="#F3CBC7"/>
</svg>
