<svg width="50" height="40" viewBox="0 0 50 40" fill="none" xmlns="http://www.w3.org/2000/svg">
<path d="M33.2109 37.7031C33.031 37.6055 32.8537 37.5032 32.679 37.3961L32.0682 37.7471C31.5993 38.0209 31.0659 38.1652 30.5252 38.1652C29.6885 38.1652 28.8745 37.8143 28.262 37.1691C26.8237 35.5996 25.7393 33.7199 25.1198 31.7082C24.7016 30.2973 25.3028 28.8277 26.5127 28.1738L27.1391 27.8091C27.134 27.6043 27.134 27.3995 27.1391 27.1951L26.5411 26.8466C25.5802 26.3034 25.0255 25.3106 25.0067 24.2388C23.875 23.9297 22.6875 23.75 21.4609 23.75H13.5391C6.06328 23.75 0 29.8203 0 37.2969C0 38.7891 1.2125 40 2.70781 40H32.2891C32.7365 40 33.1406 39.8651 33.5125 39.6728C33.3351 39.2834 33.2109 38.8681 33.2109 38.4181V37.7031ZM17.5 20C23.0234 20 27.5 15.5227 27.5 10C27.5 4.47734 23.0234 0 17.5 0C11.9766 0 7.5 4.47734 7.5 10C7.5 15.5227 11.9766 20 17.5 20ZM47.6953 29.1641C47.9004 28.0703 47.9004 26.9375 47.6953 25.8438L49.707 24.6719C49.9414 24.5449 50.0488 24.2715 49.9707 24.0078C49.4434 22.3281 48.5449 20.7945 47.373 19.525C47.1973 19.3297 46.9043 19.2809 46.6699 19.4176L44.6582 20.5801C43.8082 19.8574 42.8316 19.291 41.777 18.9199V16.5859C41.777 16.3223 41.5816 16.0879 41.3277 16.0391C39.5895 15.6484 37.8121 15.6582 36.152 16.0391C35.898 16.0879 35.7125 16.3223 35.7125 16.5859V18.9203C34.6578 19.2914 33.6812 19.8578 32.8312 20.5805L30.8125 19.4141C30.5879 19.2773 30.2949 19.3262 30.1094 19.5215C28.9375 20.791 28.0391 22.3246 27.5211 24.0043C27.443 24.268 27.5504 24.5414 27.775 24.6684L29.7867 25.8402C29.5914 26.934 29.5914 28.0668 29.7867 29.1605L27.775 30.3324C27.5406 30.4594 27.443 30.7328 27.5211 30.9965C28.0387 32.6762 28.9375 34.1996 30.1094 35.4793C30.2949 35.6746 30.5781 35.7234 30.8125 35.5867L32.8344 34.4242C33.6844 35.1469 34.6609 35.7133 35.7156 36.0844V38.4188C35.7156 38.6824 35.9012 38.9168 36.1551 38.9656C37.9035 39.3563 39.6707 39.3465 41.3309 38.9656C41.5848 38.9168 41.7801 38.6824 41.7801 38.4188V36.0844C42.8348 35.7133 43.8113 35.1469 44.6613 34.4242L46.673 35.5867C46.8977 35.7234 47.2004 35.6746 47.3762 35.4793C48.548 34.2098 49.4465 32.6762 49.9738 30.9965C50.052 30.7328 49.9445 30.4594 49.7102 30.3324L47.6953 29.1641ZM38.75 31.2891C36.6602 31.2891 34.9609 29.5898 34.9609 27.5C34.9609 25.4102 36.6602 23.7109 38.75 23.7109C40.8398 23.7109 42.5391 25.4102 42.5391 27.5C42.5391 29.5898 40.8438 31.2891 38.75 31.2891Z" fill="white"/>
</svg>
