<svg width="35" height="40" viewBox="0 0 35 40" fill="none" xmlns="http://www.w3.org/2000/svg">
<g clip-path="url(#clip0_1742_17205)">
<path d="M20 2.5V4C25.7031 5.15859 30 10.2031 30 16.25V17.7188C30 21.3984 31.3516 24.9375 33.7891 27.6875L34.3672 28.3359C35.0234 29.0781 35.1875 30.125 34.7813 31.0234C34.375 31.9219 33.4844 32.5 32.5 32.5H2.49998C1.51561 32.5 0.622716 31.9219 0.219435 31.0234C-0.183847 30.125 -0.0225422 29.0781 0.631544 28.3359L1.21092 27.6875C3.65155 24.9375 4.99998 21.3984 4.99998 17.7188V16.25C4.99998 10.2031 9.22655 5.15859 15 4V2.5C15 1.11953 16.1172 0 17.5 0C18.8828 0 20 1.11953 20 2.5ZM17.5 40C16.1719 40 14.8984 39.4766 13.9609 38.5391C13.0234 37.6016 12.5 36.2578 12.5 35H22.5C22.5 36.2578 21.9766 37.6016 21.0391 38.5391C20.1016 39.4766 18.7578 40 17.5 40Z" fill="white"/>
</g>
<defs>
<clipPath id="clip0_1742_17205">
<rect width="35" height="40" fill="white"/>
</clipPath>
</defs>
</svg>
