<svg width="14" height="12" viewBox="0 0 14 12" fill="none" xmlns="http://www.w3.org/2000/svg">
<g clip-path="url(#clip0_1243_31238)">
<path d="M7.375 0.388594C7.375 0.17707 7.51797 0 7.75 0C10.6492 0 13 2.35078 13 5.25C13 5.46094 12.8219 5.625 12.6109 5.625H7.375V0.388594ZM1 6.375C1 3.53203 3.11172 1.17984 5.83047 0.802734C6.06719 0.773203 6.25 0.945938 6.25 1.16273V6.75L9.91797 10.418C10.075 10.575 10.0633 10.8328 9.88281 10.9617C8.96406 11.6156 7.83906 12 6.625 12C3.51953 12 1 9.48281 1 6.375ZM13.3375 6.75C13.5531 6.75 13.7266 6.93281 13.6984 7.14844C13.518 8.45859 12.8852 9.62344 11.9664 10.4836C11.8258 10.5961 11.6055 10.6055 11.4695 10.4695L7.75 6.75H13.3375Z" fill="white"/>
</g>
<defs>
<clipPath id="clip0_1243_31238">
<rect width="13.5" height="12" fill="white" transform="translate(0.25)"/>
</clipPath>
</defs>
</svg>
