<svg width="14" height="14" viewBox="0 0 14 14" fill="none" xmlns="http://www.w3.org/2000/svg">
<path d="M10.5 2.625V0H7.4375C6.71262 0 6.125 0.587617 6.125 1.3125V9.1875C6.125 9.91238 6.71262 10.5 7.4375 10.5H12.6875C13.4124 10.5 14 9.91238 14 9.1875V3.5H11.3996C10.8938 3.5 10.5 3.10625 10.5 2.625ZM11.375 0V2.625H14L11.375 0ZM5.25 9.625V3.5H1.3125C0.587617 3.5 0 4.08762 0 4.8125V12.6875C0 13.4124 0.587617 14 1.3125 14H6.5625C7.28738 14 7.875 13.4124 7.875 12.6875V11.375H7C6.03477 11.375 5.25 10.5902 5.25 9.625Z" fill="#EF6079"/>
</svg>
