<svg width="40" height="40" viewBox="0 0 40 40" fill="none" xmlns="http://www.w3.org/2000/svg">
<path d="M13.6719 13.6719C14.4062 12.9453 15.5938 12.9453 16.2578 13.6719L19.9297 17.3516L23.6719 13.6719C24.4062 12.9453 25.5938 12.9453 26.2578 13.6719C27.0547 14.4062 27.0547 15.5938 26.2578 16.2578L22.6484 19.9297L26.2578 23.6719C27.0547 24.4062 27.0547 25.5938 26.2578 26.2578C25.5938 27.0547 24.4062 27.0547 23.6719 26.2578L19.9297 22.6484L16.2578 26.2578C15.5938 27.0547 14.4062 27.0547 13.6719 26.2578C12.9453 25.5938 12.9453 24.4062 13.6719 23.6719L17.3516 19.9297L13.6719 16.2578C12.9453 15.5938 12.9453 14.4062 13.6719 13.6719ZM40 20C40 31.0469 31.0469 40 20 40C8.95312 40 0 31.0469 0 20C0 8.95312 8.95312 0 20 0C31.0469 0 40 8.95312 40 20ZM20 3.75C11.0234 3.75 3.75 11.0234 3.75 20C3.75 28.9766 11.0234 36.25 20 36.25C28.9766 36.25 36.25 28.9766 36.25 20C36.25 11.0234 28.9766 3.75 20 3.75Z" fill="#EB5757"/>
</svg>
