<svg width="41" height="40" viewBox="0 0 41 40" fill="none" xmlns="http://www.w3.org/2000/svg">
<g clip-path="url(#clip0_1698_18034)">
<path d="M15.4297 17.5C15.4297 16.1156 14.3094 14.9969 12.9297 14.9969L11.75 15C8.98906 15 6.75 17.2391 6.75 20.0062V23.7398C6.75 26.5078 8.99219 28.75 11.75 28.75H13C14.3797 28.75 15.5 27.6281 15.5 26.2453L15.4297 17.5ZM20.5 0C9.32031 0 0.858047 9.30469 0.501625 20L0.5 23.125C0.5 24.1641 1.33984 25 2.30469 25C3.26953 25 4.25 24.1641 4.25 23.125V20C4.25 11.0391 11.5422 3.76562 20.5 3.76562C29.4609 3.76562 36.75 11.0391 36.75 20V31.25C36.75 32.9758 35.3508 34.375 33.625 34.375H24.9766C24.3281 33.2578 23.1328 32.5 21.75 32.5H19.3906C17.5773 32.5 15.9141 33.7258 15.5727 35.507C15.1094 37.9062 16.9375 40 19.1797 40H21.75C23.1344 40 24.3305 39.2413 24.9797 38.125H33.625C37.4219 38.125 40.5 35.0469 40.5 31.25V20C40.1406 9.30469 31.6797 0 20.5 0ZM29.25 28.75C32.0109 28.75 34.25 26.5078 34.25 23.7398V20.0078C34.25 17.2422 32.0078 15 29.25 15H28C26.6203 15 25.5 16.1203 25.5 17.5031V26.2422C25.5 27.6328 26.6172 28.75 28 28.75H29.25Z" fill="white"/>
</g>
<defs>
<clipPath id="clip0_1698_18034">
<rect width="40" height="40" fill="white" transform="translate(0.5)"/>
</clipPath>
</defs>
</svg>
