<svg width="12" height="12" viewBox="0 0 12 12" fill="none" xmlns="http://www.w3.org/2000/svg">
<g clip-path="url(#clip0_1698_20114)">
<path d="M3.91875 0.414609C4.04531 0.1605 4.30547 0 4.58906 0H7.41094C7.69453 0 7.95469 0.1605 8.08125 0.414609L8.25 0.75H10.5C10.9148 0.75 11.25 1.08586 11.25 1.5C11.25 1.91414 10.9148 2.25 10.5 2.25H1.5C1.08586 2.25 0.75 1.91414 0.75 1.5C0.75 1.08586 1.08586 0.75 1.5 0.75H3.75L3.91875 0.414609ZM10.0031 10.9242C9.96562 11.5383 9.47578 12 8.88047 12H3.11953C2.52539 12 2.03367 11.5383 1.99664 10.9242L1.47891 3H10.5L10.0031 10.9242Z" fill="white"/>
</g>
<defs>
<clipPath id="clip0_1698_20114">
<rect width="10.5" height="12" fill="white" transform="translate(0.75)"/>
</clipPath>
</defs>
</svg>
