<svg width="12" height="12" viewBox="0 0 12 12" fill="none" xmlns="http://www.w3.org/2000/svg">
<path d="M8.50078 0.452846C9.08672 -0.133045 10.0383 -0.133045 10.6242 0.452846L11.5477 1.37699C12.1336 1.96269 12.1336 2.91331 11.5477 3.49925L10.4133 4.63363L7.36641 1.58722L8.50078 0.452846ZM9.88359 5.16331L4.41797 10.6266C4.17422 10.8703 3.87187 11.0508 3.5414 11.1469L0.721167 11.9766C0.523823 12.0352 0.310307 11.9813 0.16476 11.8149C0.0192088 11.6907 -0.0352085 11.4774 0.0228697 11.2782L0.852417 8.45863C0.949917 8.12816 1.12875 7.82581 1.37273 7.58206L6.83672 2.11738L9.88359 5.16331Z" fill="white"/>
</svg>
