<svg width="40" height="40" viewBox="0 0 40 40" fill="none" xmlns="http://www.w3.org/2000/svg">
<g clip-path="url(#clip0_1783_22668)">
<path d="M39.5549 32.5781L22.8909 4.14062C21.6151 1.95312 18.3955 1.95312 17.1112 4.14062L0.45491 32.5781C-0.827121 34.7578 0.769676 37.5 3.33929 37.5H36.6674C39.2268 37.5 40.8284 34.7656 39.5549 32.5781ZM18.1252 13.125C18.1252 12.0898 18.9651 11.25 20.0002 11.25C21.0354 11.25 21.8752 12.0938 21.8752 13.125V23.125C21.8752 24.1602 21.0354 25 20.0705 25C19.1057 25 18.1252 24.1641 18.1252 23.125V13.125ZM20.0002 32.5C18.644 32.5 17.544 31.4 17.544 30.0438C17.544 28.6875 18.6432 27.5875 20.0002 27.5875C21.3573 27.5875 22.4565 28.6875 22.4565 30.0438C22.4534 31.3984 21.3596 32.5 20.0002 32.5Z" fill="#EB5757"/>
</g>
<defs>
<clipPath id="clip0_1783_22668">
<rect width="40" height="40" fill="white"/>
</clipPath>
</defs>
</svg>
