<svg width="14" height="14" viewBox="0 0 14 14" fill="none" xmlns="http://www.w3.org/2000/svg">
<path d="M13.7083 0.776855H11.7882C11.5281 0.776855 11.3993 1.0904 11.5816 1.27512L11.9924 1.68588L10.8087 2.86956C10.2691 2.52929 9.62986 2.33241 8.94444 2.33241C8.12535 2.33241 7.37431 2.61436 6.77639 3.08345C7.11667 3.48936 7.38403 3.95845 7.5566 4.4713C7.90903 4.11158 8.4 3.88797 8.94444 3.88797C10.0163 3.88797 10.8889 4.76054 10.8889 5.83241C10.8889 6.90429 10.0163 7.77685 8.94444 7.77685C8.40243 7.77685 7.90903 7.55324 7.5566 7.19352C7.38403 7.70637 7.1191 8.17547 6.77639 8.58137C7.37187 9.0529 8.12535 9.33241 8.94444 9.33241C10.8767 9.33241 12.4444 7.7647 12.4444 5.83241C12.4444 5.14699 12.2476 4.50776 11.9073 3.96817L13.091 2.78449L13.5017 3.19526C13.5601 3.25359 13.633 3.28033 13.7059 3.28033C13.8566 3.28033 14 3.16366 14 2.98866V1.06852C14 0.908105 13.8688 0.776855 13.7083 0.776855ZM3.5 2.33241C1.56771 2.33241 0 3.90012 0 5.83241C0 7.49734 1.16424 8.89248 2.72222 9.24491V10.4991H1.84722C1.68681 10.4991 1.55556 10.6303 1.55556 10.7907V11.763C1.55556 11.9234 1.68681 12.0546 1.84722 12.0546H2.72222V12.9296C2.72222 13.09 2.85347 13.2213 3.01389 13.2213H3.98611C4.14653 13.2213 4.27778 13.09 4.27778 12.9296V12.0546H5.15278C5.31319 12.0546 5.44444 11.9234 5.44444 11.763V10.7907C5.44444 10.6303 5.31319 10.4991 5.15278 10.4991H4.27778V9.24491C5.83576 8.89005 7 7.49734 7 5.83241C7 3.90012 5.43229 2.33241 3.5 2.33241ZM3.5 7.77685C2.42813 7.77685 1.55556 6.90429 1.55556 5.83241C1.55556 4.76054 2.42813 3.88797 3.5 3.88797C4.57188 3.88797 5.44444 4.76054 5.44444 5.83241C5.44444 6.90429 4.57188 7.77685 3.5 7.77685Z" fill="#EF6079"/>
</svg>
