<svg width="14" height="14" viewBox="0 0 14 14" fill="none" xmlns="http://www.w3.org/2000/svg">
<path d="M12.8333 1.55396H1.16667C0.522569 1.55396 0 2.07652 0 2.72062V3.10951H14V2.72062C14 2.07652 13.4774 1.55396 12.8333 1.55396ZM0 11.2762C0 11.9203 0.522569 12.4428 1.16667 12.4428H12.8333C13.4774 12.4428 14 11.9203 14 11.2762V3.88729H0V11.2762ZM8.55556 5.63729C8.55556 5.53034 8.64306 5.44284 8.75 5.44284H12.25C12.3569 5.44284 12.4444 5.53034 12.4444 5.63729V6.02618C12.4444 6.13312 12.3569 6.22062 12.25 6.22062H8.75C8.64306 6.22062 8.55556 6.13312 8.55556 6.02618V5.63729ZM8.55556 7.19285C8.55556 7.0859 8.64306 6.9984 8.75 6.9984H12.25C12.3569 6.9984 12.4444 7.0859 12.4444 7.19285V7.58173C12.4444 7.68868 12.3569 7.77618 12.25 7.77618H8.75C8.64306 7.77618 8.55556 7.68868 8.55556 7.58173V7.19285ZM8.55556 8.7484C8.55556 8.64146 8.64306 8.55396 8.75 8.55396H12.25C12.3569 8.55396 12.4444 8.64146 12.4444 8.7484V9.13729C12.4444 9.24423 12.3569 9.33173 12.25 9.33173H8.75C8.64306 9.33173 8.55556 9.24423 8.55556 9.13729V8.7484ZM4.27778 5.44284C5.13576 5.44284 5.83333 6.14041 5.83333 6.9984C5.83333 7.85639 5.13576 8.55396 4.27778 8.55396C3.41979 8.55396 2.72222 7.85639 2.72222 6.9984C2.72222 6.14041 3.41979 5.44284 4.27778 5.44284ZM1.6309 10.406C1.83507 9.78139 2.42083 9.33173 3.11111 9.33173H3.31042C3.60938 9.45569 3.93507 9.52618 4.27778 9.52618C4.62049 9.52618 4.94861 9.45569 5.24514 9.33173H5.44444C6.13472 9.33173 6.72049 9.78139 6.92465 10.406C7.00243 10.6467 6.79826 10.8873 6.54549 10.8873H2.01007C1.75729 10.8873 1.55313 10.6442 1.6309 10.406Z" fill="#EF6079"/>
</svg>
