<svg width="41" height="40" viewBox="0 0 41 40" fill="none" xmlns="http://www.w3.org/2000/svg">
<g clip-path="url(#clip0_1698_18026)">
<path d="M13 32.5H8C6.61953 32.5 5.5 31.3805 5.5 30V10C5.5 8.61953 6.61953 7.5 8 7.5H13C14.3805 7.5 15.5 6.38047 15.5 5C15.5 3.61953 14.3828 2.5 13 2.5H8C3.85781 2.5 0.5 5.85781 0.5 10V30C0.5 34.1422 3.85781 37.5 8 37.5H13C14.3805 37.5 15.5 36.3805 15.5 35C15.5 33.6195 14.3828 32.5 13 32.5ZM39.7656 18.2344L29.7656 8.23438C28.7883 7.25703 27.2063 7.25859 26.2305 8.23438C25.2539 9.21094 25.2539 10.793 26.2305 11.7695L31.9688 17.5H15.5C14.1172 17.5 13 18.6172 13 20C13 21.3828 14.118 22.5 15.5 22.5H31.9688L26.2359 28.2328C25.2594 29.2094 25.2594 30.7914 26.2359 31.768C27.2125 32.7445 28.7945 32.7445 29.7711 31.768L39.7711 21.768C40.7422 20.7891 40.7422 19.2109 39.7656 18.2344Z" fill="white"/>
</g>
<defs>
<clipPath id="clip0_1698_18026">
<rect width="40" height="40" fill="white" transform="translate(0.5)"/>
</clipPath>
</defs>
</svg>
