<svg width="14" height="14" viewBox="0 0 14 14" fill="none" xmlns="http://www.w3.org/2000/svg">
<path d="M0 3.63597V12.0535C0 12.3286 0.277813 12.5167 0.533264 12.4147L3.88889 10.8873V1.55396L0.489028 2.91385C0.344696 2.97158 0.220969 3.07123 0.133804 3.19994C0.0466396 3.32865 3.45676e-05 3.48052 0 3.63597H0ZM4.66667 10.8873L9.33333 12.4428V3.10951L4.66667 1.55396V10.8873ZM13.4667 1.58215L10.1111 3.10951V12.4428L13.511 11.083C13.6553 11.0252 13.7791 10.9256 13.8662 10.7969C13.9534 10.6682 14 10.5163 14 10.3608V1.94333C14 1.66819 13.7222 1.48007 13.4667 1.58215Z" fill="#EF6079"/>
</svg>
