<svg width="25" height="27" viewBox="0 0 25 27" fill="none" xmlns="http://www.w3.org/2000/svg">
<path d="M21.6094 25.0004H3.39009C2.67202 25.0004 1.98338 24.7151 1.47563 24.2074C0.967885 23.6996 0.682617 23.011 0.682617 22.2929C0.682617 21.5749 0.967885 20.8862 1.47563 20.3784C1.98338 19.8707 2.67202 19.5854 3.39009 19.5854H3.5987C3.7574 19.5854 3.90962 19.6485 4.02184 19.7607C4.13407 19.8729 4.1971 20.0251 4.1971 20.1839C4.1971 20.3426 4.13407 20.4948 4.02184 20.607C3.90962 20.7192 3.7574 20.7823 3.5987 20.7823H3.39009C3.1885 20.7772 2.98795 20.8125 2.80022 20.8861C2.61249 20.9597 2.4414 21.0702 2.29702 21.211C2.15264 21.3518 2.03788 21.52 1.95954 21.7058C1.88119 21.8917 1.84084 22.0913 1.84084 22.2929C1.84084 22.4946 1.88119 22.6942 1.95954 22.88C2.03788 23.0658 2.15264 23.2341 2.29702 23.3749C2.4414 23.5156 2.61249 23.6261 2.80022 23.6997C2.98795 23.7734 3.1885 23.8087 3.39009 23.8036H21.6046C21.9987 23.7936 22.3733 23.6301 22.6484 23.3479C22.9236 23.0657 23.0777 22.6871 23.0777 22.2929C23.0777 21.8987 22.9236 21.5202 22.6484 21.2379C22.3733 20.9557 21.9987 20.7922 21.6046 20.7823H21.3489C21.1902 20.7823 21.038 20.7192 20.9258 20.607C20.8136 20.4948 20.7505 20.3426 20.7505 20.1839C20.7505 20.0251 20.8136 19.8729 20.9258 19.7607C21.038 19.6485 21.1902 19.5854 21.3489 19.5854H21.6046C22.3138 19.5988 22.9895 19.8899 23.4864 20.3962C23.9832 20.9025 24.2616 21.5836 24.2616 22.2929C24.2616 23.0023 23.9832 23.6833 23.4864 24.1896C22.9895 24.6959 22.3138 24.987 21.6046 25.0004H21.6094Z" fill="#F3CBC7"/>
<path d="M21.355 20.7813C21.2764 20.7815 21.1985 20.7661 21.1259 20.7361C21.0532 20.7061 20.9872 20.6621 20.9316 20.6065C20.8759 20.551 20.8318 20.4851 20.8017 20.4124C20.7716 20.3398 20.7561 20.262 20.7561 20.1834V13.2102C20.7561 11.0151 19.8841 8.90988 18.3319 7.3577C16.7797 5.80551 14.6745 4.93351 12.4794 4.93351C10.2843 4.93351 8.17905 5.80551 6.62687 7.3577C5.07469 8.90988 4.20267 11.0151 4.20267 13.2102V20.1844C4.20267 20.3429 4.13969 20.495 4.02756 20.6072C3.91543 20.7193 3.76335 20.7823 3.60477 20.7823C3.44619 20.7823 3.29411 20.7193 3.18197 20.6072C3.06984 20.495 3.00684 20.3429 3.00684 20.1844V13.2102C3.00684 10.6978 4.00489 8.28831 5.78143 6.51177C7.55796 4.73523 9.96745 3.73718 12.4799 3.73718C14.9923 3.73718 17.4018 4.73523 19.1783 6.51177C20.9549 8.28831 21.9529 10.6978 21.9529 13.2102V20.1844C21.9529 20.2628 21.9374 20.3405 21.9073 20.413C21.8773 20.4855 21.8332 20.5514 21.7777 20.6068C21.7222 20.6623 21.6562 20.7062 21.5837 20.7362C21.5112 20.7661 21.4335 20.7815 21.355 20.7813Z" fill="#F3CBC7"/>
<path d="M12.4795 4.92962C12.0422 4.92962 11.6148 4.79995 11.2512 4.55701C10.8876 4.31406 10.6042 3.96876 10.4368 3.56476C10.2695 3.16076 10.2257 2.7162 10.311 2.28732C10.3964 1.85843 10.6069 1.46448 10.9161 1.15527C11.2253 0.84606 11.6193 0.635485 12.0482 0.550175C12.4771 0.464864 12.9216 0.508648 13.3256 0.675991C13.7296 0.843334 14.0749 1.12672 14.3179 1.49031C14.5608 1.8539 14.6905 2.28137 14.6905 2.71866C14.6887 3.3045 14.4552 3.86583 14.0409 4.28009C13.6267 4.69434 13.0654 4.92785 12.4795 4.92962ZM12.4795 1.69585C12.278 1.69585 12.081 1.75561 11.9134 1.86757C11.7459 1.97954 11.6152 2.13868 11.5381 2.32487C11.461 2.51106 11.4408 2.71594 11.4801 2.9136C11.5194 3.11126 11.6165 3.29283 11.759 3.43533C11.9015 3.57784 12.0831 3.67488 12.2807 3.7142C12.4784 3.75352 12.6833 3.73334 12.8695 3.65622C13.0556 3.57909 13.2148 3.44849 13.3268 3.28092C13.4387 3.11335 13.4985 2.91635 13.4985 2.71481C13.4982 2.44464 13.3908 2.18561 13.1998 1.99458C13.0087 1.80354 12.7497 1.6961 12.4795 1.69585Z" fill="#F3CBC7"/>
<path d="M14.5779 24.4025C14.5779 24.9589 14.3568 25.4925 13.9634 25.886C13.5699 26.2794 13.0363 26.5005 12.4798 26.5005C11.9234 26.5005 11.3898 26.2794 10.9963 25.886C10.6029 25.4925 10.3818 24.9589 10.3818 24.4025H14.5779Z" fill="#F3CBC7"/>
<path d="M18.1586 11.624C18.0317 11.6241 17.9081 11.5838 17.8056 11.509C17.7031 11.4342 17.6271 11.3287 17.5886 11.2078C17.3729 10.4592 16.9618 9.78162 16.3975 9.24455C15.8332 8.70748 15.1362 8.33033 14.3779 8.15186C14.2227 8.11885 14.087 8.02556 14.0007 7.89251C13.9143 7.75947 13.8844 7.59757 13.9174 7.44243C13.9504 7.2873 14.0437 7.15163 14.1767 7.06527C14.3098 6.97892 14.4717 6.94896 14.6268 6.98197C15.5925 7.20187 16.4819 7.67578 17.2031 8.35467C17.9242 9.03356 18.4509 9.89279 18.7287 10.8435C18.7771 10.9943 18.7639 11.1582 18.6918 11.2992C18.6197 11.4403 18.4947 11.5471 18.3441 11.5962C18.2842 11.6153 18.2215 11.6247 18.1586 11.624Z" fill="#F3CBC7"/>
</svg>
