<svg width="14" height="14" viewBox="0 0 14 14" fill="none" xmlns="http://www.w3.org/2000/svg">
<g clip-path="url(#clip0_1698_18369)">
<path d="M13.6005 9.89345L10.538 8.58095C10.4072 8.5252 10.2618 8.51345 10.1237 8.54748C9.98562 8.5815 9.86232 8.65947 9.77238 8.76962L8.41613 10.4267C6.28762 9.42308 4.57467 7.71012 3.57109 5.58162L5.22813 4.22537C5.33851 4.13559 5.41663 4.0123 5.45067 3.87415C5.48472 3.736 5.47283 3.59053 5.4168 3.45974L4.1043 0.397242C4.0428 0.25626 3.93405 0.141153 3.79678 0.0717693C3.65951 0.00238539 3.50233 -0.0169263 3.35234 0.0171642L0.508594 0.673414C0.363992 0.706806 0.234977 0.788225 0.142607 0.904382C0.0502374 1.02054 -3.33104e-05 1.16458 1.65599e-08 1.31298C1.65599e-08 8.32666 5.68477 14.0005 12.6875 14.0005C12.836 14.0006 12.9801 13.9503 13.0963 13.858C13.2125 13.7656 13.2939 13.6365 13.3273 13.4919L13.9836 10.6481C14.0175 10.4974 13.9977 10.3396 13.9278 10.2019C13.8579 10.0641 13.7422 9.95507 13.6005 9.89345Z" fill="#EF6079"/>
</g>
<defs>
<clipPath id="clip0_1698_18369">
<rect width="14" height="14" fill="white"/>
</clipPath>
</defs>
</svg>
