<svg width="49" height="40" viewBox="0 0 49 40" fill="none" xmlns="http://www.w3.org/2000/svg">
<g clip-path="url(#clip0_1742_17453)">
<path opacity="0.49" d="M32.2692 38.8524C40.268 38.8524 46.7523 32.3681 46.7523 24.3693C46.7523 16.3705 40.268 9.88623 32.2692 9.88623C24.2704 9.88623 17.7861 16.3705 17.7861 24.3693C17.7861 32.3681 24.2704 38.8524 32.2692 38.8524Z" fill="#EF6079"/>
<path d="M31.2685 40C31.0538 40 30.8366 39.9957 30.6168 39.9871L30.3463 39.9506C28.316 39.9279 26.3009 39.597 24.3699 38.9694C22.1179 38.111 20.0278 36.8768 18.1885 35.3194C17.1641 36.1548 16.0089 36.8153 14.7693 37.2743C13.293 37.7962 11.7175 37.9758 10.1617 37.7997C8.60581 37.6236 7.11031 37.0963 5.78807 36.2577C3.21956 34.426 1.47649 31.6557 0.936752 28.5475C0.400515 25.6729 0.740885 22.7034 1.91367 20.0247C2.02102 19.7842 4.5535 14.0859 12.7317 8.81485C13.2685 8.35322 14.4923 7.03061 14.4107 5.85079C14.3368 5.46065 14.1709 5.09376 13.9269 4.7805C13.6829 4.46723 13.3678 4.21662 13.0076 4.04942L12.4 3.67151L12.4504 2.92005C12.4726 2.69838 12.5571 2.48748 12.6941 2.31177C12.831 2.13605 13.0149 2.00266 13.2245 1.92701C16.7892 0.706299 20.525 0.0587963 24.2926 0.00861506C31.8364 -0.0987387 38.2669 2.46056 42.9185 7.36877L43.2932 7.75739C43.4026 7.86476 43.4894 7.99299 43.5484 8.13448C43.6074 8.27598 43.6375 8.42788 43.6368 8.58119C43.636 8.7345 43.6046 8.8861 43.5443 9.02704C43.4839 9.16798 43.396 9.2954 43.2855 9.40174C43.1751 9.50808 43.0444 9.59117 42.9013 9.64614C42.7582 9.70111 42.6055 9.72683 42.4523 9.72176C42.2991 9.71668 42.1484 9.68094 42.0092 9.61662C41.8701 9.55231 41.7452 9.46074 41.6421 9.34732L41.261 8.95225C36.9937 4.45091 31.3039 2.21149 24.3216 2.2963C21.4553 2.34621 18.6064 2.75301 15.8407 3.50728C16.3455 4.134 16.6453 4.90081 16.6995 5.70372C16.8702 8.29954 14.4225 10.3929 14.1434 10.6238L14.0361 10.7032C6.44292 15.5781 4.04249 20.8857 4.01888 20.9394C3.02857 23.2026 2.74132 25.7111 3.1944 28.1396C3.6189 30.6059 4.97771 32.8137 6.98828 34.3038C8.01584 34.9667 9.18189 35.3848 10.3965 35.5259C11.6112 35.667 12.842 35.5273 13.9942 35.1176C14.9274 34.7743 15.802 34.2886 16.5868 33.678C15.1851 32.044 14.3406 30.0059 14.1756 27.8594C14.1382 27.2169 14.2278 26.5733 14.4392 25.9654C14.6507 25.3575 14.9799 24.7973 15.408 24.3167C15.7911 23.9206 16.2544 23.611 16.7669 23.4086C17.2794 23.2062 17.8293 23.1158 18.3796 23.1433C18.9776 23.2026 19.5547 23.395 20.0686 23.7066C20.5824 24.0181 21.0199 24.4408 21.349 24.9437L21.3844 24.9952C21.8693 25.8713 22.1507 26.8452 22.2077 27.8449C22.2648 28.8445 22.096 29.8442 21.714 30.7697C21.2773 31.864 20.6455 32.8698 19.8493 33.7381C21.4524 35.051 23.2574 36.0958 25.1944 36.832C26.9151 37.3684 28.7051 37.6494 30.5073 37.6662L30.7789 37.7027C34.6723 37.7883 38.4587 36.4254 41.4042 33.878C44.3497 31.3305 46.2444 27.7802 46.721 23.9152C46.7383 23.7632 46.7858 23.6162 46.8607 23.4829C46.9357 23.3495 47.0366 23.2325 47.1574 23.1388C47.2783 23.045 47.4167 22.9764 47.5645 22.937C47.7123 22.8975 47.8665 22.888 48.018 22.9091C48.1695 22.9301 48.3153 22.9813 48.4467 23.0596C48.5782 23.1379 48.6926 23.2416 48.7833 23.3648C48.8741 23.488 48.9392 23.628 48.975 23.7768C49.0107 23.9255 49.0163 24.0799 48.9915 24.2308C48.4436 28.558 46.3461 32.5401 43.0875 35.4394C39.8289 38.3388 35.63 39.959 31.2685 40ZM18.137 25.4246C17.7197 25.4446 17.3259 25.6236 17.0366 25.9249C16.6385 26.4297 16.434 27.0603 16.4601 27.7027C16.5899 29.3147 17.2128 30.8477 18.2443 32.0934C18.7973 31.4704 19.2409 30.7582 19.5562 29.9871C19.8088 29.3974 19.9323 28.7606 19.9186 28.1192C19.9049 27.4778 19.7543 26.8468 19.4767 26.2684C19.339 26.0464 19.1554 25.8565 18.9382 25.7113C18.721 25.5661 18.4753 25.4691 18.2175 25.4268L18.137 25.4246ZM14.2153 2.10094L14.2239 2.10632L14.2153 2.10094Z" fill="white"/>
<path d="M40.9594 25.5641C41.2727 23.4838 42.0486 21.5003 43.2299 19.7595C43.2718 19.6983 43.3147 19.6371 43.3587 19.577C43.4725 19.4224 43.2116 19.7402 43.3974 19.5287C43.4908 19.4213 43.5885 19.3226 43.6894 19.2238C44.104 18.7907 44.5732 18.4133 45.085 18.1009C45.4821 17.8523 45.9461 17.7319 46.414 17.7563C46.5568 17.7864 46.6958 17.8326 46.8284 17.8937C46.706 17.8476 46.7973 17.8368 46.7833 17.9238C46.7833 17.9238 46.7125 18.088 46.7769 18.014C46.7095 18.0931 46.623 18.1537 46.5257 18.19C46.0364 18.3815 45.5027 18.4291 44.9873 18.3274C43.8783 18.1406 43.4596 17.3022 43.2267 16.2877C43.1085 15.8852 43.0721 15.463 43.1195 15.0462C43.1668 14.6294 43.2971 14.2262 43.5026 13.8604C43.6246 13.6466 43.7935 13.4631 43.9964 13.3236C43.9127 13.3644 44.4258 13.2163 44.1542 13.2732C44.2154 13.264 44.2777 13.264 44.3389 13.2732C44.0769 13.1809 44.3979 13.3011 44.4086 13.3076C44.589 13.401 44.4333 13.3215 44.4001 13.3076C44.4784 13.3481 44.5534 13.3947 44.6244 13.4471C44.4033 13.2797 44.8144 13.738 44.6588 13.4943C44.6923 13.5383 44.7207 13.5858 44.7436 13.6361C44.8134 13.8637 44.7275 13.4643 44.7532 13.679C44.779 13.8937 44.7532 13.6479 44.7532 13.6232C44.7559 13.7429 44.7506 13.8627 44.7371 13.9817C44.474 15.1696 43.8365 16.2417 42.9186 17.0402C41.961 18.0247 43.4672 19.5341 44.4215 18.5432C46.0232 16.8975 48.3625 13.2947 45.6271 11.5502C45.1597 11.258 44.6127 11.1192 44.0626 11.1532C43.5124 11.1873 42.9867 11.3926 42.5589 11.7402C42.0194 12.2014 41.5957 12.7828 41.322 13.4376C41.0482 14.0925 40.9321 14.8025 40.983 15.5105C40.9621 16.3555 41.1452 17.1931 41.5167 17.9523C41.8882 18.7116 42.4372 19.3702 43.1172 19.8722C43.8225 20.2758 44.6187 20.4939 45.4312 20.5063C46.2437 20.5187 47.0461 20.325 47.7634 19.9431C48.0658 19.7598 48.323 19.5106 48.5158 19.2142C48.7087 18.9177 48.8321 18.5816 48.8771 18.2309C48.9221 17.8801 48.8874 17.5237 48.7756 17.1882C48.6639 16.8527 48.4779 16.5468 48.2315 16.2931C46.9282 15.0918 44.7898 15.6489 43.5079 16.5743C42.3319 17.4191 41.3701 18.5276 40.6996 19.811C39.8062 21.4225 39.1958 23.1752 38.895 24.993C38.8282 25.2676 38.8695 25.5573 39.0104 25.8023C39.1513 26.0473 39.3809 26.2288 39.6518 26.3092C39.9245 26.3825 40.2151 26.3454 40.4607 26.2059C40.7062 26.0665 40.8869 25.8359 40.9637 25.5641H40.9594Z" fill="white"/>
</g>
<defs>
<clipPath id="clip0_1742_17453">
<rect width="48.3092" height="40" fill="white" transform="translate(0.690918)"/>
</clipPath>
</defs>
</svg>
