<svg width="27" height="30" viewBox="0 0 27 30" fill="none" xmlns="http://www.w3.org/2000/svg">
<g clip-path="url(#clip0_1698_18055)">
<path d="M8.8125 1.875C10.3652 1.875 11.625 3.13418 11.625 4.6875V10.3125C11.625 11.8652 10.3652 13.125 8.8125 13.125H3.1875C1.63418 13.125 0.375 11.8652 0.375 10.3125V4.6875C0.375 3.13418 1.63418 1.875 3.1875 1.875H8.8125ZM7.875 5.625H4.125V9.375H7.875V5.625ZM8.8125 16.875C10.3652 16.875 11.625 18.1348 11.625 19.6875V25.3125C11.625 26.8652 10.3652 28.125 8.8125 28.125H3.1875C1.63418 28.125 0.375 26.8652 0.375 25.3125V19.6875C0.375 18.1348 1.63418 16.875 3.1875 16.875H8.8125ZM7.875 20.625H4.125V24.375H7.875V20.625ZM15.375 4.6875C15.375 3.13418 16.6348 1.875 18.1875 1.875H23.8125C25.3652 1.875 26.625 3.13418 26.625 4.6875V10.3125C26.625 11.8652 25.3652 13.125 23.8125 13.125H18.1875C16.6348 13.125 15.375 11.8652 15.375 10.3125V4.6875ZM19.125 9.375H22.875V5.625H19.125V9.375ZM21 26.25H22.875V28.125H21V26.25ZM26.625 28.125H24.75V26.25H26.625V28.125ZM24.75 16.875H26.625V24.375H21V22.5H19.125V28.125H15.375V16.875H21V18.75H24.75V16.875Z" fill="#F3CBC7"/>
</g>
<defs>
<clipPath id="clip0_1698_18055">
<rect width="26.25" height="30" fill="white" transform="translate(0.375)"/>
</clipPath>
</defs>
</svg>
