<svg width="31" height="30" viewBox="0 0 31 30" fill="none" xmlns="http://www.w3.org/2000/svg">
<g clip-path="url(#clip0_1698_18072)">
<path d="M24.5 10.5C26.5709 10.5 28.25 8.82094 28.25 6.75C28.25 4.67906 26.5719 3 24.5 3C22.4291 3 20.75 4.67906 20.75 6.75C20.75 8.82094 22.4281 10.5 24.5 10.5ZM6.5 10.5C8.57094 10.5 10.25 8.82094 10.25 6.75C10.25 4.67906 8.57187 3 6.5 3C4.42906 3 2.75 4.67906 2.75 6.75C2.75 8.82094 4.42906 10.5 6.5 10.5ZM15.4953 18C18.1864 18 20.3281 15.8175 20.3281 13.125C20.3281 10.4325 18.1466 8.25 15.4953 8.25C12.8042 8.25 10.6625 10.4325 10.6625 13.125C10.6203 15.8156 12.8047 18 15.4953 18ZM17.75 21.75C17.75 20.9677 17.9093 20.2284 18.154 19.53C18.0453 19.5234 17.9469 19.5 17.8391 19.5H13.1609C9.48125 19.5 6.5 22.2984 6.5 25.7484C6.5 26.4422 7.09531 27 7.83125 27H20.3047C18.7578 25.7625 17.75 23.8828 17.75 21.75ZM9.12031 13.125C9.12031 12.8696 9.16636 12.6267 9.19573 12.3792C8.68437 12.0984 8.12187 12 7.52656 12H4.62875C2.34875 12 0.5 13.9594 0.5 16.3734C0.5 16.8562 0.869703 17.25 1.32594 17.25H10.6775C9.72031 16.1344 9.12031 14.7047 9.12031 13.125ZM26.3703 12H23.4716C22.8716 12 22.3053 12.1424 21.7906 12.3863C21.8188 12.6328 21.8656 12.8719 21.8656 13.125C21.8656 14.1314 21.602 15.0647 21.1789 15.9066C22.1656 15.3469 23.2859 15 24.5 15C26.4912 15 28.2627 15.8784 29.4969 17.25H29.6729C30.1297 17.25 30.5 16.8562 30.5 16.3734C30.5 13.9594 28.6531 12 26.3703 12ZM29.4734 20.1891C29.2379 19.4386 28.8364 18.7537 28.3133 18.187C28.2348 18.0998 28.1039 18.078 27.9993 18.1391L27.1007 18.658C26.7212 18.3352 26.285 18.0824 25.814 17.9164V16.8328C25.814 16.715 25.7267 16.6103 25.6133 16.5885C24.837 16.4139 24.043 16.4183 23.3014 16.5885C23.2297 16.65 23.1453 16.7578 23.1453 16.8328V17.8753C22.6742 18.0411 22.2378 18.294 21.8586 18.6169L20.9558 18.098C20.8555 18.0369 20.7246 18.0587 20.6419 18.1459C20.1183 18.7131 19.717 19.398 19.4859 20.148C19.451 20.2657 19.499 20.3878 19.5994 20.4445L20.498 20.9681C20.4108 21.4565 20.4108 21.9623 20.498 22.4512L19.5994 22.9748C19.4946 23.0315 19.451 23.1537 19.4859 23.2714C19.7171 24.0219 20.1183 24.702 20.6419 25.2735C20.7246 25.3608 20.8513 25.3826 20.9558 25.3215L21.8586 24.8026C22.238 25.1254 22.6742 25.3782 23.1453 25.5442V26.5867C23.1453 26.7045 23.2283 26.8091 23.3416 26.8309C24.1226 27.0054 24.9119 27.001 25.6535 26.8309C25.7669 26.8091 25.8542 26.7045 25.8542 26.5867V25.5442C26.3253 25.3785 26.7617 25.1255 27.1409 24.8026L28.0395 25.3215C28.1398 25.3826 28.275 25.3608 28.3535 25.2735C28.8771 24.7063 29.2783 24.0219 29.5137 23.2714C29.5485 23.1537 29.5007 23.0315 29.3959 22.9748L28.4973 22.4512C28.5889 21.9628 28.5889 21.4565 28.4973 20.9681L29.3959 20.4445C29.5016 20.4281 29.5484 20.3063 29.4734 20.1891ZM24.5 23.25C23.6717 23.25 23 22.5783 23 21.75C23 20.9217 23.6717 20.25 24.5 20.25C25.3283 20.25 26 20.9217 26 21.75C26 22.5797 25.3297 23.25 24.5 23.25Z" fill="#F3CBC7"/>
</g>
<defs>
<clipPath id="clip0_1698_18072">
<rect width="30" height="24" fill="white" transform="translate(0.5 3)"/>
</clipPath>
</defs>
</svg>
