<svg width="39" height="41" viewBox="0 0 39 41" fill="none" xmlns="http://www.w3.org/2000/svg">
<g clip-path="url(#clip0_1698_18604)">
<path d="M34.8635 36.1376H4.44235C4.04876 36.1367 3.66496 36.0149 3.34288 35.7887C3.0208 35.5625 2.77601 35.2428 2.64163 34.8728L0.823525 29.8429C0.605536 29.2389 0.536141 28.5914 0.621181 27.955C0.706222 27.3186 0.943197 26.712 1.31211 26.1865C1.68102 25.6609 2.17102 25.232 2.74068 24.9357C3.31034 24.6395 3.94294 24.4848 4.58502 24.4846H34.9961C35.6547 24.4847 36.3031 24.6473 36.8837 24.9581C37.4643 25.2689 37.9592 25.7183 38.3245 26.2663C38.6897 26.8143 38.914 27.444 38.9775 28.0995C39.0409 28.7551 38.9415 29.4161 38.6881 30.0239L36.6285 34.9625C36.4832 35.3107 36.238 35.6081 35.9239 35.8172C35.6098 36.0264 35.2409 36.1379 34.8635 36.1376ZM4.58775 26.3887C4.25134 26.3888 3.91991 26.4698 3.62145 26.625C3.32299 26.7803 3.0663 27.0051 2.87308 27.2805C2.67986 27.5559 2.55577 27.8737 2.51135 28.2072C2.46692 28.5407 2.50346 28.8799 2.61785 29.1963L4.43503 34.2262L34.8635 34.2327C34.8656 34.2328 34.8678 34.2322 34.8696 34.2311C34.8714 34.2299 34.8728 34.2282 34.8735 34.2262L36.9331 29.2877C37.0659 28.9693 37.1181 28.623 37.0849 28.2795C37.0517 27.9361 36.9342 27.6062 36.7428 27.319C36.5514 27.0319 36.2921 26.7965 35.9879 26.6338C35.6836 26.471 35.3439 26.3858 34.9989 26.3859L4.58775 26.3887Z" fill="white"/>
<path d="M24.2129 26.3887H15.6062C15.3719 26.3886 15.1458 26.3022 14.9712 26.146C14.7966 25.9897 14.6857 25.7747 14.6596 25.5419L12.6998 7.82087C12.6958 7.78595 12.6937 7.75085 12.6934 7.71571C12.7147 5.81594 13.4844 4.00122 14.8354 2.66538C16.1864 1.32954 18.0096 0.580322 19.9095 0.580322C21.8094 0.580322 23.6326 1.32954 24.9836 2.66538C26.3346 4.00122 27.1043 5.81594 27.1257 7.71571C27.1257 7.75083 27.1238 7.78593 27.1202 7.82087L25.1594 25.5419C25.1335 25.7748 25.0226 25.9899 24.848 26.1462C24.6734 26.3024 24.4472 26.3888 24.2129 26.3887ZM16.4585 24.4846H23.3605L25.2216 7.66539C25.2216 6.25665 24.662 4.90562 23.6659 3.9095C22.6697 2.91338 21.3187 2.35377 19.91 2.35377C18.5012 2.35377 17.1502 2.91338 16.1541 3.9095C15.158 4.90562 14.5983 6.25665 14.5983 7.66539L16.4585 24.4846Z" fill="white"/>
<path d="M34.3084 40.4981H5.2792C5.0267 40.4981 4.78453 40.3978 4.60599 40.2192C4.42745 40.0407 4.32715 39.7985 4.32715 39.546C4.32715 39.2935 4.42745 39.0514 4.60599 38.8728C4.78453 38.6943 5.0267 38.594 5.2792 38.594H34.3084C34.5609 38.594 34.8031 38.6943 34.9816 38.8728C35.1601 39.0514 35.2604 39.2935 35.2604 39.546C35.2604 39.7985 35.1601 40.0407 34.9816 40.2192C34.8031 40.3978 34.5609 40.4981 34.3084 40.4981Z" fill="white"/>
</g>
<defs>
<clipPath id="clip0_1698_18604">
<rect width="38.4105" height="40" fill="white" transform="translate(0.589355 0.5)"/>
</clipPath>
</defs>
</svg>
