<svg width="27" height="25" viewBox="0 0 27 25" fill="none" xmlns="http://www.w3.org/2000/svg">
<path d="M26.6285 10.9335C26.6285 10.9065 26.6285 10.8785 26.6235 10.8505C26.6206 10.815 26.6142 10.7798 26.6045 10.7455L24.4165 2.67352C24.2803 2.17266 23.9833 1.73041 23.5711 1.41492C23.159 1.09943 22.6545 0.928169 22.1355 0.927492H4.69451C4.16671 0.926794 3.65391 1.10307 3.23806 1.4281C2.82221 1.75313 2.52732 2.20818 2.40052 2.72052L0.400518 10.7575C0.392081 10.7964 0.386064 10.8358 0.382512 10.8755C0.317006 11.7636 0.561177 12.6471 1.07351 13.3755V24.0755H10.9645C11.0442 24.0755 11.1232 24.0598 11.1968 24.0293C11.2705 23.9988 11.3373 23.9541 11.3937 23.8977C11.4501 23.8413 11.4948 23.7745 11.5253 23.7008C11.5558 23.6272 11.5715 23.5482 11.5715 23.4685V18.4395C11.5715 18.3727 11.5981 18.3086 11.6453 18.2613C11.6926 18.214 11.7567 18.1875 11.8235 18.1875H15.6855C15.7187 18.1874 15.7516 18.1938 15.7823 18.2064C15.813 18.219 15.8408 18.2376 15.8644 18.261C15.8879 18.2844 15.9065 18.3122 15.9192 18.3428C15.932 18.3735 15.9385 18.4063 15.9385 18.4395V23.4685C15.9385 23.6295 16.0025 23.7839 16.1163 23.8977C16.2301 24.0115 16.3845 24.0755 16.5455 24.0755H25.9345V13.3845C26.4268 12.665 26.6705 11.8043 26.6285 10.9335V10.9335ZM1.58651 11.0005L3.57752 3.01349C3.63928 2.76412 3.78291 2.54267 3.98542 2.38458C4.18793 2.22649 4.4376 2.14094 4.69451 2.14154H22.1355C22.3881 2.14197 22.6335 2.22524 22.8342 2.3786C23.0349 2.53196 23.1798 2.74695 23.2465 2.99054L25.4175 11.0045C25.4434 11.5814 25.2893 12.1521 24.9765 12.6375C24.8766 12.7093 24.801 12.8097 24.7595 12.9255C24.4755 13.2563 24.1121 13.5095 23.7035 13.6615C23.0474 13.9266 22.3153 13.9341 21.6539 13.6824C20.9925 13.4308 20.4505 12.9387 20.1365 12.3045C20.0867 12.2026 20.0094 12.1167 19.9132 12.0566C19.817 11.9965 19.7059 11.9646 19.5925 11.9645V11.9645C19.4791 11.9646 19.368 11.9963 19.2716 12.0562C19.1753 12.1161 19.0977 12.2018 19.0475 12.3035C18.8175 12.7703 18.4615 13.1633 18.0196 13.4382C17.5778 13.713 17.0679 13.8587 16.5475 13.8587C16.0272 13.8587 15.5172 13.713 15.0754 13.4382C14.6336 13.1633 14.2775 12.7703 14.0475 12.3035C13.9976 12.2018 13.9202 12.1161 13.824 12.0562C13.7279 11.9963 13.6168 11.9645 13.5035 11.9645C13.3902 11.9645 13.2792 11.9963 13.183 12.0562C13.0869 12.1161 13.0094 12.2018 12.9595 12.3035C12.7295 12.7703 12.3735 13.1633 11.9316 13.4382C11.4898 13.713 10.9799 13.8587 10.4595 13.8587C9.93917 13.8587 9.42922 13.713 8.98739 13.4382C8.54556 13.1633 8.18949 12.7703 7.95951 12.3035C7.90933 12.2018 7.8317 12.1161 7.73539 12.0562C7.63908 11.9963 7.52793 11.9646 7.41451 11.9645V11.9645C7.30118 11.965 7.19023 11.997 7.09412 12.0571C6.99802 12.1171 6.92058 12.2028 6.87052 12.3045C6.56494 12.9138 6.04863 13.3916 5.41746 13.6491C4.78628 13.9066 4.08311 13.9263 3.43851 13.7045C2.97252 13.5534 2.55728 13.2765 2.23852 12.9045C2.19715 12.8005 2.12796 12.7098 2.03852 12.6425C1.71156 12.1597 1.5527 11.5826 1.58651 11.0005V11.0005ZM17.1515 22.8585V18.4365C17.1513 18.0478 16.9967 17.6751 16.7218 17.4002C16.447 17.1253 16.0742 16.9708 15.6855 16.9705H11.8235C11.4349 16.9711 11.0623 17.1256 10.7875 17.4005C10.5127 17.6753 10.358 18.0479 10.3575 18.4365V22.8585H2.28351V14.5055C2.53015 14.6538 2.79284 14.7735 3.06652 14.8625C3.82785 15.1181 4.64805 15.1412 5.42258 14.929C6.19711 14.7167 6.8909 14.2786 7.41552 13.6705C7.79169 14.11 8.25854 14.4627 8.784 14.7046C9.30946 14.9465 9.88105 15.0717 10.4595 15.0717C11.038 15.0717 11.6096 14.9465 12.135 14.7046C12.6605 14.4627 13.1273 14.11 13.5035 13.6705C13.8798 14.1095 14.3465 14.4618 14.8718 14.7034C15.3971 14.9449 15.9684 15.07 16.5465 15.07C17.1247 15.07 17.696 14.9449 18.2212 14.7034C18.7465 14.4618 19.2132 14.1095 19.5895 13.6705C19.9618 14.1118 20.4266 14.466 20.9508 14.7079C21.4751 14.9498 22.0461 15.0736 22.6235 15.0705C23.1357 15.0692 23.6435 14.9771 24.1235 14.7985C24.3313 14.7213 24.532 14.6262 24.7235 14.5145V22.8575L17.1515 22.8585Z" fill="white"/>
</svg>
