<svg width="48" height="41" viewBox="0 0 48 41" fill="none" xmlns="http://www.w3.org/2000/svg">
<g clip-path="url(#clip0_1698_18587)">
<path d="M46.9248 16.8403C46.7835 16.8405 46.6436 16.8127 46.5131 16.7588C46.3825 16.7048 46.2639 16.6257 46.1639 16.5258C46.064 16.426 45.9847 16.3074 45.9306 16.1769C45.8765 16.0464 45.8487 15.9065 45.8487 15.7652V6.65123H36.5053L33.8513 10.7748C33.7539 10.9262 33.6201 11.0507 33.4622 11.1369C33.3042 11.2231 33.1271 11.2683 32.9472 11.2683C32.7672 11.2683 32.5901 11.2231 32.4321 11.1369C32.2742 11.0507 32.1404 10.9262 32.043 10.7748L29.389 6.65123H2.81383V15.7652C2.80509 16.0447 2.68793 16.3098 2.48717 16.5043C2.28641 16.6989 2.0178 16.8077 1.73821 16.8077C1.45863 16.8077 1.19002 16.6989 0.989258 16.5043C0.788497 16.3098 0.671338 16.0447 0.662598 15.7652V5.57509C0.662876 5.28986 0.776383 5.01642 0.978167 4.81483C1.17995 4.61324 1.45352 4.5 1.73874 4.5H29.9718C30.1516 4.50018 30.3285 4.54544 30.4864 4.63162C30.6442 4.71781 30.778 4.84216 30.8754 4.99335L32.9435 8.20599L35.0095 4.99335C35.107 4.84201 35.2409 4.71756 35.3989 4.63136C35.557 4.54517 35.7341 4.5 35.9141 4.5H46.9248C47.2099 4.50028 47.4831 4.61366 47.6847 4.81522C47.8863 5.01677 47.9996 5.29004 47.9999 5.57509V15.7652C47.9999 15.9064 47.9721 16.0462 47.918 16.1766C47.864 16.3071 47.7848 16.4256 47.685 16.5254C47.5852 16.6253 47.4667 16.7044 47.3362 16.7585C47.2058 16.8125 47.066 16.8403 46.9248 16.8403Z" fill="white"/>
<path d="M46.9249 36.5H35.9142C35.734 36.5 35.5568 36.4547 35.3987 36.3683C35.2407 36.2819 35.1068 36.1572 35.0095 36.0056L32.9435 32.7909L30.8764 36.0056C30.7791 36.1571 30.6452 36.2818 30.4872 36.3682C30.3291 36.4546 30.1519 36.4999 29.9718 36.5H1.73878C1.45337 36.5 1.17965 36.3866 0.977835 36.1848C0.776021 35.983 0.662635 35.7093 0.662635 35.4238V25.2348C0.658129 25.0907 0.682631 24.9472 0.734657 24.8127C0.786684 24.6783 0.865183 24.5557 0.965508 24.4522C1.06583 24.3486 1.18593 24.2664 1.31867 24.2102C1.45141 24.154 1.5941 24.125 1.73825 24.125C1.8824 24.125 2.02509 24.154 2.15783 24.2102C2.29058 24.2664 2.41067 24.3486 2.51099 24.4522C2.61132 24.5557 2.68983 24.6783 2.74186 24.8127C2.79389 24.9472 2.81837 25.0907 2.81387 25.2348V34.3509H29.3838L32.0378 30.2231C32.1354 30.0715 32.2695 29.9469 32.4277 29.8605C32.5859 29.7741 32.7633 29.7288 32.9435 29.7286C33.1236 29.7289 33.3008 29.7742 33.4588 29.8606C33.6169 29.947 33.7508 30.0716 33.8482 30.2231L36.5054 34.3509H45.8529V25.2369C45.8529 25.0956 45.8807 24.9558 45.9348 24.8253C45.9888 24.6948 46.0681 24.5762 46.168 24.4763C46.2678 24.3764 46.3864 24.2972 46.5169 24.2431C46.6474 24.1891 46.7873 24.1613 46.9285 24.1613C47.0698 24.1613 47.2097 24.1891 47.3401 24.2431C47.4706 24.2972 47.5892 24.3764 47.6891 24.4763C47.789 24.5762 47.8682 24.6948 47.9223 24.8253C47.9763 24.9558 48.0041 25.0956 48.0041 25.2369V35.426C48.0039 35.5674 47.9757 35.7073 47.9213 35.8378C47.8669 35.9684 47.7873 36.0869 47.6871 36.1867C47.5868 36.2864 47.4679 36.3654 47.3371 36.4192C47.2064 36.473 47.0663 36.5004 46.9249 36.5Z" fill="white"/>
<path d="M32.8813 15.3854C32.74 15.3855 32.6001 15.3578 32.4696 15.3039C32.339 15.2499 32.2204 15.1707 32.1204 15.0709C32.0205 14.971 31.9412 14.8525 31.8871 14.722C31.833 14.5915 31.8052 14.4516 31.8052 14.3103V10.4591C31.8052 10.1739 31.9185 9.90028 32.1202 9.69857C32.3219 9.49685 32.5955 9.38354 32.8808 9.38354C33.166 9.38354 33.4396 9.49685 33.6413 9.69857C33.8431 9.90028 33.9564 10.1739 33.9564 10.4591V14.3103C33.9564 14.5954 33.8431 14.8689 33.6415 15.0705C33.4399 15.2721 33.1664 15.3854 32.8813 15.3854Z" fill="white"/>
<path d="M32.8813 23.9367C32.5961 23.9367 32.3225 23.8235 32.1207 23.6219C31.9189 23.4203 31.8055 23.1469 31.8052 22.8617V19.0094C31.8052 18.7242 31.9185 18.4506 32.1202 18.2489C32.3219 18.0471 32.5955 17.9338 32.8808 17.9338C33.166 17.9338 33.4396 18.0471 33.6413 18.2489C33.8431 18.4506 33.9564 18.7242 33.9564 19.0094V22.8617C33.9561 23.1467 33.8427 23.42 33.6412 23.6215C33.4396 23.8231 33.1663 23.9365 32.8813 23.9367Z" fill="white"/>
<path d="M32.8813 32.4889C32.74 32.489 32.6001 32.4613 32.4696 32.4074C32.339 32.3534 32.2204 32.2742 32.1204 32.1744C32.0205 32.0745 31.9412 31.956 31.8871 31.8255C31.833 31.695 31.8052 31.5551 31.8052 31.4138V27.5627C31.8052 27.2774 31.9185 27.0038 32.1202 26.8021C32.3219 26.6004 32.5955 26.4871 32.8808 26.4871C33.166 26.4871 33.4396 26.6004 33.6413 26.8021C33.8431 27.0038 33.9564 27.2774 33.9564 27.5627V31.4138C33.9564 31.699 33.8431 31.9724 33.6415 32.174C33.4399 32.3756 33.1664 32.4889 32.8813 32.4889Z" fill="white"/>
<path d="M1.7387 26.3099C1.45343 26.3099 1.17984 26.1966 0.978125 25.9949C0.77641 25.7932 0.663086 25.5196 0.663086 25.2343C0.663086 24.949 0.77641 24.6754 0.978125 24.4737C1.17984 24.272 1.45343 24.1587 1.7387 24.1587C2.22445 24.1669 2.70697 24.0784 3.15814 23.8982C3.6093 23.718 4.02009 23.4498 4.36651 23.1092C4.71294 22.7686 4.98808 22.3624 5.1759 21.9143C5.36372 21.4663 5.46044 20.9853 5.46044 20.4995C5.46044 20.0137 5.36372 19.5327 5.1759 19.0847C4.98808 18.6366 4.71294 18.2305 4.36651 17.8899C4.02009 17.5493 3.6093 17.2811 3.15814 17.1009C2.70697 16.9207 2.22445 16.8321 1.7387 16.8404C1.45357 16.8404 1.18011 16.7271 0.978494 16.5255C0.776877 16.3238 0.663616 16.0504 0.663616 15.7653C0.663616 15.4801 0.776877 15.2067 0.978494 15.0051C1.18011 14.8035 1.45357 14.6902 1.7387 14.6902C3.27957 14.6902 4.75733 15.3023 5.84689 16.3919C6.93645 17.4814 7.54856 18.9592 7.54856 20.5001C7.54856 22.0409 6.93645 23.5187 5.84689 24.6082C4.75733 25.6978 3.27957 26.3099 1.7387 26.3099Z" fill="white"/>
<path d="M46.9251 26.3099C45.3842 26.3099 43.9065 25.6978 42.8169 24.6082C41.7274 23.5187 41.1152 22.0409 41.1152 20.5001C41.1152 18.9592 41.7274 17.4814 42.8169 16.3919C43.9065 15.3023 45.3842 14.6902 46.9251 14.6902C47.2102 14.6902 47.4837 14.8035 47.6853 15.0051C47.8869 15.2067 48.0002 15.4801 48.0002 15.7653C48.0002 16.0504 47.8869 16.3238 47.6853 16.5255C47.4837 16.7271 47.2102 16.8404 46.9251 16.8404C46.4394 16.8321 45.9568 16.9207 45.5057 17.1009C45.0545 17.2811 44.6437 17.5493 44.2973 17.8899C43.9509 18.2305 43.6757 18.6366 43.4879 19.0847C43.3001 19.5327 43.2034 20.0137 43.2034 20.4995C43.2034 20.9853 43.3001 21.4663 43.4879 21.9143C43.6757 22.3624 43.9509 22.7686 44.2973 23.1092C44.6437 23.4498 45.0545 23.718 45.5057 23.8982C45.9568 24.0784 46.4394 24.1669 46.9251 24.1587C47.2104 24.1587 47.484 24.272 47.6857 24.4737C47.8874 24.6754 48.0007 24.949 48.0007 25.2343C48.0007 25.5196 47.8874 25.7932 47.6857 25.9949C47.484 26.1966 47.2104 26.3099 46.9251 26.3099Z" fill="white"/>
<path d="M26.512 22.0117H19.202C18.9169 22.0117 18.6434 21.8985 18.4418 21.6968C18.2402 21.4952 18.127 21.2218 18.127 20.9367C18.127 20.6515 18.2402 20.3781 18.4418 20.1765C18.6434 19.9749 18.9169 19.8616 19.202 19.8616H26.512C26.7971 19.8616 27.0706 19.9749 27.2722 20.1765C27.4738 20.3781 27.587 20.6515 27.587 20.9367C27.587 21.2218 27.4738 21.4952 27.2722 21.6968C27.0706 21.8985 26.7971 22.0117 26.512 22.0117Z" fill="white"/>
<path d="M26.9329 27.2282H12.4277C12.1483 27.2194 11.8832 27.1023 11.6886 26.9015C11.4941 26.7007 11.3853 26.4321 11.3853 26.1525C11.3853 25.873 11.4941 25.6043 11.6886 25.4036C11.8832 25.2028 12.1483 25.0857 12.4277 25.0769H26.9329C27.077 25.0724 27.2205 25.0969 27.355 25.1489C27.4894 25.201 27.612 25.2795 27.7155 25.3798C27.819 25.4801 27.9013 25.6002 27.9575 25.733C28.0137 25.8657 28.0427 26.0084 28.0427 26.1525C28.0427 26.2967 28.0137 26.4394 27.9575 26.5721C27.9013 26.7049 27.819 26.825 27.7155 26.9253C27.612 27.0256 27.4894 27.1041 27.355 27.1562C27.2205 27.2082 27.077 27.2327 26.9329 27.2282Z" fill="white"/>
</g>
<defs>
<clipPath id="clip0_1698_18587">
<rect width="47.3373" height="32" fill="white" transform="translate(0.662598 4.5)"/>
</clipPath>
</defs>
</svg>
