<svg width="21" height="20" viewBox="0 0 21 20" fill="none" xmlns="http://www.w3.org/2000/svg">
<g clip-path="url(#clip0_1698_18851)">
<path d="M12.0625 15H8.9375C8.41797 15 8 14.582 8 14.0625V7.5H4.57422C3.87891 7.5 3.53125 6.66016 4.02344 6.16797L9.96484 0.222656C10.2578 -0.0703125 10.7383 -0.0703125 11.0312 0.222656L16.9766 6.16797C17.4688 6.66016 17.1211 7.5 16.4258 7.5H13V14.0625C13 14.582 12.582 15 12.0625 15ZM20.5 14.6875V19.0625C20.5 19.582 20.082 20 19.5625 20H1.4375C0.917969 20 0.5 19.582 0.5 19.0625V14.6875C0.5 14.168 0.917969 13.75 1.4375 13.75H6.75V14.0625C6.75 15.2695 7.73047 16.25 8.9375 16.25H12.0625C13.2695 16.25 14.25 15.2695 14.25 14.0625V13.75H19.5625C20.082 13.75 20.5 14.168 20.5 14.6875ZM15.6562 18.125C15.6562 17.6953 15.3047 17.3438 14.875 17.3438C14.4453 17.3438 14.0938 17.6953 14.0938 18.125C14.0938 18.5547 14.4453 18.9062 14.875 18.9062C15.3047 18.9062 15.6562 18.5547 15.6562 18.125ZM18.1562 18.125C18.1562 17.6953 17.8047 17.3438 17.375 17.3438C16.9453 17.3438 16.5938 17.6953 16.5938 18.125C16.5938 18.5547 16.9453 18.9062 17.375 18.9062C17.8047 18.9062 18.1562 18.5547 18.1562 18.125Z" fill="#EF6079"/>
</g>
<defs>
<clipPath id="clip0_1698_18851">
<rect width="20" height="20" fill="white" transform="translate(0.5)"/>
</clipPath>
</defs>
</svg>
