<svg width="14" height="14" viewBox="0 0 14 14" fill="none" xmlns="http://www.w3.org/2000/svg">
<path d="M6.96484 7C8.89805 7 10.4648 5.4332 10.4648 3.5C10.4648 1.5668 8.89805 0 6.96484 0C5.03164 0 3.46484 1.5668 3.46484 3.5C3.46484 5.4332 5.03164 7 6.96484 7ZM9.41484 7.875H8.9582C8.35117 8.15391 7.67578 8.3125 6.96484 8.3125C6.25391 8.3125 5.58125 8.15391 4.97148 7.875H4.51484C2.48594 7.875 0.839844 9.52109 0.839844 11.55V12.6875C0.839844 13.4121 1.42773 14 2.15234 14H11.7773C12.502 14 13.0898 13.4121 13.0898 12.6875V11.55C13.0898 9.52109 11.4437 7.875 9.41484 7.875Z" fill="#EF6079"/>
</svg>
