<svg width="27" height="27" viewBox="0 0 27 27" fill="none" xmlns="http://www.w3.org/2000/svg">
<path d="M13.4994 11.9754C14.607 11.9754 15.6897 11.647 16.6106 11.0316C17.5315 10.4163 18.2493 9.5417 18.6731 8.51843C19.097 7.49517 19.2079 6.36919 18.9918 5.2829C18.7757 4.19661 18.2424 3.19876 17.4592 2.41559C16.676 1.63242 15.6782 1.09907 14.5919 0.882998C13.5056 0.66692 12.3797 0.777811 11.3564 1.20166C10.3331 1.62551 9.45851 2.34331 8.84317 3.26422C8.22783 4.18514 7.89941 5.26785 7.89941 6.37543C7.90206 7.85983 8.49291 9.28265 9.54254 10.3323C10.5922 11.3819 12.015 11.9728 13.4994 11.9754V11.9754ZM13.4994 1.98041C14.3679 1.98041 15.2168 2.23791 15.9389 2.7204C16.661 3.20289 17.2238 3.88869 17.5562 4.69104C17.8885 5.49339 17.9755 6.37626 17.806 7.22803C17.6366 8.0798 17.2184 8.86223 16.6043 9.47632C15.9902 10.0904 15.2078 10.5086 14.356 10.678C13.5043 10.8475 12.6214 10.7605 11.8191 10.4282C11.0167 10.0958 10.3309 9.53301 9.84842 8.81091C9.36593 8.08882 9.1084 7.23986 9.1084 6.3714C9.11078 5.20757 9.57417 4.09206 10.3971 3.26911C11.2201 2.44615 12.3356 1.98279 13.4994 1.98041V1.98041Z" fill="white"/>
<path d="M19.8043 19.6444C19.6433 19.6444 19.4889 19.7084 19.3751 19.8222C19.2612 19.936 19.1973 20.0904 19.1973 20.2514V25.5714C19.1973 25.7323 19.2612 25.8865 19.3749 26.0002C19.4886 26.114 19.6429 26.1779 19.8038 26.1779C19.9646 26.1779 20.1189 26.114 20.2326 26.0002C20.3464 25.8865 20.4102 25.7323 20.4102 25.5714V20.2514C20.4104 20.1717 20.3948 20.0928 20.3644 20.0192C20.334 19.9455 20.2894 19.8786 20.2331 19.8223C20.1768 19.7659 20.11 19.7211 20.0364 19.6906C19.9628 19.6601 19.8839 19.6444 19.8043 19.6444V19.6444Z" fill="white"/>
<path d="M7.19492 19.6444C7.03393 19.6444 6.87952 19.7084 6.76569 19.8222C6.65185 19.936 6.58789 20.0904 6.58789 20.2514V25.5714C6.58789 25.7324 6.65185 25.8868 6.76569 26.0006C6.87952 26.1144 7.03393 26.1784 7.19492 26.1784C7.3559 26.1784 7.51028 26.1144 7.62411 26.0006C7.73795 25.8868 7.80191 25.7324 7.80191 25.5714V20.2514C7.80191 20.0904 7.73795 19.936 7.62411 19.8222C7.51028 19.7084 7.3559 19.6444 7.19492 19.6444V19.6444Z" fill="white"/>
<path d="M13.4995 12.8513C10.1135 12.8563 6.86774 14.204 4.47388 16.5986C2.08001 18.9932 0.73346 22.2394 0.729492 25.6254C0.729492 25.7862 0.793394 25.9405 0.907135 26.0542C1.02088 26.1679 1.17514 26.2318 1.336 26.2318C1.49685 26.2318 1.65112 26.1679 1.76486 26.0542C1.8786 25.9405 1.9425 25.7862 1.9425 25.6254C1.97085 22.5777 3.20142 19.6644 5.36655 17.5193C7.53167 15.3743 10.4562 14.1708 13.504 14.1708C16.5518 14.1708 19.4764 15.3743 21.6415 17.5193C23.8066 19.6644 25.0371 22.5777 25.0655 25.6254C25.0655 25.7864 25.1295 25.9407 25.2433 26.0546C25.3571 26.1684 25.5115 26.2324 25.6725 26.2324C25.8335 26.2324 25.9879 26.1684 26.1017 26.0546C26.2155 25.9407 26.2795 25.7864 26.2795 25.6254C26.2755 22.2377 24.9276 18.9899 22.5316 16.595C20.1356 14.2001 16.8872 12.8537 13.4995 12.8513Z" fill="white"/>
</svg>
