<svg width="18" height="14" viewBox="0 0 18 14" fill="none" xmlns="http://www.w3.org/2000/svg">
<g clip-path="url(#clip0_1698_20448)">
<path d="M9.24727 8.75C10.8171 8.75 12.0664 7.47687 12.0664 5.90625C12.0664 4.33563 10.7938 3.0625 9.24727 3.0625C7.67746 3.0625 6.42812 4.33563 6.42812 5.90625C6.40352 7.47578 7.67773 8.75 9.24727 8.75ZM10.6145 9.625H7.88555C5.73906 9.625 4 11.2574 4 13.2699C4 13.6746 4.34727 14 4.77656 14H13.7234C14.1527 14 14.5 13.6746 14.5 13.2699C14.5 11.2574 12.7609 9.625 10.6145 9.625ZM14.5 4.375C15.708 4.375 16.6875 3.39555 16.6875 2.1875C16.6875 0.979453 15.7086 0 14.5 0C13.292 0 12.3125 0.979453 12.3125 2.1875C12.3125 3.39555 13.2914 4.375 14.5 4.375ZM5.52852 5.90625C5.52852 5.75725 5.55538 5.61559 5.57251 5.47121C5.27422 5.30742 4.94609 5.25 4.59883 5.25H2.90844C1.57844 5.25 0.5 6.39297 0.5 7.80117C0.5 8.08281 0.71566 8.3125 0.981797 8.3125H6.43687C5.87852 7.66172 5.52852 6.82773 5.52852 5.90625ZM4 4.375C5.20805 4.375 6.1875 3.39555 6.1875 2.1875C6.1875 0.979453 5.20859 0 4 0C2.79195 0 1.8125 0.979453 1.8125 2.1875C1.8125 3.39555 2.79195 4.375 4 4.375ZM15.591 5.25H13.9001C13.5501 5.25 13.2198 5.33304 12.9195 5.47531C12.9359 5.61914 12.9633 5.75859 12.9633 5.90625C12.9633 6.82801 12.6138 7.66199 12.0566 8.3125H17.5171C17.784 8.3125 18 8.08281 18 7.80117C18 6.39297 16.9227 5.25 15.591 5.25Z" fill="white"/>
</g>
<defs>
<clipPath id="clip0_1698_20448">
<rect width="17.5" height="14" fill="white" transform="translate(0.5)"/>
</clipPath>
</defs>
</svg>
