<svg width="31" height="30" viewBox="0 0 31 30" fill="none" xmlns="http://www.w3.org/2000/svg">
<g clip-path="url(#clip0_1698_18619)">
<path d="M19.6426 23.6543C18.3535 24.1172 16.9531 24.375 15.5 24.375C14.0469 24.375 12.6465 24.1172 11.3574 23.6543C11.2871 23.6484 11.3223 23.6426 11.3105 23.6367C9.54688 22.9922 7.97656 21.9492 6.70508 20.625C4.60391 18.4336 3.3125 15.4629 3.3125 12.1875C3.3125 5.45625 8.76758 0 15.5 0C22.2324 0 27.6875 5.45625 27.6875 12.1875C27.6875 15.4629 26.3457 18.4336 24.2949 20.625C24.2363 20.6836 24.1777 20.748 24.1191 20.8066C22.8652 22.0547 21.3418 23.0391 19.6426 23.6543ZM14.3223 6.50977V6.91406C13.9941 6.98438 13.6309 7.08398 13.3906 7.21289C12.5176 7.61133 11.7559 8.34961 11.5684 9.42188C11.4629 10.0195 11.5215 10.5996 11.7676 11.1211C12.0137 11.6367 12.3945 12 12.7812 12.2637C13.4609 12.7266 14.3574 12.9961 15.043 13.2012L15.1719 13.2363C15.9922 13.4883 16.543 13.6699 16.8887 13.9219C17.0352 14.0273 17.0879 14.1094 17.1055 14.1621C17.1289 14.209 17.1641 14.3145 17.123 14.5488C17.0879 14.7539 16.9766 14.9297 16.6543 15.0645C16.2969 15.2168 15.7168 15.293 14.9668 15.1758C14.6152 15.1172 13.9883 14.9062 13.4316 14.7188C13.3027 14.6719 13.1738 14.6309 13.0566 14.5898C12.4414 14.3848 11.7793 14.7188 11.5742 15.334C11.3691 15.9492 11.7031 16.6113 12.3184 16.7637C12.3887 16.8398 12.4766 16.8691 12.5762 16.9043C12.9863 17.0625 13.7656 17.3086 14.3223 17.4375V17.8125C14.3223 18.4629 14.8496 18.9902 15.4473 18.9902C16.1504 18.9902 16.6777 18.4629 16.6777 17.8125V17.4902C16.9883 17.4316 17.293 17.291 17.5742 17.2207C18.5 16.8281 19.2383 16.0664 19.4316 14.9531C19.5371 14.3438 19.4902 13.7578 19.2559 13.2246C19.0273 12.6973 18.6582 12.3105 18.2656 12.0293C17.5566 11.5078 16.6074 11.2266 15.8984 11.0098L15.7988 10.998C15.0195 10.7461 14.457 10.5703 14.0996 10.3242C13.9473 10.2188 13.9004 10.1484 13.8887 10.1191C13.877 10.0957 13.8418 10.0254 13.877 9.82617C13.9004 9.70898 13.9883 9.51562 14.3574 9.35156C14.6855 9.18164 15.3184 9.08789 16.0332 9.14648C16.291 9.24023 17.082 9.39258 17.3105 9.45117C17.9316 9.62109 18.5762 9.24609 18.7402 8.61914C18.9102 7.99805 18.5352 7.35352 17.9082 7.18945C17.6504 7.11914 17.0645 7.00195 16.6777 6.93164V6.5625C16.6777 5.91211 16.1504 5.38477 15.5 5.38477C14.8496 5.38477 14.3223 5.91211 14.3223 6.5625V6.50977ZM3.3125 20.625H4.24883C5.38848 22.1426 6.82812 23.4199 8.48047 24.375H4.25V26.25H26.75V24.375H22.5195C24.1191 23.4199 25.6133 22.1426 26.75 20.625H27.6875C29.2402 20.625 30.5 21.8848 30.5 23.4375V27.1875C30.5 28.7402 29.2402 30 27.6875 30H3.3125C1.75918 30 0.5 28.7402 0.5 27.1875V23.4375C0.5 21.8848 1.75918 20.625 3.3125 20.625Z" fill="#F3CBC7"/>
</g>
<defs>
<clipPath id="clip0_1698_18619">
<rect width="30" height="30" fill="white" transform="translate(0.5)"/>
</clipPath>
</defs>
</svg>
