<svg width="21" height="20" viewBox="0 0 21 20" fill="none" xmlns="http://www.w3.org/2000/svg">
<g clip-path="url(#clip0_1742_17580)">
<path d="M13.2617 15.7695C12.4023 16.0781 11.4688 16.25 10.5 16.25C9.53125 16.25 8.59766 16.0781 7.73828 15.7695C7.69141 15.7656 7.71484 15.7617 7.70703 15.7578C6.53125 15.3281 5.48438 14.6328 4.63672 13.75C3.23594 12.2891 2.375 10.3086 2.375 8.125C2.375 3.6375 6.01172 0 10.5 0C14.9883 0 18.625 3.6375 18.625 8.125C18.625 10.3086 17.7305 12.2891 16.3633 13.75C16.3242 13.7891 16.2852 13.832 16.2461 13.8711C15.4102 14.7031 14.3945 15.3594 13.2617 15.7695ZM9.71484 4.33984V4.60938C9.49609 4.65625 9.25391 4.72266 9.09375 4.80859C8.51172 5.07422 8.00391 5.56641 7.87891 6.28125C7.80859 6.67969 7.84766 7.06641 8.01172 7.41406C8.17578 7.75781 8.42969 8 8.6875 8.17578C9.14062 8.48438 9.73828 8.66406 10.1953 8.80078L10.2812 8.82422C10.8281 8.99219 11.1953 9.11328 11.4258 9.28125C11.5234 9.35156 11.5586 9.40625 11.5703 9.44141C11.5859 9.47266 11.6094 9.54297 11.582 9.69922C11.5586 9.83594 11.4844 9.95312 11.2695 10.043C11.0313 10.1445 10.6445 10.1953 10.1445 10.1172C9.91016 10.0781 9.49219 9.9375 9.12109 9.8125C9.03516 9.78125 8.94922 9.75391 8.87109 9.72656C8.46094 9.58984 8.01953 9.8125 7.88281 10.2227C7.74609 10.6328 7.96875 11.0742 8.37891 11.1758C8.42578 11.2266 8.48438 11.2461 8.55078 11.2695C8.82422 11.375 9.34375 11.5391 9.71484 11.625V11.875C9.71484 12.3086 10.0664 12.6602 10.4648 12.6602C10.9336 12.6602 11.2852 12.3086 11.2852 11.875V11.6602C11.4922 11.6211 11.6953 11.5273 11.8828 11.4805C12.5 11.2188 12.9922 10.7109 13.1211 9.96875C13.1914 9.5625 13.1602 9.17188 13.0039 8.81641C12.8516 8.46484 12.6055 8.20703 12.3438 8.01953C11.8711 7.67188 11.2383 7.48438 10.7656 7.33984L10.6992 7.33203C10.1797 7.16406 9.80469 7.04688 9.56641 6.88281C9.46484 6.8125 9.43359 6.76562 9.42578 6.74609C9.41797 6.73047 9.39453 6.68359 9.41797 6.55078C9.43359 6.47266 9.49219 6.34375 9.73828 6.23438C9.95703 6.12109 10.3789 6.05859 10.8555 6.09766C11.0273 6.16016 11.5547 6.26172 11.707 6.30078C12.1211 6.41406 12.5508 6.16406 12.6602 5.74609C12.7734 5.33203 12.5234 4.90234 12.1055 4.79297C11.9336 4.74609 11.543 4.66797 11.2852 4.62109V4.375C11.2852 3.94141 10.9336 3.58984 10.5 3.58984C10.0664 3.58984 9.71484 3.94141 9.71484 4.375V4.33984ZM2.375 13.75H2.99922C3.75898 14.7617 4.71875 15.6133 5.82031 16.25H3V17.5H18V16.25H15.1797C16.2461 15.6133 17.2422 14.7617 18 13.75H18.625C19.6602 13.75 20.5 14.5898 20.5 15.625V18.125C20.5 19.1602 19.6602 20 18.625 20H2.375C1.33945 20 0.5 19.1602 0.5 18.125V15.625C0.5 14.5898 1.33945 13.75 2.375 13.75Z" fill="white"/>
</g>
<defs>
<clipPath id="clip0_1742_17580">
<rect width="20" height="20" fill="white" transform="translate(0.5)"/>
</clipPath>
</defs>
</svg>
