<svg width="14" height="20" viewBox="0 0 14 20" fill="none" xmlns="http://www.w3.org/2000/svg">
<g clip-path="url(#clip0_1246_31423)">
<path d="M12.8828 14.1172C13.3711 14.6055 13.3711 15.3965 12.8828 15.8848C12.6406 16.1289 12.3203 16.25 12 16.25C11.6797 16.25 11.3602 16.1279 11.1164 15.8838L7 11.7695L2.88398 15.8828C2.63984 16.1289 2.31992 16.25 2 16.25C1.68008 16.25 1.36055 16.1289 1.11621 15.8828C0.62793 15.3945 0.62793 14.6035 1.11621 14.1152L5.2334 9.99804L1.11621 5.88281C0.62793 5.39453 0.62793 4.60352 1.11621 4.11523C1.60449 3.62695 2.39551 3.62695 2.88379 4.11523L7 8.23437L11.1172 4.11719C11.6055 3.62891 12.3965 3.62891 12.8848 4.11719C13.373 4.60547 13.373 5.39648 12.8848 5.88476L8.76758 10.0019L12.8828 14.1172Z" fill="#EB5757"/>
</g>
<defs>
<clipPath id="clip0_1246_31423">
<rect width="12.5" height="20" fill="white" transform="translate(0.75)"/>
</clipPath>
</defs>
</svg>
